<?xml version="1.0" encoding="UTF-8"?>
<svg id="Layer_1" data-name="Layer 1" xmlns="http://www.w3.org/2000/svg" viewBox="0 0 613.36 504.57">
  <defs>
    <style>
      .cls-1, .cls-2 {
        stroke-width: 0px;
      }

      .cls-2, .cls-3 {
        fill: #c3ffc1;
      }

      .cls-3 {
        stroke: #000;
        stroke-miterlimit: 10;
        stroke-width: 15px;
      }
    </style>
  </defs>
  <path class="cls-3" d="M599.7,420.25c36.75-186.11-101.04-301.85-147.02-334.59-8.19-5.83-13.72-14.73-15.07-24.69-2.74-20.19-14.3-53.46-60.66-53.46-34.47,0-57.58,17.23-71.85,33.85-16.35,19.03-40.06,30.15-65.15,29.88-16.63-.18-32.42-.34-36.92-.34-10.54,0-17.99-13.83-17.99-13.83-45.67-95.03-94.48-28.1-107.92-6.23-2.07,3.36-3.89,6.88-5.45,10.51-122.26,283.9-38.47,376.88-4.1,396.52,2.27,1.3,5.39,2.4,9.45,3.54,6.11,1.71,12.33,2.99,18.6,3.88,140.1,19.9,290.38,19.14,450.25-1.07,29.24-5.07,48.81-18.62,53.82-43.97Z"/>
  <circle class="cls-1" cx="365.69" cy="72.07" r="35.44"/>
  <circle class="cls-1" cx="130.85" cy="72.07" r="35.44"/>
  <g>
    <path class="cls-2" d="M241.32,436.68s11.89,31.1-1.92,55.04c-13.81,23.93-98.31-57.73-98.31-57.73"/>
    <path class="cls-1" d="M241.32,436.68c7.99,13.5,11.3,29.4,8.44,45.15-1.14,5.27-2.83,10.81-5.98,15.37-4.58,6.17-13.31,6.92-19.8,5.25-24.45-6.1-52.45-32.13-68.99-50.72-4.94-5.66-9.7-11.47-13.89-17.74,19.13,11.78,36.52,24.81,54.92,37.11,8.66,5.71,17.61,11.7,27.09,15.71,2.98,1.2,6.91,2.68,9.8,2.05.07,0,.13-.03.19-.07.08,0,.13-.09.22-.12.09-.04.16-.19.28-.26,9.71-15.09,9.64-34.07,7.72-51.72h0Z"/>
  </g>
  <g>
    <path class="cls-2" d="M276.41,437.62s-14.03,30.41-1.92,55.04c12.11,24.63,102.15-52.34,102.15-52.34"/>
    <path class="cls-1" d="M276.41,437.62c-3.1,17.35-4.57,36.16,3.9,51.82,0,0,.14.26.14.26.03.05.05.05.08.08.1.08.15.22.24.23.06.05.12.09.19.11,1.43.56,3.89.19,5.88-.25,11.53-3.12,22.13-9.7,32.53-15.62,19.17-11.26,37.38-23.28,57.27-33.94-4.59,6.02-9.71,11.55-15.01,16.92-16.02,16.37-59.61,52.96-83.46,46.59-4-1.13-7.6-3.96-9.39-7.74-2.03-4.38-3.28-9.16-3.9-13.82-1.82-15.99,2.63-31.66,11.53-44.65h0Z"/>
  </g>
</svg>