<?xml version="1.0" encoding="UTF-8"?>
<svg id="Layer_1" data-name="Layer 1" xmlns="http://www.w3.org/2000/svg" width="767.52" height="585.14" viewBox="0 0 767.52 585.14">
  <defs>
    <style>
      .cls-1 {
        fill: #000;
      }

      .cls-1, .cls-2, .cls-3 {
        stroke-width: 0px;
      }

      .cls-4 {
        fill: none;
        stroke: #000;
        stroke-width: 9px;
      }

      .cls-4, .cls-5, .cls-6 {
        stroke-miterlimit: 10;
      }

      .cls-5 {
        fill: #072d00;
      }

      .cls-5, .cls-6 {
        stroke: #024c00;
        stroke-width: 8px;
      }

      .cls-6 {
        fill: #158800;
      }

      .cls-2 {
        fill: #d17b35;
        isolation: isolate;
        opacity: .45;
      }

      .cls-3 {
        fill: #ffaa96;
      }
    </style>
  </defs>
  <path class="cls-5" d="M190.33,105.97s-120.81-7.61-155.77,76.65C-.4,266.87,4.2,539.4,4.2,539.4h759.12s4.6-272.53-30.36-356.78-155.77-76.65-155.77-76.65"/>
  <g>
    <path class="cls-3" d="M275.53,530.4c-16.5,0-32.9-1-48.8-3-6-.7-12-1.7-17.8-2.7h-.1c-5.8-1-11.6-2.2-17.2-3.5-69.6-15.8-124.3-50.3-150-94.6-15.9-27.5-19.7-57.3-10.8-86.4l39.1-128.3c7.2-23.6,22.2-45.4,44.5-64.6,25.9-22.3,60.6-39.8,100.5-50.9.5-7.8,1.7-15.5,3.6-22.9,9.3-35.9,34.4-60,62.5-60,16.6,0,32.5,8.3,44.7,23.4,9.9,12.3,16.9,28.5,19.9,46.3h76.5c3-17.8,10-34,19.9-46.3,12.2-15.1,28-23.4,44.7-23.4,28.5,0,53.8,24.7,62.8,61.4,1.7,7,2.8,14.2,3.3,21.6,43.4,12.1,80.1,31.6,106.6,56.6,18.9,17.8,31.7,37.6,38.2,58.9l39.1,128.3c8.8,29,5.1,58.7-10.6,86-25.2,43.9-79,78.3-147.5,94.4-5.1,1.2-10.4,2.3-15.8,3.3-5.6,1.1-11.5,2-17.4,2.8-17.5,2.4-35.5,3.6-53.7,3.6h-216.2Z"/>
    <path class="cls-3" d="M486.43,22.5c25,0,46.3,22.8,54.1,54.5,2,8.3,3.2,17.1,3.2,26.4,44.5,11.5,82.6,31.1,109.2,56.2,17.2,16.2,29.6,34.8,35.8,54.9l39.1,128.3c22.6,74.3-45.8,144.2-151.5,169-5,1.2-10.2,2.3-15.4,3.2-5.6,1-11.2,2-17,2.8-16.8,2.3-34.4,3.6-52.4,3.6h-216c-16.4,0-32.3-1-47.7-2.9-5.9-.7-11.8-1.6-17.5-2.6h0c-5.7-1-11.3-2.1-16.8-3.4-107.2-24.3-177.1-94.8-154.2-169.7l39.1-128.3c6.8-22.4,21.4-42.8,41.7-60.4,26.2-22.5,62-40.2,103.4-50.7,0-9.7,1.3-19,3.5-27.6,8.1-31.1,29.1-53.3,53.8-53.3,28.8,0,52.7,30.3,56.7,69.7h92.2c4-39.4,27.9-69.7,56.7-69.7h0ZM486.43,4.5c-19.4,0-37.7,9.5-51.7,26.8-9.5,11.7-16.4,26.6-20.2,42.9h-61.8c-3.8-16.3-10.8-31.2-20.2-42.9-13.9-17.3-32.3-26.8-51.7-26.8-16.9,0-32.7,7-45.9,20.3-11.7,11.8-20.5,27.9-25.3,46.5-1.5,5.9-2.7,12-3.3,18.2-38.6,11.5-72.3,29-97.9,51-23.6,20.3-39.5,43.5-47.2,68.8l-39.1,128.3c-9.6,31.5-5.6,63.9,11.6,93.6,13.3,23,34.7,44.1,61.8,61.2,27,17,58.6,29.7,94,37.7,5.8,1.3,11.7,2.5,17.7,3.5h.2c5.9,1,12.1,2,18.2,2.7,16.3,2,33.1,3.1,49.9,3.1h216c18.6,0,37-1.3,54.9-3.7,6.1-.8,12.1-1.8,17.9-2.9,5.5-1,11-2.2,16.2-3.4,70.9-16.7,126.7-52.6,153.2-98.6,17-29.5,20.9-61.7,11.4-93.1l-39.2-128.4c-6.9-22.8-20.6-43.9-40.7-62.8-26.3-24.8-62.2-44.4-104.3-56.9-.6-5.7-1.6-11.3-3-16.8-4.7-18.9-13.4-35.3-25.2-47.4-13.2-13.7-29.2-20.9-46.3-20.9h0Z"/>
  </g>
  <path class="cls-2" d="M297.93,163.1c0,49.2-39.9,89.1-89.2,89.1s-89.1-39.9-89.1-89.1c0-3,.1-6,.4-8.9,26.2-22.5,62-40.2,103.4-50.7,0-9.7,1.3-19,3.5-27.6,8.2,1.7,16.1,4.6,23.3,8.4,15,7.9,27.5,20,35.9,34.7,7.5,12.9,11.8,28,11.8,44.1Z"/>
  <path class="cls-2" d="M652.93,163.1c0,49.2-39.9,89.1-89.2,89.1s-89.2-39.9-89.2-89.1c0-16.2,4.3-31.3,11.8-44.4,7.6-13.2,18.5-24.3,31.6-32.1,6.9-4.2,14.4-7.4,22.4-9.5,2,8.3,3.2,17.1,3.2,26.4,44.5,11.5,82.6,31.1,109.2,56.2.2,1,.2,2.2.2,3.4Z"/>
  <circle class="cls-1" cx="281.03" cy="88.3" r="31"/>
  <circle class="cls-1" cx="487.03" cy="87.7" r="31"/>
  <path class="cls-5" d="M147.8,122.71c272.45,170.65,469.52,0,469.52,0l-35.91-16.74c-200.84,140.89-395.74,0-395.74,0l-37.87,16.74Z"/>
  <g>
    <path class="cls-4" d="M275.35,530.4c-16.5,0-32.9-1-48.8-3-6-.7-12-1.7-17.8-2.7h-.1c-5.8-1-11.6-2.2-17.2-3.5-69.6-15.8-124.3-50.3-150-94.6-15.9-27.5-19.7-57.3-10.8-86.4l39.1-128.3c7.2-23.6,22.2-45.4,44.5-64.6,25.9-22.3,60.6-39.8,100.5-50.9.5-7.8,1.7-15.5,3.6-22.9,9.3-35.9,34.4-60,62.5-60,16.6,0,32.5,8.3,44.7,23.4,9.9,12.3,16.9,28.5,19.9,46.3h76.5c3-17.8,10-34,19.9-46.3,12.2-15.1,28-23.4,44.7-23.4,28.5,0,53.8,24.7,62.8,61.4,1.7,7,2.8,14.2,3.3,21.6,43.4,12.1,80.1,31.6,106.6,56.6,18.9,17.8,31.7,37.6,38.2,58.9l39.1,128.3c8.8,29,5.1,58.7-10.6,86-25.2,43.9-79,78.3-147.5,94.4-5.1,1.2-10.4,2.3-15.8,3.3-5.6,1.1-11.5,2-17.4,2.8-17.5,2.4-35.5,3.6-53.7,3.6h-216.2Z"/>
    <path class="cls-4" d="M486.25,22.5c25,0,46.3,22.8,54.1,54.5,2,8.3,3.2,17.1,3.2,26.4,44.5,11.5,82.6,31.1,109.2,56.2,17.2,16.2,29.6,34.8,35.8,54.9l39.1,128.3c22.6,74.3-45.8,144.2-151.5,169-5,1.2-10.2,2.3-15.4,3.2-5.6,1-11.2,2-17,2.8-16.8,2.3-34.4,3.6-52.4,3.6h-216c-16.4,0-32.3-1-47.7-2.9-5.9-.7-11.8-1.6-17.5-2.6h0c-5.7-1-11.3-2.1-16.8-3.4-107.2-24.3-177.1-94.8-154.2-169.7l39.1-128.3c6.8-22.4,21.4-42.8,41.7-60.4,26.2-22.5,62-40.2,103.4-50.7,0-9.7,1.3-19,3.5-27.6,8.1-31.1,29.1-53.3,53.8-53.3,28.8,0,52.7,30.3,56.7,69.7h92.2c4-39.4,27.9-69.7,56.7-69.7h0ZM486.25,4.5c-19.4,0-37.7,9.5-51.7,26.8-9.5,11.7-16.4,26.6-20.2,42.9h-61.8c-3.8-16.3-10.8-31.2-20.2-42.9-13.9-17.3-32.3-26.8-51.7-26.8-16.9,0-32.7,7-45.9,20.3-11.7,11.8-20.5,27.9-25.3,46.5-1.5,5.9-2.7,12-3.3,18.2-38.6,11.5-72.3,29-97.9,51-23.6,20.3-39.5,43.5-47.2,68.8l-39.1,128.3c-9.6,31.5-5.6,63.9,11.6,93.6,13.3,23,34.7,44.1,61.8,61.2,27,17,58.6,29.7,94,37.7,5.8,1.3,11.7,2.5,17.7,3.5h.2c5.9,1,12.1,2,18.2,2.7,16.3,2,33.1,3.1,49.9,3.1h216c18.6,0,37-1.3,54.9-3.7,6.1-.8,12.1-1.8,17.9-2.9,5.5-1,11-2.2,16.2-3.4,70.9-16.7,126.7-52.6,153.2-98.6,17-29.5,20.9-61.7,11.4-93.1l-39.2-128.4c-6.9-22.8-20.6-43.9-40.7-62.8-26.3-24.8-62.2-44.4-104.3-56.9-.6-5.7-1.6-11.3-3-16.8-4.7-18.9-13.4-35.3-25.2-47.4-13.2-13.7-29.2-20.9-46.3-20.9h0Z"/>
  </g>
  <path class="cls-3" d="M171.16,476.7s183.8,216.5,187.4,3.3l-187.4-3.3Z"/>
  <path class="cls-1" d="M175.96,472.6c29.3,28.4,95,92.8,136.5,90.3,22.9-2.2,30.1-29,34.5-48.1,2.5-11.3,3.8-23,5.2-34.9.3-3.4,3.6-6.1,7.1-5.6,3.1.3,5.5,2.8,5.6,6,1.3,16.9.6,34.6-2.8,51.7-6.6,33.1-27.4,58.4-63.9,52.2-26.2-4.9-48.1-20.2-68.2-36.2-23.8-19.7-45.1-42.1-63.8-66.9-4.4-6.8,4.2-14.1,9.8-8.5h0Z"/>
  <path class="cls-3" d="M596.66,476.6s-183.8,216.5-187.4,3.3l187.4-3.3Z"/>
  <path class="cls-1" d="M601.36,480.5c-29,38.7-82.7,94.5-131.6,103.3-24,4.4-45.3-6.6-55.8-28.5-6-12.1-8.6-24.8-10.2-37.9-1.3-12.5-1.4-25.1-.5-37.4.3-3.3,3.1-5.8,6.4-5.6,3,.2,5.3,2.5,5.6,5.5,1.4,11.9,2.7,23.7,5.3,34.9,3.3,15,8.1,32.1,19.9,42.3,31.7,25.2,101.2-38.4,125.5-59.9,8.9-8,17.7-16.3,26.2-24.6,5.3-4.9,13.5,2,9.2,7.9h0Z"/>
  <circle class="cls-6" cx="383.48" cy="186.82" r="29.96"/>
</svg>