<?xml version="1.0" encoding="UTF-8"?>
<svg id="Layer_1" data-name="Layer 1" xmlns="http://www.w3.org/2000/svg" viewBox="0 0 146.57 818.36">
  <defs>
    <style>
      .cls-1 {
        fill: #fcfbf8;
      }

      .cls-1, .cls-2, .cls-3, .cls-4, .cls-5, .cls-6, .cls-7, .cls-8, .cls-9, .cls-10, .cls-11, .cls-12, .cls-13, .cls-14, .cls-15 {
        stroke-width: 0px;
      }

      .cls-2 {
        fill: #c0a384;
      }

      .cls-3 {
        fill: #9f3c3f;
      }

      .cls-4 {
        fill: #c89a64;
      }

      .cls-5 {
        fill: #781c1f;
      }

      .cls-6 {
        fill: #daac7b;
      }

      .cls-7 {
        fill: #9f5758;
      }

      .cls-8 {
        fill: #72383a;
      }

      .cls-9 {
        fill: #f0cd9d;
      }

      .cls-10 {
        fill: #912a2d;
      }

      .cls-11 {
        fill: #af885c;
      }

      .cls-12 {
        fill: #ebbe85;
      }

      .cls-13 {
        fill: #fbf0c3;
      }

      .cls-14 {
        fill: #8c1c1d;
      }

      .cls-15 {
        fill: #700f13;
      }
    </style>
  </defs>
  <path class="cls-6" d="M106.23,195.84c-.56.42-1.12.83-1.68,1.25-1.35-.74-1.57.57-2.16,1.19-9.29,5.7-17.9,13.01-29.81,12.43-1.81-1.09-3.82,1.4-5.59-.32-1.21-2.82-3-3.63-6.25-3.05-4.88.86-9.82,1.88-14.86,1.49,1.95-2.51,3.92-5.01,2.66-8.52,1.39-.86,2.85-.34,4.33-.31,5.84.13,11.69.13,17.39-1.44,8.89-2.85,17.06-6.93,24.9-12.17,3.73-2.49,6.2-6.69,10.79-7.88-.38,3.85.29,5.32,4.37,2.72,2.87-1.83,4.06-4.85,6.45-6.93,6.44-5.6,6.57-6.52,2.11-13.49,4.09-9.78,5.92-20.22,8.89-30.32.5-1.72,1.01-3.19-.26-4.7.29-.23.58-.45.88-.66,1.45-.89,2.8-1.82,1.61-3.83,2.18-.89,3.7-3.41,6.55-2.63.21,1.16.41,2.32.62,3.48-1.37.9-2.7,1.82-1.51,3.76-.49.89-.22,1.7.23,2.5-1.76,1.3-2.17,2.85-.92,4.73.04.83.09,1.65.13,2.48-3.76,5.44-3.46,12.03-5,18.08-.52,2.04,1.53,2.12,3.09,2.04-.26,3.09-1.84,5.44-3.67,7.91-2.32,3.13-7.86,6.79-6.55,9.1,2.96,5.22-1.58,4.81-3.25,6.24-2.26,1.94-5,3.32-7.53,4.94-5.02,5.59-11.25,9.82-16.92,14.78,3.14-1.99,6.36-3.59,9.75-4.84.4.65.8,1.3,1.19,1.95Z"/>
  <path class="cls-13" d="M137.17,122.15c-.21-1.16-.41-2.32-.62-3.48,3.95-3.34.7-6.17-.64-9.13.08-2.08.47-4.2-.84-6.08,1.71-3.18-.06-6.07-.73-9.05-.91-2.11-1.82-4.22-2.73-6.33.59-4.28-2.31-7.56-3.24-11.41-1.86-2.82-3.71-5.64-5.57-8.45-.55-1.18-1.07-2.41-2.7-2.39-1.96-2.32-3.92-4.65-5.89-6.97-2.98-2.86-4.87-7.16-9.82-7.42-1.57-1.61-3.14-3.23-4.71-4.84-4.19-3.94-8.22-8.14-14.57-8.27h-.01c-.85-1.42-1.77-2.67-3.71-1.71-3.5-3.48-8.26-3.94-12.64-5.33-2.14-2.6-6.14-2.58-7.96-5.63,0,0,.02-.08.02-.08.85-.02,1.71-.04,2.56-.06.51.04,1.02.09,1.53.13,0,0,0,0,0,0,.92.66,1.73.32,2.52-.26,0,0-.02,0-.02,0,.53.12,1.06.23,1.6.35,0,0-.04,0-.04,0,.54.12,1.07.24,1.61.36,0,0-.05,0-.05,0,.54.12,1.08.24,1.61.36,0,0-.05,0-.05,0,.54.12,1.08.24,1.61.35,0,0-.05-.01-.05-.01.54.12,1.07.24,1.61.36,0,0-.04-.02-.04-.02,5.81,4.51,13.37,4.51,19.72,7.64,0,0-.04-.02-.04-.02.91,1.4,2.18,1.97,3.83,1.65,5.1-1.35,7.94,2.77,11.06,5.19,12.41,9.6,21.56,22.22,28.12,36.14,3.21,6.8,7.87,14.12,6.11,22.65-.93.89-.66,1.81-.07,2.74,0,0,0,0,0,0-1.52,7.29.39,14.71-.84,22.01-.35.73-.7,1.46-1.06,2.2-3.57,1.57-2.4-2.11-3.56-3.21-.45-.64-.9-1.28-1.35-1.92ZM140.59,96.33c-.55-5.99-2.16-10.35-4.09-14.6-5.36-11.84-10.92-23.56-21.8-31.58-1.24-.91-2.69-3.32-4.16-1.61-1.55,1.8.82,3.18,2.08,4.46,10.1,10.26,19.09,21.22,22.72,35.62.69,2.73,2.28,4.98,5.25,7.71Z"/>
  <path class="cls-9" d="M70.26,198.56c-5.71,1.57-11.55,1.58-17.39,1.44-1.47-.03-2.93-.56-4.33.31-3.75-.26-6.85-2.58-10.42-3.33-6.86-1.44-13.99-1.55-20.52-4.64-1.32-.63-3.49-3.15-4.61-.3-.74,1.89,1.77,2.27,3.35,2.9,2.07.83,4.32,1.82,3.55,4.86-4.8-.59-7.79-4.08-11.13-6.98-1.88-1.64-3.07-4.46-6.36-3.48,2.28-3.96,6.72-5.09,10.06-7.67,3.69-.26,6.73,1.25,9.99,2.86,7.2,3.56,14.72,6.42,23.07,4.55.41.61.73,1.65,1.25,1.76,1.53.31,1-1.18,1.11-1.84.74-4.35-.62-8.88,1.08-13.17,2.79,2.7.56,6.43,1.94,9.41l.02.04q-1.09,5.87,4.31,6.08c-2.92-1.21-2.82-2.9-3.12-4.45,1.89-.45,3.19,3.77,5.41.69.48,2,1.3,3.3,3.8,2.69,2.31-.57,4.72-.77,7.09-1.13.48.27.81.22.86-.41,1.01-1,2.31-.98,3.6-1,1.98,1.76,4.07-1.04,6.14-.13-1.07,4.23-3.15,7.22-7.33,8.2-1.7.4-2.13,1.23-1.41,2.75Z"/>
  <path class="cls-5" d="M59.52,352.89c-.08.34-.19.68-.34,1-3.52,2.17-7.04,4.34-10.56,6.51-.65-18.12-.53-36.25-.19-54.37,1.4,1.03,1.69,3.9,4.08,3.13,2.35-.76,1.31-3.17,1.54-4.92,1.27-9.4,4.8-18.6,2.5-28.32,2.16-.53,2.51,1.27,3.27,2.54-.07,24.45-.14,48.9-.21,73.34-.03.36-.07.72-.1,1.08Z"/>
  <path class="cls-4" d="M60.79,25.65c1.82,3.06,5.81,3.04,7.95,5.63-3.06.86-3.04,4.12-4.73,6.05-1.99.24-3.99.49-5.98.73-.87-1.2-1.92-1.39-3.14-.53-4.61.07-9.19.27-13.57,1.96-2.8-1.65-5.16-.04-7.6,1.02-2.54,1.46-5.08,2.92-7.62,4.39-.4-.56-.8-1.12-1.2-1.67-1.54-1.38-.45-3.52-1.68-5.73-4.01,2.56-7.88,5-11.72,7.5-1.85,1.2-2.29,2.83-1.2,4.8-1.57,1.27-3.62-.78-5.16.74-.26.14-.51.28-.76.43-3.24-6.26,2.22-8.63,5.51-11.64,7.37-6.74,18.03-6.72,26.08-12.17.78-.67,1.67-.96,2.69-.73,1.71.53,3.33.29,4.86-.61.63-.38,1.26-.75,1.9-1.13h-.04c4.05.86,8.1,1.74,11.34-1.99,3.36,1.2,4.21-1.6,5.6-3.52,2.04,1.36.47,4.07,2.09,5.6-.35.24-.69.48-1.04.72-.85.02-1.71.04-2.56.06-.14-.1-.27-.21-.41-.31l-.11.5c.17-.04.33-.07.5-.11ZM58.54,28.4c-.18.01-.35.02-.53.03.18-.01.35-.03.53-.04.48.56.92,1.27,1.81.86.17-.08.32-.72.19-.87-.63-.74-1.33-.27-2.01.02Z"/>
  <path class="cls-8" d="M40.8,687.17c-.88-19.25-.05-38.5-.08-57.75-.04-26.43.07-52.85.16-79.28,0-1.3.37-2.6.56-3.9,1.69,1.75,1.75,5.15,5.21,5.1-3.11,2.62,1.84,5.04.15,7.75-2.02,3.23-.6,7.03-1.23,10.33-.98,5.16,2.58,9.85.71,14.73-.9,2.35-1.1,4.6-1.19,7.07-.42,10.69.18,21.41-.35,32.03-.5,10.05-.13,20.07-.36,30.09-.24,10.62-.24,21.24-.34,31.86-1.08.65-2.16,1.31-3.24,1.96Z"/>
  <path class="cls-6" d="M39.8,744.51c-.41-2.09-2.67-4.11-.26-6.33,2.77,4.86,8.23,1.93,11.93,4.09,4.64,4.25,3.67,10.05,4.08,15.39.19,2.38-.64,4.83-.61,7.25.17,14.03.3,28.07,5.18,41.52-1.6,1.92-4,2.03-6.14,2.71-4.91-6.69-6.68-14.69-7.4-22.52-.59-6.4.43-13.06.48-19.62.06-7.49.26-14.99,1.98-22.47-1.95-.36-4.07-1.17-6.11.41-.93-.92-1.93-1.38-3.12-.43Z"/>
  <path class="cls-5" d="M51.46,742.27c-3.7-2.16-9.15.77-11.93-4.09,0,0,.16-.24.16-.24.14-.38.27-.77.41-1.16,0,0,.11-.5.11-.5,0-.41,0-.82-.01-1.24.15-11.51.3-23.02.45-34.53,2.82,1.12,5.04-.29,7.26-1.71-.07,3.28,2.55,3.9,4.82,4.86-.84,2.16-4.19,3.6-2.77,6.27,1.97,3.69,3.32,7.11,3.3,11.57-.02,5.9,2.12,11.86-2.51,17,1.83.61,3.21,1.08,4.6,1.54-1.3.74-2.6,1.49-3.89,2.23Z"/>
  <path class="cls-8" d="M58.38,570.05c-.01.4-.02.8-.03,1.2-1.23,1.35-1.28,2.71-.05,4.09,0,0,0,.09,0,.09-2.07,2.37-1.43,4.73,0,7.09-.07,35.39.03,70.78-1.04,106.15-2.03-.21-3.47.99-4.95,2.09l-.41-.13c.02-1.48-.11-2.92-1.29-4.02,3.37-2.18,3.16-4.75.84-7.55-.18-.32-.36-.64-.56-.96,1.64-1.38,2.94-3.14,3.07-5.23.73-11.29,2.35-22.66,1.7-33.88-1.25-21.46.95-42.93-.95-64.35-.38-.63-.77-1.27-1.15-1.9,2.01-1.61,2.23-3.66,1.64-6.02-.43-1.74.58-1.85,1.89-1.36.43.59.85,1.19,1.28,1.78,0,0,0,.07,0,.07-.91.95-.54,1.89,0,2.84Z"/>
  <path class="cls-11" d="M42.92,744.94c2.03-1.57,4.16-.77,6.11-.41-1.72,7.48-1.92,14.98-1.98,22.47-.05,6.56-1.07,13.22-.48,19.62.72,7.83,2.49,15.82,7.4,22.52-.05.26-.09.53-.14.79-2.79.51-5.42,2.47-8.43.9,3.63-3.01-.65-6.19.14-9.27.01-.05-.97-.57-1.36-.46-2.75.81-2.74,3.78-4.16,5.65-1.04,1.37.92,2.61,1.28,4-.62.38-1.25.76-1.88,1.14h-.04c-.43-.55-.86-1.09-1.29-1.62-4.59-4.32.63-8.17.58-12.27.54-1.84,1.08-3.69,1.63-5.53,2.37-9.08,1.2-18.4,1.89-27.59.5-6.65-1.31-13.37.72-19.94Z"/>
  <path class="cls-2" d="M38.69,798c.04,4.1-5.17,7.95-.58,12.26-.31.36-.95.88-.87,1.05.45.94,1.32.79,2.16.56,0,0,.04,0,.04,0,7.09,3.53,18.38,1.8,22.03-3.38-.45-.69-.9-1.39-1.35-2.08-4.88-13.44-5.02-27.49-5.18-41.52-.03-2.41.79-4.86.61-7.25-.42-5.35.56-11.14-4.08-15.39,1.3-.74,2.6-1.49,3.89-2.23,3.57-.12.57-3.33,2.08-4.42,1.69,2.38,2.87,4.4.46,7.48-1.15,1.47.03,4.65-.06,7.05-.42,11-.5,21.99.58,32.97-.03,6.78-1.21,13.66,6.15,18.35,3.1,1.97,4.6,6.03,1.04,9.67-4.39.57-7.22,4.03-10.92,5.89h.1c-.92-.55-1.02.05-1.05.75-8.1,2.22-14.35-2.6-21.09-5.56-3.69-7.07-2.97-8.76,6.05-14.23Z"/>
  <path class="cls-8" d="M58.47,453.8c1.46,9.72.41,19.49.47,29.23.11,16.19-.11,32.38-.15,48.57,0,2.06-.05,4.08-.9,5.99-1.9,1.28-3.72.42-5.55-.2,1.81-4.63,3-9.28.58-14.08.81-1.83,1.68-3.64,2.42-5.5,1.22-3.08.88-5.42-3.04-5.86-.18-2.13,2.08-3.2,1.91-5.64-.66-9.65,1.08-19.29.88-28.92-.14-6.75,1.73-13.74-1.36-20.31,1.58-1.09,3.16-2.19,4.74-3.28Z"/>
  <path class="cls-6" d="M63.11,227.27l-.11.33s-.33.12-.33.12c-1.76.71-2.22,3.03-4.4,3.34-2.01.29-2.38,1.64-1.37,3.33,1.88,3.16,1.36,6.52.86,9.89-1.46.46-2.93.93-4.39,1.39-.88-1.47-1.86-2.71-3.81-1.56-.11-5.8.68-11.76-2.9-16.97,2.82-1.77,3.11-4.71,2.71-7.43-.39-2.71-1.65-5.3-1.61-8.14,2.81-.11,5.62-.28,8.42-.32,1.68-.02,3.35.16,5.03.25-1.82,6.04,3.73,2.71,5.43,4.28,1.38,2.05-1.64,3.72-.49,5.75,0,0,.02-.13.02-.13-.13.57-.27,1.14-.4,1.71,0,0,.05-.08.05-.08-1.65.93-2.82,2.17-2.7,4.24Z"/>
  <path class="cls-8" d="M43.23,365.22c-1.79-6.08-.73-12.3-.75-18.44-.11-26.72.03-53.44.08-80.15,1.13-1.52,2.41-.98,3.7-.27.2.33.4.65.6.98,0,0,0-.02,0-.02-1.22,1.2-.97,2.83-.97,4.25-.03,26.35.09,52.7-.01,79.04-.02,4.62,1.1,9.42-1.19,13.87-.49.25-.97.5-1.46.75Z"/>
  <path class="cls-2" d="M142.08,127.28c.35-.73.7-1.46,1.06-2.2.74-.46,1.47-.92,2.21-1.38-.42,20.14-7.55,37.88-19.56,53.76-5.44,7.2-11.59,13.79-19.56,18.37-.4-.65-.8-1.3-1.2-1.95.94-.6,1.88-1.2,2.82-1.8.78-.51,1.41-1.11,1.35-2.15,1.95-1.52,4.13-2.93,2.99-5.99,2.53-1.62,5.27-3,7.53-4.94,1.67-1.43,6.21-1.02,3.25-6.24-1.31-2.31,4.23-5.98,6.55-9.1,1.83-2.47,3.41-4.82,3.67-7.91,4.07-3.55,5.01-8.57,6.28-13.43,1.93-4.83,3.94-9.63,2.6-15.03ZM118.58,182.02c.17-.04.36-.05.49-.14.04-.03-.05-.27-.09-.42-.17.04-.36.05-.49.14-.05.03.05.27.09.42Z"/>
  <path class="cls-10" d="M59.34,449.76c-.07.34-.18.68-.32,1-3.5,2.25-7.01,4.5-10.51,6.75l-1.26-4.48c.07-.54.13-1.08.2-1.62.52-1.34-.14-2.37-.88-3.38v-.09c1.85-1.3.99-2.65.08-3.99,0,0,.02-.11.02-.11,1.98-1.63,1.06-3.56.58-5.45,3.43-3.49,7.32-6.39,11.47-8.94.28.63.56,1.25.85,1.88-.01.47-.03.93-.04,1.4,0,.42,0,.85,0,1.27.02.38.03.75.05,1.13-.05,1-.09,2-.14,2.99.03.37.07.75.1,1.12-.02,2.8-.05,5.6-.07,8.4-.58.68-.5,1.39-.12,2.12Z"/>
  <path class="cls-10" d="M42.02,511.28c-.64-15.68-.39-31.36.15-47.04,1.41-.68,2.55-2.2,4.43-1.4h0c-1.87,7.74-1.49,15.46.13,23.19l.27.49c-1.83,1.53-1,2.99.13,4.44-.1.43-.2.87-.31,1.3-.17.56-.35,1.12-.52,1.68v-.02c-.62,1.29-.19,1.91,1.22,1.93,1.24,4.97-.65,9.94-.01,14.91-1.84.1-3.77-.78-5.48.54Z"/>
  <path class="cls-7" d="M42.02,511.28c1.72-1.32,3.65-.44,5.48-.54,1.6.41,3.2.81,4.8,1.22,3.92.44,4.26,2.79,3.04,5.86-.74,1.86-1.61,3.67-2.42,5.5-2.69,3.28-3.51,7.44-5.22,11.18-2.81,2.86-3.47,6.82-5.26,10.2-.32.24-.64.48-.96.72.02-.63.04-1.25.05-1.88,0,0,.04.21.04.21-.16-2.71-.63-5.43.21-8.12,1.06-2.91,1.71-6.06,3.27-8.67,3.93-6.59,3.15-6.44-3.2-8.63-.46-2.36-.62-4.72.18-7.05Z"/>
  <path class="cls-11" d="M6.6,118.08c-1.15-10.76,3.09-19.94,9.32-28.04,7.56-9.83,17.69-16.05,30.21-17.86,0,0-.02-.13-.02-.13-.26.19-.37.44-.32.76-.78.55-1.56,1.11-2.33,1.66-.66.35-1.31.69-1.97,1.04-7.56,1.63-13.72,4.99-16.35,12.9-.57,1.7-1.12,4.61-3.1,3.99-4.66-1.45-5.5,1.41-6.59,4.54-.98,2.82-5.25,4.21-3.57,8.2-4.49,3.2-2.67,8.97-5.27,12.94Z"/>
  <path class="cls-9" d="M40.47,165.25c-10.1-1.13-17.63-6.97-24-14.12-6.83-7.67-11.25-16.66-10.59-27.42,2.94-.21,3.85,1.9,4.69,4.1.31,1.02.74,2.06-.41,2.87-.21.51-.68,1.07-.6,1.52,2.46,13.35,11.02,21.82,22.54,27.83,1.86.97,3.68.32,5.24-1.01,3.99.15,7.73,2.1,11.81,1.59.09,1.79-1.33,2.51-2.46,3.44-2.09.3-4.59-1.52-6.21,1.21Z"/>
  <path class="cls-13" d="M46.65,227.15c3.57,5.21,2.79,11.16,2.9,16.97-.68,5.32-.32,10.62.25,15.91-.23.03-.41.13-.55.32-2.03.52-4.06,1.02-6.03-.22-.43-6.4.94-12.85-.53-19.23,1.08-3.32,2.18-6.64-1.19-9.4-.15-.28-.29-.57-.4-.87,1.24-.5,1.52-1.72,2.07-2.74,1.16-.25,2.32-.49,3.48-.74Z"/>
  <path class="cls-8" d="M57.44,735.62c-1.51,1.09,1.49,4.3-2.08,4.42-1.39-.46-2.77-.93-4.6-1.54,4.64-5.13,2.49-11.09,2.51-17,.01-4.46-1.33-7.88-3.3-11.57-1.42-2.67,1.93-4.11,2.77-6.26,2.7-.92,3.16,1.71,4.55,2.88,0,0,0,.08,0,.08-.82.84-.58,1.65.06,2.45.03,8.85.07,17.7.1,26.54Z"/>
  <path class="cls-7" d="M52.35,537.4c1.83.61,3.65,1.48,5.55.2,1.91,8.47.81,17.01.57,25.53-.21-.03-.43-.06-.64-.09-.28-1.49-.56-2.98-.84-4.47-.15-.82-.3-1.64-.45-2.46-.16-.36-.31-.71-.47-1.07.25-2.32-1.14-1.77-2.43-1.39-.92-1.08-2.12-1.36-3.47-1.25-.94-.87-2.06-1.12-3.3-.98l-.21-.08c-3.45.06-3.52-3.35-5.21-5.09,0,0,.08,0,.08,0,.54-.13,1.07-.27,1.6-.41,2.84-2.38,3.39-6.55,6.69-8.57.84.04,1.69.08,2.53.13ZM54.68,542.55c-1.72-1.65-3.66-3.17-5.8-1.35-1.47,1.25-3.28,4.07-1.89,5.27,1.83,1.59,4.86,3.66,7.46,2.16,2.21-1.28.84-3.97.23-6.08Z"/>
  <path class="cls-11" d="M57.76,244.28c.5-3.36,1.03-6.72-.86-9.89-1.01-1.69-.64-3.04,1.37-3.33,2.18-.31,2.64-2.63,4.4-3.34-.45,11.55.65,23.14-.96,34.66-.7-.17-1.4-.34-2.1-.51,0,0,.04,0,.04,0-1.07-.21-2.13-.41-3.2-.62-.92-4.2,3.26-7.64,1.8-11.92.71-1.77.35-3.44-.49-5.06Z"/>
  <path class="cls-2" d="M43.17,227.88c-.54,1.02-.83,2.24-2.07,2.74-2.56-4.96-6.4-9.25-7.96-14.72-.86-3-3.08-3.87-5.7-4.7-6.59-2.08-13.27-4.01-19.09-7.96-.2-.49-.4-.97-.6-1.46,5.41.75,10.05,3.72,15.2,5.19,4.74,1.36,9.07,4.58,14.42,3.27h-.01c.21.34.41.67.62,1,.38.58.76,1.16,1.14,1.75-3.53,6.29.43,10.55,4.05,14.9Z"/>
  <path class="cls-7" d="M57.28,706.55c-1.38-1.17-1.84-3.8-4.55-2.88-2.27-.96-4.89-1.58-4.82-4.87,0,0,0,.02,0,.02.32-.08.63-.17.93-.29,1.35.53,2.69.73,4.05.03.62.25,1.23.54,1.87.71.1.03.56-.6.49-.77-.46-1.14-1.38-.78-2.24-.59-1.27-1.15-1.74-3.79-4.4-2.36-.65.45-1.3.9-1.96,1.35h.05c2.8-5.41.68-7.89-4.95-8.31-.31-.02-.59-.42-.89-.65l-.27-.36s.19-.4.19-.4c1.08-.65,2.16-1.31,3.24-1.97,1.71.44,3.19,2.02,5.18,1.03.47.13.93.25,1.4.38,1.18,1.1,1.3,2.54,1.29,4.02-.29.4-.59.8-.88,1.19.23.09.66.28.68.25.24-.42.42-.87.62-1.32,1.48-1.1,2.92-2.3,4.95-2.09.79,5.96.49,11.91.02,17.87Z"/>
  <path class="cls-7" d="M59.16,385.98c-.41,4.93,1.53,9.81.35,14.76-.75-2.91-1.96-4.76-5.31-2.68-1.42.88-3.04,1.43-4.56,2.13-2.22-4.36-2.01-8.78-.34-13.23,1.33-.8,2.66-1.59,4-2.39,1.59,1.98,3.7,1.79,5.86,1.41Z"/>
  <path class="cls-3" d="M49.64,400.19c1.53-.7,3.15-1.25,4.56-2.13,3.35-2.08,4.56-.23,5.31,2.68,0,0,0-.04,0-.04-1.48,1.73-.58,3.73-.62,5.62.23.49.46.98.7,1.48.14.29.12.57-.06.83-.2.32-.19.63.03.93,0,.58,0,1.16.01,1.73,0,0,.01.26.01.26-.04.5-.08.99-.12,1.49-.13.51-.25,1.02-.38,1.52,0,0-.04.08-.04.08-.76.33-1.52.67-2.28,1,.93-6.97-4.16-6.3-8.45-6.65-.27-2.09-.54-4.18-.81-6.27.71-.84,1.42-1.68,2.13-2.52Z"/>
  <path class="cls-10" d="M59.57,356.14c.13.74.26,1.48.39,2.21,0,.44.02.89.03,1.33-.14,3.3-.27,6.6-.41,9.9-3.59,1.51-7.23-1.29-10.82.15-.76-1.42-.16-3.32-1.59-4.5.25-.55.5-1.1.74-1.65,3.88-2.48,7.77-4.97,11.65-7.45Z"/>
  <path class="cls-2" d="M42.92,744.94c-2.03,6.57-.22,13.29-.72,19.94-.69,9.19.48,18.5-1.89,27.59-2.32-7.74-.26-15.54-.32-23.31-.06-8.22-.13-16.43-.19-24.65,1.19-.95,2.19-.49,3.12.43Z"/>
  <path class="cls-11" d="M35.96,27.17c-8.06,5.45-18.71,5.43-26.08,12.17-3.29,3-8.75,5.38-5.51,11.64-.09,1.43-1.25,1.94-2.25,2.59-.26-.54-.52-1.09-.79-1.63-.1-.51-.21-1.02-.31-1.53-.68-5.29,1.58-9.09,6.01-11.72,9.03-5.36,18.18-10.44,28.92-11.51Z"/>
  <path class="cls-13" d="M52.52.01c5.21-.27,4.31,3.45,4.29,6.59-.95,2.92.59,5.49,1.17,8.19.35,1.6,2.51,3.86-.22,4.53-2.06.5-5.41,1.62-6.64-2.13-.35-1.06-.93-2.05-1.4-3.07,2.78-3.83,1.65-8.42,2.41-12.63,0,0-.02.08-.02.08.14-.52.27-1.03.41-1.55Z"/>
  <path class="cls-10" d="M58.44,417.54c2.01,1.85-.42,4.28.81,6.23,0,0,0,.48,0,.48-.21.86-.42,1.73-.64,2.59-3.87,1.56-6.12,6.64-11.36,5.23.48-1.13.79-2.22-.61-2.96v-.02c2.06-2.11,1.06-6.23,4.76-7.27,2.34-1.43,4.69-2.85,7.03-4.28Z"/>
  <path class="cls-7" d="M59.82,278.46c-.76-1.28-1.11-3.07-3.27-2.54-2.65-1.08-5.39-1.7-8.27-1.65-.69-2.28.83-5-1.42-6.96,0,0,0,.02,0,.02.41-.21.81-.42,1.22-.63.25-.34.51-.68.76-1.01,1.18-.18,2.35-.36,3.53-.54,1.98,2.38,5.98.3,7.63,3.43-.05,3.29-.11,6.59-.16,9.88Z"/>
  <path class="cls-3" d="M47.46,451.4c-.07.54-.13,1.08-.2,1.62-2.28,1.5-1.26,3.49-.82,5.4-1.48,1.07-2.96,2.15-4.44,3.22-.74-7.11-.65-14.21.03-21.32,1.32-.63,2.26-2.3,4.1-1.56-.61,1.77-.36,3.45.53,5.07,0,0-.02.11-.02.11-.96,1.32-.96,2.65-.06,3.99,0,0-.01.09-.01.09-.73,1.39.21,2.35.88,3.38Z"/>
  <path class="cls-3" d="M48.77,369.74c3.59-1.45,7.23,1.36,10.82-.15.54,2.74.64,5.47-.3,8.16-.98.52-1.96,1.05-2.94,1.57-2.23-2.18-5.34-.31-7.75-1.67-.59-2.65-.63-5.29.16-7.91Z"/>
  <path class="cls-3" d="M43.23,365.22c.49-.25.97-.5,1.46-.75.74.32,1.49.63,2.23.95-1.57,5.06-1.64,10.15-.21,15.25l-.06-.04c-1.16,1.65-.7,3.24.2,4.81-1.46,1.08-2.91,2.17-4.37,3.25-.74-7.85-1.15-15.7.75-23.47Z"/>
  <path class="cls-12" d="M49.73,14.11c.47,1.02,1.05,2.01,1.4,3.07,1.22,3.75,4.58,2.63,6.64,2.13,2.73-.67.57-2.93.22-4.53-.58-2.7-2.12-5.27-1.17-8.19.43.62.86,1.24,1.3,1.87.17.34.34.68.52,1.01,1.65,3.08,3.46,6.09,3.7,9.71-1.4,1.92-2.25,4.72-5.6,3.52-3.25-1.33-6.23.91-9.39.73,1.01-2.69.74-5.41.17-8.14.74-.4,1.48-.79,2.23-1.19Z"/>
  <path class="cls-3" d="M41.75,423.22c.15-6.06.3-12.12.45-18.18,1.21-.63,2.42-1.27,3.63-1.9.66,5.38-1.48,10.98,1.29,16.2h0c-.07.5-.14,1-.21,1.49-1.41,1.46-1.94,4.83-5.16,2.39Z"/>
  <path class="cls-7" d="M46.12,72.05s.02.13.02.13c2.05-6.79.85-13.76.91-20.63.04-4.03-3.67-.61-5.28-1.8.35-.65.7-1.3,1.05-1.95,1.33-.87,2.79-1.18,4.36-1.06,1.35,1.4,2.1,3.05,2.07,5.02-.07,6.85.59,13.72-.42,20.56-.91-.09-1.82-.18-2.72-.27Z"/>
  <path class="cls-11" d="M40.47,165.25c1.62-2.73,4.12-.91,6.21-1.21.56.09,1.11.17,1.67.26.18.24.36.48.53.72-.87,3.6-1.26,7.19.13,10.76l-.05.05c-1.7,4.29-.34,8.81-1.08,13.17-.11.66.42,2.15-1.11,1.84-.51-.11-.84-1.15-1.25-1.76,1.03-6.35.4-12.75.68-19.12.19-4.31-3.74-3.25-5.73-4.71Z"/>
  <path class="cls-11" d="M42.82,47.8c-.35.65-.7,1.3-1.05,1.95-6.28,2.34-12.85,3.97-18.63,7.55-1.52-.92-2.88,1.86-4.52.25.52-2.12,2.8-2.37,3.85-3.83,6.32-3.6,12.99-5.97,20.37-5.92Z"/>
  <path class="cls-6" d="M10.57,127.8c-.83-2.2-1.75-4.3-4.69-4.1-.18-1.4-.5-2.82.36-4.13,2.02-.04.43-1.04.43-1.62,0,0-.06.12-.06.12,2.61-3.97.78-9.74,5.27-12.94,2.46.35,1.68,1.83,1.21,3.3-.73,2.29-1.36,4.62-2.03,6.93-1.18,4.11,1.11,8.35-.5,12.44Z"/>
  <path class="cls-11" d="M42.69,240.9c1.47,6.37.11,12.82.53,19.23-.79.56-1.59,1.12-2.38,1.68-1.06-7.1-.81-14.22-.23-21.35.69.15,1.38.29,2.07.44Z"/>
  <path class="cls-9" d="M45.84,403.14c-1.21.63-2.42,1.27-3.64,1.9-.9-1.54-.94-3,.35-4.36,3.24-1.86,4.89-8.19,2.55-10.3-.34-.31-1.64.45-2.49.71-.5-.77-.72-1.56-.14-2.4,1.46-1.08,2.91-2.17,4.37-3.25.39-.11.79-.21,1.18-.32.43.61.85,1.22,1.28,1.84-1.68,4.46-1.88,8.88.34,13.23-.71.84-1.42,1.68-2.13,2.52-.56.14-1.11.29-1.66.44Z"/>
  <path class="cls-8" d="M41.84,518.33c6.35,2.19,7.14,2.04,3.2,8.63-1.56,2.61-2.21,5.76-3.27,8.67-.64-5.77-.57-11.53.07-17.3Z"/>
  <path class="cls-11" d="M47.5,15.3c.57,2.73.83,5.45-.17,8.14-.65.42-1.3.85-1.95,1.27,0,0,.04,0,.04,0-1.13-.46-1.97-.44-1.9,1.13-1.54.9-3.15,1.14-4.86.61,3.21-3.7,4.45-8.51,7.08-12.53,1.93-1.24,1.46.57,1.76,1.39Z"/>
  <path class="cls-2" d="M46.14,438.77c-1.85-.75-2.78.92-4.1,1.56-.3-1.15-.25-2.26.51-3.24,3.14-1.08,3.52-3.68,3.56-6.47.38.48.77.97,1.15,1.45,5.24,1.41,7.49-3.67,11.36-5.23.78.84.7,1.71.1,2.61-4.15,2.56-8.04,5.45-11.47,8.94-.37.13-.74.26-1.11.39Z"/>
  <path class="cls-13" d="M2.13,53.57c.99-.65,2.15-1.16,2.25-2.59.25-.15.5-.3.76-.43,1.7,1.59,3.54,2.88,6,2.89.76,1.2,1.52,2.39,2.28,3.59-1.61,1.36-3.63,1.35-5.55,1.7-3.58.13-5.4-1.69-5.74-5.16Z"/>
  <path class="cls-5" d="M40.88,687.93c.3.23.58.63.89.65,5.63.42,7.75,2.9,4.95,8.33-2.11,1.08-4.02-.19-6.01-.49-.44-2.84-.57-5.67.17-8.48Z"/>
  <path class="cls-9" d="M145.35,123.71c-.74.46-1.47.92-2.21,1.38,1.22-7.3-.69-14.72.83-22.01,3.2,6.69,3.16,13.6,1.38,20.63Z"/>
  <path class="cls-2" d="M7.86,58.73c1.92-.36,3.94-.35,5.55-1.7,1.48-1.03,3.25-1.81,4.38-3.14,1.69-1.98,3.07-1.4,4.66-.17-1.05,1.47-3.33,1.71-3.85,3.83,1.65,1.61,3-1.17,4.52-.25-4.89,2.59-9.67,6.42-15.27,1.43Z"/>
  <path class="cls-2" d="M42,461.64c1.48-1.07,2.96-2.15,4.45-3.22.69-.3,1.38-.61,2.08-.92,3.5-2.25,7.01-4.5,10.51-6.75.44,1.13.48,2.19-.56,3.04-1.58,1.09-3.16,2.19-4.74,3.28-3.24.85-4.17,4.56-7.13,5.76-1.88-.8-3.02.71-4.43,1.4-.06-.86-.12-1.73-.17-2.59Z"/>
  <path class="cls-9" d="M94.95,34.75c-6.35-3.13-13.91-3.12-19.72-7.64,7.3.66,14.37,1.92,19.72,7.64Z"/>
  <path class="cls-2" d="M47.5,15.3c-.31-.82.17-2.63-1.76-1.39,1.41-4.52,2.92-8.98,6.4-12.43-.77,4.22.37,8.8-2.41,12.63-.74.4-1.48.79-2.22,1.19Z"/>
  <path class="cls-2" d="M12.47,181.67c-3.34,2.58-7.78,3.71-10.06,7.67-.27.27-.54.53-.81.79-.29-.36-.57-.73-.86-1.09,1.77-6.66,6.01-9.32,11.73-7.37Z"/>
  <path class="cls-2" d="M40.84,261.81c.79-.56,1.59-1.12,2.38-1.68,1.97,1.24,4,.74,6.03.22.2.33.41.67.61,1-3.25.75-4.63,1.95-1.03,4.34-.25.34-.51.68-.76,1.02-.61-.12-1.21-.23-1.82-.35-1.29-.71-2.57-1.25-3.7.27-2.02-1.09-3.74-2.28-1.71-4.81Z"/>
  <path class="cls-3" d="M46.11,430.61c-.05,2.79-.42,5.39-3.56,6.47-1.11-3.01-.38-6.08-.34-9.13,2.06-1.92,3.39-.95,4.44,1.13,0,0,0,.02,0,.02-.18.5-.36,1.01-.54,1.51Z"/>
  <path class="cls-6" d="M46.65,429.09c-1.05-2.07-2.38-3.05-4.44-1.13-.58-1.54-1.34-3.06-.45-4.74,3.22,2.44,3.75-.93,5.16-2.39,0,0,.5-.24.5-.24,1.05.66,2.01.15,2.97-.25.34.49.68.98,1.02,1.47-3.7,1.04-2.7,5.16-4.76,7.27Z"/>
  <path class="cls-9" d="M.73,189.04c.29.36.57.73.86,1.09.14,4.89,2.53,8.6,6.16,11.65.2.49.4.97.6,1.46-7.37-2.81-9.72-7.18-7.62-14.2Z"/>
  <path class="cls-7" d="M42.62,391.09c.85-.26,2.15-1.02,2.49-.71,2.34,2.11.69,8.44-2.55,10.3-.47-3.2-.99-6.4.06-9.59Z"/>
  <path class="cls-8" d="M66.15,221.54c-1.15-2.03,1.88-3.7.49-5.75,2.53-1.64-.53-3.64.35-5.39,1.77,1.72,3.78-.77,5.59.31-3.12,3.03-2.94,8.02-6.43,10.83Z"/>
  <path class="cls-2" d="M59.99,268.58c-1.65-3.13-5.64-1.05-7.63-3.43,2.43-1.09,4.86-2.17,7.3-3.26,0,0-.04,0-.04,0,.55.84,1.14,1.6,2.28.83,1.78,2.74-1.65,3.79-1.9,5.88Z"/>
  <path class="cls-2" d="M49.3,386.96c-.43-.61-.85-1.22-1.28-1.84,0,0,.11-.54.11-.54.61-.29,1.22-.58,1.82-.86,2.13-1.46,4.26-2.93,6.39-4.39.98-.52,1.96-1.05,2.94-1.57,0,1.59,1.15,3.1.27,4.74-2.86-1.64-4.21,1.27-6.25,2.08-1.33.8-2.66,1.59-4,2.39Z"/>
  <path class="cls-2" d="M59.57,356.14c-3.88,2.48-7.77,4.97-11.65,7.46.23-1.07.47-2.14.7-3.2,3.52-2.17,7.04-4.34,10.56-6.51.13.75.26,1.51.39,2.26Z"/>
  <path class="cls-2" d="M42.69,240.9c-.69-.15-1.38-.29-2.07-.44-.4-3.06-1.4-6.17.89-8.97,3.36,2.76,2.26,6.08,1.19,9.4Z"/>
  <path class="cls-2" d="M60.05,816.86c-1.78.46-3.52,2-5.37.18,3.7-1.86,6.53-5.32,10.92-5.89-.9,1.29-1.8,2.58-2.7,3.87-.95.61-1.9,1.23-2.85,1.84Z"/>
  <path class="cls-7" d="M40.71,696.41c1.99.3,3.91,1.57,6.01.49,0,0-.05-.01-.05-.01.42.64.83,1.28,1.25,1.93,0,0,0-.02,0-.02-2.22,1.42-4.44,2.83-7.26,1.71-.4-1.37-.46-2.74.05-4.1Z"/>
  <path class="cls-8" d="M53.3,384.57c2.04-.81,3.39-3.72,6.25-2.08-.13,1.16-.26,2.33-.39,3.49-2.16.38-4.27.57-5.86-1.41Z"/>
  <path class="cls-11" d="M51.41,421.82c-.34-.49-.68-.98-1.02-1.47.58-.51,1.16-1.03,1.73-1.54.96-.63,1.92-1.26,2.88-1.89.59-.43,1.17-.86,1.76-1.29.76-.33,1.52-.67,2.28-1,.27,1.07.14,2.05-.6,2.9-2.34,1.43-4.69,2.85-7.03,4.28Z"/>
  <path class="cls-7" d="M58.3,582.52c-1.43-2.36-2.08-4.73,0-7.09.63,2.36.54,4.73,0,7.09Z"/>
  <path class="cls-7" d="M58.89,406.31c.04-1.89-.86-3.89.62-5.62.65,1.71.55,3.43.15,5.17-.26.15-.51.3-.77.45Z"/>
  <path class="cls-11" d="M63.11,227.27c-.12-2.06,1.05-3.3,2.7-4.24.16,2.09-1.37,3.1-2.7,4.24Z"/>
  <path class="cls-7" d="M58.3,575.34c-1.23-1.38-1.18-2.74.05-4.09.55,1.37.56,2.73-.05,4.09Z"/>
  <path class="cls-9" d="M98.75,36.37c-1.65.32-2.92-.25-3.83-1.65,1.96-1.05,2.86.39,3.83,1.65Z"/>
  <path class="cls-2" d="M102.39,198.28c.6-.62.82-1.93,2.16-1.19-.22,1.31-.92,1.73-2.16,1.19Z"/>
  <path class="cls-7" d="M58.38,570.05c-.54-.95-.91-1.89,0-2.84.48.95.52,1.89,0,2.84Z"/>
  <path class="cls-9" d="M67.42,25.39c-.79.58-1.61.93-2.52.26.77-.8,1.62-.81,2.52-.26Z"/>
  <path class="cls-7" d="M58.38,567.15c-.43-.59-.85-1.19-1.28-1.78.2-.25.39-.51.59-.76.26.06.52.11.78.15-.03.8-.06,1.59-.1,2.39Z"/>
  <path class="cls-2" d="M59.34,449.76c-.38-.73-.46-1.45.12-2.12.57.74.75,1.46-.12,2.12Z"/>
  <path class="cls-11" d="M58.89,406.31c.26-.15.51-.3.77-.45.3.65.65,1.31-.07,1.93-.23-.49-.46-.98-.7-1.48Z"/>
  <path class="cls-7" d="M57.34,709.08c-.64-.8-.88-1.62-.06-2.45.44.81.63,1.62.06,2.45Z"/>
  <path class="cls-9" d="M143.97,103.09c-.59-.93-.86-1.84.07-2.74.18.92.7,1.84-.07,2.74Z"/>
  <path class="cls-11" d="M6.66,117.95c0,.58,1.59,1.58-.43,1.62.14-.54.29-1.08.43-1.62Z"/>
  <path class="cls-9" d="M61.89,262.7c-1.14.77-1.72,0-2.28-.83.7.17,1.4.33,2.1.51,0,0,.17.32.17.32Z"/>
  <path class="cls-8" d="M43.12,545.84c-.53.14-1.07.27-1.6.41-.19-.27-.2-.54-.04-.83.32-.24.64-.48.96-.72.22.38.45.76.67,1.14Z"/>
  <path class="cls-8" d="M65.76,223.11c.13-.57.27-1.14.4-1.71,1.08.85.15,1.23-.4,1.71Z"/>
  <path class="cls-2" d="M60,359.69c0-.45-.02-.89-.03-1.33.52.43.47.88.03,1.33Z"/>
  <path class="cls-9" d="M70.57,26.09c-.54-.12-1.07-.24-1.61-.36.54.12,1.07.24,1.61.36Z"/>
  <path class="cls-11" d="M59.07,414.56c.13-.51.25-1.02.38-1.52-.13.51-.25,1.02-.38,1.52Z"/>
  <path class="cls-7" d="M58.47,563.12c0,.54,0,1.09.01,1.63-.26-.04-.52-.09-.78-.15.04-.52.08-1.05.13-1.57.22.03.43.06.64.09Z"/>
  <path class="cls-9" d="M75.27,27.13c-.54-.12-1.07-.24-1.61-.36.54.12,1.07.24,1.61.36Z"/>
  <path class="cls-9" d="M72.14,26.44c-.54-.12-1.08-.24-1.61-.36.54.12,1.08.24,1.61.36Z"/>
  <path class="cls-9" d="M69,25.74c-.53-.12-1.06-.23-1.6-.35.53.12,1.06.23,1.6.35Z"/>
  <path class="cls-2" d="M59.53,432.72c.01-.47.03-.93.04-1.4-.01.47-.03.93-.04,1.4Z"/>
  <path class="cls-2" d="M52.52.01c-.14.52-.27,1.03-.41,1.55.14-.52.27-1.03.41-1.55Z"/>
  <path class="cls-2" d="M59.58,435.12c-.02-.38-.03-.75-.05-1.13.57.35.54.73.05,1.13Z"/>
  <path class="cls-2" d="M59.54,439.23c-.03-.37-.07-.75-.1-1.12.54.33.53.71.1,1.12Z"/>
  <path class="cls-9" d="M63.37,25.51c.35-.24.69-.48,1.04-.72.36.17.52.46.49.85-.51-.04-1.02-.09-1.53-.13Z"/>
  <path class="cls-13" d="M1.03,50.4c.1.51.2,1.02.31,1.53-.1-.51-.2-1.02-.31-1.53Z"/>
  <path class="cls-6" d="M40.2,735.05c0,.41,0,.82.01,1.24,0-.41,0-.82-.01-1.24Z"/>
  <path class="cls-6" d="M40.11,736.78c-.14.39-.27.77-.41,1.16.14-.39.27-.77.41-1.16Z"/>
  <path class="cls-13" d="M58.62,9.48c-.17-.34-.35-.68-.52-1.01.24.18.51.33.71.55.05.05-.12.3-.19.46Z"/>
  <path class="cls-11" d="M59.55,409.55c-.22-.31-.22-.62-.03-.93,0,.31.02.62.03.93Z"/>
  <path class="cls-2" d="M59.52,352.89c.03-.36.07-.72.1-1.08.46.41.43.77-.1,1.08Z"/>
  <polygon class="cls-11" points="59.58 411.55 59.57 411.29 59.93 411.5 59.58 411.55"/>
  <path class="cls-8" d="M41.57,543.75s-.04-.21-.04-.21c0,0,.04.21.04.21Z"/>
  <path class="cls-9" d="M73.7,26.78c-.54-.12-1.08-.24-1.61-.35.54.12,1.08.24,1.61.35Z"/>
  <path class="cls-2" d="M59.25,424.24s0-.48,0-.48c.13,0,.26.01.38.02-.13.15-.25.3-.38.46Z"/>
  <path class="cls-12" d="M70.26,198.56c-.72-1.53-.29-2.35,1.41-2.75,4.18-.98,6.27-3.96,7.33-8.2-2.07-.91-4.16,1.88-6.14.13,3.64-2.33,8.08-2.7,11.79-5.09,8.43-5.43,15.77-12.02,22.44-19.44,5.52-1.94,13.3-15.92,13.07-23.49h-.01c3.02-4.44,4.39-9.21,2.81-14.55,0,0,0,.06,0,.06.26-.38.51-.75.77-1.13.28-.22.57-.43.87-.62,1.62-.06,2.15,1.26,2.9,2.31,1.27,1.51.77,2.98.26,4.7-2.96,10.11-4.8,20.54-8.89,30.32-3.29,6.65-6.9,13.06-12.93,17.7-4.59,1.19-7.06,5.39-10.79,7.88-7.85,5.24-16.01,9.32-24.9,12.17ZM81.85,186.01c4.17-.06,7.1-.99,9-5.75-3.53,2.26-6.03,3.85-9,5.75ZM96.01,177.19c-.67.28-1.18.41-1.6.69-.26.17-.39.56-.57.86.62-.18,1.27-.31,1.86-.57.16-.07.17-.5.32-.97Z"/>
  <path class="cls-9" d="M127.51,125.79c-.75-1.04-1.27-2.37-2.9-2.31-.56-1.77-1.12-3.53-1.68-5.3,1.54-2.38.86-4.57-.55-6.71h0c1.14-.87,1.48-1.91.61-3.18v.08c.66-1.91.27-3.68-.7-5.37-.22-.18-.34-.41-.37-.69.87-3.53-1.72-6.59-1.36-10.06,1.16.12.99-.5.87-1.33-1.27-8.92-7.09-15.34-12.23-22.09-1.22-1.6-3.13-2.71-2.63-5.14,4.57,1.4,6.23,5.5,8.47,9.08,4.1,6.55,7.47,7.54,13.32,3.9.93,3.84,3.83,7.13,3.24,11.41-1.09.25-2.17.53-3.26.75-1.39.29-3.88-1.6-3.86,1.4.01,2.02-.15,4.78,2.85,5.46,2.49.57,4.88.27,7.01-1.28.68,2.98,2.44,5.88.73,9.05-7.88,1.76-8.5,2.55-5.63,6.52,2.59,3.58,4.38.49,6.47-.44,1.34,2.96,4.59,5.79.64,9.13-2.85-.77-4.37,1.74-6.55,2.63-5.47-.8-.1,2.96-1.61,3.83-.3.21-.59.43-.88.66Z"/>
  <path class="cls-12" d="M39.12,212.99c-.38-.58-.76-1.16-1.14-1.75.38-.7.42-1.18-.62-.99,0,0,.01,0,.01,0-2.33-5.28-8.6-4.85-12.14-8.37-.77-1.32-1.81-1.57-3.12-.79-1.03.08-1.67-.52-2.21-1.28.78-3.04-1.48-4.03-3.55-4.86-1.58-.63-4.09-1.02-3.35-2.9,1.12-2.85,3.29-.33,4.61.3,6.52,3.09,13.66,3.2,20.52,4.64,3.57.75,6.67,3.07,10.42,3.33,1.26,3.51-.72,6.01-2.66,8.52-1.02.64-2.05,1.28-3.07,1.91-1.23.75-2.46,1.5-3.69,2.25Z"/>
  <path class="cls-4" d="M105.95,178.51c6.03-4.64,9.64-11.05,12.93-17.7,4.46,6.98,4.33,7.9-2.11,13.49-2.39,2.08-3.58,5.1-6.45,6.93-4.08,2.6-4.75,1.13-4.37-2.72Z"/>
  <path class="cls-12" d="M139.48,142.31c-1.27,4.86-2.21,9.88-6.28,13.43-1.56.09-3.61,0-3.09-2.04,1.54-6.06,1.23-12.65,5-18.08,1.01,1.83,2.59,3.32,2.14,5.86-.31,1.74,1.24,1.15,2.24.83Z"/>
  <path class="cls-4" d="M42.81,210.74c1.02-.64,2.05-1.28,3.07-1.91,5.04.39,9.98-.62,14.86-1.49,3.25-.57,5.04.23,6.25,3.05-.88,1.75,2.18,3.75-.35,5.39-1.7-1.56-7.25,1.76-5.43-4.28-1.68-.09-3.36-.27-5.03-.25-2.81.04-5.62.21-8.43.32-1.65-.28-3.3-.56-4.95-.84Z"/>
  <path class="cls-9" d="M139.48,142.31c-1,.32-2.54.91-2.24-.83.45-2.55-1.13-4.03-2.14-5.86-.04-.83-.09-1.65-.14-2.48,1.64-1.32,2.02-2.88.92-4.73-.45-.8-.72-1.61-.23-2.5.95-.61,1.91-1.22,2.86-1.84,1.16,1.1-.01,4.78,3.56,3.21,1.34,5.39-.68,10.2-2.6,15.03Z"/>
  <path class="cls-4" d="M107.86,192.08c-.94.6-1.88,1.2-2.82,1.8-3.39,1.25-6.61,2.84-9.75,4.84,5.67-4.96,11.89-9.19,16.92-14.78,1.13,3.06-1.04,4.47-2.99,5.99-.81.49-1.41,1.11-1.35,2.15Z"/>
  <path class="cls-12" d="M128.39,125.13c1.52-.86-3.85-4.63,1.61-3.83,1.19,2-.16,2.94-1.61,3.83Z"/>
  <path class="cls-12" d="M135.89,128.4c1.1,1.85.72,3.41-.92,4.73-1.25-1.88-.84-3.44.92-4.73Z"/>
  <path class="cls-12" d="M138.52,124.07c-.95.61-1.91,1.22-2.86,1.84-1.18-1.93.14-2.85,1.51-3.76.45.64.9,1.28,1.35,1.92Z"/>
  <path class="cls-12" d="M128.36,76.66c-5.85,3.64-9.23,2.65-13.32-3.9-2.23-3.57-3.9-7.68-8.47-9.08-.41-.59-.82-1.18-1.23-1.77-.01-4.15-3.79-4.12-6.21-5.61-.94-.72-1.88-1.44-2.82-2.16.64-.94.33-1.82-.15-2.7,1.41-.85,2.78-1.73,1.63-3.71.63-.38,1.25-.77,1.88-1.15,1.57,1.61,3.14,3.23,4.71,4.85,3.38,2.33,4.49,7.67,9.82,7.42,1.96,2.32,3.92,4.65,5.89,6.97-.53,2.4.48,3.08,2.7,2.39,1.86,2.82,3.71,5.64,5.57,8.45Z"/>
  <path class="cls-1" d="M140.59,96.33c-2.98-2.73-4.57-4.98-5.25-7.71-3.63-14.41-12.62-25.36-22.72-35.62-1.26-1.28-3.63-2.66-2.08-4.46,1.47-1.7,2.92.7,4.16,1.61,10.88,8.02,16.45,19.73,21.8,31.58,1.92,4.25,3.54,8.61,4.09,14.6Z"/>
  <path class="cls-6" d="M97.8,47.73c1.15,1.98-.22,2.86-1.63,3.71-.4-.62-.8-1.25-1.2-1.87-1.91-4-5.26-4.41-9.08-3.67-3.08-3.82-7.43-4.8-11.98-5.33-3.52-.41-7.17-.41-9.89-3.25,1.69-1.93,1.68-5.19,4.73-6.05,4.38,1.38,9.15,1.85,12.64,5.33.79,1.55,2.05,2.06,3.71,1.71,0,0,.01,0,.01,0,3.67,3.89,8.65,6.01,12.68,9.42Z"/>
  <path class="cls-12" d="M134.33,94.4c-2.13,1.55-4.52,1.85-7.01,1.28-2.99-.68-2.83-3.44-2.85-5.46-.02-3,2.47-1.11,3.86-1.4,1.09-.22,2.18-.5,3.26-.75.91,2.11,1.82,4.22,2.73,6.33Z"/>
  <path class="cls-12" d="M135.91,109.54c-2.09.93-3.89,4.02-6.47.44-2.87-3.97-2.25-4.76,5.63-6.52,1.32,1.88.93,4,.85,6.08Z"/>
  <path class="cls-9" d="M97.8,47.73c-4.03-3.41-9.02-5.52-12.68-9.42,6.35.13,10.38,4.33,14.57,8.27-.63.38-1.26.77-1.88,1.15Z"/>
  <path class="cls-9" d="M114.21,58.85c-5.33.25-6.44-5.09-9.82-7.42,4.94.26,6.84,4.56,9.82,7.42Z"/>
  <path class="cls-9" d="M122.79,68.21c-2.22.69-3.22.02-2.7-2.39,1.62-.02,2.14,1.2,2.7,2.39Z"/>
  <path class="cls-9" d="M85.1,38.32c-1.66.36-2.93-.15-3.71-1.71,1.94-.97,2.87.29,3.71,1.71Z"/>
  <path class="cls-13" d="M19.9,199.8c.55.76,1.18,1.36,2.21,1.28.79,1.23,1.84,1.47,3.12.79,3.54,3.53,9.81,3.09,12.14,8.37-5.34,1.31-9.68-1.91-14.42-3.27-5.15-1.47-9.79-4.44-15.2-5.19-3.63-3.06-6.02-6.76-6.16-11.66.27-.26.54-.53.81-.79,3.3-.98,4.48,1.84,6.36,3.48,3.34,2.9,6.33,6.4,11.13,6.98Z"/>
  <path class="cls-11" d="M57.23,171.82c.1,5.26.2,10.51.29,15.77-2.22,3.09-3.52-1.13-5.41-.68-.4-.54-.79-1.08-1.19-1.62,0,0-.02-.04-.02-.04.54-.28,1.07-.56,1.61-.84,2.88-2.64,2.56-5.52.65-8.52,0,0,0,.01,0,.01,2.11-.88.91-3.23,2.02-4.55.68.16,1.36.32,2.04.48Z"/>
  <path class="cls-4" d="M52.52,184.4c-.54.28-1.07.56-1.61.84-1.39-2.98.84-6.72-1.95-9.41,0,0,.05-.05.05-.05,2.07-.77.79-3.28,2.26-4.37.19.02.38.04.56.06.44,1.48.89,2.95,1.34,4.43,0,0,0-.01,0-.01-1.42,2.75-.57,5.67-.65,8.52Z"/>
  <path class="cls-4" d="M50.92,185.28c.4.54.8,1.08,1.19,1.62.3,1.55.2,3.24,3.12,4.45q-5.4-.21-4.31-6.08Z"/>
  <path class="cls-12" d="M68.41,189.15c.24-.23.53-.36.86-.41-.05.63-.38.67-.86.41Z"/>
  <path class="cls-14" d="M48.28,274.27c2.88-.05,5.62.57,8.27,1.65,2.3,9.71-1.23,18.92-2.5,28.32-.24,1.74.81,4.16-1.54,4.92-2.39.77-2.68-2.1-4.08-3.13-.21-.21-.2-.4.03-.58.03-.55.06-1.1.1-1.65l-.06.09c2.26-1.37,1.22-2.76.02-4.15l.04.12c.52-.71.47-1.44.06-2.18-1.04-7.78-.52-15.59-.34-23.4Z"/>
  <path class="cls-13" d="M48.46,305.43c-.23.18-.24.38-.03.58-.34,18.13-.46,36.25.19,54.37-.23,1.07-.47,2.14-.7,3.2-.25.55-.5,1.1-.74,1.65,0,0-.26.17-.26.17-.74-.32-1.49-.63-2.23-.95,2.29-4.45,1.17-9.25,1.19-13.87.1-26.35-.01-52.7.01-79.04,0-1.42-.24-3.04.97-4.25,2.26,1.96.73,4.68,1.42,6.96-.18,7.8-.7,15.61.34,23.4-.02.73-.04,1.45-.06,2.18,0,0-.04-.12-.04-.12-.6,1.38-.6,2.76-.03,4.15,0,0,.06-.09.06-.09-.03.55-.06,1.1-.1,1.65Z"/>
  <path class="cls-9" d="M64.01,37.33c2.72,2.84,6.37,2.84,9.89,3.25,4.55.53,8.9,1.51,11.98,5.33.61.98,1.22,1.96,1.83,2.95-1.72,1.05-4.69-1.04-5.52,2.22-7.04-2.43-14-5.2-21.6-5.44-1.54-.05-3.51-1.29-3.8,1.58-1.36.79-2.53-.43-3.83-.35-1.92-.55-3.84-.72-5.79-.13-1.57-.11-3.03.19-4.36,1.06-7.38-.05-14.05,2.32-20.36,5.92-1.6-1.24-2.98-1.82-4.67.16-1.13,1.33-2.9,2.11-4.38,3.14-.76-1.2-1.52-2.39-2.28-3.59,5.63-1.72,10.2-5.3,14.96-8.53,2.54-1.46,5.08-2.92,7.62-4.39,2.85,2.06,5.2.33,7.6-1.01,4.37-1.7,8.96-1.89,13.57-1.97.88,1.17,1.91,1.41,3.14.53,1.99-.24,3.99-.49,5.98-.73Z"/>
  <path class="cls-11" d="M10.29,49.81c-1.09-1.97-.64-3.6,1.2-4.8,3.84-2.5,7.72-4.94,11.72-7.5,1.23,2.21.14,4.35,1.68,5.73-4.59,2.81-9.44,5.05-14.61,6.58Z"/>
  <path class="cls-6" d="M10.29,49.81c5.17-1.53,10.02-3.76,14.61-6.58.4.56.8,1.12,1.2,1.68-4.76,3.23-9.34,6.8-14.96,8.53-2.46,0-4.3-1.3-6-2.89,1.54-1.52,3.59.53,5.16-.74Z"/>
  <path class="cls-8" d="M45.37,24.71c.65-.42,1.3-.85,1.95-1.27,3.16.19,6.14-2.05,9.39-.73-3.24,3.73-7.29,2.85-11.34,1.99Z"/>
  <path class="cls-6" d="M41.32,39.5c-2.4,1.35-4.75,3.08-7.6,1.01,2.44-1.05,4.8-2.66,7.6-1.01Z"/>
  <path class="cls-6" d="M58.02,38.06c-1.22.88-2.26.64-3.14-.53,1.22-.86,2.26-.67,3.14.53Z"/>
  <path class="cls-6" d="M58.54,28.4c.67-.28,1.37-.76,2.01-.02.12.14-.02.79-.19.87-.88.4-1.33-.31-1.81-.86h0Z"/>
  <path class="cls-8" d="M43.52,25.83c-.08-1.57.77-1.59,1.9-1.13-.63.38-1.26.75-1.9,1.13Z"/>
  <path class="cls-6" d="M58.54,28.39c-.18.01-.35.03-.53.04.18-.01.35-.02.53-.03,0,0,0-.01,0-.01Z"/>
  <path class="cls-13" d="M60.79,25.65c-.17.04-.33.07-.5.11l.11-.5c.14.1.27.21.41.31,0,0-.02.08-.02.08Z"/>
  <path class="cls-15" d="M49.22,686.24c-1.99.98-3.47-.59-5.18-1.03.1-10.62.1-21.24.34-31.86.23-10.03-.14-20.04.36-30.09.53-10.63-.07-21.35.35-32.03.1-2.48.29-4.72,1.19-7.07,1.87-4.88-1.69-9.57-.71-14.73.63-3.31-.79-7.1,1.23-10.33,1.69-2.71-3.26-5.13-.15-7.75,0,0,.21.08.21.08.79,1.06.97,2.88,2.77,2.74.94-.07.57-1.09.54-1.76,1.35-.11,2.55.18,3.47,1.25.18.39.36.79.54,1.18-2.56,5.89-1.88,11.9-.6,17.92.38.63.77,1.27,1.15,1.9-2.12,1.09-2.68,2.76-2.54,5.15.26,4.5-.05,9.04.17,13.55.48,10.11-2.23,20.12-1.82,30.06.7,16.89-1.14,33.67-.86,50.51.03,1.62.28,2.95,1.22,4.2.2.31.38.63.56.96-2.95,1.71-3.69,4.1-2.24,7.17Z"/>
  <path class="cls-11" d="M60.12,806.43c.45.69.9,1.39,1.35,2.08-2.3,1.77-4.7,3.03-7.63,1.42.05-.26.09-.52.14-.79,2.15-.68,4.54-.79,6.14-2.71Z"/>
  <path class="cls-5" d="M50.9,678.11c-.94-1.25-1.19-2.58-1.22-4.2-.29-16.84,1.55-33.62.86-50.51-.41-9.94,2.3-19.95,1.82-30.06-.21-4.51.09-9.04-.17-13.55-.14-2.38.42-4.06,2.54-5.15,1.89,21.42-.3,42.89.95,64.35.65,11.22-.97,22.59-1.7,33.88-.14,2.09-1.43,3.85-3.07,5.23Z"/>
  <path class="cls-5" d="M53.58,572.74c-1.28-6.02-1.96-12.02.6-17.92.63.07,1.26.14,1.89.21.16.36.31.71.47,1.07-1.29,1.09-2.43,2.14.45,2.46.28,1.49.56,2.98.84,4.47-.04.52-.09,1.05-.13,1.57-.2.25-.4.5-.59.76-1.31-.49-2.32-.38-1.89,1.36.59,2.36.36,4.41-1.64,6.02Z"/>
  <path class="cls-5" d="M49.22,686.24c-1.46-3.08-.71-5.47,2.24-7.17,2.33,2.81,2.53,5.38-.84,7.55-.47-.12-.93-.25-1.4-.38Z"/>
  <path class="cls-6" d="M41.31,810.75c-.37-1.39-2.32-2.63-1.28-4,1.42-1.87,1.41-4.84,4.16-5.65.39-.12,1.37.41,1.36.46-.79,3.09,3.5,6.26-.14,9.27,0,0-.01,0-.01,0-.53-.12-1.05-.24-1.58-.35,0,0,.03,0,.03,0-.92-.58-1.75-.4-2.54.27h0Z"/>
  <path class="cls-12" d="M53.84,809.93c2.93,1.61,5.33.36,7.63-1.42-3.64,5.17-14.93,6.9-22.03,3.38.62-.38,1.25-.76,1.87-1.14,0,0,0,0,0,0,.91.57,1.75.4,2.54-.27,0,0-.03,0-.03,0,.42.6.95.66,1.58.35,0,0,.01,0,.01,0,3.01,1.57,5.64-.39,8.43-.9Z"/>
  <path class="cls-12" d="M39.4,811.88c-.84.23-1.71.38-2.16-.56-.08-.17.56-.69.87-1.05.43.54.86,1.08,1.29,1.62Z"/>
  <path class="cls-2" d="M54.78,817.04c-.35.25-.7.5-1.05.75.03-.7.13-1.3,1.05-.75Z"/>
  <path class="cls-5" d="M46.6,462.84c2.96-1.2,3.89-4.91,7.13-5.76,3.09,6.57,1.23,13.57,1.37,20.31.2,9.62-1.54,19.26-.88,28.92.17,2.44-2.09,3.52-1.91,5.64-1.6-.4-3.2-.81-4.8-1.22-.64-4.97,1.25-9.94.01-14.91-.4-.64-.8-1.29-1.21-1.93,0,0-.01.02-.01.02.17-.56.35-1.12.52-1.68.1-.43.2-.87.31-1.3.64-1.5.88-2.98-.13-4.43,0,0-.27-.49-.27-.49,2.67-7.75,1.6-15.47-.13-23.19h0Z"/>
  <path class="cls-15" d="M52.35,537.4c-.84-.04-1.69-.08-2.53-.12-.7-.92-1.41-1.85-2.11-2.77,1.71-3.74,2.53-7.9,5.22-11.18,2.42,4.8,1.23,9.45-.58,14.08Z"/>
  <path class="cls-9" d="M42.81,210.74c1.65.28,3.3.56,4.95.84-.03,2.84,1.22,5.42,1.61,8.13.39,2.72.11,5.66-2.71,7.43-1.16.25-2.32.49-3.48.74-3.63-4.35-7.58-8.61-4.05-14.9,1.23-.75,2.46-1.5,3.69-2.25Z"/>
  <path class="cls-11" d="M49.8,260.03c-.57-5.3-.93-10.6-.25-15.91,1.95-1.15,2.93.09,3.81,1.56.24,1.7-.72,3.52.5,5.12-.46,3.47-.55,7.1-4.06,9.23Z"/>
  <path class="cls-4" d="M53.86,250.8c-1.21-1.61-.26-3.42-.5-5.12,1.47-.47,2.93-.93,4.39-1.4.85,1.62,1.2,3.29.49,5.06-1.46.48-2.93.97-4.39,1.45Z"/>
  <path class="cls-13" d="M46.26,266.35c.61.12,1.21.23,1.82.35-.41.21-.81.42-1.22.63-.2-.33-.4-.65-.6-.98Z"/>
  <path class="cls-6" d="M107.86,192.08c-.06-1.04.54-1.66,1.35-2.15.06,1.04-.57,1.64-1.35,2.15Z"/>
  <path class="cls-6" d="M118.58,182.02c-.03-.14-.13-.39-.09-.42.13-.09.32-.1.49-.14.03.15.13.39.09.42-.13.09-.32.1-.49.14Z"/>
  <path class="cls-7" d="M48.52,457.51c-.69.31-1.38.61-2.08.92-.44-1.91-1.46-3.9.82-5.4.42,1.49.84,2.99,1.26,4.48Z"/>
  <path class="cls-7" d="M46.14,438.77c.37-.13.74-.26,1.11-.39.48,1.89,1.41,3.83-.58,5.45-.9-1.61-1.15-3.29-.53-5.07Z"/>
  <path class="cls-7" d="M46.59,447.93c-.9-1.35-.9-2.68.06-3.99.91,1.35,1.77,2.69-.06,3.99Z"/>
  <path class="cls-7" d="M47.46,451.4c-.67-1.03-1.61-1.98-.88-3.38.74,1.01,1.41,2.04.88,3.38Z"/>
  <path class="cls-3" d="M46.59,462.83c1.73,7.72,2.8,15.44.13,23.19-1.62-7.72-2-15.45-.13-23.19Z"/>
  <path class="cls-3" d="M47,486.51c1.01,1.45.77,2.94.13,4.43-1.12-1.45-1.96-2.9-.13-4.43Z"/>
  <path class="cls-3" d="M46.31,493.9c.4.64.8,1.29,1.21,1.93-1.41-.01-1.84-.64-1.21-1.93Z"/>
  <path class="cls-3" d="M46.82,492.25c-.17.56-.35,1.12-.52,1.68.17-.56.35-1.12.52-1.68Z"/>
  <path class="cls-10" d="M47.7,534.5c.7.93,1.41,1.85,2.11,2.77-3.3,2.02-3.86,6.18-6.7,8.57-.22-.38-.45-.76-.67-1.14,1.78-3.39,2.45-7.34,5.26-10.2Z"/>
  <path class="cls-4" d="M97.87,125.8c-.75,6.5-2.56,12.6-6.72,17.8-5.25,2.31-6.67,8.32-11.4,11.42-6.35,4.15-13.23,6.91-20.06,9.92-.96-.56-1.91-1.12-2.87-1.68,1.55-2.92,6.02-1.59,8.05-5.81-5.84,1.17-10.78,2.15-15.73,3.14-4.07.5-7.82-1.44-11.81-1.59-11.98-6.64-22.18-15-27.18-28.34,1.15-.81.73-1.85.41-2.87,1.61-4.09-.68-8.34.5-12.44.67-2.31,1.3-4.63,2.03-6.93.46-1.47,1.25-2.95-1.21-3.3-1.68-3.99,2.59-5.38,3.57-8.2,1.09-3.13,1.93-6,6.59-4.54,1.98.62,2.54-2.29,3.1-3.99,2.63-7.91,8.79-11.27,16.35-12.9,5.04,1.99,10.39-.23,15.47,1.15,4.32,1.3,8.64,2.61,12.96,3.91,3.05,2.47,6.1,4.95,9.15,7.42.23.31.46.62.69.93,2.7,2.58,4.91,5.51,6.55,8.87-1.21,1.36-2.41,2.73-3.62,4.09-3.68-3.93-6.65-8.38-9.81-12.72-2.46-3.38-6.1-5.76-10.79-5.25-8.24-4.22-16.31-3.24-24.3.73-1.23.94-2.46,1.88-3.7,2.82-2.79,1.74-5.58,3.48-8.37,5.22-.96,1.39-1.93,2.79-2.89,4.18-3.31,2.66-5.1,6.16-5.72,10.31-1.62,2.36-2.15,4.98-1.86,7.8-1.31,2.2-.67,4.42-.04,6.64-.99,4.04.48,7.57,2.3,11.02.32.71.65,1.43.98,2.14,2.65,8.97,9.02,14.16,17.52,17.17,1.63,1.26,3.47,1.89,5.54,1.83.52.09,1.04.19,1.56.28.93.52,1.81.6,2.61-.23l-.08.03c1.37,1.89,3.35,1.3,5.18,1.24,10.3-.31,18.82-4.6,26.1-11.67,2.38.53,3.03-2.03,4.5-2.58,2.16-.82,1.37-9.25,6.44-2.73.04.05.9-.46,1.29-.79,3.08-2.61,6.1-5.25,4.35-9.97.81-1.21,1.63-2.41,2.44-3.62.23.05.46.1.69.16.41.64.81,1.29,1.22,1.93Z"/>
  <path class="cls-12" d="M56.96,76.65c-5.08-1.38-10.43.84-15.47-1.15.65-.35,1.31-.69,1.97-1.04,1.34.24,2.63.41,2.33-1.66-.04-.32.06-.57.32-.76.91.09,1.82.18,2.72.26,1.34.83,2.68.96,4.03.04,1.2-.34,2.39-.67,3.59-1.01.41.66.81,1.31,1.22,1.97l-.03.15c-1.33.83-1.4,1.93-.69,3.2Z"/>
  <path class="cls-4" d="M45.79,72.81c.3,2.07-.99,1.9-2.33,1.66.78-.55,1.56-1.11,2.33-1.66Z"/>
  <path class="cls-13" d="M10.15,130.67c5,13.34,15.19,21.7,27.18,28.34-1.55,1.33-3.37,1.98-5.24,1.01-11.52-6.01-20.08-14.47-22.54-27.83-.08-.45.39-1.01.6-1.52Z"/>
  <path class="cls-12" d="M49.14,160.6c4.94-.99,9.88-1.97,15.73-3.14-2.03,4.22-6.5,2.89-8.05,5.81-.94.37-1.89.75-2.83,1.13-1.86-1.02-3.75-.44-5.63-.1-.56-.09-1.11-.17-1.67-.26,1.13-.92,2.54-1.64,2.46-3.44Z"/>
  <path class="cls-6" d="M53.86,250.8c1.46-.48,2.93-.97,4.39-1.45,1.46,4.28-2.71,7.72-1.8,11.92-2.2.03-4.39.06-6.59.09-.2-.33-.41-.67-.61-1,.14-.19.32-.3.55-.32,3.51-2.12,3.59-5.76,4.05-9.23Z"/>
  <path class="cls-15" d="M54.68,542.55c.61,2.1,1.98,4.8-.23,6.08-2.6,1.5-5.63-.57-7.46-2.16-1.38-1.2.42-4.02,1.89-5.27,2.14-1.82,4.08-.3,5.8,1.35Z"/>
  <path class="cls-8" d="M50.16,552.39c.03.67.4,1.68-.54,1.76-1.8.14-1.98-1.67-2.77-2.74,1.24-.15,2.37.11,3.31.98Z"/>
  <path class="cls-8" d="M56.06,555.03c-.63-.07-1.26-.14-1.89-.21-.18-.39-.36-.78-.54-1.18,1.29-.39,2.68-.94,2.43,1.38Z"/>
  <path class="cls-8" d="M56.98,558.56c-2.88-.32-1.74-1.38-.45-2.46.15.82.3,1.64.45,2.46Z"/>
  <path class="cls-9" d="M49.87,261.35c2.2-.03,4.39-.06,6.59-.09,1.07.21,2.13.41,3.2.62-2.43,1.09-4.86,2.18-7.29,3.26-1.18.18-2.35.36-3.53.54-3.6-2.39-2.22-3.58,1.03-4.34Z"/>
  <path class="cls-9" d="M37.36,210.25c1.04-.19,1,.29.62.99-.21-.33-.41-.66-.62-.99Z"/>
  <path class="cls-8" d="M52.89,698.56c-1.36.69-2.7.5-4.05-.04.55-1.04.29-2.02-.22-2.98,2.66-1.43,3.12,1.22,4.4,2.36-.03.22-.07.44-.13.65Z"/>
  <path class="cls-5" d="M48.62,695.55c.51.96.76,1.94.22,2.98-.3.12-.61.22-.93.3-.42-.64-.83-1.28-1.25-1.93.65-.45,1.3-.9,1.96-1.35Z"/>
  <path class="cls-8" d="M53.02,697.91c.85-.19,1.78-.55,2.24.59.07.18-.39.8-.49.77-.64-.17-1.25-.46-1.87-.71.05-.21.09-.43.13-.65Z"/>
  <path class="cls-8" d="M52.32,690.77c-.2.44-.38.9-.62,1.32-.02.03-.44-.16-.68-.25.3-.4.59-.79.88-1.19,0,0,.41.13.41.13Z"/>
  <path class="cls-10" d="M56.76,415.63c-.59.43-1.17.86-1.76,1.29-1.69-.49-2.66.13-2.88,1.89-.58.51-1.16,1.02-1.73,1.54-.96.4-1.92.91-2.97.25-.1-.42-.19-.83-.29-1.25,0,0,0,0,0,0,1.77-3.3.31-6.96,1.19-10.36,4.28.35,9.38-.32,8.45,6.65Z"/>
  <path class="cls-11" d="M48.31,408.98c-.88,3.4.58,7.06-1.19,10.36-2.77-5.21-.63-10.82-1.29-16.2.55-.15,1.11-.29,1.66-.44.27,2.09.54,4.18.81,6.28Z"/>
  <path class="cls-4" d="M46.92,365.42s.26-.17.26-.17c1.43,1.18.83,3.08,1.59,4.5-.8,2.62-.75,5.26-.16,7.91-.55,1.06-.35,2.58-1.89,3.01-1.43-5.1-1.36-10.19.21-15.25Z"/>
  <path class="cls-6" d="M46.11,430.61c.18-.5.36-1.01.54-1.51,1.4.74,1.09,1.83.61,2.96-.38-.48-.77-.96-1.15-1.45Z"/>
  <path class="cls-14" d="M46.71,380.67c1.55-.43,1.35-1.95,1.89-3.01,2.41,1.36,5.51-.51,7.75,1.66-2.13,1.46-4.26,2.93-6.39,4.39-.51-.09-1.02-.18-1.53-.26-.59-.94-1.19-1.88-1.78-2.82,0,0,.06.04.06.04Z"/>
  <path class="cls-4" d="M46.65,380.63c.59.94,1.19,1.88,1.78,2.82-.1.38-.2.75-.3,1.13,0,0-.11.54-.11.54-.39.11-.79.21-1.18.32-.89-1.57-1.36-3.16-.2-4.81Z"/>
  <path class="cls-11" d="M47.12,419.35c.1.42.2.83.29,1.25,0,0-.5.24-.5.24.07-.5.14-.99.21-1.49Z"/>
  <path class="cls-11" d="M52.87,72.35c-1.35.92-2.69.8-4.03-.03,1.01-6.83.34-13.7.42-20.56.02-1.97-.73-3.62-2.07-5.02,1.94-.59,3.87-.41,5.79.14-.58,8.49-.87,16.98-.1,25.48Z"/>
  <path class="cls-9" d="M51.27,171.41c-1.47,1.09-.19,3.6-2.26,4.37-1.39-3.57-1-7.16-.13-10.76,1.86,1.73,1.22,4.4,2.39,6.39Z"/>
  <path class="cls-4" d="M51.27,171.41c-1.17-1.99-.53-4.66-2.39-6.39-.18-.24-.35-.48-.54-.72,1.88-.34,3.77-.93,5.63.1.03.22-.04.39-.21.52-3.49,1.34-.32,4.65-1.94,6.55-.19-.02-.38-.04-.56-.06Z"/>
  <path class="cls-3" d="M48.14,384.58c.1-.38.2-.75.3-1.13.51.09,1.02.18,1.53.26-.61.29-1.22.58-1.82.86Z"/>
  <path class="cls-3" d="M52.12,418.81c.22-1.76,1.19-2.38,2.88-1.89-.96.63-1.92,1.26-2.88,1.89Z"/>
  <path class="cls-4" d="M122.93,118.18c.56,1.77,1.12,3.53,1.67,5.3-.3.19-.59.4-.88.62-5.94-3.24-11.97-1.88-18.01-.37,0,0,.05-.12.05-.12-3.1-1.79-6.11-.83-9.13.25-.23-.05-.46-.1-.69-.16-.05-4.45,2.35-6.19,6.58-6.21,6.48-.03,12.95-.21,19.43-.33.32.33.64.67.96,1Z"/>
  <path class="cls-2" d="M107.09,163.21c4.57-6.79,8.6-13.84,11.17-21.67.29-.88.85-1.65,1.9-1.82.23,7.57-7.54,21.55-13.07,23.49Z"/>
  <path class="cls-11" d="M105.73,123.74c6.04-1.52,12.07-2.87,18.01.37-.26.38-.51.75-.77,1.13-3.75-1.57-7.66-.45-11.48-.74-1.92-.15-4.04,1-5.75-.75Z"/>
  <path class="cls-2" d="M120.14,139.73c-.61-5.15.93-9.89,2.81-14.56,1.58,5.34.2,10.11-2.81,14.56Z"/>
  <path class="cls-9" d="M81.85,186.01c2.97-1.9,5.46-3.49,9-5.75-1.9,4.76-4.83,5.69-9,5.75Z"/>
  <path class="cls-9" d="M96.01,177.19c-.14.48-.15.9-.32.97-.59.25-1.23.39-1.86.57.19-.29.31-.68.57-.86.42-.28.93-.41,1.6-.69Z"/>
  <path class="cls-2" d="M121.92,102.31c-3.27-9.61-6.7-19.08-13.12-27.25-11.74-14.94-26.71-23.92-45.73-25.9-1.5-.16-3.01-.48-4.32.63-.34-.49-.67-.98-1.01-1.46l-.95-1.12c.29-2.88,2.26-1.63,3.8-1.58,7.6.24,14.56,3.01,21.6,5.44,18.19,8.7,30.54,22.83,38.37,41.18-.36,3.46,2.23,6.53,1.36,10.06Z"/>
  <path class="cls-13" d="M120.57,92.26c-7.83-18.35-20.18-32.48-38.37-41.18.83-3.26,3.8-1.17,5.52-2.22.99-.05,1.59.53,2.1,1.27.81,3.53,3.33,4.31,6.5,4.02.94.72,1.88,1.44,2.82,2.16,1.12,2.92,2.48,5.57,6.21,5.61.41.59.82,1.18,1.23,1.77-.5,2.43,1.41,3.54,2.63,5.14,5.14,6.76,10.96,13.17,12.23,22.09.12.83.3,1.45-.87,1.33Z"/>
  <path class="cls-2" d="M99.08,112.82c7.79-.1,15.64.88,23.3-1.35,1.41,2.14,2.08,4.33.55,6.71-.32-.33-.64-.67-.96-1-.03-3.26-2.44-2.71-4.4-2.65-5.03.15-10.06.38-15.09.62-2.27.11-4.54.33-5.98-2,.86-.11,1.72-.22,2.58-.33Z"/>
  <path class="cls-2" d="M123.01,108.37c-1.13-1.67-2.13-3.36-.71-5.37.97,1.69,1.35,3.46.71,5.37Z"/>
  <path class="cls-2" d="M122.38,111.48c-.23-1.14-.76-2.35.61-3.18.87,1.27.53,2.3-.61,3.18Z"/>
  <path class="cls-9" d="M25.23,201.87c-1.28.68-2.32.44-3.12-.79,1.31-.78,2.35-.53,3.12.79Z"/>
  <path class="cls-9" d="M96.31,54.15c-3.17.29-5.69-.49-6.5-4.02,1.7-.36,3.55.69,5.16-.55.4.62.8,1.25,1.2,1.87.48.88.79,1.76.15,2.7Z"/>
  <path class="cls-9" d="M105.34,61.91c-3.73-.04-5.09-2.69-6.21-5.61,2.41,1.49,6.19,1.46,6.21,5.61Z"/>
  <path class="cls-12" d="M94.97,49.58c-1.61,1.24-3.46.18-5.16.55-.51-.74-1.11-1.32-2.1-1.27-.61-.98-1.22-1.96-1.83-2.95,3.82-.75,7.18-.34,9.08,3.67Z"/>
  <path class="cls-11" d="M59.68,164.95c6.83-3.01,13.72-5.77,20.06-9.92,4.73-3.09,6.15-9.1,11.4-11.42-5.46,11.6-15.27,17.76-26.94,21.66-2.29.76-4.92.71-6.77,2.62-.24-1.73,1.22-2.17,2.24-2.94Z"/>
  <path class="cls-7" d="M59.68,164.95c-1.03.77-2.48,1.21-2.24,2.94-.07,1.31-.14,2.63-.21,3.94-.68-.16-1.36-.32-2.04-.48-.37-2.16.12-4.52-1.42-6.43.17-.13.24-.31.21-.52.94-.38,1.89-.76,2.83-1.13.96.56,1.91,1.12,2.87,1.68Z"/>
  <path class="cls-11" d="M96.65,123.87c3.01-1.08,6.03-2.05,9.13-.25-2.25,2.13-5.68-.03-7.91,2.18-.41-.64-.81-1.29-1.22-1.93Z"/>
  <path class="cls-9" d="M53.77,164.92c1.54,1.91,1.05,4.26,1.42,6.43-1.11,1.32.08,3.67-2.02,4.55-.45-1.48-.89-2.95-1.34-4.43,1.62-1.9-1.55-5.21,1.94-6.55Z"/>
  <path class="cls-9" d="M52.52,184.4c.08-2.85-.77-5.77.65-8.52,1.91,3,2.24,5.88-.65,8.52Z"/>
  <path class="cls-5" d="M48.5,303.87c-.58-1.39-.57-2.77.03-4.15,1.2,1.39,2.23,2.78-.03,4.15Z"/>
  <path class="cls-5" d="M48.56,299.85c.02-.73.04-1.45.06-2.18.41.74.46,1.47-.06,2.18Z"/>
  <path class="cls-5" d="M48.46,305.43c.03-.55.06-1.1.1-1.65-.03.55-.06,1.1-.1,1.65Z"/>
  <path class="cls-13" d="M56.8,47.22c.32.37.64.75.95,1.12-2.84,7.52-1.4,15.18-.78,22.82l-.51.18c-1.2.34-2.39.67-3.59,1.01-.77-8.5-.48-16.99.1-25.48,1.29-.08,2.47,1.14,3.83.35Z"/>
  <path class="cls-11" d="M43.85,810.47c-.78.67-1.62.84-2.54.27.78-.66,1.62-.85,2.54-.27Z"/>
  <path class="cls-11" d="M45.4,810.82c-.62.31-1.16.25-1.58-.35.53.12,1.05.23,1.58.35Z"/>
  <path class="cls-7" d="M62.09,83.9c4.69-.51,8.33,1.87,10.79,5.25,3.16,4.34,6.13,8.79,9.81,12.72.15.31.29.63.42.94-.77,2.21-1.93,4.54.07,6.58,3.12,3.18,2.93,6.95,2.38,10.86-1.24.58-2.77,1.23-3.33-.51-2.43-7.47-8.9-12.61-11.92-19.23-3.84-8.43-9.54-7.77-16.18-7.45-.52-.11-1.04-.22-1.55-.34-1.58-1.71-3.29-2.58-5.79-1.11,1.92,2.11,3.75,2.19,5.76,1.23.52.12,1.03.23,1.55.35,1.45,2.54,5.16,1.24,6.56,3.86-.97.61-1.95,1.21-2.92,1.82-3.44-.9-6.88-1.79-10.32-2.69-1.84-.48-3.89-.78-3.11-3.56.76-.92.98-1.97.75-3.13v-.02c2.36-2.14,5.08-2.18,7.84-1.12,4.73,1.81,8.13,1.14,9.19-4.47Z"/>
  <path class="cls-10" d="M43.11,154.04c-.52-.09-1.04-.19-1.56-.28-.28-1.21-.56-2.41-.84-3.61.98-.57,1.97-1.15,2.95-1.72,4.1.76,5.6-1.17,4.47-5.72,4.81-.55,9.6.14,13.62-4.39,5.08-5.72,10.24-11.57,6.46-20.55-1.18-2.81-.51-4.65,1.61-6.37,1.65,4.25,6.73,6.13,7.67,10.79.86,4.24,3.27,4.44,6.58,3.04.19.3.37.6.55.91-.09.52-.18,1.04-.28,1.56-.05.62-.1,1.24-.15,1.86-.16.42-.33.84-.49,1.26-7.63,5.34-15.27,10.75-24.09,13.9-5.48,1.96-7.13,9.47-13.96,9.12,0,0,.08-.03.07-.03-.93-.6-1.78-.28-2.61.23Z"/>
  <path class="cls-13" d="M99.08,112.82c-.86.11-1.72.22-2.58.33-1.53,1.61-3.32.97-5.08.58-.34-.66-.69-1.33-1.03-1.99,1-5.34-1.51-9.66-4.09-13.95-1.64-3.36-3.85-6.3-6.55-8.87.05-.17.19-.47.14-.5-.25-.18-.55-.29-.84-.43-3.05-2.47-6.1-4.95-9.14-7.42.09-2.79,2.31-2.49,4.1-2.81,4.78-.56,7.4,3.14,10.13,5.81,7.5,7.32,12.6,16.06,13.73,26.77.09.87.79,1.67,1.2,2.5Z"/>
  <path class="cls-5" d="M45.65,153.84c6.83.35,8.48-7.16,13.96-9.12,8.83-3.15,16.47-8.56,24.09-13.9-1.16,4.79-4.03,8.66-6.78,12.59-7.27,7.07-15.8,11.36-26.1,11.67-1.83.06-3.8.65-5.18-1.24Z"/>
  <path class="cls-6" d="M76.93,143.4c2.76-3.93,5.62-7.8,6.78-12.59.16-.42.33-.84.49-1.26.05-.62.1-1.24.15-1.86.09-.52.18-1.04.28-1.56.11-.5.21-1.01.32-1.51l.62-4.36c.55-3.91.73-7.69-2.39-10.86-2-2.04-.84-4.37-.07-6.58,1.3,1.78,2.4,3.61,2.86,5.86.46,2.25,1.98,3.44,4.42,3.06.34.66.69,1.33,1.04,1.99-.82,3.01-.06,6.16-1,9.24-.63,2.06.67,3.87,3.08,4.36,1.74,4.72-1.28,7.36-4.35,9.97-.4.34-1.26.84-1.29.79-5.07-6.52-4.28,1.91-6.44,2.73-1.47.56-2.12,3.11-4.5,2.58Z"/>
  <path class="cls-3" d="M48.13,142.71c1.13,4.55-.37,6.47-4.47,5.72-3.56-5.07-7.91-8.99-14.36-9.87-.83-1.17-1.66-2.34-2.5-3.52-3.36-5.12-3.62-5.13-8.32-.28-.32-.71-.65-1.43-.97-2.14,1.06-2.69-1.75-5.44.11-8.12,4.09-2.85,5.45.46,7.37,3.07,3.63,4.95,6.96,10.49,14.4,10.02,1.8,3.61,6.23,2.71,8.74,5.12Z"/>
  <path class="cls-7" d="M29.31,138.55c6.44.88,10.79,4.8,14.36,9.87-.98.57-1.97,1.15-2.95,1.72-2.07-.72-3.24.92-4.7,1.78-8.5-3.02-14.86-8.2-17.52-17.17,4.7-4.85,4.96-4.84,8.32.28-4.17.39-5.71,2.42-3.42,6.19,2.47,4.07,8.97,6.14,13.97,4.68-3-2.17-7.02-3.16-8.05-7.35Z"/>
  <path class="cls-9" d="M93.51,127.33c-2.41-.49-3.71-2.3-3.08-4.36.94-3.08.18-6.23,1-9.24,1.76.39,3.55,1.02,5.08-.58,1.44,2.33,3.71,2.11,5.98,2,5.03-.24,10.06-.47,15.09-.62,1.96-.06,4.37-.6,4.4,2.65-6.48.12-12.95.31-19.43.33-4.24.02-6.63,1.76-6.58,6.21-.82,1.2-1.63,2.41-2.45,3.61Z"/>
  <path class="cls-3" d="M62.09,83.9c-1.06,5.61-4.46,6.28-9.19,4.47-2.76-1.06-5.47-1.02-7.83,1.12-1.21-3.44-4.57-3.67-7.28-4.86,7.99-3.96,16.07-4.94,24.3-.73Z"/>
  <path class="cls-14" d="M37.79,84.63c2.71,1.19,6.07,1.42,7.28,4.86,0,0,0,.02,0,.02-.77.44-1.4.97-1.37,1.96-3.47,7.77-8.91,10.53-16.99,6.76-.45-.21-1.11.01-1.67.03-.73-.47-1.46-.94-2.19-1.41.96-1.39,1.93-2.79,2.89-4.18,1.05,1.97,3.1,1.98,4.86,2.22,3.18.45,7.13,3.33,9.05-1.82,2.04-5.48-4.2-3.23-5.54-5.62,1.23-.94,2.46-1.88,3.7-2.82Z"/>
  <path class="cls-9" d="M74.02,77.75c-1.79.32-4,.02-4.1,2.81-4.32-1.3-8.64-2.61-12.96-3.91-.71-1.27-.64-2.37.69-3.2.22.02.45.05.67.07-.21-.07-.43-.15-.64-.22-.41-.66-.81-1.31-1.22-1.97,0,0,.51-.18.52-.19.42-.29.85-.59,1.27-.88,2.25,2.83,5.88,2,8.71,3.27,2.51,1.13,5.46,1.56,7.07,4.2Z"/>
  <path class="cls-14" d="M34.09,87.45c1.35,2.39,7.58.13,5.54,5.62-1.92,5.15-5.87,2.27-9.05,1.82-1.75-.25-3.81-.25-4.86-2.22,2.79-1.74,5.58-3.48,8.37-5.21Z"/>
  <path class="cls-9" d="M90.39,111.73c-2.45.39-3.96-.81-4.42-3.06-.46-2.24-1.56-4.07-2.86-5.86-.13-.32-.27-.63-.42-.94,1.21-1.36,2.42-2.73,3.62-4.09,2.58,4.29,5.08,8.61,4.08,13.95Z"/>
  <path class="cls-5" d="M22.83,96.84c.73.47,1.46.94,2.19,1.41-3.09,1.4-4.18,4.14-4.8,7.19-.95.59-1.9,1.18-2.86,1.77l-.26-.06c.62-4.15,2.41-7.65,5.72-10.31Z"/>
  <path class="cls-5" d="M17.63,124.49c-1.85,2.68.95,5.43-.11,8.12-1.83-3.45-3.3-6.98-2.3-11.02.2.01.41.03.61.06.6.94,1.2,1.89,1.81,2.83Z"/>
  <path class="cls-5" d="M15.26,114.95c-.29-2.82.24-5.44,1.86-7.8,0,0,.26.06.26.06,1.19,3,.58,5.61-1.73,7.83l-.39-.1Z"/>
  <path class="cls-3" d="M36.01,151.93c1.47-.87,2.64-2.5,4.7-1.78.28,1.2.56,2.41.84,3.61-2.07.06-3.91-.57-5.54-1.83Z"/>
  <path class="cls-5" d="M15.21,121.59c-.63-2.22-1.27-4.44.04-6.64,0,0,.38.1.38.1.89,2.18,1.43,4.37.18,6.61-.2-.03-.4-.05-.61-.06Z"/>
  <path class="cls-5" d="M43.11,154.04c.83-.51,1.68-.83,2.61-.23-.8.83-1.69.76-2.61.23Z"/>
  <path class="cls-9" d="M79.07,87.98c.28.14.58.25.84.43.05.03-.09.33-.14.5-.23-.31-.46-.62-.69-.93Z"/>
  <path class="cls-11" d="M58.25,70.27c-.42.29-.84.58-1.27.88-.62-7.63-2.07-15.3.77-22.82.34.49.67.98,1.01,1.46-.17,6.82-.34,13.65-.51,20.47Z"/>
  <path class="cls-14" d="M20.23,105.45c.62-3.05,1.71-5.79,4.8-7.19.56-.02,1.22-.24,1.67-.03,8.08,3.78,13.52,1.02,16.99-6.75.21.39.41.78.62,1.16-.79,2.78,1.27,3.08,3.11,3.56,3.44.9,6.88,1.8,10.32,2.69,0,0,0,0,0,0-2.01,1.71-4.2,1.12-6.43.59-2.57-.6-5.15-1.13-7.75-1.57-.96-.16-1.9.25-2.25,1.28-.38,1.1.36,1.72,1.18,2.27,3.73,2.5,13.37,2.62,17.05.2,2.18,3.59,5.77,5.53,9.08,7.8.4.65.8,1.29,1.2,1.94-2.12,1.72-2.79,3.56-1.61,6.37,3.78,8.98-1.38,14.83-6.46,20.55-4.02,4.53-8.81,3.84-13.62,4.39-2.5-2.41-6.94-1.51-8.73-5.12-.77-2.88-5.08-2.24-5.48-5.1-.86-6.14-3.26-10.85-9.12-13.8-5.49-2.76-3.95-8.49-4.57-13.24Z"/>
  <path class="cls-3" d="M69.82,111.39c-.4-.65-.8-1.29-1.2-1.94,1.08-6.52-5.58-8.08-7.95-12.39-1.4-2.62-5.11-1.32-6.56-3.86l.03-.14c6.64-.32,12.34-.98,16.18,7.45,3.02,6.62,9.49,11.76,11.92,19.23.57,1.74,2.09,1.1,3.33.51-.21,1.45-.41,2.9-.62,4.36-.29.2-.58.4-.87.6-3.31,1.4-5.72,1.2-6.58-3.04-.94-4.66-6.02-6.53-7.67-10.79Z"/>
  <path class="cls-10" d="M60.66,97.07c2.37,4.31,9.03,5.86,7.95,12.39-3.31-2.27-6.9-4.21-9.08-7.8-.6-.92-1.2-1.84-1.79-2.77,0,0,0,0,0,0,.97-.61,1.95-1.21,2.92-1.82Z"/>
  <path class="cls-3" d="M52.55,92.86c-2.02.96-3.85.88-5.76-1.23,2.5-1.47,4.21-.6,5.79,1.11,0,0-.03.12-.03.12Z"/>
  <path class="cls-3" d="M44.31,92.64c-.21-.39-.41-.77-.62-1.16-.02-.99.6-1.53,1.37-1.96.23,1.16.01,2.21-.75,3.13Z"/>
  <path class="cls-3" d="M54.1,93.21c-.52-.12-1.03-.23-1.55-.35,0,0,.03-.12.03-.12.52.11,1.04.23,1.55.34,0,0-.03.14-.03.14Z"/>
  <path class="cls-5" d="M84.34,127.7c-.05.62-.1,1.24-.15,1.86.05-.62.1-1.24.15-1.86Z"/>
  <path class="cls-5" d="M84.07,125.23c.29-.2.58-.4.87-.6-.11.5-.21,1.01-.32,1.51-.18-.31-.36-.61-.55-.91Z"/>
  <path class="cls-10" d="M20.23,105.45c.62,4.74-.92,10.47,4.57,13.24,5.86,2.95,8.26,7.66,9.12,13.8.4,2.85,4.71,2.22,5.48,5.1-7.44.47-10.77-5.08-14.4-10.02-1.92-2.61-3.28-5.93-7.37-3.07-.6-.94-1.2-1.89-1.81-2.83,1.25-2.24.71-4.43-.18-6.61,2.31-2.23,2.92-4.83,1.73-7.83.95-.59,1.91-1.18,2.86-1.77Z"/>
  <path class="cls-7" d="M29.31,138.55c1.03,4.2,5.05,5.18,8.05,7.35-5,1.46-11.5-.61-13.97-4.68-2.29-3.77-.75-5.8,3.42-6.19.83,1.17,1.66,2.35,2.5,3.52Z"/>
  <path class="cls-12" d="M57.68,73.31c.21.07.43.15.64.22-.22-.02-.45-.05-.67-.07,0,0,.03-.15.03-.15Z"/>
  <path class="cls-14" d="M57.75,98.89c.6.92,1.2,1.84,1.79,2.77-3.68,2.42-13.32,2.3-17.05-.2-.82-.55-1.55-1.17-1.18-2.27.35-1.03,1.29-1.44,2.25-1.28,2.6.44,5.18.97,7.75,1.57,2.23.52,4.43,1.11,6.43-.59Z"/>
</svg>