<?xml version="1.0" encoding="UTF-8"?>
<svg id="Layer_1" data-name="Layer 1" xmlns="http://www.w3.org/2000/svg" width="366.23" height="587.4" viewBox="0 0 366.23 587.4">
  <defs>
    <style>
      .cls-1, .cls-2 {
        stroke-width: 10px;
      }

      .cls-1, .cls-2, .cls-3 {
        stroke-miterlimit: 10;
      }

      .cls-1, .cls-3 {
        fill: #18472f;
        stroke: #000;
      }

      .cls-4 {
        fill: red;
        stroke-width: 0px;
      }

      .cls-2 {
        fill: none;
        stroke: #006837;
        stroke-linecap: round;
      }

      .cls-3 {
        stroke-width: 11px;
      }
    </style>
  </defs>
  <g>
    <path class="cls-1" d="M111.28,257.73l-15.54-5.22c-10.69-3.59-22.36.03-29.58,9.18l-11.23,14.22-27.08-5.05c-1.2-.22-2.38.48-2.84,1.69l-8.34,22.09c-.57,1.51.2,3.22,1.66,3.68l34.56,10.91c4.37,1.38,9.08-.34,11.75-4.28l8.26-12.21c6.2-9.16,16.36-14.29,26.92-13.58l26.05,1.76-14.58-23.19Z"/>
    <path class="cls-1" d="M254.95,257.73l15.54-5.22c10.69-3.59,22.36.03,29.58,9.18l11.23,14.22,27.08-5.05c1.2-.22,2.38.48,2.84,1.69l8.34,22.09c.57,1.51-.2,3.22-1.66,3.68l-34.56,10.91c-4.37,1.38-9.08-.34-11.75-4.28l-8.26-12.21c-6.2-9.16-16.36-14.29-26.92-13.58l-26.05,1.76,14.58-23.19Z"/>
  </g>
  <g>
    <path class="cls-1" d="M106.33,449.9l-16.61-5.22c-11.43-3.59-23.9.03-31.62,9.18l-12,14.22-28.95-5.05c-1.28-.22-2.55.48-3.03,1.69l-8.91,22.09c-.61,1.51.22,3.22,1.78,3.68l36.94,10.91c4.67,1.38,9.7-.34,12.56-4.28l8.83-12.21c6.63-9.16,17.49-14.29,28.77-13.58l27.84,1.76-15.59-23.19Z"/>
    <path class="cls-1" d="M259.9,449.9l16.61-5.22c11.43-3.59,23.9.03,31.62,9.18l12,14.22,28.95-5.05c1.28-.22,2.55.48,3.03,1.69l8.91,22.09c.61,1.51-.22,3.22-1.78,3.68l-36.94,10.91c-4.67,1.38-9.7-.34-12.56-4.28l-8.83-12.21c-6.63-9.16-17.49-14.29-28.77-13.58l-27.84,1.76,15.59-23.19Z"/>
  </g>
  <path class="cls-3" d="M184.5,581.9h-18.45c-9.82,0-18.58-4.64-21.87-11.58l-17.87-37.72c-16.52-34.86-24.96-71.58-24.96-108.57v-58.17c0-57.91,11.47-115.49,34.04-170.87l10.48-25.71c10.1-24.8,10.83-51.21,2.1-76.29-2.9-8.33-5.8-16.67-8.7-25-3.39-9.73-12.2-17.89-24.19-22.4l-6.52-2.45c-11.81-4.44-24.35-7.7-37.29-9.69l-14.97-2.31c-8.83-1.36-13.88-8.37-10.55-14.66h0c1.76-3.33,5.59-5.79,10.24-6.58l14.76-2.53c11-1.88,22.34-2.34,33.54-1.37l12.36,1.07c30.32,2.64,55.59,18.63,64.16,40.6h0c4.45,23.1,8.89,46.21,13.34,69.31,1.8,9.35,4.86,18.54,9.12,27.42l18.3,38.12c30.49,63.52,46.08,130.51,46.08,198.02v43.48c0,36.99-8.44,73.71-24.96,108.57l-17.87,37.72c-3.29,6.94-12.05,11.58-21.87,11.58h-18.45"/>
  <circle class="cls-4" cx="159.28" cy="448.39" r="14.81"/>
  <circle class="cls-4" cx="205.74" cy="448.39" r="14.81"/>
  <path class="cls-2" d="M121.92,419.07c40.8-9.53,81.6-9.53,122.4,0"/>
  <path class="cls-2" d="M121.92,393.11c40.8-9.53,81.6-9.53,122.4,0"/>
  <path class="cls-2" d="M121.92,364.39c40.8-9.53,81.6-9.53,122.4,0"/>
  <path class="cls-2" d="M121.92,338.43c40.8-9.53,81.6-9.53,122.4,0"/>
  <g>
    <path class="cls-2" d="M121.92,312.47c41.6-12.61,80.8-12.61,122.4,0"/>
    <path class="cls-2" d="M128.06,280.3c37.36-10.25,72.76-10.25,110.11,0"/>
    <path class="cls-2" d="M133.56,251.48c33.57-8.33,65.54-8.33,99.11,0"/>
    <path class="cls-2" d="M137.67,229.98c30.75-7.03,60.15-7.03,90.9,0"/>
  </g>
</svg>