<?xml version="1.0" encoding="UTF-8"?>
<svg id="Layer_1" data-name="Layer 1" xmlns="http://www.w3.org/2000/svg" viewBox="0 0 301.19 878.96">
  <defs>
    <style>
      .cls-1 {
        fill: #472110;
      }

      .cls-1, .cls-2, .cls-3, .cls-4, .cls-5, .cls-6, .cls-7, .cls-8, .cls-9, .cls-10, .cls-11, .cls-12 {
        stroke-width: 0px;
      }

      .cls-2 {
        fill: #d6e6d8;
      }

      .cls-3 {
        fill: #83af89;
      }

      .cls-4 {
        fill: #cbdccb;
      }

      .cls-5 {
        fill: #eff4ef;
      }

      .cls-6 {
        fill: #96ba8e;
      }

      .cls-7 {
        fill: #747c44;
      }

      .cls-8 {
        fill: #b5d4b5;
      }

      .cls-9 {
        fill: #658a6c;
      }

      .cls-10 {
        fill: #a0c3a0;
      }

      .cls-11 {
        fill: #7c9874;
      }

      .cls-12 {
        fill: #4d5424;
      }
    </style>
  </defs>
  <g id="Bow">
    <path class="cls-12" d="M281.8,324.52c-1.53-1.31-3.32-.88-5.06-.77-1.94-1.19-3.84-1.63-5.62.3-.27.11-.54.13-.82.07-.68-.68-1.41-.85-2.21-.22-.4,0-.79.01-1.19.02-1.41-1.66-2.83-1.78-4.28-.06-.48-.02-.95-.04-1.43-.06-1.04-2.03-3.68-.79-4.93-2.4,1.51-1.41,3.39-1.12,5.18-1.04,6.08.25,12.16.57,18.24.86,3.78.44,7.64.13,11.33,1.35.07.49.15.97.22,1.46-3.14.17-6.28.33-9.42.5Z"/>
    <path class="cls-12" d="M300.87,321.56c1.01,2.35-1.08,2.37-2.3,3.04-.4.08-.8.15-1.2.23-1.42-.66-2.84-.64-4.27-.01-.63-.26-1.26-.53-1.88-.79-.07-.48-.15-.97-.22-1.45,3.29-.34,6.58-.67,9.87-1.01Z"/>
    <path class="cls-5" d="M293.11,324.81c1.42-.63,2.85-.65,4.27.01-.59,1.09-.52,2.92-2.28,2.81-1.51-.1-2.24-1.23-1.99-2.82Z"/>
    <path class="cls-11" d="M300.87,321.56c-3.29.34-6.58.67-9.87,1.01-3.69-1.22-7.55-.91-11.33-1.35-.09-2.15,3.26-2.69,2.42-5.19,1.45-1.06,4.42,1.64,4.85-1.95.26-.18.5-.38.72-.61.5.04,1,.09,1.49.13.06.33.09.66.18.98.42,1.51-1.04,4.27,2.11,4.01,2.27-.19,2.5-1.76,2.04-4.04-.35-1.75.19-4.13,1.22-5.62,2.09-3,2.34-2.83-1.39-3.97-1.47-1.92.44-2.13,1.42-2.8.45-1.79.02-4.25,3.08-4.08,2.14,7.68,4.16,15.38,3.05,23.49Z"/>
    <path class="cls-7" d="M290.02,275.18c.52.79,1.04,1.58,1.56,2.37-.17.89.19,1.56.88,2.09l.03.29s.28.09.28.1c-.64,1.2-.79,2.4-.02,3.6-.6.14-1.2.28-1.79.41-2.09-1.45-1.52-5.47-5.2-5.39l-7.16-7.81c-.83-.64-1.67-2.15-2.74-1.24-2.46,2.07-3.12-.16-4.26-1.44,1.4-1.52,2.8-3.03,4.2-4.55,2.22-1.81-1.73-4.48.86-6.24,3.96,3.24,7.11,7.21,10.04,11.36.77.99,1.54,1.98,2.31,2.97-.23,0-.37.12-.42.34-.68,1.57.26,2.42,1.43,3.15Z"/>
    <path class="cls-6" d="M286.71,268.73c-2.93-4.16-6.08-8.12-10.04-11.36-1.74-3.21-5.48-4.43-7.39-7.56-.8-1.32-1.99-.08-2.85.64-.75-.49-1.5-.99-2.25-1.48-1.5-4.24.93-9.69-2.29-11.3,3.1,3.85,9.25,8.02,12.94,14.44.63,1.09,1.56,1.05,2.5.32.54.44,1.08.89,1.62,1.33,2.45,2.5,3.49,5.87,5.44,8.69.56,2.17,3.1,3.61,2.32,6.28Z"/>
    <path class="cls-6" d="M290.96,284.05c.6-.14,1.2-.28,1.79-.42,1.29-.13,1.66,1.13,2.53,1.66.2,1.68,1.12,2.97,2.22,4.17-.42.74-.85,1.48-1.28,2.21-1.29-1-2.74-2.41-4.22-.76-.73.81-.97,2.63.22,3.55,1.54,1.19,3.35,2.32,5.02.01.24-.17.46-.36.68-.55.51.76,1.02,1.51,1.53,2.27,0,0-.25.33-.25.33-.46.52-.92,1.04-1.38,1.56-3.06-.17-2.62,2.29-3.08,4.08-3.5-.72-2.41-4.96-4.94-6.43-.25-1.3-.62-2.59-.71-3.91-.27-3.69-1.61-5.79-5.72-4.22-.73-2.01,1.02-2.8,1.96-3.98.29-.19.57-.38.86-.57,1.06,1.28,2.73.82,4.04,1.41-.55.85-1.04,1.75,0,2.53.26.19,1.08.13,1.19-.07.62-1.11-.44-1.7-.93-2.47.15-.13.3-.27.45-.41Z"/>
    <path class="cls-6" d="M290.02,275.18c-1.17-.74-2.11-1.58-1.43-3.15,1.72.49,1.72,1.75,1.43,3.15Z"/>
    <path class="cls-12" d="M25.55,792.15c-2.78,5.97-3.65,12.65-6.99,18.41-4.85,3.85-6.28,9.13-6.96,15.75,1.64-1.33,2.52-2.04,3.4-2.76-.4,2.29-.79,4.58-1.19,6.88-4.39-1.16-1.79,2.61-2.39,3.82-2.59,5.23-3.2,11.11-4.43,16.77-.56,2.57-1.58,5.84,1.8,7.76.21.57.42,1.13.62,1.7-.38,1.56-1.02,3.1-.49,4.75-1.43,3.83-.78,8.15-2.92,11.83-.46.8-.3,2.13-1.67,1.87-.9-.17-.93-1.2-1.06-2.01-.58-3.66-1.17-7.33-1.75-10.99.29-1.78.06-3.5-.54-5.19-.08-.91-.16-1.81-.24-2.72.38-2.14.63-4.29-.18-6.4-.05-3.41-.09-6.82-.14-10.23.37-1.62.76-3.25-.43-4.73,1.6-1.41,1.05-3.23.93-4.97.07-.83.13-1.66.2-2.49.13-1.24.27-2.48.4-3.73.79-2.53,1.24-5.1.87-7.75,1.11-2.44,1.07-4.96.49-7.51,1.3-1.46.62-2.56-.65-3.55,3.63-1.83,2.82-5.87,4.38-8.74.59-.14,1.61-.13,1.72-.44,1.82-5.24,3.59-10.5,5.2-15.82.44-1.45-.85-1.42-1.87-1.33-.5-1.12-.26-2.07.64-2.88.65.35,1.47,1.34,1.94.09.39-1.06-.82-1.63-1.47-2.32-.93-3.43,1.67-6.83.12-10.27.67-2.08,1.35-4.17,2.02-6.25.53.4,1.05.79,1.58,1.19-.17,1.7-.33,3.4-.55,5.63,4.73-3.09,5.39-8.23,8.23-11.86,1.87.1,2.59-.66,1.82-2.49.66-.75,1.32-1.51,1.98-2.26,1.73.82.06,5.94,4.73,2.95-1.04,1.79-2.35,2.79-1.98,4.76,1-.63,1.9-1.21,2.8-1.78-10.62,13.76-13.71,30.3-17.75,46.5,2.28-3.12,4.8-6.22,5.9-9.76,2.27-7.3,7.14-12.6,12.13-17.93.41.92-.39,1.42-.67,2.12-1.63,4.2-6.02,7.02-6.03,12.02-.64,1.41-1.61,2.7-1.54,4.36Z"/>
    <path class="cls-1" d="M8.8,858.78c-3.38-1.92-2.36-5.19-1.8-7.76,1.22-5.65,1.84-11.54,4.43-16.77.6-1.22-2-4.98,2.39-3.82.82,2.55,3.54,3.43,4.85,5.54-.26.3-.53.61-.79.91-6.03,1.33-6.87,5.9-6.88,10.99-.22,1.49-.45,2.98-.67,4.47-.51,2.14-1.01,4.29-1.52,6.43Z"/>
    <path class="cls-7" d="M255.51,458.05c10.25.41,20.49.77,30.73,1.25,4.13.2,6.65,2.06,5.69,6.68-1.76,8.47-2.79,17.11-6.26,25.15-1.49,3.23-1.55,7.11-4.42,9.72-3.94,1.39-6.65,4.46-9.67,7.11-.24-.23-.45-.48-.64-.75,1.73-1.56,2.86-4.05,1.96-5.69-1.04-1.89-3.92-.76-5.99-.86-.73-.03-1.46.77-2.24.89-1.74.26-3.14.56-3.31,2.82-.21,2.84,1.27,4.62,3.21,6.29,1.98,1.7,2.87-.36,4.14-1.12,1,.67,1.95.71,2.84-.19.28,2.37,1.86,2.67,3.81,2.4-.23.87-.46,1.74-.69,2.61-3.76,3.55-6.42,7.85-8.53,12.52-1.95,2.29-3.9,4.59-5.84,6.88-6.55,1.02-10.01,5.66-13.22,10.87,1.11.29,3.3-2.35,2.49,1.16-.73.68-1.46,1.36-2.19,2.04-.81-.36-1-.1-.66.67-.95.99-1.89,1.98-2.84,2.96-.57.45-1.15.91-1.72,1.36-7.81,4.65-13.49,11.64-19.75,17.98-.24.24.21,1.16.34,1.76-2.93,2.85-5.86,5.71-8.79,8.56-1.05-.83-3.78-.67-1.07-3.24,3.41-3.24,6.2-7.13,9.68-11.23-2.74.02-3.85,1.29-4.53,2.41-2.56,4.23-6.73,6.73-10.38,9.66-2.13,1.71-5.45,1.94-8.24,2.84.5-.62.93-1.27.63-2.13,2.1-2.08,4.5-3.84,6.72-5.74,2.8-2.41,7.47-3.78,6.96-8.89v.07c3.73-1.29,5.56-4.88,8.32-7.28,3.43-2.98,5.36-7.09,3.95-12.45-1.04-3.94-3.54-6.91-4.68-10.83-4.4,2.94-6.25,7.69-9.89,10.8-.51-.47-1.02-.94-1.53-1.41.47-2.48,2.51-3.79,4.04-5.51,2.14-2.4,4.55-4.62,5.72-7.74.4-.54.79-1.09,1.19-1.63l2.03-2.24c2.63-3.7,5.52-7.24,6.84-11.71,3.92-4.37,4.21-10.02,5.58-15.36-4.94,5.38-7.08,12.81-13.45,16.93-.06.04.03.31.05.48-.67.74-1.34,1.47-2.02,2.21-2.14,2.22-8.01,1.71-5.41,7.4l-2.16,2.03c-1.54.02-2.32,1.07-3.03,2.22-3.12,5.11-6.28,10.21-9.37,15.35-.72,1.2-3.49,2.25-1.24,3.82,1.52,1.07,2.18-1.24,3.04-2.37,3.37-4.44,5.89-9.58,10.56-12.96-.92,3.26-2.91,5.94-4.97,8.51-1.39,1.74-1.73,3.16.02,4.74,1.14,1.97-.62,3.35-.93,5.02-.75,4.02-5.84,6.2-4.51,11-.35,1.02-.7,2.05-1.06,3.07-1.21-.57-2.17-.68-2.06,1.14-.59.57-1.14,1.17-.8,2.1h-.06c-.99,1.38-1.98,2.77-2.96,4.15-1.06-1.31-1.59-1.73-3.35-.17-4.8,4.27-7.88,10.36-13.97,13.24-1.48-.97,1.14-2.45-.44-3.42-1.71.12-2.34,2.41-4.26,2.13,3.85-6.76,10.77-11.04,14.42-17.99-6.4,7.14-14.7,12.41-19.98,20.63-3.57,2.41-.27,2.95,1.1,4.02-.63.95-1.78,1.64-1.45,3.04-.78.67-1.55,1.35-2.33,2.02-.87-1.16-1.73-1.45-3.37-1.04-5.38,1.34-7.92,6.11-11.62,9.35-6.93,6.08-11.27,14.73-19.14,19.97-2.78-1.67-4.16.69-5.93,2.02-1.25.94-2.02,3.02-4.57,2.17,2.11-3.6,7.06-5.95,4.03-11.04-1.53.75-1.17,3.79-3.82,3.18,3.01-4.72,5.41-10.04,9.24-13.95,2.49-2.53,1.76-6.29,4.31-7.94,2.48-1.61,3.53-3.72,4.65-6.18,4.29-9.45,11.23-16.64,19.76-22.39,1.99.31,3.55-.8,4.89-1.88,2.95-2.37,5.68-5.02,8.5-7.55.55,1.48,1.91,1.73,3.2,2.08.6,1.36-.28,3.29,1.6,4.16-.02,1.51-.81,2.97-2.15,2.96-5.74-.06-6.92,4.46-8.81,8.31-.53,1.07-1.8,2.35.54,2.96,1.48.39,2.77.33,2.98-1.5.22-1.86,1.15-3.35,2.81-3.79,10.27-2.68,11.75-12.54,16.34-19.84.15-.24-.89-1.22-1.37-1.86-1.36-2.24.77-5-1.07-7.16.41-.91,1.63-1.4,1.38-2.65,5.83-4.7,11.75-9.29,16.75-14.91,1.6-1.8,3.87-3.32,2.15-6.24,2.49-2.42,4.47-5.19,5.74-8.44,4.81-3.89,5.78-9.77,7.76-15.1.61-1.64,2.36-4.28-.52-4.91-2.49-.54-3.69,3.43-6.51,3.56,1.53,3.2-1.36,3.38-3.01,4.42-3.08-3.36-1.4-5.74,1.62-7.86,1.31-.92,2.58-1.89,3.87-2.84.9-.5,2.91.77,2.71-.53-.27-1.71-2.17-1.79-3.75-.93h-.2c-2.59-.79-5.59-.23-7.8-2.33-.07-1.12-.14-2.25-.22-3.37,2.45.26,5.85,2.67,7.11.73,2.86-4.43,6.56-6.51,11.46-7.19-.38,3-.76,6-1.14,9-1.03,3.93-1.4,7.85.38,11.89l2.81-2.69.34.03c.49.71.51,1.45.39,2.32-.15,1.09-1.72,2.73.22,3.21,1.68.41,3.3-.58,2.8-2.85-.33-1.51,1.3-1.84,1.51-2.54.97-3.28,6.98-3.34,5.18-8.21,1.73-.96,1.45-3.19,2.77-4.41.71.52,1.5,1.95,2.25,1.06,1.2-1.41-.64-2.09-1.38-2.99.3-.38.6-.77.9-1.15,0,0-.03-.07-.03-.07,1.18.27,1.41-.44,1.44-1.38,1.87-1.39,1.01-4.97,4.24-5.27l.13.29c.76,1.14,1.7,1.57,2.98.81.5.39,1,.77,1.5,1.16,1.42,2.55,4.75,2.52,6.42,4.73,3.59-3.49,6.51-1.45,9.36,1.14.36.26.92.81,1.05.72.78-.53.59-1.28.19-1.99v-.03c.71-.7,1.41-1.4,2.12-2.09.25.29.49.57.74.86-.22,1.71,1.15,2.47,2.11,3.47,0,0-.02.03-.02.03-1.19.72-2.38,1.44-3.57,2.16-1.03,1.15-2.26,1.16-3.59.62-4.24-4.59-9.65-2.03-14.41-1.87-3.33.11-3.19,4.33-4.04,7.03-.25.23-.49.45-.74.68-1.96.79-2.12,2-.85,3.56h0c-1.52.87-2.46,2.23-2.85,3.88-1.45,6.12-5.08,10.98-8.87,15.77-1.14,1.78-2.4,3.5-3.4,5.36-1.7,3.18-3.52,6.41-1.16,10.08v-.03c-.89,1.13-1.46,2.15.78,2.15.2.96.07,2.33.66,2.8,1.98,1.57.02,5.29,3.21,5.9,3.63.69,5.55-1.58,7.64-4.26,1.96-2.52,3.3-4.47.87-7.29-.94-1.09-.54-2.15.51-3,1.39.74,2.71,1.9,4.43.82.56.17,1.12.34,1.68.51,2.56,2.25,4.12.25,5.73-1.37.64-.65,1.86-1.39,1.13-2.38-.94-1.26-2.42-1.52-3.91-.7-.34-.42-.68-.84-1.02-1.26.11-.29.26-.57.43-.83,1.34-.85,2.69-1.71,4.03-2.56,2.74,4.08,4.53,0,5.8-1.16,1.92-1.76,1.81-4.36-.48-6.33-5.26-4.52-5.77-7.57-2.3-13.83.4-.69.8-1.38,1.2-2.07,2.26-.68,4.44-.74,6.85-.4,3.51.49,7.2.15,7.41-4.87.22-.17.43-.35.63-.55.83.18,1.15-.17,1.03-.99,3.21-6.31,4.71-13.2,6.48-19.97.64-2.44,0-4.6-3.35-2.68-.48-.02-.96-.05-1.44-.07-3-1.18-6.05-1.56-9.2-.67-.42-.01-.58-1.18-1.2-.27.4.08.8.16,1.2.24.74,1.01,2.73.72,2.75,2.34.01.94-1.12.95-1.88,1.15-1.91-1.97-4.39-3.43-6.17-.64-1.54,2.41,2.16,2.09,3.01,3.45,1.04,1.74-2.08,1.52-1.44,3.06-.89-.02-1.78-.04-2.67-.06-1.59-1.64-2.83-3.7-5.01-4.65-1.02-.45-2.4-.74-3.25.22-1.2,1.36,1.61,1.45,1.07,2.73-.66.03-1.34.19-1.97.06-5.51-1.16-5.52-1.18-4.39-6.93.23-1.17-.55-1.35-1.31-1.66-1.92-.78-3.51-.13-4.96,1.14-.22-.23-.4-.49-.53-.79.48-1.65.09-3.23-.29-4.85-1.72-7.33-1.69-7.33,5.21-5.76.28-.16.56-.31.85-.45.23.22.48.42.73.62.25,1.4.91,2.58,1.95,3.56-.49.64-1.15,1.21-1.44,1.92-.39.95-1.35,2.1,0,2.99.43.28,1.32.22,1.83-.04,1.15-.59,1.51-1.71,1.05-2.89-.28-.73-.89-1.33-1.35-1.98,1.34-1.34,3.82.07,4.86-2.01ZM152.44,589.4c-4.23,4.29-9.78,7.37-12.75,14.01,8.29-1.76,9.43-8.89,12.75-14.01ZM127.98,621.39c4.87-3.49,7.72-8.61,12.68-13.27-8.85,1.33-10.35,7.68-12.68,13.27ZM240.41,545.15c-6.14,5.93-10.35,13.45-16.33,19.53,6.28-5.81,12.1-12,16.33-19.53ZM188.04,561.23c2.83-2.53,6.46-4.39,8.25-9.26-4.78,2.39-6.31,5.99-8.25,9.26ZM226.9,506.32c-2.47.44-3.54,1.66-3.72,3.6-.06.61.38,1.39,1.19,1.12,1.99-.67,2.42-2.35,2.53-4.72ZM242.4,542.6c.03-.14.12-.3.08-.41-.03-.07-.24-.08-.37-.11-.04.22-.07.44-.11.67.13-.05.26-.1.39-.15ZM241.23,490.34c-.13.06-.31.08-.37.18-.25.42-.11.59.34.44.11-.04.2-.22.23-.35.01-.08-.13-.18-.2-.27ZM236.17,496.77l.37-.09-.2-.25-.17.34Z"/>
    <path class="cls-7" d="M238.16,366.18c-2.11,12.69-2.96,25.45-2.05,38.3-1.28,1.79-.44,3.39.42,5,0,0,0-.02,0-.02-2.16,6.62-.83,12.75,2.62,18.58-1.28,1.89-.74,2.76,1.5,2.67.33.59.66,1.18,1,1.77-1.02,3.86-.57,8.62-5.94,9.85-1.59-2.31-2.93-4.65-1.06-7.45,1.25-2.22-.03-3.01-1.94-3.46-2.63-7.86-.88-16.18-2.47-24.15-.06-.74-.11-1.47-.17-2.21,1.43-4.98-.14-9.93-.19-14.89.29-.96.59-1.92.88-2.89,1.21-.26,3.26.99,3.22-1.57-.06-4.14.88-8.29-.03-12.43-.03-.15-.06-.3-.09-.44.04.15.08.3.12.45-.61.59-1.28,1-2.19.73.3-1.43.7-2.86.18-4.32,1.62-2.13.65-4.81,1.5-7.1,3.67-1.55,2.63,3.03,4.69,3.59Z"/>
    <path class="cls-11" d="M250.57,340.87c-.1.55-.2,1.1-.3,1.65-8.42,5.65-10.02,14.78-12.11,23.66-2.06-.55-1.02-5.14-4.69-3.59-1.15-.95-1.96-.78-2.64.62-1.17,2.39-2.47,1.34-3.72.01,4.24-3.04,3.86-7.67,4.13-12.06.14-2.25-.5-4.73,2.04-6.17l1.89,2.07c.45.97.89,1.93,1.34,2.9,0,.19,0,.39,0,.58.03-.19.05-.39.08-.58,2.32-3.26,3.16-7.37,2.99-10.88-.23-4.7,1.18-7.42,5.18-9.36.87,1.38,1.75,2.76,2.62,4.15-.41,3,1.01,5.17,3.17,7Z"/>
    <path class="cls-2" d="M239.15,428.03c-3.45-5.83-4.78-11.96-2.62-18.58.45.68,1.19,1.31,1.3,2.05.97,6.02,3.25,10.93,8.83,14.38,2.75,1.7,3.15,12.78,1.49,15.68-2.38-2.88-2.53-7.35-6.51-9.08-.33-.59-.66-1.18-1-1.77.21-1.29-.5-2.07-1.5-2.67Z"/>
    <path class="cls-11" d="M241.65,432.47c3.97,1.74,4.13,6.2,6.51,9.08-.34.61-.68,1.22-1.02,1.82-.86.25-1.27.81-1.16,1.72-2,1.65-2.5,4.1-3.42,6.33-3,.18-4.23,2.02-4.11,4.88-2.77-.53-1.52-2.42-1.85-3.67.75-2.06-.33-3.43-1.75-4.67-.08-.57-.16-1.15-.25-1.72v.03c.8-.9.64-1.78-.02-2.65l1.13-1.3c5.38-1.24,4.92-5.99,5.94-9.85Z"/>
    <path class="cls-10" d="M236.6,452.64c.33,1.25-.92,3.15,1.85,3.67-.13-2.86,1.11-4.7,4.11-4.88,1.5,1.63,2.99,3.27,4.48,4.9-6.9-1.58-6.93-1.57-5.21,5.76.38,1.62.78,3.2.29,4.85-1.78.9.11,1.22.28,1.82l.29.22c-3.99,1.25-5.77,3.91-5.21,8.11.02.12-.47.31-.72.47-1.24-.75-2.48-1.51-3.72-2.26-.48-3.31-3.34-6.35-1.11-9.96.94-.27,1.64.17,2.3.76,1.32.98,2.82,2.3,4.36,1.02,1.37-1.13.16-2.77-.26-4.11-.63-2.01-1.01-4.14-2.8-5.64-1.74-1.45-1.73-3.41-1.1-5.43.89-.28,1.55.16,2.17.71Z"/>
    <path class="cls-11" d="M271.13,324.05c1.77-1.93,3.68-1.49,5.62-.3-.5.43-1,.87-1.5,1.3-1.27-.77-2.95.17-4.11-1Z"/>
    <path class="cls-2" d="M236.53,409.48c-.86-1.61-1.7-3.21-.42-5,1.57,1.55,2.61,3.14.42,5Z"/>
    <path class="cls-11" d="M265.83,325.07c-1.07-.41-2.14-.81-3.21-1.22,1.45-1.72,2.88-1.6,4.28.06-.36.39-.71.77-1.07,1.16Z"/>
    <path class="cls-11" d="M268.09,323.9c.81-.63,1.54-.46,2.21.22-.83.84-1.64,1.49-2.21-.22Z"/>
    <path class="cls-2" d="M245.98,445.1c-.11-.91.3-1.47,1.16-1.72.53,1.19.46,1.98-1.16,1.72Z"/>
    <path class="cls-11" d="M250.56,460.05c-1.04-.97-1.69-2.15-1.95-3.56.18-.17.39-.31.62-.4,2.09.65,4.19,1.3,6.28,1.95-1.04,2.08-3.52.67-4.86,2.01h-.09Z"/>
    <path class="cls-7" d="M251.77,323.63c-.56.35-1.13.69-1.69,1.04,0,0,.03-.05.03-.05-.54,1.02-1.08,2.04-1.62,3.06-1-1.95-3.38.05-4.5-1.58,1.29-1.28,1.68-2.65.41-4.19.48-.43.97-.86,1.45-1.29,2.68-.19,3.02-1.31,1.37-4.48.31-1.95-.12-4.13,1.75-5.59.39,2.23,1.92,2.83,3.93,2.75.16,1.16-.41,3.5,1,3.16,9.4-2.21,18.8-.55,28.2-.45.84,2.5-2.51,3.04-2.42,5.19-6.08-.29-12.16-.61-18.24-.86-1.79-.07-3.67-.37-5.18,1.04,0,0,.04-.03.04-.03-3.47-1.56-4.39-1.1-4.53,2.27Z"/>
    <path class="cls-11" d="M261.19,323.8c-2.56.7-5.13,1.51-7.69,0,.94-.81,1.87-1.62,2.81-2.43,0,0-.04.03-.04.03,1.24,1.62,3.88.38,4.93,2.4Z"/>
    <path class="cls-12" d="M134.41,38.34c2.67,9.67,6.21,18.99,10.96,27.85,0,0-.09.11-.09.11.41,3.11,1.73,5.79,3.77,8.14.71,1.31,1.43,2.62,2.14,3.92,1.18,4.24,3.75,7.78,5.9,11.53,3.75,7.89,7.9,15.56,12.7,22.86,1.39,3.85,3.36,7.37,5.89,10.57.08.52.15,1.05.23,1.57-.69.18-1.37.37-2.06.55-.42.85,0,1.54.41,2.23-.15,1.28.77,2,1.48,2.83,1,4.2,3.64,7.61,5.47,11.42.82,2.87,1.65,5.74,2.47,8.61-1.41,1.52-2.48-.57-3.77-.34-4.32-7.58-9.35-14.81-11.64-23.4,1.41-1.63.29-3.15-.25-4.66-3.46-9.66-8.45-18.52-13.72-27.31-3.59-6-6.3-12.47-13.2-16.86,2.9,6.43,5.91,12.09,8.04,18.07,2.66,7.44,6.23,14.39,9.87,21.34,4.54,12.01,10.51,23.3,17.21,34.23,1.71,2.79,2.03,6.32,4.47,8.76-1.39,2.65,1.21,3.47,2.29,4.99,2.06,1.7,2.14,4.08,2.2,6.46-1.71,1.1-1.95,2.37-1.65,4.53.31,2.18,2.49,5.07-.84,6.96-1.08-2.25-2.27-4.45-3.21-6.75-3.45-8.45-6.65-17.01-11.02-25.05-2.7-6.92-5.72-13.69-9.32-20.19-2.13-2.84-1.41-6.85-3.92-9.53-2.15-6.24-4.7-12.31-7.7-18.19-.92-3.05-2.26-5.9-4.1-8.51.32-.87.3-1.65-.64-2.14l-.07.03c.19-3.76-1.19-6.91-3.71-9.62.66-1.26-.58-1.77-1.03-2.59l.04.11c.62-1.95-.51-3.57-1.17-5.19-4.82-11.86-7.57-24.29-10.21-36.75,1.62-2.89.49-4.45-2.48-5.12.91-8.15,2.02-16.29.18-24.46.92-.71.55-1.41-.03-2.1.32-2.29.61-4.57-.5-6.76l.07-.06c3.12-1.46,2.67,1.12,2.93,2.68.89,5.3.11,11.09,4.83,15.23.58.51.84,2.03.53,2.78-2.57,6.21.68,11.59,2.23,17.22ZM170.09,120.08c.28.1.58.19.87.29-.06-.3-.03-.67-.21-.87-.18-.2-.56-.23-.85-.34.06.3.12.6.19.91ZM171.96,123.24c.14.02.28.05.41.07,0-.14.02-.28.02-.42-.2,0-.4-.02-.6-.03.05.12.11.25.16.37Z"/>
    <path class="cls-11" d="M240.17,209.02c9.85,10.89,19.7,21.78,29.55,32.67.47,1.35,1.14,2.56,2.38,3.37.41.52.83,1.04,1.24,1.56,1.33,1.94,2.66,3.87,3.99,5.81-.94.73-1.88.77-2.51-.32-3.69-6.43-9.84-10.59-12.94-14.44,3.22,1.61.79,7.05,2.29,11.3-.67.56-1.34,1.12-2.01,1.69-.97-.86-1.86-1.92-3.4-1.54,2.82-5.3-1.53-7.61-4.4-10.55-1.85-10.28-6.48-18.97-14.62-25.68-.63-.52-1.14-1.19-1.7-1.79.71-.7,1.42-1.39,2.12-2.09Z"/>
    <path class="cls-12" d="M283.39,287.6c4.11-1.57,5.45.53,5.72,4.22.1,1.31.47,2.6.71,3.91-1.37,3.36,1.45,6.63.22,9.99-3.43,1.78-3.4,4.62-2.36,7.76-.22.23-.45.44-.72.61-5.88-1.25-11.87.08-17.77-.75.47-2.77-1.93-2.66-3.45-3.32-1.29-.56-2.45-1.1-2.37-2.76.09-1.84,1.71-1.77,2.88-2.19,1.36-.49,3.73.27,3.07-2.6,2.04-.56,4.03-.45,5.98.38-.34.89-.98,1.85.03,2.64.54.42,1.35.31,1.69-.37.58-1.15-.54-1.73-1.04-2.51.72-.56,1.44-1.13,2.16-1.69,1.41.84,3.01,1.28,4.18,2.6,1.54,1.72,3.69,1.2,4.94-.01,1.66-1.61-.81-2.39-1.47-3.51-2.67-4.51-7.23-5.12-11.84-5.58-1.36-.56-1.64-2.97-3.77-2.19-2.52,2.99-5.54,4.78-9.63,3.99-2.97-1.81-1.64-4.96-2.33-7.49.45-.09,1.3-.23,1.3-.26-.6-4.13,1.72-5.06,5.18-4.86,1.2.07,2.3-.32,3.22-1.12.39.49.77.98,1.16,1.47-.3,1.02.13,1.73.96,2.27,4.25,2.38,8.87,1.12,13.34,1.37ZM267.05,289.7c-1.53,1.24-2.27-3.16-3.98-.59-1.01,1.53-2.1,3.57-.4,4.96,1.43,1.17,3.1-.4,4.36-1.32.99-.73,1.24-1.95.02-3.05ZM286.85,306.3c.06-.09.19-.2.18-.28-.02-.12-.13-.23-.21-.34-.11.16-.22.31-.33.47.12.05.24.11.36.16Z"/>
    <path class="cls-6" d="M269.18,313.33c5.9.83,11.89-.5,17.77.75-.44,3.59-3.4.89-4.85,1.95-9.39-.1-18.79-1.76-28.2.45-1.41.33-.84-2.01-1-3.16,5.42,0,10.85.01,16.27.02Z"/>
    <path class="cls-6" d="M293.33,304.96c3.73,1.14,3.48.97,1.39,3.97-1.03,1.48-1.57,3.87-1.22,5.62.46,2.28.23,3.85-2.04,4.04-3.16.26-1.69-2.5-2.11-4.01-.09-.32-.12-.65-.18-.98,1.81-1.32.98-3.46,1.62-5.15.34-.1.69-.2,1.03-.31-.27-.33-.55-.66-.82-.98l-.18-.06c.84-.72,1.67-1.43,2.51-2.15Z"/>
    <path class="cls-10" d="M293.33,304.96c-.84.72-1.67,1.43-2.51,2.15-.26-.47-.52-.93-.78-1.4,1.23-3.36-1.58-6.63-.22-9.99,2.53,1.47,1.44,5.71,4.93,6.44-.99.67-2.89.88-1.43,2.8Z"/>
    <path class="cls-1" d="M290.03,305.71c.26.47.52.93.78,1.4,0,0,.18.06.18.06-.07.43-.14.86-.21,1.29-.64,1.68.18,3.83-1.62,5.15-.5-.04-1-.09-1.49-.13-1.04-3.14-1.06-5.97,2.36-7.76Z"/>
    <path class="cls-1" d="M267.93,282.49c-.93.8-2.02,1.19-3.22,1.12-3.46-.21-5.78.73-5.18,4.86,0,.02-.85.17-1.3.26-.6-1.66-1.21-3.32-1.81-4.98,0,0,0,.04,0,.04,0-.48-.01-.96-.02-1.43-.39-2.1-.6-4.25-1.22-6.28-1.31-4.27-3.42-8.65,3.2-10.44,1.33.22,1.5-.96,2.05-1.69.72.05,1.45.1,2.17.15.93,1.3,1.74,1,2.68-.07,1.49-1.7,3.09-3.31,4.65-4.96.63.07,1.26.14,1.89.21,1.48,1.32,3.23,2.38,3.99,4.35-1.4,1.52-2.8,3.03-4.2,4.55-.61.59-1.22,1.17-1.83,1.76-2.86,1.84-4.7,4.08-2.93,7.68l1.08,4.89ZM259.03,276.4c1.19.84,2.45,1.17,3.54,0,1.4-1.52.52-3.15-.29-4.53-.71-1.22-1.73-.46-2.44.19-1.33,1.21-1.92,2.63-.81,4.34Z"/>
    <path class="cls-10" d="M267.93,282.49c-.36-1.63-.72-3.26-1.08-4.89.88-2.6,5.53-3.76,2.92-7.68.61-.59,1.22-1.17,1.83-1.76,1.13,1.28,1.8,3.52,4.26,1.44,1.08-.91,1.91.6,2.74,1.24-1.45,1.66-6.02-.54-5.05,4.1l-.03.06c-1.26.94-1.17,2.2-.85,3.52,1.17,4.83,4.42,5.89,11.33,3.69.45.47.9.94,1.35,1.41-.95,1.18-2.69,1.97-1.96,3.98-4.47-.25-9.09,1.01-13.34-1.37.63-1.16.92-2.17-.96-2.27-.39-.49-.77-.98-1.16-1.47Z"/>
    <path class="cls-11" d="M275.8,263.61c-.76-1.97-2.51-3.03-3.99-4.35.03-1.51-.76-2.89-2.16-2.5-1.35.38-.09,1.52.27,2.29-1.55,1.65-3.16,3.26-4.65,4.96-.94,1.07-1.74,1.38-2.68.07.47-.7.83-1.42.46-2.29.91-1.57,1.79-3.17,2.74-4.71,1.32-2.12,2.91-4.19.62-6.64.86-.72,2.04-1.96,2.85-.64,1.91,3.13,5.65,4.36,7.39,7.56-2.59,1.76,1.36,4.43-.87,6.24Z"/>
    <path class="cls-1" d="M284,282.21c-6.91,2.2-10.16,1.15-11.33-3.69-.32-1.32-.4-2.58.85-3.52,1.13,2.72.91,6.53,5.26,6.66,1.1.03,3.06-.74,2.02-1.57-2.28-1.83-2.35-7.1-7.25-5.15-.97-4.64,3.61-2.44,5.05-4.1,2.39,2.61,4.77,5.21,7.16,7.82-.09.23-.17.47-.23.71-.51.95-1.02,1.89-1.53,2.84Z"/>
    <path class="cls-11" d="M285.54,279.37c.06-.24.13-.48.23-.71,3.68-.08,3.11,3.94,5.2,5.39-.15.14-.3.28-.45.41h-.27c-1.31-.59-2.98-.13-4.04-1.41-.39-1.2.54-2.63-.67-3.68Z"/>
    <path class="cls-1" d="M266.42,250.44c2.29,2.45.7,4.51-.62,6.64-.96,1.54-1.83,3.14-2.74,4.71-.97-.92-1.94-1.83-2.91-2.75-.78-1.04-1.98-1.87-1.76-3.42.59-2.17,3.83-2.31,3.78-4.96.67-.56,1.34-1.13,2.01-1.69.75.49,1.5.99,2.24,1.48Z"/>
    <path class="cls-11" d="M296.22,291.67c.34.93.69,1.86,1.03,2.8-1.67,2.31-3.48,1.18-5.02,0-1.19-.92-.95-2.73-.22-3.55,1.48-1.65,2.92-.25,4.22.76Z"/>
    <path class="cls-11" d="M290.51,284.46c.49.77,1.55,1.35.93,2.47-.11.2-.93.26-1.19.07-1.05-.78-.56-1.68,0-2.53,0,0,.26,0,.26,0Z"/>
    <path class="cls-7" d="M285.54,279.37c1.21,1.05.28,2.48.67,3.68-.28.19-.57.38-.86.57-.45-.47-.9-.94-1.35-1.41.51-.95,1.02-1.89,1.53-2.84Z"/>
    <path class="cls-1" d="M15.01,823.55c-.88.71-1.76,1.43-3.4,2.76.68-6.62,2.11-11.9,6.96-15.75-.46,4.53-2.26,8.69-3.56,12.99Z"/>
    <path class="cls-7" d="M33.79,773.64c-4.98,5.33-9.86,10.63-12.13,17.93-1.1,3.54-3.61,6.64-5.9,9.76,4.04-16.2,7.13-32.74,17.75-46.5-.9.57-1.8,1.15-2.8,1.78-.38-1.97.93-2.98,1.98-4.76-4.67,2.99-3-2.13-4.73-2.95.11-.79.23-1.57.34-2.36,1.1-1.42,2.11-2.85,1.3-4.79,2.32-1.75,2.47-4.89,4.4-6.89,2.48,1.51-.29,4.38,1.4,6.21,3.34-1.92,2.65-5.69,4.39-8.31,4.37-6.55,11.63-10.13,16.12-16.47.78-1.1,1.96-1.16,3.04-.19.04.15.07.3.11.45-.05-.15-.1-.3-.14-.45,4.3-3.74,6.31-9.21,10.09-13.32,2.69-2.92,4.66-7.04,9.67-6.65-.45,2.06-1.61,3.76-2.76,5.47-.37.55-1.15,1.48,0,1.84.52.17,1.35-.64,2.05-1,.42,3.28-.58,5.91-3.18,8.11-2.42,2.05-3.01,6.59-1.39,8.13l-1.02,2.68c-1.81,2.46-3.62,4.92-5.43,7.38-5.35,7.02-11.03,13.79-15.73,21.29-.76.66-1.52,1.32-2.28,1.98-.59-.19-1.58-.71-1.72-.54-4.65,5.71-8.91,11.68-11.29,18.76l.05-.08c-1.05,1.01-2.61,1.69-2.25,3.58l.08-.1ZM50,743.49c-5.53,1.47-9.38,2.9-10.3,7.87,5.37.53,6.78-3.93,10.3-7.87ZM39.35,758.13c-4.04,1.71-6.78,3.48-8.72,6.23-1.04,1.47-.65,2.92.85,3.82,1.61.97,3.01-.29,2.8-1.5-.69-3.95,2.61-5.39,5.07-8.55Z"/>
    <path class="cls-1" d="M6.6,797.92c-.02-.72-.03-1.43-.05-2.15.52-2.16,2.27-4.11,1.16-6.55.78-.55,1.3-1.14.24-1.92l.12.07c2.58-1.64,2.44-4.67,3.59-7.03,1.02-.1,2.31-.12,1.87,1.33-1.61,5.31-3.39,10.57-5.2,15.82-.11.31-1.12.3-1.72.44Z"/>
    <path class="cls-1" d="M12.29,777.45c.16-.74.31-1.49.47-2.23.64.69,1.86,1.26,1.47,2.32-.46,1.25-1.29.26-1.94-.09Z"/>
    <path class="cls-7" d="M24.16,753.66c-.24-1.45.23-2.38,1.82-2.49.76,1.83.05,2.58-1.82,2.49Z"/>
    <path class="cls-12" d="M176.42,549.14c-4.6,1.04-1-2.52-1.97-3.52-1.63-3.75,1.56-5.1,3.65-6.97-4.21-2.91-5.28-1.21-6.79,3-1.01,2.82-4.81,4.93-8.75,4.46-2.14,2.22-4.44,4.3-6.37,6.69-2.09,2.59-5.22,2.73-6.73-.3-.19-.39-.42-.69-.65-.94-1.45.26-2.91,0-4.32-.47-.3,3.4-1.02,7.08-3.92,8.59-.04.23-.09.46-.15.69-.39,1.42-1.09,2.63-2,3.61.27,1.53,1.03,3.01,2.39,4.32,3-2.48,4.26-6.24,6.69-9.12.84-1,1.73-2.95,3.35-2.09,1.15.61,2.14,2.2,2.46,3.53.37,1.5-1.2,2.12-2.45,2.63-3.43,1.4-6.47,3.23-8.13,6.8-.64,1.39-1.77,1.26-2.84.33-7.19,10.08-14.95,19.75-21.5,30.29-.8,1.28-.78,3.47-3.14,3.34-.41.46-.82.91-1.23,1.37.61,1.05.48,1.96-.5,2.71-4.51,5.9-6.94,13.24-12.75,18.24-4.07,7.63-9.21,14.56-14.08,21.67-10.74,16.78-21.48,33.56-32.22,50.34-5.01,8.35-9.19,17.18-14.75,25.2-.04.46-.08.92-.12,1.37,1.86,3.65-.63,8.43-4.38,8.42-.4.51-.8,1.02-1.2,1.53,2.48,1.51-.29,4.38,1.4,6.21,3.34-1.92,2.65-5.69,4.39-8.31,4.37-6.55,11.63-10.13,16.12-16.47.78-1.1,1.94-1.16,3.02-.21,4.29-3.74,6.3-9.2,10.08-13.31,2.69-2.92,4.66-7.04,9.67-6.65,4.42-5.78,7-12.74,11.84-18.25,2.18-5.42,5.81-9.82,9.7-14.07.98-1.07,3.25-1.69,1.78-3.92-4.95,3.48-6.89,9.64-11.74,13.22-4.41,3.59-5.6,9.2-8.57,13.7-1.18,1.79-2.6,3.21-4.81,4.58-.39-3.24,1.95-4.68,2.48-6.86-4.53-1.73-4.23,1.45-5.62,4.32-2.64,5.45-6.01,10.9-10.29,15.12-4.57,4.51-7.16,10.48-12.82,14.18,2.96-4.95,5.54-10.18,9-14.75,2.51-3.32,5.32-6.53,7.1-10.19,4.97-10.24,14.71-16.4,21.12-25.4,1.61-2.26,3.48-4.65,4.48-6.96,1.32-3.04,3.08-4.87,5.77-6.31,1.75-.94,2.72-2.52,2.49-4.53-.1-.85-1.02-1.35-1.92-1.28-2.07.18-3.13,1.41-3.73,3.4-1.58,5.25-6.16,8.41-9.14,12.71-4.16,6-8.81,11.6-14.6,17.33,4.1-12.25,12.66-20.23,19.92-29.39,8.02-10.11,17.06-19.86,22-32.2.59-1.48,1.68-2.47,2.81-3.43,1.15-.98,2.56-1.18,3.48.19.96,1.43-.73,1.74-1.34,2.6-3.56,5.03-7.01,10.11-11.29,14.6-.87.92-.27,2.22.58,3.17,5.24-4.3,8-10.69,12.92-15.25,3.01-4.72,5.41-10.04,9.24-13.95,2.49-2.53,1.76-6.29,4.31-7.94,2.48-1.61,3.53-3.72,4.65-6.18,4.29-9.45,11.23-16.64,19.76-22.39,6.05-7.09,12.83-13.47,19.46-20,.28-.73.57-1.46.85-2.19-.71-.23-1.42-.46-2.13-.69ZM159.24,557.36c1.9-3.81,1.95-3.85,7.65-5.49q-2.7,3.6-7.65,5.49ZM170.38,545.72c.09-.08.28-.04.42-.05-.05.14-.1.28-.14.42-.14.01-.29.03-.43.04.05-.14.06-.33.15-.41ZM170.75,551.62c-.48.47-1.12.66-1.95.15.14-.34.19-.81.46-1.08.57-.56,1.28-1.21,2.01-.29.14.17-.22.91-.53,1.22Z"/>
    <path class="cls-12" d="M73.39,718.69c-1.62-1.54-1.03-6.08,1.39-8.13,2.6-2.21,3.6-4.83,3.18-8.12,4.46-7.73,8.92-15.46,13.38-23.19,5.16-6.8,10.77-13.31,15.27-20.52,1.97-3.15,3.54-6.16,6.88-7.94.84-.45,1.07-1.18.77-1.84-1.18-.91-1.62,1.23-2.83.26,1.98-1.98,3.96-3.96,4.98-6.64l1.93-1.78c1.04-.7,2-1.45,1.73-2.93l1.2-1.26c1.77-1.72,4.36-2.77,4.61-5.71,1.56-1.59,3.12-3.17,4.68-4.76,7.88-5.24,12.21-13.89,19.14-19.97,3.7-3.25,6.24-8.01,11.62-9.35,1.64-.41,2.49-.12,3.37,1.04-1.56,1.62-3.11,3.24-4.67,4.86-.68-.08-1.25,0-1.76.61-4.01,4.78-6.57,10.78-12.97,13.54-2.32,1-5.41,3.25-5.53,6.06-.19,4.39-2.79,6.95-5.41,9.63-2.19,2.24-3.9,4.75-4.93,7.9,2.6-2.49,5.19-4.98,7.79-7.47.11.14.22.28.33.41-1.04,1.77-2.08,3.53-3.35,5.7,4.74-1.75,7.81-4.75,10.28-8.36,2.39-3.49,4.55-7.05,9.77-5.98.76.16,1.86-.62,2.6-1.23,9.65-7.95,16.97-17.87,23.72-28.25,1.68-2,3.37-4,5.05-6,3.81.47,5.61-1.07,5.02-5.01,1.23-1.07,2.14-3.04,4.28-1.51-.78,1.43-1.51,2.89-2.34,4.28-.85,1.42-.21,2.27.77,3.36.91,1.02,1.54,1.11,2.33.15.9-1.09,3.31-2.49,2.42-3.24-3.4-2.89-.17-4.04,1.02-5.77l.31.04c2.79-.9,6.11-1.13,8.24-2.84,3.65-2.94,7.82-5.44,10.38-9.66.68-1.12,1.79-2.39,4.53-2.41-3.48,4.1-6.27,7.99-9.68,11.23-2.71,2.57.02,2.42,1.07,3.24-7.68,5.41-14.07,12.26-20.78,18.75-1.78-.3-2.42,1.15-3.34,2.18-3.46,2.28-6.32,5.33-9.34,8.06-6.73,6.08-15.12,10.04-21.18,16.91-2.4,1.73-4.81,3.46-7.21,5.19-6.07,3.33-10.27,8.73-15.02,13.53-5.61,4.34-9.61,10.22-14.53,15.22-2.02,2.13-4.04,4.26-6.05,6.39-1.69-1.27-2.28-2.49-.75-4.53,1.54-2.05,2.54-4.51,3.77-6.78-8.96,7.66-16.68,16.25-22.26,27.05,2.16-.3,3.91-.55,5.66-.8-1.48,1.78-2.86,3.66-4.46,5.33-5.16,5.39-10.15,10.91-14.03,17.33-.86,1.05-1.73,2.1-2.59,3.15-5.18.64-6.38,4.44-6.94,8.74-.5.61-1,1.22-1.5,1.84Z"/>
    <path class="cls-1" d="M259.26,499.79c-3.46,6.26-2.96,9.32,2.3,13.83,2.29,1.97,2.4,4.57.48,6.33-1.27,1.16-3.07,5.24-5.8,1.16-2.41-2.29-4.83-4.58-7.47-7.09-.78,3.42,1.25,5.7,2.02,8.31-.33,1.03.19,1.67.99,2.17.34.42.68.84,1.01,1.26,1.35,3.02-2.4,2.68-2.95,4.45-.56-.17-1.12-.34-1.68-.51-1.94-2.3-2.82-5.69-6.49-6.67-.03,2.5,1.03,4.17,2.05,5.86-1.06.85-1.46,1.9-.51,3,2.43,2.82,1.09,4.77-.87,7.29-2.08,2.68-4.01,4.95-7.64,4.26-3.19-.61-1.24-4.33-3.21-5.9-.59-.47-.46-1.84-.66-2.8.21-.89.57-1.83-.78-2.15,0,0,0,.03,0,.03,2.15-.87.52-2.93,1.33-4.22,1.66-.69,3.15-.95,4.09,1.16.39.87,1.06,1.35.36,2.59-2.72,4.79-2.58,4.93,3.04,5,.55-1.78-3.05-2.98-1.34-4.15,3.22-2.19-1.57-4.65.73-6.5-2.15-.29-4.03-2.37-6.43-.94,1.34-2.38,2.69-4.75,4.03-7.13,2.02-2.67,4.05-5.34,6.07-8.01,1.12.84,2.2,2.45,3.7.72,1.82-2.1,4.24-2.07,6.75-2.08-.51-1.86-.98-3.57-1.46-5.28q5.29-2.17,1.08-6.16c.27-.19.5-.41.69-.68,0,0-.02,0-.02,0,.94.04,1.87.08,2.81.11.71.25,1.43.5,2.14.76.55.66,1.09,1.32,1.64,1.99Z"/>
    <path class="cls-1" d="M194.9,582.76c-2.14-1.52-3.05.44-4.28,1.51-.58.45-1.13,1-1.96.53.93-4.17,4.49-6.77,6.27-10.44.99-1.39,1.98-2.78,2.96-4.17.81.25,1.62.51,2.43.76,1.99,2.31,3.4,1.06,4.57-.83.66-1.07.69-2.43-.47-3.04-2.18-1.16-2.12,1.23-2.97,2.17-.74-.61-.8-1.42-.64-2.28.35-1.02.7-2.05,1.06-3.07,1.11-1.76,4-1.79,4.2-4.49.24-3.14,2.1-3.38,3.8-1.35,2.16,2.58,4.91,1.83,6.59.76,3.06-1.95-2.97-2.04-1.23-4.41,3.55.26,5.76-1.29,5.78-5.23,3.69-1.83,3.45-4.2.96-6.89-1.18-2.17-3.23-2.51-4.06-.41-1.43,3.59-5.6,4.37-6.73,8.83-.94-2.67,1.19-3.96.23-5.59,3.64-3.1,5.49-7.86,9.89-10.8,1.14,3.92,3.64,6.89,4.68,10.83,1.42,5.36-.51,9.47-3.95,12.45-2.77,2.4-4.59,5.99-8.32,7.28-1.14-.16-2.23-1.23-3.61-.07,1.29,1.48,2.44,1,3.61,0,.51,5.12-4.16,6.48-6.96,8.89-2.22,1.91-4.62,3.66-6.72,5.74-.26.21-.52.42-.77.64-2.8-1.3-3.26,1.22-4.37,2.68ZM211.13,568.25c-1.6.48-2.88,1.58-3.8,3.35,1.87-.47,2.63-1.98,3.8-3.35Z"/>
    <path class="cls-11" d="M194.93,574.36c-1.78,3.67-5.33,6.27-6.27,10.44-1.19,1.38-3.31,2.12-3.06,4.48-1.68,2-3.37,4-5.05,6-4.04.95-7.09,3.39-9.41,6.68-1.02,1.44-1.53,2.09-3.75,1.88-3.66-.36-.2-3.08-1.56-3.68-2.38.2-2.63,4.46-5.81,2.57,1.56-1.62,3.12-3.24,4.67-4.86.78-.67,1.55-1.35,2.33-2.02,3.14-.82,4.92-3.04,6.74-6.2-2.9.14-3.69,2.32-5.29,3.16-1.37-1.07-4.66-1.61-1.1-4.02,2.72.94,3.79-1.59,5.56-2.64,1.91.28,2.55-2.01,4.26-2.13,1.59.97-1.03,2.45.44,3.42,6.09-2.87,9.16-8.97,13.97-13.24,1.76-1.56,2.28-1.14,3.35.17ZM169.55,598.75c-.1.44-.48,1.12-.29,1.55.37.85,1.16.43,1.52-.04.34-.44.66-1.24.49-1.68-.4-1.03-.97-.13-1.72.17Z"/>
    <path class="cls-11" d="M231.93,465.32c-2.23,3.61.63,6.65,1.11,9.96-1.89.9-.58,3.26-2.26,4.52-2.83,2.13-2.92,6.68-.58,9.61,1.88.13-1.15,4.39,2.53,3.01.07-.52.14-1.04.21-1.55v-.02c.76-.7,1.53-1.39,2.29-2.09.51.57,1.01,1.13,1.52,1.7,1.79,4.87-4.21,4.92-5.18,8.21-.21.7-1.84,1.03-1.51,2.54.5,2.27-1.13,3.27-2.8,2.85-1.94-.48-.38-2.12-.22-3.21.12-.87.1-1.6-.4-2.32.46-.77,1.54-1.31.97-2.45-.08-.16-.61-.29-.77-.18-.98.67-.69,1.66-.55,2.6l-2.81,2.69c-1.78-4.04-1.41-7.96-.38-11.89,4.2-3.41,4.73-6.45,1.75-9.99-.17-.69-.33-1.38-.5-2.08,1.21-2.25,1.39-4.74,1.71-7.2.5-3.72-.76-7.61,1.1-11.2.31.29.61.59.92.88-.22,2.9,2.89,3.51,3.85,5.6Z"/>
    <path class="cls-11" d="M121.27,636.63c-.4.42-.8.84-1.2,1.26-2.2.01-2.71,1.03-1.73,2.93-.64.59-1.29,1.18-1.93,1.78-2.63-1.29-3.47,1.11-4.82,2.37-2.52,2.35-4.99,4.76-7.87,7.53-.05-4.78,3.42-7.14,5.04-10.41,1.82.13,2.84-1.48,4.36-2.07,1.68-.65,3.2-1.88,2.82-4.08-.09-.54-.75-1.4-1.13-1.4-2.15.03-2.97,1.7-3.7,3.4-.06.15-.15.29-.22.44-1.07.2-2.13.52-3.21.58-1.79.1-.48-.74-.31-1.23,5.24-4.3,8-10.69,12.92-15.25,2.65.62,2.29-2.42,3.81-3.18,3.02,5.09-1.93,7.44-4.03,11.04,2.55.85,3.31-1.23,4.57-2.17,1.78-1.34,3.15-3.69,5.93-2.02-1.56,1.59-3.13,3.17-4.69,4.76-4.51-.5-4.8,2.42-4.61,5.71Z"/>
    <path class="cls-12" d="M221.01,549.18c-.02,3.94-2.23,5.49-5.78,5.23-1.74,2.36,4.29,2.46,1.23,4.41-1.69,1.07-4.44,1.82-6.59-.76-1.7-2.03-3.56-1.79-3.8,1.35-.2,2.7-3.09,2.73-4.2,4.49-1.33-4.8,3.76-6.98,4.51-11,.31-1.67,2.07-3.05.93-5.02.89-1.37,1.1-3.16,2.58-4.17.51.47,1.02.94,1.53,1.41.96,1.63-1.18,2.92-.23,5.59,1.13-4.46,5.3-5.24,6.73-8.83.83-2.09,2.88-1.75,4.06.41-.48,2.27-8.24,3.53-.96,6.9Z"/>
    <path class="cls-6" d="M186.78,556.06c.49.64,1.52,1.62,1.37,1.86-4.6,7.29-6.08,17.16-16.34,19.84-1.66.43-2.59,1.92-2.81,3.79-.22,1.83-1.5,1.89-2.98,1.5-2.34-.62-1.07-1.89-.54-2.96,1.89-3.85,3.07-8.36,8.81-8.31,1.35.01,2.13-1.45,2.15-2.95,3.45-4.25,6.9-8.51,10.34-12.76Z"/>
    <path class="cls-12" d="M224.35,477.24c.17.69.33,1.38.5,2.08-.2.33-.41.66-.61.99-4.9.68-8.59,2.76-11.46,7.19-1.26,1.94-4.66-.47-7.11-.73-.25-.02-.5-.03-.74-.04-.43-1.22-1.16-3.23.34-3.35,3.16-.24,3.22-3.39,5.24-4.53.42-.02.83-.03,1.25-.05-.03.13-.01.3-.08.4-.77,1.15-2.47,2.45-.2,3.5,1.76.82,1.92-1.22,2.82-2,3.18-2.74,1.8-7.5,5.05-9.95.92-1.1,1.81-.88,2.68.06v-.04c-.33.9.04,1.58.67,2.19v-.05c-.01.49-.02.98-.03,1.46v-.04c0,.49-.02.98-.03,1.47v-.06c-.41.59-1.12,1.23-.32,1.88.24.19,1.01-.26,1.53-.42l.49.03Z"/>
    <path class="cls-1" d="M247.92,493.28c.85-2.7.71-6.92,4.04-7.03,4.76-.16,10.17-2.72,14.41,1.87-.86.46-1.7.94-1.98,1.98-1.01,1.17-2.4,1.62-3.82,1.99-4.93-2.15-5.61,2.66-7.89,4.83h.02c-1.16-1.78-3.22-2.39-4.77-3.65Z"/>
    <path class="cls-12" d="M209.44,504.63c1.64-1.04,4.54-1.22,3.01-4.42,2.82-.13,4.02-4.1,6.51-3.56,2.88.63,1.13,3.26.52,4.91-1.98,5.33-2.96,11.21-7.76,15.1-.19-.67-3.35.95-1.19-1.54,2.77-2.32,2.2-4.62-.05-6.9-.34-1.2-.69-2.39-1.03-3.59Z"/>
    <path class="cls-1" d="M209.44,504.63c.34,1.2.69,2.39,1.03,3.59-.28.25-.55.49-.83.74-.68-.73-1.41-1.4-2.02-2.19-2.22-2.89-3.71-6.82-8.8-3.59-1.54.98-2.78-.73-.93-2.47,1.01.33,1.84.39,1.7-1.08,2.16-2.15.79-4.84.82-7.21,2.8-.61,3.36,3.03,5.85,2.5,2.98.71,5.07-1.25,7.43-2.43,0,0,.2-.01.2-.01.35.49.69.97,1.04,1.45-1.29.95-2.56,1.92-3.87,2.84-3.02,2.12-4.69,4.5-1.62,7.86Z"/>
    <path class="cls-10" d="M219.87,519.13c.67-.74,1.34-1.47,2.02-2.21,1.89.68,3.19-.29,4.37-1.56,1.02-1.09,2.11-1.62,3.44-.49-1.31,4.47-4.21,8.01-6.84,11.71-.73-.47-1.38-1.83-2.33-.88-.89.89.07,2.08.3,3.12-.4.54-.79,1.09-1.19,1.63-.33-.22-.66-.44-.99-.66-2.92-2.5-2.77.53-3.52,1.95-.25.19-.51.36-.79.5-1.17-.96-1.67-2.29-2.05-3.68.72-.68,1.44-1.35,2.16-2.03,1.33-.87,2.64-1.76,3.98-2.62,1.86-1.19,2.83-2.63,1.42-4.78Z"/>
    <path class="cls-12" d="M265.14,476.87c-.63-1.55,2.49-1.33,1.44-3.07,1.05-.94,2.11-1.87,3.16-2.81.76-.2,1.9-.21,1.88-1.15-.02-1.62-2.01-1.33-2.75-2.34v.02c3.15-.88,6.2-.51,9.2.67-2.85,3.13-3.2,6.53-1.12,10.2-2.31-.42-3.44,1.34-4.84,2.62-.23.26-.45.53-.68.79v.04c-.25-.29-.5-.57-.75-.86-.43-.47-.85-.95-1.28-1.42,0,0,0-.01,0-.01,1.58-1,1.26-1.84-.34-2.24-1.27-.32-2.63-.31-3.95-.44Z"/>
    <path class="cls-12" d="M247.92,493.28c1.55,1.27,3.61,1.87,4.77,3.65-.19.26-.42.49-.69.68-.08,1.79.06,3.59-2.43,4.1-.98.2-2.48,1.06-1.67,2.38.84,1.38,1.95-.48,3.02-.33.47,1.71.94,3.43,1.46,5.28-2.51,0-4.93-.02-6.75,2.08-1.51,1.74-2.58.13-3.7-.72,2.31-4.01,3.71-8.34,4.41-12.9,0,0,0,.01,0,.01,1.27-.95,1.1-2.25.85-3.56.25-.23.49-.45.74-.68Z"/>
    <path class="cls-1" d="M268.72,509.54c-1.27.77-2.17,2.82-4.14,1.12-1.94-1.67-3.41-3.45-3.21-6.29.16-2.26,1.57-2.55,3.31-2.82.78-.12,1.51-.93,2.24-.89,2.07.09,4.95-1.03,5.99.86.9,1.63-.23,4.13-1.96,5.69-.74.78-1.49,1.56-2.23,2.33Z"/>
    <path class="cls-11" d="M186.78,556.06c-3.45,4.26-6.9,8.51-10.34,12.76-1.88-.87-.99-2.8-1.6-4.16,3.18-5.56,6.89-10.76,10.87-15.76,1.84,2.17-.29,4.93,1.07,7.16Z"/>
    <path class="cls-1" d="M210.53,515.11c-2.15,2.49,1,.87,1.19,1.54-1.27,3.25-3.24,6.02-5.74,8.44-.56.23-1.12.46-1.69.7-.53-2.96-3.58-3.36-5.24-5.17,2.42-1.83,1.73-4.08.87-6.36,1.74-.83,3.21.48,4.82.64,1.37,1.64,2.48.71,3.58-.35.73.19,1.46.38,2.2.57Z"/>
    <path class="cls-6" d="M212.3,528.56c.38,1.4.88,2.72,2.05,3.68-.69.8-1.39,1.59-2.08,2.39-4.67,3.38-7.19,8.52-10.56,12.96-.86,1.13-1.52,3.43-3.04,2.37-2.25-1.58.52-2.63,1.24-3.82,3.09-5.14,6.24-10.23,9.37-15.35.71-1.16,1.49-2.21,3.03-2.22Z"/>
    <path class="cls-12" d="M279.51,468.27c3.36-1.92,3.99.24,3.35,2.68-1.77,6.77-3.27,13.66-6.49,19.97-.34.33-.68.66-1.02.99-.2.19-.41.38-.63.55-.64-.64-1.28-1.29-1.93-1.93,1.03-1.62,2.28-3.2.72-5.18,0,0,.02-.03.02-.03,3.33-.8,2.69-4.15,4-6.25,3.7-3.04,1.8-7.11,1.97-10.8Z"/>
    <path class="cls-11" d="M158.24,572.02c6.05-7.09,12.83-13.47,19.46-20,.24.74.48,1.48.72,2.22-1.58,3.34-4.57,5.54-6.78,8.36-2.82,2.53-5.56,5.18-8.51,7.55-1.34,1.08-2.91,2.19-4.89,1.88Z"/>
    <path class="cls-8" d="M236.75,490.46c-.51-.57-1.01-1.13-1.52-1.7,1.45-3.61,1.43-7.42,1.54-11.21.25-.16.74-.35.72-.47-.57-4.19,1.21-6.85,5.21-8.11,1.14,1.54,2.03,3.11.84,5.04-1.39-.67-3.13-2.94-3.42.9-.21,2.8-.31,5.53,1.17,8.06-.3.38-.6.77-.9,1.15-2.02-.13-.17,1.47-.87,1.93-1.33,1.22-1.05,3.44-2.77,4.41Z"/>
    <path class="cls-6" d="M229.71,514.87c-1.33-1.13-2.42-.6-3.44.49-1.19,1.27-2.49,2.24-4.37,1.56-.02-.16-.11-.44-.05-.48,6.37-4.12,8.51-11.55,13.45-16.93-1.37,5.34-1.66,10.99-5.58,15.36Z"/>
    <path class="cls-1" d="M272.8,490.52c.64.64,1.28,1.29,1.93,1.93-.22,5.02-3.9,5.35-7.41,4.87-2.42-.33-4.6-.28-6.85.4-.48-.49-.96-.97-1.44-1.46,1.8-1.16,3.6-2.33,5.41-3.49,2.52.6,4.32-.46,5.71-2.46.8,1.13,1.72.81,2.67.21Z"/>
    <path class="cls-11" d="M204.3,525.79c.56-.23,1.13-.46,1.69-.69,1.72,2.92-.55,4.44-2.15,6.24-5.01,5.62-10.93,10.21-16.75,14.91-.21.11-.41.23-.6.37-.41-.48-.82-.96-1.23-1.43.64-.7,1.27-1.41,1.91-2.11,1.07.26,1.75-.28,2.29-1.11,3.36-3.57,8.83-5.14,10.15-10.66,1.57-1.84,3.13-3.67,4.7-5.51Z"/>
    <path class="cls-1" d="M243.54,474.01c1.19-1.93.3-3.5-.84-5.04,0,0-.29-.22-.29-.22.08-.34.17-.69.25-1.03,1.45-1.27,3.04-1.92,4.96-1.14.75.3,1.54.49,1.31,1.66-1.13,5.75-1.12,5.77,4.39,6.93.62.13,1.31-.03,1.97-.06.77.76,2.62-.5,2.75,1.46-1.17.17-2.35.33-3.52.5h0c-.81-.07-1.84-.95-2.17.62,0,0,.07-.02.07-.02-.28-1.85-1.75-1.18-2.83-1.34-.87-.42-1.7-.35-2.49.21,0,0-.13-.29-.14-.29-.77-.24-1.53-.49-2.29-.73-.31-.6-.2-1.57-1.28-1.51h.18Z"/>
    <path class="cls-11" d="M267.34,484.38c-2.85-2.59-5.77-4.63-9.36-1.14-1.67-2.22-5-2.18-6.42-4.73.28-.28.56-.56.84-.84,0,0-.07.02-.07.02.95.59,1.58.05,2.17-.62,0,0,0,0,0,0,1.83,2.42,3.73,1.79,5.65.12h.03c2.58,2.73,6.2,1.42,9.24,2.36,0,0,0,.01,0,.01-1.26.94-1.38,2.15-.83,3.52v.03c-.42.42-.83.85-1.25,1.27Z"/>
    <path class="cls-6" d="M172.92,586.14c-1.77,1.05-2.84,3.58-5.56,2.64,5.28-8.22,13.58-13.49,19.98-20.63-3.65,6.95-10.57,11.23-14.42,17.99Z"/>
    <path class="cls-11" d="M212.27,534.63c.69-.8,1.39-1.59,2.08-2.39.28-.14.54-.3.79-.5,2.36,1.49,2.05-1.83,3.52-1.95.33.22.66.44.99.66-1.17,3.13-3.58,5.35-5.72,7.74-1.53,1.71-3.57,3.02-4.04,5.51-1.48,1.01-1.69,2.8-2.58,4.17-1.74-1.58-1.4-3-.01-4.74,2.06-2.57,4.05-5.25,4.97-8.51Z"/>
    <path class="cls-12" d="M186.48,546.61c.19-.14.4-.26.6-.37.25,1.26-.97,1.74-1.38,2.66-3.98,5.01-7.69,10.21-10.87,15.77-1.29-.35-2.64-.6-3.2-2.08,2.22-2.82,5.2-5.02,6.79-8.36,2.69-2.54,5.37-5.08,8.06-7.62Z"/>
    <path class="cls-6" d="M152.44,589.4c-3.32,5.12-4.45,12.25-12.75,14.01,2.96-6.64,8.52-9.72,12.75-14.01Z"/>
    <path class="cls-6" d="M127.98,621.39c2.33-5.58,3.83-11.93,12.68-13.27-4.96,4.65-7.81,9.77-12.68,13.27Z"/>
    <path class="cls-12" d="M242.43,553.57c-1.78,1.75-3.57,3.49-5.35,5.24-5.05,2.49-7.16,7.97-11.45,11.24-.96.84-1.93,1.68-2.89,2.52-.13-.6-.58-1.52-.34-1.76,6.26-6.34,11.94-13.34,19.75-17.98.12.24.21.49.28.74Z"/>
    <path class="cls-12" d="M281.26,500.85c-3.06,3.04-2.9,7.82-5.89,10.9-1.95.28-3.53-.03-3.81-2.4,0,0,0,.02,0,.02,0-.48.02-.97.03-1.45v.03c3.02-2.65,5.72-5.72,9.67-7.11Z"/>
    <path class="cls-6" d="M246.33,497.51c-.69,4.57-2.09,8.89-4.41,12.9-2.02,2.67-4.05,5.34-6.07,8.01-.41-.42-.83-.83-1.25-1.25,3.79-4.79,7.43-9.65,8.87-15.77.39-1.65,1.33-3.01,2.85-3.89Z"/>
    <path class="cls-12" d="M240.41,545.15c-4.23,7.53-10.04,13.72-16.33,19.53,5.98-6.08,10.19-13.6,16.33-19.53Z"/>
    <path class="cls-6" d="M250.79,522.33c-.77-2.6-2.8-4.89-2.02-8.31,2.64,2.51,5.05,4.8,7.47,7.09-1.34.85-2.69,1.71-4.03,2.56-.47-.45-.94-.89-1.42-1.34Z"/>
    <path class="cls-11" d="M244.64,475.53c.76.24,1.53.48,2.29.73-3.23.3-2.37,3.88-4.24,5.27-.48.46-.96.92-1.44,1.37,0,0,.03.07.03.07-1.48-2.53-1.38-5.27-1.17-8.06.29-3.84,2.03-1.57,3.42-.9,0,0-.18.01-.18.01-.76,1.51-.21,1.91,1.28,1.51Z"/>
    <path class="cls-1" d="M279.51,468.27c-.18,3.69,1.72,7.75-1.97,10.79-.12-.29-.32-.51-.59-.66-2.08-3.67-1.72-7.07,1.12-10.2.48.02.96.04,1.44.07Z"/>
    <path class="cls-11" d="M234.61,517.17c.42.42.83.83,1.25,1.25-1.34,2.38-2.69,4.75-4.03,7.13-.65.87-.62,1.84-.44,2.84-.81,1.29.82,3.35-1.33,4.22-2.36-3.67-.54-6.9,1.16-10.08.99-1.86,2.26-3.58,3.4-5.36Z"/>
    <path class="cls-11" d="M276.96,478.39c.27.15.47.37.59.66-1.31,2.1-.67,5.45-4,6.25-.96-1-2.33-1.75-2.11-3.47,0,0,0-.04,0-.04.89.3,1.01-.05.68-.79,1.39-1.28,2.52-3.04,4.84-2.62Z"/>
    <path class="cls-6" d="M219.87,519.13c1.4,2.15.43,3.59-1.42,4.78-1.34.86-2.66,1.75-3.98,2.62-2.61-5.69,3.26-5.18,5.41-7.4Z"/>
    <path class="cls-6" d="M224.24,480.31c.2-.33.4-.66.61-.99,2.98,3.54,2.45,6.58-1.75,9.99.38-3,.76-6,1.14-9Z"/>
    <path class="cls-6" d="M213.69,492.48c-2.36,1.18-4.45,3.14-7.43,2.43-.55-1.08-1.1-2.16-1.64-3.24.43-.51.85-1.02,1.28-1.53,2.2,2.1,5.21,1.53,7.8,2.34Z"/>
    <path class="cls-12" d="M249.85,530.21c.55-1.77,4.29-1.42,2.95-4.45,1.5-.83,2.98-.57,3.91.69.73.99-.49,1.73-1.13,2.38-1.61,1.62-3.17,3.62-5.73,1.37Z"/>
    <path class="cls-4" d="M270.14,490.31c-1.39,2-3.19,3.06-5.71,2.46.47-.89.55-1.78-.04-2.66.28-1.04,1.11-1.53,1.98-1.98,1.32.54,2.55.53,3.58-.62,1.12.86.42,1.85.19,2.8Z"/>
    <path class="cls-12" d="M258.03,476.58c-.13-1.97-1.98-.7-2.75-1.46.54-1.29-2.27-1.38-1.07-2.73.85-.96,2.22-.67,3.25-.22,2.18.95,3.42,3,5.01,4.65-.76.13-1.52.26-2.28.39,0,0-.03,0-.03,0-.71-.21-1.42-.41-2.13-.62Z"/>
    <path class="cls-6" d="M243.74,528.88c-1.02-1.69-2.09-3.36-2.05-5.86,3.67.98,4.54,4.37,6.49,6.67-1.73,1.09-3.04-.07-4.43-.81Z"/>
    <path class="cls-10" d="M269.75,470.99c-1.05.94-2.11,1.87-3.16,2.81-.85-1.36-4.55-1.04-3.01-3.45,1.78-2.79,4.27-1.33,6.17.64Z"/>
    <path class="cls-6" d="M188.04,561.23c1.94-3.27,3.47-6.87,8.25-9.26-1.79,4.87-5.42,6.73-8.25,9.26Z"/>
    <path class="cls-6" d="M260.19,477.2c.76-.13,1.52-.26,2.28-.39.89.02,1.78.04,2.67.06,1.32.14,2.67.13,3.95.44,1.6.4,1.92,1.24.34,2.24-3.04-.94-6.65.37-9.24-2.35Z"/>
    <path class="cls-6" d="M168.46,592.8c1.61-.84,2.39-3.02,5.29-3.16-1.83,3.17-3.61,5.38-6.74,6.2-.33-1.4.82-2.1,1.45-3.04Z"/>
    <path class="cls-11" d="M270.14,490.31c.24-.95.94-1.94-.19-2.8,1.19-.72,2.38-1.44,3.58-2.16,1.56,1.98.3,3.56-.72,5.18-.94.6-1.86.92-2.67-.21Z"/>
    <path class="cls-11" d="M250.65,460.05c.46.66,1.07,1.26,1.35,1.98.46,1.18.1,2.3-1.05,2.89-.5.26-1.4.32-1.83.04-1.35-.89-.39-2.04,0-2.99.3-.72.95-1.29,1.44-1.92,0,0,.09,0,.09,0Z"/>
    <path class="cls-11" d="M226.9,506.32c-.11,2.37-.54,4.05-2.53,4.72-.81.27-1.25-.51-1.19-1.12.18-1.94,1.25-3.16,3.72-3.6Z"/>
    <path class="cls-12" d="M200.82,566.97c-.16.87-.1,1.67.65,2.28-.38.57-.76,1.13-1.14,1.7-.81-.25-1.62-.51-2.43-.76,0,0,.06.01.06.01.57-.58,1.04-1.2.8-2.1-.11-1.82.85-1.71,2.06-1.14Z"/>
    <path class="cls-12" d="M205.89,490.14c-.43.51-.85,1.02-1.28,1.53-2.49-1.81-.98-3.37.32-4.95.25.01.49.03.74.04.07,1.12.15,2.25.22,3.37Z"/>
    <path class="cls-6" d="M214.93,493.92c-.35-.48-.69-.97-1.04-1.45,1.58-.86,3.48-.78,3.75.93.2,1.3-1.81.02-2.71.53Z"/>
    <path class="cls-11" d="M239.52,486.05c.7-.46-1.15-2.06.87-1.93.75.9,2.59,1.58,1.39,2.99-.76.89-1.54-.54-2.25-1.06Z"/>
    <path class="cls-6" d="M220.84,528.82c-.24-1.05-1.19-2.23-.3-3.12.96-.95,1.6.41,2.33.88-.68.75-1.35,1.49-2.03,2.24Z"/>
    <path class="cls-12" d="M259.02,496.26c.48.49.96.97,1.44,1.46-.4.69-.79,1.38-1.2,2.07-.55-.66-1.1-1.32-1.64-1.99.38-.59,0-1.87,1.39-1.54Z"/>
    <path class="cls-6" d="M247.18,493.96c.25,1.31.42,2.61-.85,3.56-1.28-1.56-1.11-2.77.85-3.56Z"/>
    <path class="cls-6" d="M268.59,483.08c-.55-1.37-.43-2.58.83-3.52.43.47.85.95,1.28,1.42-.7.7-1.41,1.4-2.11,2.09Z"/>
    <path class="cls-12" d="M268.72,509.54c.74-.78,1.48-1.56,2.23-2.33.19.27.41.52.64.75,0,0,0-.03,0-.03,0,.48-.02.97-.03,1.45,0,0,0-.02,0-.02-.89.9-1.85.86-2.84.19Z"/>
    <path class="cls-11" d="M230.06,532.58c1.35.32,1,1.26.78,2.15-2.24,0-1.67-1.01-.78-2.15Z"/>
    <path class="cls-11" d="M247.07,476.55c.79-.57,1.62-.63,2.49-.21.16.34.32.68.48,1.02-1.27.76-2.22.33-2.98-.81Z"/>
    <path class="cls-6" d="M250.05,477.36c-.16-.34-.32-.68-.48-1.02,1.08.16,2.55-.51,2.83,1.34-.28.28-.56.56-.84.84-.5-.38-1-.77-1.51-1.15Z"/>
    <path class="cls-6" d="M267.34,484.38c.41-.42.83-.85,1.24-1.27.39.72.59,1.46-.19,1.99-.13.09-.69-.47-1.05-.72Z"/>
    <path class="cls-12" d="M268.88,467.5c-.4-.08-.8-.16-1.2-.24.62-.91.78.25,1.2.27,0,0,0-.02,0-.02Z"/>
    <path class="cls-8" d="M242.66,467.72c-.08.34-.17.69-.25,1.03-.17-.59-2.06-.92-.28-1.82.13.29.3.56.53.79Z"/>
    <path class="cls-1" d="M198.76,568.11c.24.89-.23,1.52-.8,2.1-.34-.93.21-1.52.8-2.1Z"/>
    <path class="cls-12" d="M242.4,542.6c-.13.05-.26.1-.39.15.04-.22.07-.44.11-.67.13.04.34.04.37.11.04.11-.05.27-.08.41Z"/>
    <path class="cls-6" d="M242.43,553.57c-.07-.26-.16-.5-.28-.74.57-.45,1.15-.91,1.72-1.36.08,1.08-.61,1.64-1.44,2.1Z"/>
    <path class="cls-12" d="M250.79,522.33c.47.45.95.9,1.42,1.34-.17.26-.32.54-.43.83-.8-.51-1.32-1.15-.99-2.18Z"/>
    <path class="cls-11" d="M241.23,490.34c.07.09.21.19.2.27-.02.13-.12.31-.23.35-.45.16-.59-.02-.34-.44.06-.1.24-.12.37-.18Z"/>
    <path class="cls-12" d="M199.27,580.08c.26-.21.51-.42.77-.64.3.86-.13,1.51-.63,2.13,0,0-.31-.04-.31-.03.06-.49.11-.97.17-1.46Z"/>
    <polygon class="cls-6" points="236.17 496.77 236.34 496.43 236.54 496.68 236.17 496.77"/>
    <path class="cls-6" d="M247.37,547.83c-.21.23-.44.46-.66.67-.34-.78-.15-1.03.66-.67Z"/>
    <path class="cls-1" d="M275.36,491.9c.34-.33.68-.66,1.02-.99.13.81-.19,1.17-1.02.99Z"/>
    <path class="cls-8" d="M241.26,482.9c.48-.46.96-.92,1.44-1.37-.02.93-.26,1.65-1.44,1.37Z"/>
    <path class="cls-6" d="M236.6,452.64c-.62-.55-1.28-.99-2.17-.71-.81-1.38-1.8-2.69-2.4-4.16-1.55-3.84-2.52-2.13-3.5.27-.71.15-1.41.3-2.11.46l-1.11-1.72c1.72-1.25,1.84-2.71,1.17-4.72-1.87-5.6-2.64-11.41-2.75-17.31,2.17-.11,2.15,1.49,2.48,2.99.67,3.04,1.65,5.98,4.16,8.28-2.52-6.38-.11-13.96-5.19-19.66-1.6-2.32.76-4.55.06-7.01-.8-2.79,1.18-3.14,3.41-2.58.53.17,1.06.34,1.59.51,1.59,7.97-.15,16.28,2.47,24.15-.22,1.64,1.15,2.39,1.94,3.46-1.87,2.8-.53,5.14,1.06,7.45-.38.44-.76.87-1.13,1.3-.9.9-.82,1.78.04,2.65,0,0-.01-.03-.01-.03.08.57.16,1.15.24,1.72,1.42,1.24,2.51,2.61,1.75,4.67Z"/>
    <path class="cls-10" d="M230.75,387.28c-.29.96-.59,1.92-.88,2.89-.29,0-.58,0-.86-.04-.93-2.03.35-4.61-1.6-6.38l-.02.04c.02-.49.04-.98.06-1.47.43-1.77,1.39-3.61,1.18-5.31-.4-3.26-.03-5.82,3.23-7.3l.11-.02c.51,1.47.12,2.89-.18,4.32-.81,4.39-1.88,8.75-1.04,13.27Z"/>
    <path class="cls-11" d="M230.75,387.28c-.84-4.52.23-8.88,1.04-13.27.9.27,1.57-.14,2.19-.73h-.03c.92,4.14-.03,8.29.03,12.43.04,2.56-2.01,1.31-3.22,1.57Z"/>
    <path class="cls-6" d="M227.11,363.22c1.25,1.32,2.55,2.38,3.72-.01.69-1.4,1.49-1.57,2.64-.62-.86,2.29.12,4.97-1.5,7.1,0,0-.11.02-.11.02-1.11-.65-.61-2.92-2.34-2.7-1.53.2-1.51,1.93-1.97,3.1-.48,1.24.07,2.99-1.8,3.58-.07-1.16-.13-2.27-.19-3.37.25-.87.13-1.63-.66-2.19h-.01c.45-.47.45-.95.03-1.43v.04c1.38-.76,1.68-2.16,2.05-3.51h.15Z"/>
    <path class="cls-10" d="M229.87,390.17c.05,4.97,1.63,9.91.19,14.89-.29,0-.59,0-.87,0-1.62-4.96-3.68-9.91-.18-14.94.29.03.58.04.87.04Z"/>
    <path class="cls-11" d="M234.65,434.88c-.79-1.07-2.17-1.82-1.94-3.46,1.91.45,3.19,1.24,1.94,3.46Z"/>
    <path class="cls-11" d="M239.15,428.03c1.01.61,1.71,1.38,1.5,2.67-2.24.09-2.78-.78-1.5-2.67Z"/>
    <path class="cls-10" d="M230.24,407.27c-.53-.17-1.06-.34-1.59-.51.18-.57.36-1.13.54-1.69.29,0,.58,0,.88,0,.06.73.11,1.47.17,2.2Z"/>
    <path class="cls-11" d="M233.97,373.28c-.04-.15-.08-.3-.12-.45.03.15.06.3.09.44,0,0,.03,0,.03,0Z"/>
    <path class="cls-10" d="M245.86,320.63c-.48.43-.97.86-1.45,1.29-3.34,1.08-2.74,2.55-.41,4.19,1.12,1.62,3.5-.38,4.5,1.58.98,1,.86,2.2.64,3.42-.58.92-1.16,1.84-1.74,2.76-.88-1.39-1.75-2.77-2.62-4.15-4,1.93-5.4,4.66-5.18,9.36.17,3.51-.67,7.62-2.99,10.88,0,0-.09,0-.09,0-.45-.97-.89-1.93-1.34-2.9,1.03-4.65,2.86-9.21,1.76-14.12v.05c1.01-.49,1.14-1.34.91-2.32.33-.94,2.23-1.99-.48-2.58-2.68-.58-5.31-1.5-7.24-3.68.43-6.18,4.53-11.09,5.91-16.94,1.81,2.09,6.03,1.88,6.24,1.38,1.62-3.75,4.53-2.98,7.36-2.84-.22,1.52-.45,3.04-.67,4.55-1.87,1.46-1.44,3.64-1.75,5.59-1.42,1.2-2.34,2.55-1.37,4.48Z"/>
    <path class="cls-8" d="M247.4,333.87c.58-.92,1.16-1.84,1.74-2.76.43,3.26,2.81,6.24,1.43,9.76-2.16-1.83-3.58-4-3.17-7Z"/>
    <path class="cls-12" d="M256.31,321.36c-.94.81-1.87,1.62-2.81,2.43-.57-.05-1.15-.1-1.73-.16.14-3.37,1.06-3.83,4.53-2.27Z"/>
    <path class="cls-12" d="M250.12,324.62s-.03.05-.03.05.03-.05.03-.05Z"/>
    <path class="cls-6" d="M230.13,324.41c1.93,2.17,4.56,3.1,7.24,3.68,2.71.58.81,1.64.48,2.58-.66.63-1.3,1.28-.92,2.32,0,0,.01-.05.01-.05-2.2,3.72-2.44,8.03-3.65,12.06-2.54,1.45-1.9,3.92-2.04,6.17-.27,4.39.11,9.02-4.13,12.06,0,0-.15,0-.15,0-.41-.5-.83-.99-1.24-1.49v.05c.56-.98.45-1.96-.02-2.94-.09-.17-.22-.3-.39-.4.26-.95.72-1.89.74-2.84.21-9.22,0-18.47,2.24-27.52.33-.55.66-1.1.99-1.66.28-.68.57-1.35.85-2.03ZM231.84,329.15c.05-.15.09-.29.14-.44-.15.01-.35-.03-.44.05-.1.08-.11.28-.15.43l.45-.04Z"/>
    <path class="cls-7" d="M233.29,344.99c1.21-4.02,1.45-8.33,3.65-12.06,1.1,4.92-.73,9.47-1.76,14.12-.63-.69-1.26-1.38-1.89-2.07Z"/>
    <path class="cls-10" d="M236.61,349.96c-.03.19-.05.39-.08.58,0-.19,0-.39,0-.58,0,0,.09,0,.09,0Z"/>
    <path class="cls-4" d="M234.62,446.28c-.86-.87-.93-1.76-.04-2.65.66.88.82,1.76.04,2.65Z"/>
    <path class="cls-4" d="M234.85,447.97c-.08-.57-.16-1.15-.24-1.72.08.57.16,1.15.24,1.72Z"/>
    <path class="cls-6" d="M236.77,477.55c-.1,3.79-.09,7.6-1.54,11.21-.77.7-1.53,1.39-2.3,2.09-.08-1.39-.17-2.77-.3-4.93-1.06,1.53-1.74,2.51-2.43,3.5-2.34-2.93-2.25-7.48.58-9.61,1.68-1.26.37-3.62,2.26-4.52,1.24.75,2.48,1.51,3.72,2.26Z"/>
    <path class="cls-4" d="M228.53,448.04c.98-2.4,1.95-4.11,3.5-.27.6,1.47,1.59,2.78,2.4,4.16-.63,2.01-.64,3.97,1.1,5.43,1.79,1.5,2.17,3.62,2.8,5.64.42,1.34,1.62,2.98.26,4.11-1.54,1.28-3.04-.04-4.36-1.02,2.4-6.62-2.55-11.08-4.79-16.34-.31-.57-.61-1.14-.92-1.7Z"/>
    <path class="cls-6" d="M229.45,449.74c2.24,5.26,7.19,9.72,4.79,16.34-.66-.59-1.36-1.03-2.3-.76-.96-2.09-4.08-2.7-3.86-5.6.71-1.96,1.45-3.92-.26-5.78-.06-.25-.15-.49-.28-.71.63-1.16,1.27-2.33,1.9-3.49Z"/>
    <path class="cls-1" d="M248.98,310.57c.22-1.52.45-3.04.67-4.55.15-.85.29-1.69.44-2.54,2.86-.74,5.72-1.48,8.58-2.22,1.47-.26,3,.9,4.42-.21,1.74,1.92,4.24.54,6.22,1.42.67,2.87-1.7,2.11-3.07,2.6-1.18.42-2.79.35-2.88,2.19-.08,1.66,1.08,2.19,2.37,2.76,1.52.66,3.92.55,3.45,3.32-5.42,0-10.85-.01-16.27-.02-2.01.08-3.54-.52-3.93-2.75Z"/>
    <path class="cls-11" d="M245.86,320.63c-.98-1.93-.05-3.28,1.37-4.48,1.65,3.18,1.31,4.3-1.37,4.48Z"/>
    <path class="cls-11" d="M244,326.11c-2.33-1.64-2.93-3.11.41-4.19,1.27,1.54.89,2.91-.41,4.19Z"/>
    <path class="cls-7" d="M175.92,124.89c1.81,2.43,3.62,4.85,5.43,7.28,2.07,5.11,5.42,9.48,8.12,14.23,6.97,9.96,11.3,21.77,20.6,30.08,2.13,1.9,2.73,5.01,5.51,6.22,2.38,3.21,5.18,6.01,8.28,8.52.51,1.47,1.54,2.42,2.93,3.05.62.69,1.23,1.37,1.85,2.06,1.49,2.38,3.34,4.42,5.72,5.96.19.34.38.68.57,1.02-2.51,1.61-3.6-.57-4.94-1.9-4.07-4.07-7.16-9.14-12.6-11.82,6.89,7.17,13.78,14.35,20.66,21.52.56.6,1.07,1.27,1.7,1.79,8.14,6.71,12.77,15.4,14.62,25.67-1.36,1.27-2.71,2.55-4.07,3.82-1.74,2.97-3.08,5.98-1.01,9.35h0c-2.12,1.36-2.17,3.05-.79,4.96,0,0,0-.03,0-.03-1.31.8-1.08,2.13-1.14,3.35-.31-.09-.65-.29-.91-.21-.18.05-.41.55-.34.76,2.49,7.29,6.13,14.06,9.41,20.99-.29.97-.06,1.74.89,2.22,0,0,0-.04,0-.04-1.3,5.18.06,10.03,1.85,14.82.13.9.27,1.79.4,2.69-2.86.74-5.72,1.48-8.58,2.22-1.7-2.32.42-4.43.36-6.66-.38-14.35-4.81-27.74-9.92-40.95.95-3.43-3.57-5.7-1.98-9.27.85.64,1.6.85,2.71.3,5.09-2.52,7.93-9.72,4.67-15.83-3.4-6.38-6.36-13.67-14.15-16.51-1.55-3.62-4.84-5.81-7.26-8.72-.77-.93-1.7-.86-2.52.06-3.51-2.1-3.45-6.18-5.08-9.31-2.98-5.74-7.35-10.7-9.29-17.04-.62-2.01-1.29-4.66-4.49-4.29-3.43-7.56-7.8-14.54-12.94-21.05.32-.93-.08-1.58-.8-2.12-.65-.66-1.31-1.32-1.96-1.98-1.34-2.87-2.03-6.11-4.69-8.23-1.52-4.3-2.34-9.02-7.01-11.37-.71-.83-1.62-1.56-1.47-2.83,2.06-1.15-.47-1.45-.41-2.23.69-.18,1.37-.37,2.06-.55Z"/>
    <path class="cls-7" d="M187.33,193.07c-2.93-2.59-3.65-6.24-4.63-9.75,3.33-1.89,1.15-4.78.84-6.96-.31-2.15-.07-3.42,1.64-4.53,3.28,4.97,7.03,9.7,9.64,14.99,1.36,2.75,1.88,5.86,4.82,7.38,3.05,1.58,6.98,2.38,4.76,7.31-.03.07.17.28.29.38,4.26,3.66,5.02,9.61,8.82,13.57,3.1,4.78,6.21,9.55,9.31,14.33.87,1.78,1.3,4.08,2.69,5.22,3.23,2.64,2.33,8.13,6.99,9.57,3.48,2.86,2.85,7.56,4.97,11.03.75,1.72,1.51,3.44,2.26,5.17-2.8.13-1.59,2.79-2.58,4.07-1.01-.24-1.83.14-2.58.78l-1.11-1c1.79-1.77,2.34-3.55,1.45-6.22-1.28-3.82-3.01-7.38-4.78-10.95-.59-1.19-.87-2.8-2.5-2.74-1.88.06-.29,2.46-1.71,3.02-2.66-2.75-5.32-5.5-7.96-8.26-.92-.96-1.75-2.18-3.34-1.33-1.59.85-2.01,2.13-1.18,3.76-1.89,1.39-2.54,3.09-1.29,5.25-.16.29-.32.58-.48.87-1.44-2.83-3.38-2.16-5.42-.76-.64-3.12-1.28-6.23-1.92-9.35,2.98-.58,5.5-4.14,9.05-1.01.79-1.75-.05-3.73,1.53-4.86,1.3.54,2.6,1.07,4.78,1.97-8.31-9.57-17.21-17.11-24.48-26.17.35-.54,1.06-1.52,1.01-1.56-4.32-3.51-4.95-9.48-8.89-13.21Z"/>
    <path class="cls-11" d="M213.52,215.46c-3.8-3.96-4.55-9.91-8.82-13.57-.12-.11-.33-.31-.29-.38,2.22-4.94-1.71-5.74-4.76-7.31-2.94-1.52-3.47-4.63-4.82-7.38-2.61-5.29-6.36-10.03-9.64-14.99-.06-2.38-.14-4.76-2.2-6.46.31-.68.62-1.37.93-2.05.97,1.32,2.06,2.57,2.91,3.96,3.91,6.42,7.84,12.84,11.6,19.35,1.2,2.07,2.2,2.22,3.66.46,3.72,1.71,3.78,7.22,8.35,8.44.27-2.59-2.95-3.19-2.31-5.55,2.25-.34,1.08-1.62.51-2.38-2.76-3.71-3.65-8.21-5.46-12.32,3.2-.37,3.87,2.27,4.49,4.29,1.94,6.34,6.3,11.31,9.29,17.04,1.63,3.13,1.57,7.21,5.08,9.31.3,3.19,4.32,4.59,3.92,8.12-2.59.87-2.99,2.3-1.44,4.59.78,1.16,1.07,2.65,1.59,3.99-.6.54-1.19,1.08-1.79,1.62-.46-4.84-3.93-8.18-6.1-12.17,1.08-6.58-4.21-9.99-7.02-14.65,1.08,3.71,3.17,6.98,4.11,10.72-.66,2.43,1.8,5.61-1.77,7.34Z"/>
    <path class="cls-7" d="M159.02,117.38c-3.64-6.95-7.21-13.9-9.87-21.34-2.13-5.97-5.14-11.64-8.04-18.07,6.9,4.39,9.61,10.85,13.2,16.86,5.26,8.8,10.26,17.65,13.72,27.31.54,1.5,1.66,3.03.24,4.66-2.31-2.04-4.26-4.18-4.74-7.53-.34-2.42-1.95-3.8-4.52-1.88Z"/>
    <path class="cls-11" d="M159.02,117.38c2.57-1.92,4.17-.54,4.52,1.88.48,3.36,2.42,5.49,4.74,7.53,2.3,8.59,7.33,15.82,11.64,23.4.09,3.87,4.86,5.45,4.63,9.48-.51.49-1.02.97-1.52,1.46-.78-.25-1.55-.5-2.33-.76-2.44-2.44-2.75-5.97-4.47-8.76-6.7-10.93-12.67-22.22-17.21-34.23Z"/>
    <path class="cls-7" d="M184.55,159.67c.23-4.02-4.54-5.61-4.63-9.47,1.29-.23,2.37,1.86,3.78.34.58.46,1.16.92,1.75,1.38,2.4,7.76,9.17,12.82,12.35,20.14,2.75,6.34,6.2,12.33,10.32,17.91-.64,2.36,2.58,2.96,2.31,5.55-4.56-1.22-4.63-6.73-8.34-8.44-.72-1.1-1.57-2.13-2.15-3.3-4.3-8.57-9.71-16.42-15.38-24.11Z"/>
    <path class="cls-7" d="M124.16,33.82s-.02.08-.04.11c.37.33.68.73.9,1.2.64,1.36,1.36,2.55,1.45,4.06.06-.09.1-.17.16-.26,1.62-2.89.49-4.45-2.48-5.12Z"/>
    <path class="cls-11" d="M185.44,151.92c-.58-.46-1.16-.92-1.75-1.38-.83-2.87-1.65-5.74-2.48-8.61.52-.02,1.03-.03,1.55-.05,2.66,2.12,3.34,5.36,4.69,8.23-.67.6-1.34,1.21-2.01,1.81Z"/>
    <path class="cls-9" d="M182.76,141.88c-.52.02-1.03.03-1.55.05-1.82-3.81-4.46-7.22-5.47-11.42,4.67,2.35,5.5,7.07,7.01,11.37Z"/>
    <path class="cls-7" d="M180.69,160.37c.78.25,1.55.5,2.33.76.3.73.59,1.46.89,2.18-.31.68-.62,1.37-.93,2.05-1.08-1.52-3.68-2.34-2.29-4.99Z"/>
    <path class="cls-9" d="M173.86,125.44c-.06.78,2.47,1.08.41,2.23-.42-.69-.84-1.39-.41-2.23Z"/>
    <path class="cls-7" d="M170.09,120.08c-.07-.32-.13-.62-.19-.91.29.1.67.13.85.34.18.2.15.57.21.87-.29-.1-.59-.2-.87-.29Z"/>
    <path class="cls-7" d="M171.96,123.24c-.05-.12-.11-.25-.16-.37.2,0,.4.02.6.03,0,.14-.02.28-.02.42-.14-.02-.28-.05-.41-.07Z"/>
    <path class="cls-6" d="M238.05,211.11c-6.89-7.17-13.78-14.35-20.66-21.52,5.44,2.68,8.53,7.75,12.6,11.82,1.33,1.33,2.43,3.51,4.94,1.9,1.75,1.9,3.5,3.81,5.25,5.71-.71.7-1.42,1.39-2.12,2.09Z"/>
    <path class="cls-4" d="M249.37,209.95c.04.15.08.3.12.45-.04-.15-.08-.3-.12-.45,0,0,0,0,0,0Z"/>
    <path class="cls-1" d="M250.3,242.39c1.36-1.27,2.71-2.55,4.07-3.82,2.87,2.93,7.22,5.25,4.4,10.55-.53,1.2-1.06,2.4-1.6,3.6-3.17-1.22-4.35-.21-3.48,3.1.28,1.06.59,2.11.89,3.16-1.04,1.83-3,1.01-4.49,1.54-.95-1.11.18-3.08-1.59-3.85,0,0,0,.03,0,.03,1.65-1.43,1.02-3.22.79-4.95,0,0,0,0,0,0,.62-3.09,3.92-5.89,1.01-9.35Z"/>
    <path class="cls-3" d="M257.17,252.72c.53-1.2,1.07-2.4,1.6-3.6,1.54-.39,2.42.67,3.4,1.54.05,2.65-3.19,2.8-3.78,4.96-.4-.97-.81-1.93-1.21-2.89Z"/>
    <path class="cls-10" d="M269.31,302.46c-1.98-.88-4.47.51-6.22-1.42,4.31-1.38,8.62-2.76,7.1-8.82,2.13-.78,2.42,1.63,3.77,2.19,1.39,2.17,2.79,4.33,4.18,6.5-.72.56-1.44,1.13-2.16,1.69-.27-.05-.5.03-.69.24-1.95-.83-3.94-.94-5.98-.38Z"/>
    <path class="cls-7" d="M278.14,300.91c-1.39-2.16-2.79-4.33-4.18-6.5,4.61.45,9.17,1.06,11.84,5.57.66,1.12,3.13,1.89,1.47,3.51-1.25,1.22-3.4,1.73-4.94.01-1.18-1.31-2.78-1.76-4.18-2.6Z"/>
    <path class="cls-6" d="M270.19,292.22c1.52,6.06-2.79,7.45-7.1,8.82-1.42,1.11-2.96-.05-4.42.21-.14-.89-.27-1.79-.41-2.68.77-.79,1.53-1.58,2.3-2.36,4.09.8,7.11-.99,9.63-3.99Z"/>
    <path class="cls-10" d="M260.56,296.21c-.77.79-1.53,1.58-2.3,2.36-1.78-4.8-3.14-9.65-1.85-14.83.6,1.66,1.21,3.32,1.81,4.98.69,2.52-.64,5.67,2.33,7.49Z"/>
    <path class="cls-7" d="M267.05,289.7c1.22,1.1.97,2.32-.02,3.05-1.26.92-2.93,2.49-4.36,1.32-1.7-1.39-.62-3.43.4-4.96,1.71-2.58,2.45,1.83,3.98.59Z"/>
    <path class="cls-7" d="M275.29,302.84c.19-.21.41-.28.69-.24.49.78,1.62,1.36,1.04,2.51-.34.68-1.15.79-1.69.37-1.01-.79-.38-1.75-.03-2.64Z"/>
    <path class="cls-7" d="M269.09,283.96c1.87.1,1.59,1.11.96,2.27-.83-.54-1.26-1.25-.96-2.27Z"/>
    <path class="cls-7" d="M286.85,306.3c-.12-.05-.24-.11-.36-.16.11-.16.22-.31.33-.47.07.11.19.22.21.34.01.08-.11.19-.18.28Z"/>
    <path class="cls-10" d="M290.79,308.45c.07-.43.14-.86.21-1.29.27.33.55.66.82.98-.34.1-.69.2-1.03.31Z"/>
    <path class="cls-6" d="M255.53,281.56c-3.28-6.93-6.92-13.7-9.41-20.99-.07-.21.16-.71.34-.76.26-.08.6.13.91.21.99,1.05.56,3.52,3.07,3.07,1.26,2.97,2.92,1.58,4.57.43,1.13.7,2.25,1.41,3.38,2.11-6.62,1.79-4.51,6.17-3.2,10.44.62,2.03.83,4.18,1.22,6.28-.29-.26-.58-.53-.87-.79Z"/>
    <path class="cls-12" d="M254.99,263.52c-1.64,1.16-3.31,2.54-4.57-.43-.11-.86-.22-1.71-.34-2.57,1.49-.53,3.45.29,4.49-1.54,1.86-.2,3.7,1.54,5.57.06.97.92,1.94,1.83,2.91,2.75.37.87,0,1.59-.46,2.29-.72-.05-1.45-.1-2.17-.15-.91-2.01-1.36-2.05-5.43-.42Z"/>
    <path class="cls-7" d="M259.03,276.4c-1.12-1.71-.52-3.13.81-4.34.71-.65,1.73-1.41,2.44-.19.81,1.38,1.69,3,.29,4.53-1.08,1.17-2.35.84-3.54,0Z"/>
    <path class="cls-7" d="M269.77,269.91c2.61,3.92-2.04,5.09-2.92,7.68-1.78-3.61.06-5.84,2.92-7.68Z"/>
    <path class="cls-11" d="M254.99,263.52c4.07-1.63,4.52-1.59,5.43.42-.55.73-.72,1.91-2.05,1.69-1.12-.7-2.25-1.41-3.38-2.11Z"/>
    <path class="cls-7" d="M269.92,259.05c-.36-.78-1.62-1.92-.27-2.29,1.4-.39,2.19.99,2.16,2.5-.63-.07-1.26-.14-1.89-.21Z"/>
    <path class="cls-10" d="M255.53,281.56c.29.26.58.53.87.79,0,.48.01.96.02,1.43-.95-.48-1.18-1.25-.89-2.22Z"/>
    <path class="cls-12" d="M273.55,274.94c4.9-1.95,4.97,3.32,7.25,5.15,1.04.83-.92,1.61-2.02,1.57-4.35-.13-4.14-3.94-5.26-6.66,0,0,.03-.06.03-.06Z"/>
    <path class="cls-7" d="M260.15,259.04c-1.87,1.48-3.71-.26-5.57-.06-.3-1.05-.61-2.1-.89-3.16-.87-3.31.32-4.32,3.48-3.1.4.97.81,1.93,1.21,2.9-.21,1.55.98,2.38,1.76,3.42Z"/>
    <path class="cls-12" d="M48.59,753.38c-1.39,1.45-3.02,2.72-3.39,4.88-.83.76-1.78,1.43-1.85,2.7-2.95,2.72-4.2,6.79-7.44,9.28,2.38-7.08,6.64-13.05,11.29-18.76.14-.17,1.13.34,1.72.54-.11.45-.22.91-.33,1.36Z"/>
    <path class="cls-6" d="M91.34,679.26c-4.46,7.73-8.92,15.46-13.38,23.19-.69.37-1.52,1.17-2.04,1-1.15-.36-.37-1.29,0-1.84,1.15-1.71,2.31-3.41,2.76-5.47,4.42-5.78,7-12.74,11.84-18.24.27.46.55.91.82,1.36Z"/>
    <path class="cls-12" d="M50,743.49c-3.52,3.94-4.93,8.4-10.3,7.87.91-4.97,4.77-6.4,10.3-7.87Z"/>
    <path class="cls-12" d="M39.35,758.13c-2.47,3.16-5.76,4.6-5.07,8.55.21,1.21-1.19,2.46-2.8,1.5-1.5-.9-1.89-2.35-.85-3.82,1.95-2.75,4.69-4.51,8.72-6.23Z"/>
    <path class="cls-12" d="M35.96,770.16c1.29,2.47-1.68,2.27-2.25,3.58-.35-1.89,1.2-2.57,2.25-3.58Z"/>
    <path class="cls-12" d="M58.92,716.11c.05.15.1.3.14.45-.04-.15-.07-.3-.11-.45,0,0-.04,0-.04,0Z"/>
    <path class="cls-10" d="M7.7,789.21c.08-.64.16-1.28.24-1.92,1.06.78.55,1.37-.24,1.92Z"/>
    <path class="cls-2" d="M1.58,816.95c-.04-.15-.08-.31-.12-.46.04.15.08.31.13.46h0Z"/>
    <path class="cls-7" d="M131.21,571.94c-1.49,2.69-2.22,5.91-3.64,8.68.08.07.14.14.23.2.13.11-.65,1.36-1,2.08-4.59,5.8-6.66,13.17-11.64,18.75-.38.42.03,1.55.08,2.36,2.35.13,2.34-2.06,3.14-3.34,6.55-10.54,14.31-20.21,21.5-30.29.31-.69.62-1.38.93-2.07-1.62-1.57-2.4-3.38-2.49-5.22-2.7,2.68-5.23,5.49-7.09,8.85Z"/>
    <path class="cls-7" d="M188.99,523.22c-2.36,4.31-4.61,3.14-6.83-.13-2.43-.49-3.98-1.81-4.25-4.39-1.98-3.45-5.23-1.47-7.61-1.22-2.77.3-.53,2.99-.7,4.58-.33,3.07-2.2,5.52-2.98,8.37-3.52,4.06-5.74,8.93-8.43,13.51-.89,1.51-1.81,2.44-2.78,2.47-.01.02-.02.04-.04.06-1.49,2.37-3.58,4.38-5.78,6.28,1.55,2.76,4.56,2.56,6.59.05,1.93-2.39,4.23-4.48,6.37-6.69.96-3.36,1.37-7.08,5.46-8.42-.4-.9-2.18-2.44-.51-2.64,2.89-.36,4.08-2.58,6.1-3.84,2.17-1.35,4.44-3.3,6.62.27.51.83,1.99,1.08,3.02,1.59.18-2.87,1.69-4.68,4.42-5.5.55-.69,1.23-.99,2.11-.73,1.23-1.53.36-2.61-.79-3.62Z"/>
    <path class="cls-7" d="M91.34,679.26c-.27-.45-.54-.91-.82-1.36,2.18-5.42,5.81-9.82,9.7-14.07.98-1.07,3.25-1.69,1.78-3.92-2.45-2.88-3.14.69-3.83,1.44-3.21,3.49-6.94,6.75-7.91,11.78-4.41,3.59-5.6,9.2-8.57,13.7-1.18,1.79-2.6,3.21-4.81,4.58-.39-3.24,1.95-4.68,2.48-6.86-4.53-1.73-4.23,1.45-5.62,4.32-2.64,5.45-6.01,10.9-10.29,15.12-4.57,4.51-7.16,10.48-12.82,14.18,2.96-4.95,5.54-10.18,9-14.75,2.51-3.32,5.32-6.53,7.1-10.19,4.97-10.24,14.71-16.4,21.12-25.4,1.61-2.26,3.48-4.65,4.48-6.96,1.32-3.04,3.08-4.87,5.77-6.31,1.75-.94,2.72-2.52,2.49-4.53-.1-.85-1.02-1.35-1.92-1.28-2.07.18-3.13,1.41-3.73,3.4-1.58,5.25-6.16,8.41-9.14,12.71-4.16,6-8.81,11.6-14.6,17.33,4.1-12.25,12.66-20.23,19.92-29.39,8.02-10.11,17.06-19.86,22-32.2.59-1.48,1.68-2.47,2.81-3.43,1.15-.98,2.56-1.18,3.48.19.96,1.43-.73,1.74-1.34,2.6-3.56,5.03-7.01,10.11-11.29,14.6-.87.92-.27,2.22.58,3.17-.16.48-1.48,1.33.31,1.23,1.08-.06,2.14-.38,3.21-.58-.68,1.26-2.52,1.84-2.12,3.71-1.61,3.27-5.08,5.62-5.04,10.41,2.88-2.76,5.34-5.18,7.87-7.53,1.35-1.26,2.19-3.67,4.82-2.37-1.02,2.67-2.99,4.66-4.98,6.63,1.21.96,1.65-1.18,2.83-.26.31.66.07,1.39-.77,1.84-3.34,1.77-4.91,4.78-6.88,7.94-4.5,7.21-10.11,13.72-15.27,20.52Z"/>
    <path class="cls-1" d="M162.57,546.11c.96-3.36,1.37-7.08,5.46-8.42,1.44-.32,2.66-.91,3.71-2.04,1.56-1.69,3.48-2.45,5.75-1.3.04.16.08.31.13.47-.04-.16-.08-.31-.12-.47,1.05-.84,2.1-.78,2.95.22,1.88,2.21,3.3.91,4.73-.55.53.31,1.06.62,1.6.93.91.56,1.82,1.12,2.73,1.68-.62,1.15-2.76.69-2.72,2.29.02.94,1.18.93,1.94.69,1.76-.55,1.63-1.7.81-2.99,1.91-2.77,5.32-2.99,7.89-4.63.89.27,1.55-.19,2.19-.7-1.32,5.52-6.79,7.08-10.15,10.66-1.07-.61-2.07-.69-2.92.37,0,0,.02,0,.02,0-4.49-4.39-5.67,1.93-8.58,2.65-1.15.34-2.49-.37-3.52.64-1.63-3.75,1.56-5.1,3.65-6.97-4.21-2.91-5.28-1.21-6.79,3-1.01,2.82-4.81,4.93-8.75,4.46Z"/>
    <path class="cls-1" d="M139.87,570.38c.31-.69.62-1.38.93-2.07,3-2.48,4.26-6.24,6.69-9.12.84-1,1.73-2.95,3.35-2.09,1.15.61,2.14,2.2,2.46,3.53.37,1.5-1.2,2.12-2.45,2.63-3.43,1.4-6.47,3.23-8.13,6.8-.64,1.39-1.77,1.26-2.84.33Z"/>
    <path class="cls-11" d="M90.26,673.12c.97-5.03,4.7-8.29,7.91-11.78.69-.75,1.39-4.32,3.83-1.44-4.95,3.49-6.89,9.64-11.74,13.22Z"/>
    <path class="cls-7" d="M186.48,546.61c-2.69,2.54-5.37,5.08-8.06,7.62-.24-.74-.48-1.48-.72-2.22.28-.73.56-1.46.85-2.19,2.24-1.55,4.47-3.1,6.7-4.65.41.48.82.96,1.23,1.43Z"/>
    <path class="cls-7" d="M35.2,733.34c.31-3.41,2.22-5.98,4.38-8.42,1.86,3.65-.63,8.43-4.38,8.42Z"/>
    <path class="cls-7" d="M166.9,551.88q-2.7,3.6-7.65,5.49c1.9-3.81,1.95-3.85,7.65-5.49Z"/>
    <path class="cls-1" d="M185.25,545.18c-2.23,1.55-4.47,3.1-6.7,4.65-.71-.23-1.42-.46-2.13-.69.92-.93,1.85-1.86,2.77-2.79,2.9-.53,5.03-2.45,7.36-4.02h-.02c.2.25.41.5.63.73-.64.7-1.27,1.41-1.91,2.11Z"/>
    <path class="cls-7" d="M179.19,546.35c-.92.93-1.85,1.86-2.77,2.79-4.6,1.04-1-2.52-1.97-3.52,1.03-1.01,2.37-.3,3.52-.64.41.46.82.91,1.22,1.37Z"/>
    <path class="cls-7" d="M168.8,551.77c.14-.34.19-.81.46-1.08.57-.56,1.28-1.21,2.01-.29.14.17-.22.91-.53,1.22-.48.47-1.12.66-1.95.15Z"/>
    <path class="cls-7" d="M113.5,608.09c-.8-1.08-.77-2.01.5-2.71.61,1.05.48,1.96-.5,2.71Z"/>
    <path class="cls-1" d="M170.66,546.09c-.14.01-.29.03-.43.04.05-.14.06-.33.15-.41.09-.08.28-.04.42-.05l-.14.42Z"/>
    <path class="cls-7" d="M160.01,602.73c3.18,1.89,3.43-2.38,5.81-2.57,1.36.6-2.1,3.32,1.56,3.68,2.22.22,2.73-.44,3.75-1.88,2.32-3.29,5.37-5.73,9.41-6.68-6.75,10.39-14.07,20.3-23.72,28.25-.73.6-1.84,1.38-2.6,1.23-5.22-1.07-7.39,2.49-9.77,5.98-2.47,3.61-5.54,6.61-10.28,8.36,1.28-2.17,2.31-3.94,3.35-5.7-.11-.14-.22-.28-.33-.41-2.6,2.49-5.19,4.98-7.79,7.47,1.03-3.16,2.73-5.66,4.93-7.9,2.63-2.68,5.22-5.24,5.41-9.63.12-2.81,3.21-5.06,5.53-6.06,6.39-2.75,8.96-8.75,12.97-13.54.51-.6,1.08-.69,1.76-.61Z"/>
    <path class="cls-7" d="M105.25,680.33c-.78.65-1.55,1.31-2.33,1.96-1.75.25-3.5.49-5.66.8,5.58-10.81,13.3-19.39,22.26-27.05-1.23,2.28-2.23,4.73-3.77,6.78-1.53,2.04-.94,3.26.75,4.53-3.43,4.6-8.68,7.63-11.26,12.98Z"/>
    <path class="cls-7" d="M199.27,580.08c-.06.49-.11.97-.17,1.46-1.19,1.73-4.42,2.88-1.02,5.77.88.75-1.52,2.15-2.42,3.24-.79.96-1.42.86-2.33-.15-.97-1.09-1.61-1.94-.77-3.36.83-1.4,1.57-2.85,2.34-4.28,1.11-1.46,1.56-3.98,4.37-2.68Z"/>
    <path class="cls-7" d="M81.83,708.12c-.21,2.7-3.52,3.61-3.66,6.35-1.09.8-2.19,1.59-3.28,2.39.56-4.3,1.77-8.1,6.94-8.74Z"/>
    <path class="cls-7" d="M185.6,589.28c-.24-2.36,1.87-3.1,3.06-4.48.83.46,1.38-.08,1.96-.53.59,3.94-1.21,5.48-5.02,5.01Z"/>
    <path class="cls-7" d="M121.27,636.63c-.19-3.3.09-6.21,4.61-5.71-.25,2.94-2.84,3.99-4.61,5.71Z"/>
    <path class="cls-7" d="M118.34,640.82c-.98-1.9-.47-2.91,1.73-2.93.27,1.48-.69,2.23-1.73,2.93Z"/>
    <path class="cls-12" d="M231.39,528.39c-.19-1-.21-1.97.44-2.84,2.4-1.42,4.29.65,6.43.94-2.3,1.86,2.5,4.31-.73,6.5-1.71,1.16,1.89,2.37,1.34,4.15-5.62-.07-5.76-.21-3.04-5,.7-1.24.03-1.72-.36-2.59-.94-2.11-2.42-1.85-4.09-1.16Z"/>
    <path class="cls-11" d="M259.02,496.26c-1.39-.32-1.02.95-1.39,1.54-.71-.25-1.43-.5-2.14-.76,1.69-1.65,3.39-3.3,5.08-4.95,1.42-.38,2.81-.82,3.82-1.99.59.88.51,1.77.04,2.66-1.8,1.16-3.6,2.33-5.41,3.49Z"/>
    <path class="cls-11" d="M250.92,503.77c-1.07-.15-2.18,1.71-3.02.33-.81-1.33.69-2.18,1.67-2.38,2.49-.51,2.35-2.32,2.43-4.1q4.21,3.99-1.08,6.16Z"/>
    <path class="cls-12" d="M260.56,492.1c-1.69,1.65-3.39,3.3-5.08,4.95-.94-.04-1.87-.08-2.81-.11,2.29-2.17,2.96-6.98,7.89-4.83Z"/>
    <path class="cls-11" d="M221.01,549.18c-7.28-3.36.48-4.62.96-6.9,2.49,2.69,2.73,5.07-.96,6.9Z"/>
    <path class="cls-7" d="M200.33,570.96c.38-.57.76-1.13,1.14-1.7.85-.94.79-3.33,2.97-2.17,1.16.62,1.13,1.98.47,3.04-1.18,1.89-2.58,3.14-4.57.83Z"/>
    <path class="cls-7" d="M211.13,568.25c-1.17,1.36-1.93,2.88-3.8,3.35.93-1.76,2.2-2.87,3.8-3.35Z"/>
    <path class="cls-7" d="M213.72,564.81c-1.16,1.01-2.32,1.48-3.61,0,1.38-1.17,2.47-.1,3.61.07,0,0,0-.07,0-.07Z"/>
    <path class="cls-7" d="M169.55,598.75c.75-.3,1.32-1.2,1.72-.17.17.44-.14,1.24-.49,1.68-.36.47-1.15.89-1.52.04-.19-.43.2-1.11.29-1.55Z"/>
    <path class="cls-12" d="M227.55,453.23c.12.23.21.46.28.71-1.8,1.42-1.17,3.17-.66,4.9-1.86,3.59-.61,7.48-1.1,11.2-.33,2.45-.51,4.95-1.71,7.2,0,0-.49-.03-.49-.03-.4-.49-.81-.98-1.22-1.46,0,0,0,.06,0,.06.01-.49.02-.98.03-1.47,0,0,0,.04,0,.04.01-.49.02-.98.03-1.46,0,0,0,.05,0,.05.31-.89-.06-1.58-.67-2.19,0,0,0,.04,0,.04,3.49-4.82-2.02-5.58-3.65-8.09,1.85-2.2-.09-3.7-1.32-4.76-1.04-.9-2.55.21-3.27,1.3-2.18,3.32,1.39,3.04,2.73,4.17-.37,1.85.86,4.41-2.25,5.05-1.31,1.17-1.58,2.57-1.45,4.33.14,1.96-.39,3.88-2.92,4.19-2.11-5.81-1.4-11.38,1.39-16.78,2.19-4.75,5.22-9.47.53-14.47-.12-1.15-.25-2.31-.37-3.46.66-4.96,1.33-9.92,1.99-14.88,1.13-.64,2.27-.37,3.4-.02.72,2.41,1.43,4.82,2.15,7.23-.11.84.14,1.14.95.64.22-.24.44-.48.67-.71.91,4.32,2.33,8.45,4.69,12.21.37.57.74,1.14,1.11,1.71-1.46,2.01-.48,3.45,1.13,4.74Z"/>
    <path class="cls-7" d="M230.2,489.41c.68-.98,1.37-1.97,2.43-3.5.13,2.16.22,3.54.3,4.93,0,0,0,.02,0,.02-.07.52-.14,1.04-.21,1.55-3.68,1.38-.65-2.88-2.53-3.01Z"/>
    <path class="cls-7" d="M227.16,458.85c-.51-1.73-1.14-3.48.66-4.9,1.71,1.85.97,3.82.25,5.78-.3-.29-.61-.58-.91-.88Z"/>
    <path class="cls-7" d="M226.29,498.5c-.14-.94-.43-1.93.55-2.6.15-.11.69.02.77.18.56,1.14-.52,1.68-.97,2.45,0,0-.34-.03-.34-.03Z"/>
    <path class="cls-6" d="M232.73,492.42c.07-.52.14-1.04.21-1.55-.07.52-.14,1.04-.21,1.55Z"/>
    <path class="cls-6" d="M108.76,642.09c-.39-1.87,1.45-2.45,2.12-3.71.07-.15.16-.29.22-.44.72-1.7,1.54-3.36,3.7-3.4.39,0,1.04.86,1.13,1.4.38,2.2-1.14,3.43-2.82,4.08-1.52.59-2.53,2.2-4.36,2.07Z"/>
    <path class="cls-7" d="M211.3,460.23c-2.79,5.4-3.5,10.97-1.39,16.78-.31.79.06,1.35.61,1.84-2.02,1.13-2.08,4.28-5.24,4.53-1.51.12-.77,2.13-.34,3.35-1.3,1.57-2.81,3.13-.32,4.95.55,1.08,1.1,2.16,1.65,3.24-2.49.53-3.05-3.11-5.84-2.5-.03,2.37,1.34,5.07-.82,7.21-.72-.8.02-3.85-2.61-1.68-1-1.24-2.67-1.12-3.82-1.86-1.12-.73-2.01-2.03-3.27-.78-1.17,1.16-1,2.9-.02,4.06,3.05,3.61,1.03,5.95-1.77,8.2-.57.11-1.14.21-1.71.32-1.76-2.24-3.27-.41-4.85.3-.22-.22-.47-.43-.73-.61-.24-.31-.49-.62-.73-.92.73-1.1,1.42-2.22,2.2-3.29,3.62-4.92,4.98-12.91,14.09-10.45.1.03.26-.18.4-.28.47.08.91.06.8-.59-.02-.09-.51-.09-.78-.14-.59-2.87-5.14-4.42-2.75-8.28,2.14-1.58,2.74-4.1,3.86-6.31-.05-2.79,1.72-4.6,3.47-6.42,2.12-.14,3.31-1.36,2.28-3.25-1.6-2.93-.03-5.32.66-7.9,1.18-.9,2.37-1.8,3.55-2.7.51,1.74,2.67,1.71,3.43,3.18Z"/>
    <path class="cls-11" d="M210.52,478.86c-.56-.5-.92-1.06-.61-1.84,2.53-.31,3.06-2.24,2.92-4.19-.13-1.77.13-3.16,1.45-4.33,1.27,1.72,2.97,2.44,5.08,2.27-3.24,2.46-1.86,7.22-5.05,9.95-.91.78-1.06,2.82-2.82,2-2.27-1.06-.57-2.35.2-3.5.07-.1.06-.27.08-.4-.42.02-.83.03-1.25.05Z"/>
    <path class="cls-7" d="M219.35,470.76c-2.11.17-3.82-.55-5.08-2.27,3.1-.63,1.88-3.19,2.25-5.05.62-.24,1.24-.47,1.87-.71,1.63,2.51,7.14,3.27,3.65,8.09-.87-.94-1.76-1.16-2.68-.06Z"/>
    <path class="cls-7" d="M222.64,475.74c.41.49.82.98,1.22,1.46-.53.16-1.3.61-1.54.42-.8-.65-.09-1.29.32-1.88Z"/>
    <path class="cls-7" d="M222.03,470.78c.62.61.98,1.29.67,2.19-.63-.6-1-1.29-.67-2.19Z"/>
    <path class="cls-7" d="M222.7,472.91c-.01.49-.02.98-.03,1.46.01-.49.02-.98.03-1.46Z"/>
    <path class="cls-7" d="M222.67,474.33c-.01.49-.02.98-.03,1.47.01-.49.02-.98.03-1.47Z"/>
    <path class="cls-10" d="M210.53,515.11c-.73-.19-1.46-.38-2.2-.57-.26-2.03.27-3.87,1.32-5.59.28-.25.55-.49.83-.74,2.26,2.28,2.83,4.58.05,6.9Z"/>
    <path class="cls-12" d="M209.65,508.95c-1.05,1.72-1.58,3.56-1.32,5.59-1.1,1.06-2.21,1.99-3.58.35-.36-2.81,1.88-7.81-4.65-5.42-.62.23-1.54-.4-2.33-.63-3.17-1.47-4.74,1.89-7.26,2.39-1.45-.79-2.36-1.94-2.4-3.66,2.79-2.25,4.82-4.59,1.77-8.2-.98-1.16-1.15-2.9.02-4.06,1.26-1.25,2.15.05,3.27.78,1.14.74,2.82.62,3.82,1.86.3.92.61,1.84.91,2.76-1.84,1.75-.61,3.45.93,2.47,5.09-3.23,6.58.69,8.8,3.59.6.78,1.34,1.46,2.02,2.19Z"/>
    <path class="cls-6" d="M197.9,500.7c-.3-.92-.61-1.84-.91-2.76,2.63-2.18,1.89.88,2.61,1.68.14,1.47-.69,1.41-1.7,1.08Z"/>
    <path class="cls-6" d="M218.65,529.79c-1.46.12-1.16,3.44-3.52,1.95.74-1.42.6-4.45,3.52-1.95Z"/>
    <path class="cls-7" d="M272.12,481.01c.34.74.21,1.09-.68.79.23-.26.45-.53.68-.79Z"/>
    <path class="cls-12" d="M199.6,531.3c-.64.51-1.3.97-2.19.7-1.44-3.35-5.35-3.05-7.63-5.16,1.23-1.53.36-2.61-.79-3.62-.08-.7-.17-1.39-.25-2.09,2.41-.44,3.99-2.54,4.08-4.29.15-2.88,1.65-3.13,3.67-3.36.4.47.81.94,1.21,1.41-.51,2.14-2.86,4.7,1.35,5.72,1.66,1.81,4.71,2.22,5.24,5.17-1.57,1.83-3.13,3.67-4.7,5.51Z"/>
    <path class="cls-11" d="M197.71,514.9c-.4-.47-.81-.94-1.22-1.41,1.29-1.31.88-3.09,1.28-4.64.78.23,1.71.86,2.33.63,6.53-2.39,4.3,2.61,4.65,5.42-1.61-.16-3.08-1.47-4.82-.64-1.2-1.39-1.76-.53-2.23.64Z"/>
    <path class="cls-7" d="M197.71,514.9c.47-1.16,1.02-2.03,2.23-.64.86,2.28,1.55,4.53-.87,6.36-4.21-1.02-1.87-3.59-1.35-5.72Z"/>
    <path class="cls-7" d="M187.16,543.06c-.22-.23-.43-.48-.63-.73.85-1.06,1.85-.99,2.92-.37-.54.83-1.22,1.36-2.29,1.11Z"/>
    <path class="cls-6" d="M258.03,476.58c.71.21,1.42.41,2.13.62-1.92,1.67-3.82,2.3-5.65-.12,1.17-.17,2.35-.33,3.52-.5Z"/>
    <path class="cls-6" d="M254.5,477.07c-.59.67-1.22,1.21-2.17.62.33-1.58,1.37-.7,2.17-.62Z"/>
    <path class="cls-8" d="M244.64,475.53c-1.49.4-2.04,0-1.28-1.51,1.09-.06.97.91,1.28,1.51Z"/>
    <path class="cls-7" d="M271.56,509.38c0-.48.02-.97.03-1.45,0,.48-.02.97-.03,1.45Z"/>
    <path class="cls-7" d="M225.31,446.78c-2.36-3.76-3.77-7.89-4.69-12.21-.06-2.13-.04-4.27-.22-6.4-.1-1.22.8-3.04-.78-3.54-2.13-.68-1.8,1.86-2.78,2.78-1.14-.35-2.27-.62-3.4.02.67-7.08,1.34-14.15,2.01-21.23,1.49,1.41,2.73,2.73,3.4-.74.67-3.45,1.82-6.76,1.61-10.38-.08-1.27-1.19-3.56,1.68-3.73,1.62.96.32,3.65,2.5,4.46,2.16-3.86.27-8.46,2.76-12.04,1.95,1.77.67,4.35,1.6,6.38-3.5,5.02-1.44,9.98.18,14.94-.19.56-.37,1.13-.55,1.69-2.23-.56-4.21-.21-3.41,2.58.71,2.46-1.66,4.69-.06,7.01-1.26-.71-2.63,2.88-3.8-.07-.39-.98-.64-2.12-1.91-1.13-1.01.79-1.22,2.09-.26,3.05.91.91,2.13,1.51,3.21,2.25.18.28.34.57.48.86l.83,3.43c.11,5.9.88,11.71,2.75,17.31.67,2.01.55,3.47-1.17,4.72Z"/>
    <path class="cls-11" d="M222.42,420.45c-1.08-.74-2.29-1.35-3.21-2.25-.96-.96-.76-2.26.26-3.05,1.27-.99,1.53.15,1.91,1.13,1.16,2.95,2.53-.64,3.8.07,5.08,5.7,2.66,13.28,5.18,19.66-2.51-2.3-3.49-5.24-4.16-8.28-.33-1.5-.31-3.1-2.48-2.99-.28-1.14-.55-2.29-.83-3.43.68.09,1.63.06,1.41-.76-.34-1.29-1.22-.48-1.89-.1Z"/>
    <path class="cls-7" d="M227.55,453.23c-1.61-1.29-2.59-2.72-1.13-4.74.7-.15,1.41-.3,2.11-.45.31.56.61,1.13.92,1.7-.63,1.16-1.27,2.33-1.9,3.49Z"/>
    <path class="cls-11" d="M227.41,383.75c-2.49,3.59-.59,8.18-2.76,12.04-2.18-.81-.88-3.5-2.5-4.46,1.41-1.92,1.96-3.97,1-6.26v.05c1.28-1.99,1.62-4.1.9-6.37.75-.94,1.37-2.16.5-3.08-1.17-1.22-1.9.47-2.82.89-1.46-4.31-1.29-8.8-1.12-13.22.1-2.7-1.12-5.75,1.33-8.1,2.54-.4,2.04,2.38,3.39,3.22.17.1.3.23.39.4-.91.99-1.01,1.97.03,2.93,0,0,0-.05,0-.05-.52,1.62-1.57,3.16-.81,5,0,0,0-.04,0-.04,0,.48-.02.96-.03,1.44,0,0,.01,0,.01,0-.71.67-1.37,1.49-.86,2.43.39.7,1.03.04,1.52-.24.06,1.11.13,2.21.19,3.37,1.86-.59,1.31-2.35,1.8-3.58.46-1.17.44-2.9,1.97-3.1,1.73-.22,1.24,2.05,2.34,2.7-3.26,1.48-3.63,4.04-3.23,7.3.21,1.69-.75,3.53-1.18,5.31-.02.49-.04.98-.06,1.47l.02-.04Z"/>
    <path class="cls-7" d="M227.39,383.8c.02-.49.04-.98.06-1.47-.02.49-.04.98-.06,1.47Z"/>
    <path class="cls-7" d="M224.91,366.74c-.76-1.83.29-3.37.81-5,.41.5.83.99,1.24,1.49-.38,1.35-.67,2.74-2.05,3.51Z"/>
    <path class="cls-7" d="M225.56,370.32c-.49.29-1.13.95-1.52.24-.52-.94.15-1.76.86-2.43.79.55.91,1.32.66,2.19Z"/>
    <path class="cls-7" d="M224.88,368.14c0-.48.02-.96.03-1.44.42.49.42.97-.03,1.44Z"/>
    <path class="cls-7" d="M230.13,324.41c-.28.68-.57,1.35-.85,2.03-2.94,1.03-.86-5.16-4.01-3.02-3.5,2.38-3.57,1.24-3.56-2.12,0-2.19-.05-3.96,1.28-5.95,2.01-3.01,3.4-6.45,5.23-10.07-3.49.42-4,3.05-4.92,4.93-1.25,2.53-2.87,3.93-5.7,3.84-.28-.21-.55-.43-.83-.64,1.01-2.57-.37-5.07-.21-7.62,3.69-.66,4.09-2.45,2.6-5.78-1.69-3.78.21-7.92,3.56-9.15,3.48,1.97,4.05,6.36,7.17,8.63l-.05.04c-1.05.96-1.41,2.09-.79,3.43.15,1.36.58,3.28,2.07,1.4,1.24-1.56,3.35-3.62,1.49-6.23,1.81-2.07,1.08-4.71,1.59-7.07,1.97-3.55,1.44-8.08,4.38-11.25.25,1.18.49,2.35.74,3.53.23.26.47.52.7.78v.03c-1.46,1.62-1.52,3.75-1.63,5.65-.32,5.96-.91,11.86-2.35,17.66-1.38,5.85-5.49,10.75-5.91,16.94Z"/>
    <path class="cls-6" d="M236.05,307.47c1.44-5.8,2.03-11.7,2.35-17.66.1-1.9.16-4.04,1.62-5.65,4.54,2.61.64,8.22,4.28,11.26.9-11.88.33-23.53-4.56-34.64-.75-1.72-1.51-3.44-2.26-5.16,1.02.09,2.03.18,3.05.26,5.12,13.21,9.54,26.59,9.93,40.95.06,2.22-2.06,4.34-.36,6.66-.15.85-.3,1.69-.44,2.54-2.83-.14-5.74-.91-7.36,2.84-.21.5-4.44.71-6.24-1.38Z"/>
    <path class="cls-7" d="M236.92,332.99c-.38-1.05.26-1.69.92-2.32.23.98.1,1.83-.92,2.32Z"/>
    <path class="cls-12" d="M217.61,314.05c2.83.09,4.45-1.31,5.7-3.84.93-1.88,1.43-4.51,4.92-4.93-1.83,3.62-3.22,7.05-5.23,10.07-1.33,2-1.28,3.76-1.28,5.95,0,3.36.06,4.51,3.56,2.12,3.14-2.14,1.06,4.05,4.01,3.02-.33.55-.66,1.11-.99,1.66-2.51-.8-3.27.97-3.86,2.75-2.61,7.94-4.49,15.97-2.51,24.39-2.45,2.35-1.23,5.4-1.33,8.1-.17,4.42-.34,8.91,1.13,13.22,0,0,.08.02.08.02-.48,1.1.2,1.12.98,1.05.42.38.84.75,1.27,1.13.72,2.27.39,4.39-.9,6.37-.61-.43-1.18-1.2-1.99-.32-.08.09-.09.37-.01.46.75.91,1.37.25,2-.19.96,2.29.41,4.35-1,6.26-2.86.17-1.75,2.46-1.68,3.73.21,3.62-.94,6.94-1.61,10.38-.67,3.47-1.91,2.15-3.4.74-.42-2.39,1.27-4.68.35-7.1,3.53-28.29,2.72-56.67,1.8-85.05Z"/>
    <path class="cls-7" d="M221.92,355.24c-1.99-8.42-.1-16.45,2.51-24.39.59-1.78,1.35-3.55,3.86-2.75-2.24,9.06-2.03,18.3-2.24,27.52-.02.95-.49,1.89-.74,2.84-1.34-.84-.85-3.62-3.39-3.22Z"/>
    <path class="cls-7" d="M225.73,361.79c-1.04-.97-.93-1.95-.03-2.93.47.97.58,1.95.03,2.93Z"/>
    <path class="cls-10" d="M231.84,329.15c-.15.01-.3.03-.45.04.05-.15.05-.34.15-.43.1-.08.29-.04.44-.05-.05.15-.09.29-.14.44Z"/>
    <path class="cls-12" d="M194.19,208.81c-1.6-2.64-3.21-5.27-4.81-7.91-.26-2.72-2.27-4.98-2.04-7.83,3.94,3.73,4.57,9.7,8.89,13.21.05.04-.66,1.02-1.01,1.57-.34.32-.68.64-1.02.96Z"/>
    <path class="cls-12" d="M231.78,214.56c7.79,2.84,10.75,10.13,14.15,16.51,3.25,6.11.41,13.3-4.67,15.83-1.11.55-1.87.34-2.71-.3.11-.2.27-.35.47-.45,3.86-3.64.76-5.29-2.01-7.04-1.38-1.72-2.95-3.42,1.22-3.09,1.84.15,2.93-1.34,3.84-2.75.53-.82.27-2.02-.46-2.12-3.44-.47-5.5-4.94-9.62-3.26-1.17-3.43-2.33-6.86-3.5-10.3,1.1-1.01,2.19-2.02,3.29-3.03Z"/>
    <path class="cls-6" d="M185.44,151.92c.67-.6,1.34-1.21,2.01-1.81.65.66,1.31,1.32,1.96,1.98-.62,1.04-1.28,2.09.8,2.12,5.14,6.51,9.51,13.49,12.94,21.05,1.81,4.11,2.7,8.62,5.46,12.32.56.76,1.74,2.05-.51,2.38-4.12-5.58-7.57-11.57-10.32-17.91-3.18-7.32-9.95-12.38-12.35-20.14Z"/>
    <path class="cls-11" d="M239.02,246.15c-.2.1-.36.25-.47.45-1.6,3.57,2.93,5.84,1.98,9.27-1.02-.09-2.03-.17-3.05-.26-2.12-3.47-1.49-8.17-4.97-11.03.8-1.97-3.3-3.95.03-5.91.55,1,1.02,2.06,1.67,2.99.31.45.93.69,1.41,1.02.13-.62.25-1.23.38-1.85.19,0,.39,0,.58,0,.82,1.77,1.63,3.54,2.45,5.32Z"/>
    <path class="cls-1" d="M231.78,214.56c-1.1,1.01-2.19,2.02-3.29,3.03-.85-1.19-1.71-2.38-2.56-3.56.4-3.53-3.62-4.93-3.92-8.12.82-.92,1.75-.99,2.52-.06,2.42,2.91,5.7,5.1,7.26,8.72Z"/>
    <path class="cls-10" d="M250.3,242.39c2.91,3.47-.38,6.27-1.01,9.35-2.07-3.38-.74-6.39,1.01-9.35Z"/>
    <path class="cls-10" d="M250.09,260.52c.11.86.22,1.71.34,2.57-2.5.45-2.08-2.02-3.07-3.07.06-1.22-.17-2.54,1.14-3.35,1.77.77.64,2.74,1.59,3.85Z"/>
    <path class="cls-10" d="M249.29,251.75c.22,1.73.86,3.52-.79,4.95-1.38-1.91-1.32-3.6.79-4.95Z"/>
    <path class="cls-11" d="M190.22,154.21c-2.08-.03-1.42-1.08-.8-2.12.72.54,1.12,1.19.8,2.12Z"/>
    <path class="cls-11" d="M239.73,260.78c4.89,11.11,5.46,22.76,4.56,34.64-3.64-3.04.26-8.66-4.28-11.26,0,0,0-.03,0-.03.34-.78,0-.94-.7-.78-.25-1.18-.49-2.35-.74-3.53-.34-3.77-.68-7.54-1.02-11.31.58-1.3.12-2.48-.42-3.66.98-1.28-.22-3.94,2.58-4.07Z"/>
    <path class="cls-1" d="M194.19,208.81c.34-.32.68-.64,1.02-.96,7.27,9.06,16.17,16.59,24.48,26.17-2.18-.9-3.48-1.43-4.78-1.97-1.99-4.74-6.53-5.52-10.47-7.19-.86,1.63,1.24,3.57-.63,4.31-1.98.78-1.59-2.07-2.87-2.69-.29-.14-.58-.3-.87-.46,0,0,.1-.16.11-.16,1.71-.77,3.24-1.7,3.05-3.91-.08-.88-.66-1.7-1.53-1.6-1.35.15-1.22,1.77-2.03,2.53-1.31-2.88-2.63-5.76-3.94-8.64-.06-1.5-.6-2.83-1.46-4.03-.03-.47-.05-.94-.08-1.4Z"/>
    <path class="cls-6" d="M213.45,241.9c-.83-1.64-.41-2.92,1.18-3.76,1.59-.85,2.42.37,3.34,1.33,2.64,2.76,5.31,5.51,7.96,8.26,1.35,2,1.25,4.23.97,6.47-1.47-.58-2.98-.64-4.51-.27-.86-.69-1.72-1.38-2.58-2.07-.99-2.9-4.47-2.6-6.06-4.72.94-1.39,2.91-2.28,2.49-4.33-.33-1.64-1.85-.61-2.79-.91Z"/>
    <path class="cls-1" d="M226.9,254.2c.27-2.25.38-4.47-.97-6.47,1.41-.56-.17-2.96,1.71-3.02,1.63-.05,1.91,1.56,2.5,2.74,1.78,3.57,3.5,7.13,4.78,10.95.9,2.67.34,4.45-1.45,6.22-1.67.33-1.85,1.62-1.95,2.98-1.26.84-2.68,1.67-3.94.31-1.54-1.66.43-2.52,1.15-3.62,2.42-3.71,2.45-4.14.31-5.83-.71-1.42-1.42-2.84-2.14-4.26Z"/>
    <path class="cls-12" d="M200.08,226.01c.29.15.57.31.87.46,1.28.61.89,3.47,2.87,2.69,1.87-.74-.23-2.67.63-4.31,3.94,1.68,8.48,2.45,10.47,7.19-1.57,1.13-.74,3.12-1.53,4.86-3.55-3.13-6.07.43-9.05,1.01-1.91-1.73-1.35-4.79-3.48-6.4,1.07-2.02-1.04-3.59-.78-5.49Z"/>
    <path class="cls-1" d="M213.75,247.14c1.59,2.12,5.08,1.82,6.06,4.72-.43,2.14-2.12,3.9-1.86,6.25-1.76,1.03-1.43,2.79-1.55,4.39-.24-.16-.47-.34-.69-.52-2.03-.44-1.81-2.72-2.81-3.89-1.96.64-1.73,2.64-2.94,3.53-.69-1.58-1.39-3.16-2.08-4.74,1.02-1.84-.96-3.51-.32-5.33,1.86-.6,4.71-.05,4.11-3.52.16-.29.32-.58.48-.87.53,0,1.06,0,1.6-.01Z"/>
    <path class="cls-10" d="M213.52,215.46c3.57-1.73,1.11-4.91,1.77-7.34.97,1.31,1.94,2.62,2.9,3.94,2.17,3.99,5.64,7.32,6.1,12.17.19.29.37.58.56.88-3.85.19-.25,3.6-2.03,4.69-3.1-4.78-6.21-9.55-9.31-14.33Z"/>
    <path class="cls-6" d="M222.83,229.79c1.77-1.09-1.83-4.5,2.03-4.69,2.74,3.04,3.71,7.31,6.95,10h0c-.56,1.35.51,2.37.73,3.57-3.33,1.95.77,3.94-.03,5.91-4.65-1.44-3.76-6.93-6.99-9.57-1.39-1.13-1.82-3.44-2.69-5.22Z"/>
    <path class="cls-12" d="M211.67,248.02c.6,3.48-2.25,2.92-4.11,3.52-.56-.6-1.13-1.19-1.69-1.79.13-.83.26-1.66.38-2.49,2.04-1.39,3.97-2.07,5.42.76Z"/>
    <path class="cls-10" d="M213.75,247.14c-.53,0-1.06,0-1.6.01-1.25-2.16-.59-3.86,1.29-5.25.95.3,2.46-.73,2.8.91.42,2.05-1.56,2.94-2.49,4.33Z"/>
    <path class="cls-10" d="M231.52,267.6c.09-1.36.28-2.65,1.95-2.98.37.34.74.67,1.12,1.01.38,1.41.57,2.82.15,4.25-.54,0-1.08-.02-1.62-.02-.53-.75-1.06-1.51-1.59-2.26Z"/>
    <path class="cls-12" d="M234.73,269.88c.42-1.43.23-2.85-.15-4.25.74-.64,1.56-1.03,2.57-.78.53,1.17,1,2.36.42,3.66-.81.7-1.62,1.4-2.43,2.1-.1-.26-.24-.5-.42-.72Z"/>
    <path class="cls-6" d="M183.91,163.32c-.3-.73-.59-1.46-.89-2.18.51-.49,1.02-.97,1.52-1.46,5.67,7.69,11.08,15.54,15.38,24.11.59,1.17,1.43,2.2,2.15,3.3-1.46,1.76-2.46,1.61-3.66-.46-3.76-6.51-7.68-12.93-11.6-19.35-.85-1.39-1.93-2.64-2.91-3.96Z"/>
    <path class="cls-6" d="M225.93,214.02c.85,1.19,1.71,2.37,2.56,3.56,1.17,3.43,2.33,6.86,3.5,10.29-.28.77-.55,1.55-.83,2.32l-5.09-7.6c-.51-1.34-.8-2.83-1.59-3.99-1.55-2.29-1.15-3.72,1.44-4.59Z"/>
    <path class="cls-7" d="M218.2,212.06c-.97-1.31-1.94-2.62-2.9-3.94-.94-3.74-3.03-7-4.11-10.72,2.81,4.66,8.1,8.07,7.02,14.65Z"/>
    <path class="cls-7" d="M226.08,222.6c1.7,2.53,3.39,5.07,5.09,7.6-1.03,1.79,1.16,3.17.64,4.9-3.25-2.69-4.21-6.96-6.95-10-.19-.29-.37-.58-.56-.88.6-.54,1.19-1.08,1.79-1.63Z"/>
    <path class="cls-6" d="M177.92,518.7c-.2-3.99,5.73-5.86,3.64-10.51,1.58-.71,3.09-2.54,4.85-.3-1.68,1.56-4.18,2.95-1.23,5.54.47,2.21-2.68,3.86-.98,6.27-.02,1.52.16,3.17-2.04,3.39-2.43-.49-3.98-1.81-4.25-4.39Z"/>
    <path class="cls-12" d="M185.18,534.03c-1.43,1.45-2.84,2.75-4.73.55-.86-1-1.9-1.07-2.95-.22h0c-2.27-1.15-4.19-.39-5.75,1.3-1.05,1.13-2.27,1.72-3.71,2.04-.4-.9-2.18-2.44-.51-2.64,2.89-.36,4.08-2.58,6.1-3.84,2.17-1.35,4.44-3.3,6.62.27.51.83,1.99,1.08,3.02,1.59.64.32,1.28.64,1.93.96Z"/>
    <path class="cls-11" d="M189.78,526.84c2.28,2.11,6.19,1.81,7.63,5.16-2.57,1.64-5.98,1.86-7.89,4.63h-.02c-.91-.55-1.82-1.11-2.73-1.67,5.68-2.33,5.8-3.33.9-7.39.55-.69,1.23-.99,2.11-.73Z"/>
    <path class="cls-8" d="M187.67,527.57c4.9,4.06,4.78,5.06-.9,7.39-.53-.31-1.06-.62-1.6-.93-.64-.32-1.28-.64-1.93-.96.18-2.87,1.69-4.68,4.42-5.5Z"/>
    <path class="cls-11" d="M182.16,523.08c2.19-.22,2.01-1.87,2.04-3.39,1.51.48,3.03.96,4.54,1.44.08.7.17,1.39.25,2.09-2.36,4.31-4.61,3.14-6.83-.13Z"/>
    <path class="cls-12" d="M179.19,546.35c-.41-.46-.82-.91-1.22-1.37,2.91-.72,4.1-7.04,8.58-2.65-2.33,1.57-4.46,3.49-7.36,4.02Z"/>
    <path class="cls-12" d="M189.53,536.63c.82,1.29.95,2.44-.81,2.99-.76.24-1.92.25-1.94-.69-.03-1.61,2.11-1.14,2.72-2.29,0,0,.02,0,.02,0Z"/>
    <path class="cls-12" d="M177.5,534.35c.04.16.08.31.12.47-.04-.16-.08-.31-.13-.47,0,0,0,0,0,0Z"/>
    <path class="cls-1" d="M207.87,457.05c2.11-3.49,2.8-7.47,3.96-11.29,4.69,5,1.66,9.71-.53,14.47-.77-1.47-2.92-1.44-3.43-3.18Z"/>
    <path class="cls-11" d="M216.85,427.41c.98-.92.65-3.47,2.78-2.78,1.58.5.68,2.32.78,3.54.17,2.12.15,4.26.22,6.4-.23.23-.45.47-.67.71-.32-.21-.63-.43-.95-.64-.72-2.41-1.43-4.82-2.15-7.23Z"/>
    <path class="cls-11" d="M218.39,462.73c-.62.24-1.24.47-1.87.71-1.33-1.13-4.91-.85-2.73-4.17.72-1.1,2.23-2.2,3.27-1.3,1.24,1.07,3.17,2.57,1.32,4.76Z"/>
    <path class="cls-7" d="M219,434.64c.31.21.63.43.95.64-.8.51-1.05.2-.95-.64Z"/>
    <path class="cls-8" d="M185.18,513.43c-2.95-2.59-.46-3.98,1.23-5.54.57-.11,1.14-.21,1.71-.32.04,1.72.95,2.87,2.4,3.66-1.22,2.09-3.83.8-5.33,2.2Z"/>
    <path class="cls-10" d="M196.8,491.92c.27.04.77.05.78.14.11.64-.33.66-.8.59,0-.24,0-.48.02-.72Z"/>
    <path class="cls-7" d="M185.18,513.43c1.5-1.4,4.12-.11,5.33-2.2,2.52-.49,4.1-3.86,7.27-2.39-.4,1.55.01,3.33-1.28,4.64-2.03.22-3.53.48-3.67,3.36-.09,1.75-1.67,3.85-4.08,4.29-1.51-.48-3.03-.96-4.54-1.44-1.7-2.4,1.44-4.05.98-6.26Z"/>
    <path class="cls-6" d="M222.42,420.45c.67-.37,1.55-1.19,1.89.1.22.81-.73.85-1.41.76-.14-.3-.3-.59-.48-.86Z"/>
    <path class="cls-7" d="M224.04,378.75c-.42-.38-.84-.75-1.27-1.13-.33-.35-.65-.7-.98-1.05,0,0-.08-.02-.08-.02.92-.42,1.65-2.11,2.82-.89.88.92.25,2.14-.5,3.08Z"/>
    <path class="cls-11" d="M216.57,305.78c-.26-.29-.53-.58-.79-.87,1.32-6.59-1.67-12.75-1.87-19.19-.13-1.38-.27-2.76-.4-4.14,2.87.42,3.58-2.84,5.87-3.42,2.83,2.72,5.55,5.74,10.11,3.67.47.46.94.92,1.42,1.39-.3,2.07-1.49,2.85-3.5,2.37-2.41-.57-4.78-.42-8.02.11,2.8,1.28,2.11,3.69,3.35,5.16-3.35,1.23-5.26,5.37-3.56,9.15,1.49,3.32,1.09,5.11-2.6,5.78Z"/>
    <path class="cls-12" d="M222.74,290.86c-1.24-1.47-.54-3.89-3.35-5.16,3.24-.54,5.61-.68,8.02-.11,2.02.48,3.2-.31,3.5-2.37,2.65.27,2.22,2.48,2.15,4-.07,1.54-.2,2.85,1.16,3.86-.51,2.36.22,5-1.59,7.07-1.36-.46-1.82.87-2.71,1.35-3.12-2.27-3.69-6.65-7.17-8.63Z"/>
    <path class="cls-1" d="M234.21,291.07c-1.35-1.01-1.23-2.31-1.16-3.86.07-1.52.5-3.73-2.15-4-.47-.46-.94-.92-1.41-1.39-.02-.31-.11-.6-.28-.87,1.54-1.69,2.67-3.6,3.25-5.82-.38-.47-.75-.94-1.13-1.41,1.27-1.04,2.54-2.08,3.81-3.12.81-.7,1.62-1.4,2.43-2.1.34,3.77.68,7.54,1.02,11.31-2.94,3.17-2.41,7.7-4.38,11.25Z"/>
    <path class="cls-11" d="M229.91,299.49c.89-.48,1.35-1.81,2.71-1.35,1.86,2.6-.25,4.66-1.49,6.23-1.49,1.88-1.92-.05-2.07-1.4.84-1.01,2.48-1.84.79-3.44l.05-.04Z"/>
    <path class="cls-12" d="M229.85,299.52c1.68,1.6.04,2.42-.79,3.44-.62-1.35-.25-2.47.79-3.44Z"/>
    <path class="cls-6" d="M239.32,283.35c.7-.15,1.04,0,.7.78-.23-.26-.47-.52-.7-.78Z"/>
    <path class="cls-7" d="M223.14,385.08c-.63.44-1.25,1.1-2,.19-.08-.09-.07-.37.01-.46.81-.89,1.37-.11,1.99.32,0,0,0-.05,0-.05Z"/>
    <path class="cls-11" d="M221.79,376.58c.33.35.65.7.98,1.05-.77.07-1.46.05-.98-1.05Z"/>
    <path class="cls-11" d="M231.81,235.1c.52-1.73-1.67-3.1-.64-4.9.28-.77.55-1.55.83-2.32,4.11-1.67,6.18,2.8,9.62,3.27.72.1.99,1.29.46,2.12-.91,1.41-2,2.9-3.84,2.75-4.16-.33-2.6,1.36-1.22,3.09-.15.58-.3,1.15-.45,1.73-.19,0-.39,0-.58,0-1.86-1.58-1.99-4.41-4.18-5.75h0Z"/>
    <path class="cls-1" d="M236.56,240.84c.15-.58.3-1.15.45-1.73,2.76,1.75,5.86,3.4,2.01,7.04-.82-1.77-1.64-3.54-2.45-5.31Z"/>
    <path class="cls-7" d="M231.8,235.09c2.19,1.34,2.32,4.17,4.18,5.75-.13.62-.25,1.23-.38,1.85-.48-.33-1.1-.57-1.41-1.02-.64-.94-1.12-1.99-1.67-2.99-.22-1.2-1.29-2.22-.73-3.58Z"/>
    <path class="cls-12" d="M199.28,224.71c.13-.61.26-1.22.4-1.82.81-.76.68-2.39,2.03-2.54.87-.1,1.45.72,1.53,1.6.19,2.21-1.34,3.14-3.05,3.91-.31-.38-.61-.77-.91-1.15Z"/>
    <path class="cls-10" d="M226.9,254.2c.71,1.42,1.42,2.84,2.14,4.26-.92,1.12-2.11,1.66-3.55,1.66-1.27-.37-2.54-.75-3.82-1.12.24-1.69.48-3.38.71-5.07,1.53-.37,3.04-.31,4.51.27Z"/>
    <path class="cls-7" d="M222.39,253.93c-.24,1.69-.48,3.38-.71,5.07-.24.66-.47,1.31-.71,1.97-1.6-.32-1.3-2.66-3.01-2.86-.27-2.35,1.43-4.11,1.86-6.25.86.69,1.72,1.38,2.57,2.07Z"/>
    <path class="cls-12" d="M217.95,258.11c1.72.21,1.41,2.54,3.01,2.87q1.11,2.99,4.53-.85c1.44,0,2.63-.53,3.55-1.66,2.14,1.69,2.11,2.12-.31,5.83-.72,1.1-2.69,1.96-1.15,3.62,1.27,1.36,2.68.53,3.94-.31.53.75,1.06,1.51,1.59,2.26-1.38,2.39-4.42,2.49-6.13,4.43-2.26,0-4.76,1.16-6.51-1.34-.47-1.77-1.2-3.52-1.35-5.31-.17-2.2.13-4.44-2.71-5.15.13-1.6-.2-3.37,1.55-4.39Z"/>
    <path class="cls-7" d="M213.51,281.58c-1.26-5.44-1.26-11.13-3.13-16.45,2.72.55,3.41-2.34,5.33-3.15.22.19.45.36.69.52,2.85.71,2.54,2.94,2.71,5.15.14,1.79.87,3.54,1.34,5.31-3.08,1.17-.13,3.59-1.08,5.2-2.28.58-3,3.84-5.87,3.42Z"/>
    <path class="cls-12" d="M215.71,261.98c-1.92.81-2.6,3.7-5.33,3.15-.14-1.17-.28-2.34-.43-3.51,1.21-.88.99-2.89,2.94-3.53,1,1.17.78,3.45,2.81,3.89Z"/>
    <path class="cls-11" d="M226.97,274.29c1.71-1.94,4.75-2.04,6.13-4.43.54,0,1.08.02,1.62.02.18.22.31.46.42.72-1.27,1.04-2.54,2.08-3.81,3.12-.97.31-2.13.99-1.57,1.93.94,1.57,1.79-.2,2.69-.52-.58,2.22-1.71,4.14-3.25,5.82-2.64-1.59-1.72-4.37-2.24-6.66Z"/>
    <path class="cls-8" d="M226.97,274.29c.52,2.3-.4,5.08,2.24,6.66.17.27.26.55.28.87-4.57,2.07-7.29-.94-10.11-3.67.96-1.61-1.99-4.03,1.08-5.2,1.75,2.5,4.25,1.34,6.51,1.34Z"/>
    <path class="cls-12" d="M232.46,275.13c-.9.32-1.75,2.09-2.69.52-.56-.94.6-1.62,1.57-1.93.37.47.75.94,1.12,1.41Z"/>
    <path class="cls-11" d="M225.49,260.12q-3.42,3.84-4.53.85c.24-.66.47-1.32.71-1.97,1.27.37,2.55.75,3.82,1.12Z"/>
  </g>
</svg>