<?xml version="1.0" encoding="UTF-8"?>
<svg id="Layer_1" data-name="Layer 1" xmlns="http://www.w3.org/2000/svg" viewBox="0 0 89.16 840.36">
  <defs>
    <style>
      .cls-1 {
        fill: #bd9253;
      }

      .cls-1, .cls-2, .cls-3, .cls-4, .cls-5, .cls-6, .cls-7, .cls-8, .cls-9, .cls-10, .cls-11, .cls-12 {
        stroke-width: 0px;
      }

      .cls-2 {
        fill: #59372a;
      }

      .cls-3 {
        fill: #441d0d;
      }

      .cls-4 {
        fill: #754515;
      }

      .cls-5 {
        fill: #795231;
      }

      .cls-6 {
        fill: #88695a;
      }

      .cls-7 {
        fill: #e7f6fb;
      }

      .cls-8 {
        fill: #9b692d;
      }

      .cls-9 {
        fill: #38aee2;
      }

      .cls-10 {
        fill: #f8f8f8;
      }

      .cls-11 {
        fill: #fdfdfd;
      }

      .cls-12 {
        fill: #d4bb84;
      }
    </style>
  </defs>
  <path class="cls-6" d="M27.53,716.34c1.76-5.22.87-10.64,1.07-15.96.4-10.26.46-20.52.57-30.79.02-1.44.7-3.12-.83-4.3,2-6.17.59-12.51.89-18.77.59-12.24.94-24.5,1.39-36.75,2.34,2.65.16,6.3,1.99,9.06-1.76,3.22.26,6.6-.3,9.87,1.63-3.23,2.99-6.48.24-9.88,2.95-.37,1.99-2.64,1.93-4.28-.26-6.38-1.38-12.81-.88-19.11,1.49-18.68.83-37.39.78-56.06-.04-13.27,1.55-26.58-.15-39.86-.23-1.8-.32-4.02,1.12-5.71,4.07-.06,2.2-2.99,2.22-4.83.02-2.78-.12-2.78,2.23-2.52,3.02,5.5,1.29,11.62.55,16.91-.74,5.26-.17,10.16-.06,15.22-.88.79-2.34,1.4-1.75,2.89,2.19,5.52.32,11.15.46,16.71.12,4.7-1.89,9.73-.76,14.04,1.22,4.68.93,8.92.48,13.41-.4,3.88,2.28,8.12-1.36,11.67-.18.18.23,1.16.56,1.62,2.05,2.83,1.7,6.1,1.8,9.29.11,11.52-.72,22.97-2.72,34.33-.8,1.55-.21,2.78.91,3.88,0,1.13,0,2.25-.01,3.38-1.74,1.54-3.55.86-5.36.16-1.78,2.24-1.47,4.5-.06,6.77h-.01c-1.73,1.02-1.07,2.67-1.1,4.14-.28,11.75.64,23.5-.12,35.25-.31,4.82-.96,9.72.97,14.41-1.05.67-1.05,1.56-.54,2.56-1.85,2.31-.89,5.05-.89,7.52,0,6.97-1.71,13.94-.14,20.91-1.33,1.22-.86,2.81-.86,4.3.03,8.33.11,16.65.11,24.98,0,3.01.04,6.06-1.91,8.66-.76-11.45.27-22.89.18-34.33-.02-2.27.49-4.59-.41-6.81.6-.75.23-1.39-.22-2.02Z"/>
  <path class="cls-2" d="M27.97,759.5c1.94-2.6,1.91-5.65,1.91-8.66,0-8.33-.08-16.65-.11-24.98,0-1.48-.47-3.07.86-4.3.16,0,.31.02.46.05,3.08,1.56-.21,5.48,2.63,7.13.43,2.25.08,4.68,1.46,6.73.8,4.9-2.95,10.22,1.13,14.93,2.47-3.49,2.91-7.2,2.52-11.1-.08-.85-.08-2.06,1.3-1.85.93.14.84,1.04.84,1.85-.06,9.06,1.17,18.13-.23,27.18-.26,1.7-.15,3.36.63,4.93l-.17,1.37c-.81,3.03-2.58,6.01-.44,9.18v.04c-3.17,5-.11,10.13-.21,15.19-.05,2.58,2.05,1.29,3.38.69,1.34,1.41.57,3.24.96,4.84h0c-3.19,2.01-6.64,5.15-7.32-2.08-.1-1.08-1.35-.86-2.22-.4-1.02-.74-.08-3.39-2.1-2.79-1.9.56-1.78,2.6-1.26,4.25.26.83.95,1.52,1.45,2.28-.1.37-.2.75-.3,1.12-.19-.03-.39-.06-.58-.09.19.05.38.1.56.15,1.03,2.46-.79,2.05-2.13,2.13-3.26-1.44-3.71-4.76-5.01-7.5,0,0,0,.04,0,.04.52-1.5,1.15-2.98.41-4.59.98-5.09.3-10.25.65-15.36.23-3.44.54-6.88.81-10.32.33-.71.33-1.39-.21-2.01.04-1.55.09-3.1.13-4.65,1.4-1,1.03-2.1.19-3.22v-.16ZM35.16,758.95c-.48.49-1.11.95-.5,1.74.06.08.31.13.4.07.84-.51.47-1.16.17-1.8.03-.18.05-.36.08-.54l-.15.53ZM35.42,754.35c.48-.48,1.13-.92.5-1.71-.06-.08-.31-.12-.4-.07-.87.51-.43,1.15-.15,1.77-.49.48-1.13.91-.51,1.71.06.08.31.13.4.08.87-.51.42-1.16.16-1.78ZM34.72,783.17c.5-1.5,1.27-3.06.22-4.64-.48-.71-1.43-.74-1.88,0-.8,1.33-.7,2.88-.25,4.29.24.75,1.09.88,1.92.34Z"/>
  <path class="cls-6" d="M41.2,772.77c.06-.46.11-.91.17-1.37,1.52-.75,2.3-1.84,2.07-3.67-.65-5.03.89-9.95.66-15.02-.48-10.6,2.91-21.46-2.34-31.72l-.19-2.07c1.71-1.03,1.96-2.3.63-3.83.06-.45.12-.9.18-1.35,1.62-1.09.81-2.18,0-3.27-.02-1.35,1.22-2.47.7-3.91,1.05-2.2,1.82-4.4-.03-6.6-.08-.7-.16-1.4-.25-2.09,1.44-1.06,1.73-2.32.65-3.82v-.05c1.72-2.94,1.93-5.83-.25-8.65v-.03c1.97-1.14,2.25-2.24-.06-3.29-.57-.99-.51-2.05-.35-3.13.89-6,1.19-12.2,1.42-18.11.27-6.94-.57-14.19-.87-21.31,2.84-1.89,3.18-5.03,2.44-7.63-.7-2.48,2.4-5.84-1.65-7.46.12-3.1.25-6.2.37-9.3.87-1.49,1.3-2.99.2-4.56-.13-.27-.27-.53-.4-.79,1.23-3.03,1.37-6.09.36-9.21v-.02c.68-2.21,2.79-2.34,4.48-3.07.07,1.66.22,3.32.19,4.98-.21,14.78-.45,29.56-.68,44.33-.19,7.65-.38,15.29-.56,22.94-.13,3.34-.72,6.68-.07,10.03-.03,1.93-.06,3.87-.08,5.8-.42,7.06-1.14,14.12-.39,21.2-.11,1.98-.22,3.96-.33,5.95-.69,1.09,0,2.19,0,3.28-.45,22.31-.89,44.62-1.36,66.93-.02.89-.22,1.78-.33,2.68-1.51-1.3-4.01-1.28-4.77-3.58,0,0,0-.04,0-.04.86-3.02,2.63-6,.44-9.18Z"/>
  <path class="cls-12" d="M84.3,114.8c2.51,3.18,2.81,7.33,4.71,10.79.44.8-.16,1.41-.85,1.84-2.13-1.52-5.78.43-7.16-3.34.51,2.86-1.61,4.95-1.36,7.52-.62.57-1.25,1.15-1.87,1.72-1.54-.83-3.71,1.31-5.02-1.6-1.53-3.41-3.93-6.42-5.95-9.61-2.46-6.66-3.65-13.75-6.79-20.18.92-.64,1.83-1.28,2.75-1.92.45.08.91.15,1.36.23,3.5,3.07,3.88.16,3.66-2.21-.29-3.05,1-4.49,3.66-5.21,1.2,2.24,3.07,4.34,1.39,7.14-4.38-.15-3.82,3.69-4.61,6.12-.75,2.29,1.04,4.19,2.77,5.3,2.36,1.51,3.83-.75,5.41-2.08,1.46.87,1.46,2.56,2.05,3.88,1.36,3,3.14,3.82,5.84,1.61Z"/>
  <path class="cls-8" d="M42.27,26.01c2.53,2.42,1.71,5.73,2.28,8.67.54,2.79-.24,5.83,1.63,8.36,0,0,.12,0,.12,0-1.21,1.13-1,2.39.09,3.29.82.68,1.11-.45,1.5-.98,1.2.51,2.41,1.01,3.61,1.52.52.92,1.04,1.84,1.56,2.76h0c-.55.33-.5.79-.24,1.28h0c-.57.77-.39,1.44.27,2.05h0c-1.44.88-.91,2.08-.53,3.26-5.15,5.63-1.72,12.87-3.32,19.15-1.71-.11-.63-2.83-2.42-2.27-1.19.37-1,1.83-.96,2.84.18,4.6.47,9.19,3.73,12.91-.79.43-1.59.85-2.38,1.28-.14-.18-.29-.35-.43-.53-.88-1.77-.62-5.22-4.27-2.87-1.66-4.22,1.58-8.22.56-12.41l-.9-1.53c1.83-3.58.75-7.14-.1-10.7.29-5.18,1.44-10.41-.98-15.42v-.04c1.61-1.12,1.04-2.21-.03-3.3h0c.29-.19.58-.37.87-.55.12-5.59.23-11.19.35-16.78ZM47.69,50.56c-.05-.97.62-2.65-.71-2.62-1.55.04-.77,1.5-.42,2.43-.15.77-.86,1.99.17,2.17,1.22.21.93-1.14.95-1.98Z"/>
  <path class="cls-5" d="M71.62,191.98c-.84,1.32-1.54,2.69-1.6,4.3-3.98,7.08-4.63,15.01-5.75,22.81-.19,1.33-.28,2.67-.42,4-.76-.91-1.64-.91-2.6-.34-2.14-4.34-1.3-9.21-2.44-13.72,1.26-.87,2.52-1.75,3.78-2.62.14-.04.29-.08.43-.12-.14,0-.29,0-.43,0-.73-.49-1.43-.22-2.13.1-1.9-7.06-.39-12.77,6.45-16.39,1.96-.16,3.75-.83,5.44-1.78l.36.02c-.36,1.25-.72,2.49-1.09,3.74Z"/>
  <path class="cls-3" d="M14.6,81.62c1.51-4.86,3.02-9.71,4.53-14.57,2.17,1.04,3.77.95,4.46-1.85.31-1.28,1.15-2.42,1.75-3.63-.41,7.17.07,14.57-5.19,20.5-1.45,1.64-1.64,3.55-1.49,5.59l-1.56,1.02c-.84-2.35-1.67-4.71-2.51-7.06Z"/>
  <path class="cls-8" d="M86.72,159.66c2.59,4.09,2.12,7.12-1.92,8.46-3.63,1.2-4.84,3.43-4.48,6.84.65,6.29-2.04,10.59-7.61,13.28,0,0-.36-.02-.36-.02.38-1.49,1.8-1.93,2.79-2.8.87-.71,2.5-1.17,1.01-2.73-3.86-4.04-2.05-7.72.7-11.32-1.29-.98-2.81,1.02-4.39-.4,1.18-.56,2.09-1,3.01-1.44.54-.34,1.07-.68,1.61-1.01,5.72,1.1,6.7-.12,6.05-7.56,1.2-.43,2.39-.86,3.59-1.3ZM76.25,176.18c.09.09.18.24.27.24.13,0,.26-.1.39-.16-.15-.14-.29-.29-.44-.43-.07.12-.15.23-.22.35Z"/>
  <path class="cls-4" d="M42.27,26.01c-.12,5.59-.23,11.19-.35,16.78-.57-.27-1.16-.57-.87.54,0,0,0,0,0,0-.93,1.11-.87,2.21.04,3.3,0,0,0,.04,0,.04-2.12,3.47.18,7.39-1.13,10.95-.5-.06-.99-.12-1.49-.18-.21-1.39-.43-2.78-.64-4.16,1.02-1.27,1.34-2.62.46-4.11.47-.6.24-1.19-.02-1.78v.1c.47-.78.61-1.51-.26-2.12v.08c.9-.3.4-.86.24-1.35,0,0,0,.04,0,.04.32-6.06.62-12.13.99-18.19.11-1.82.43-3.62.66-5.44,0,0,.45.05.45.05.15.49.3.97.45,1.46-.03.43-.07.86-.1,1.29-.17.54-.3,1.39.33,1.33.76-.08.16-.81.04-1.26.09-.42.19-.84.29-1.26.27-1.16.69-2.34-.33-3.37,0,0,0-.05,0-.05.97-.83.56-2.08.95-3.09.17.02.35.04.52.06.32,3.45,1.51,6.92-.22,10.33Z"/>
  <path class="cls-8" d="M61.81,52.63c1.92,2.77,2.64,5.92,2.95,9.2-.18.41-.45.81-.52,1.24-.65,3.71.75,7.05,1.64,10.55.54,2.1,3.39,4.91-.54,6.84-.62-1.33-1.18-2.68-1.88-3.97-1.1-2.04-1.78-.18-2.59.35-.6-.75-1.2-1.49-1.79-2.24,1.17-2.19-.39-4.04-.76-6.03,2.06-2.28,3.64-4.65,1.37-7.71,0-1.13-.02-2.25-.02-3.38.28.24.77.74.82.69.61-.48-.01-.81-.22-1.2l-.11-.04c2.05-.86.53-3.08,1.65-4.3Z"/>
  <path class="cls-8" d="M38.28,49.18c.88,1.48.56,2.83-.46,4.11-1.43-1.57-2.8-3.21-4.33-4.67-.65-.62-.19-2.52-1.95-1.83-1.04.41-1.7,1.22-1.92,2.38-.43,2.23-.6,4.58-2.57,6.17-2.44-.18-2.4,3.75-5.12,3.1.9-3.18,1.79-6.37,2.69-9.55,2.33,1.64,2.76-.12,3.39-1.8.65-1.74-.07-4.09,2.24-5.1.91.04-.41,3,1.95,1.37,2.06-1.42,4.17-.54,6.05.79,0,0,0-.04,0-.04-1.46.2-1.07.74-.25,1.35,0,0,0-.08,0-.08-1.07.85-1.06,1.57.27,2.12,0,0,0-.1,0-.1-1.05.6-.79,1.2.02,1.78Z"/>
  <path class="cls-4" d="M86.72,159.66c-1.2.43-2.39.86-3.59,1.3-2.75-1.72-5.11-3.71-6.27-6.96-.42-1.18-.89-3.29-3.17-2.06l-.26-.05-.67-2.71c.97-1.44.15-3.57,1.83-4.72.73-.51,1.5-.99,1.38-2.07h-.02c1.71-.76,3.42-1.52,5.13-2.29h0c-4.8,8.44-.07,14.14,5.63,19.57Z"/>
  <path class="cls-8" d="M37.5,836.23c-.97,1.62-2.1,3.08-3.71,4.13-.28-.29-.55-.57-.83-.86-.4-3.11-.94-6.21-1.17-9.33-.22-3.05-1.2-5.54-3.9-7.17.88-.19,1.76-.38,2.63-.57,3.28.84,5.44-1.29,7.78-2.94.35.49.7.98,1.05,1.47-.65,1.53.82,1.62,1.51,2.23-.12.09-.26.16-.37.27-1.81,1.74-5.05.79-6.15,2.07-1.09,1.27,2.55,3.16,1.93,5.86-.35,1.5-.54,3.58,1.22,4.84Z"/>
  <path class="cls-4" d="M65.35,80.46c3.93-1.93,1.07-4.74.54-6.84-.89-3.5-2.29-6.84-1.64-10.55.07-.43.34-.82.52-1.24,2.83,3.54,3.48,7.99,5.02,12.06,1.46,3.86,2.8,7.76,4.19,11.64-1.78-.29-2.05-2.07-3.08-3.11-1.14-1.15-1.56-1.09-3.13.28.09,1.57.18,3.13.26,4.52-2.74-1.47-1.87-4.43-2.68-6.77Z"/>
  <path class="cls-8" d="M67.77,82.71c1.57-1.37,1.99-1.43,3.13-.28,1.03,1.04,1.3,2.82,3.08,3.11,1.34,3.64,2.67,7.29,4.01,10.94-3.29,1.14-1.13,4.84-3.1,6.6-.69-1.03-1.37-2.06-2.06-3.09,1.69-2.8-.19-4.9-1.39-7.14-1-3.46-1.67-7.04-3.68-10.13Z"/>
  <path class="cls-5" d="M40.75,781.99c.76,2.3,3.26,2.28,4.77,3.58.38,2.59.41,5.18,0,7.77-.72.81-.29,1.52.18,2.24,0,0,0-.08,0-.08-1.05.45-1.9,1.06-1.77,2.39-1.33.59-3.43,1.88-3.38-.69.1-5.06-2.96-10.2.2-15.19Z"/>
  <path class="cls-1" d="M61.81,52.63c-1.12,1.22.4,3.44-1.65,4.3-.41-1.2-1.31-1.93-2.39-2.5-.6-5.05-1.7-9.95-4.47-14.33-.71-1.02-.75-2.24.4-2.65,1.36-.48,2.71.08,3.32,1.62,1.78,4.45,4.11,8.71,4.78,13.56Z"/>
  <path class="cls-1" d="M26,799.77c1.3,2.75,1.76,6.06,5.01,7.51,1.55,1.88,3.78,1.84,5.9,2.13-.07.36-.15.72-.22,1.08-2.33-.15-3.26,1.16-3.42,3.28-1.53,1.51-2.61.12-3.9-.51-1.78-.86-2.3-3.14-4.33-3.64-.4.1-.8.21-1.2.31.72-3.39,1.44-6.77,2.16-10.16Z"/>
  <path class="cls-8" d="M79.64,131.62c-.25-2.57,1.87-4.66,1.36-7.52,1.38,3.77,5.03,1.83,7.16,3.34-.8,5.09-4.78,8.39-7.07,12.64,0,0,0,.01,0,.01-1.28-1.98-.14-3.8.25-5.72.33-1.66-.86-.4-1.34-.51-.48-.69,1.96-1.85-.36-2.24Z"/>
  <path class="cls-4" d="M74.89,103.07c1.97-1.76-.19-5.46,3.1-6.6,1.45,4.18,2.9,8.37,4.35,12.55-2.58,1.66-4.32.59-5.67-1.75-.44-.51-.88-1.03-1.32-1.54-.15-.89-.3-1.78-.46-2.67Z"/>
  <path class="cls-2" d="M40.06,832.2c-.75-1.99,1.88-4.74,3.52-6.14-.27-1.33,1.4-.85,1.51-2.51.13-2.06.52-.8.56-3.44-.37.18-.75.36-1.12.54-1.22.85-2.44,1.7-3.67,2.55-.12.09-.26.16-.37.27-1.81,1.74-5.05.79-6.15,2.07-1.09,1.27,2.55,3.16,1.93,5.86-.35,1.5-.54,3.58,1.22,4.84l.93-.33.07.03c-.46-1.07,1.35-3.26,1.57-3.74Z"/>
  <path class="cls-1" d="M21.94,58.43c2.72.65,2.68-3.28,5.12-3.1-.15.73-.29,1.46-.44,2.19-.2.05-.29.18-.28.39-.53,1.19-1.34,2.32-.88,3.75,0,0-.11-.08-.11-.08-.6,1.2-1.44,2.35-1.75,3.63-.69,2.8-2.29,2.9-4.46,1.85.37-3.06,1.38-5.91,2.8-8.62Z"/>
  <path class="cls-12" d="M30.52,822.43c-.88.19-1.75.38-2.63.57-3.51-1.77-5.05-4.45-3.93-8.38,3.67-.91,4.77,2.86,7.3,4.02.47,1.4-.16,2.59-.74,3.79Z"/>
  <path class="cls-4" d="M14.6,81.62c.84,2.35,1.67,4.71,2.51,7.06,0,0,0,0,0,0-.08.41-.16.82-.24,1.23v.03c-.1.43-.2.87-.3,1.3-1.4.83-.6,3.05-2.32,3.68-.08-.18-.14-.37-.15-.57-.47-1.59-1.39-1.69-2.62-.8l-.33-.12c.12-1.06.23-2.11.35-3.17,1.04-2.88,2.07-5.77,3.11-8.65Z"/>
  <path class="cls-4" d="M53.31,40.1c2.76,4.38,3.87,9.27,4.47,14.33-1.36.09-2.67.35-3.77,1.23-.3-.91-.61-1.81-.91-2.72,0,0,0,0,0,0,.61-.78.29-1.43-.27-2.05,0,0,0,0,0,0,.08-.43.16-.86.24-1.29,0,0,0,0,0,0,.51-2.11.91-4.22-.73-6.07.53-.47,1.31-.8.94-1.75.01-.57.02-1.13.03-1.7Z"/>
  <path class="cls-4" d="M45.65,820.1c-.37.18-.75.36-1.12.54-1.73.1-3.46.21-5.18.32-.35-.49-.7-.98-1.05-1.47-.17-.29-.34-.57-.51-.86,3.33-1.57,8.08-.65,9.6-5.43.29.27.57.53.86.8.01,2.41-1.29,4.25-2.6,6.1Z"/>
  <path class="cls-8" d="M76.66,107.28c1.35,2.33,3.09,3.4,5.67,1.75,1.31,1.7,1.98,3.62,1.96,5.78-2.71,2.21-4.48,1.39-5.84-1.61-.6-1.32-.59-3.01-2.05-3.88-.14-.48-.29-.96-.44-1.45.23-.2.46-.39.69-.59Z"/>
  <path class="cls-5" d="M39.63,10.59c.11-3.36-.76-6.79.54-10.59,2.89,2.88,2.18,5.99,2,8.98,0,0-.44.08-.44.08-.2-.28-.39-.56-.59-.84-.43.56.01.91.31,1.3v-.04c-.6.37-1.21.74-1.82,1.11Z"/>
  <path class="cls-3" d="M30.26,41.98c-2.31,1.01-1.58,3.37-2.24,5.1-.63,1.68-1.06,3.44-3.39,1.8.66-2.13,1.32-4.25,1.97-6.38.56-1.81,1.65-2.67,3.6-2.06-.41.51-.41,1.01.03,1.5l.03.03Z"/>
  <path class="cls-8" d="M31.25,818.64c-2.53-1.16-3.62-4.93-7.3-4.02-.2-.94-.41-1.87-.61-2.81.57-.49,1.01-1.02.52-1.82,0,0-.02-.07-.02-.07.4-.1.8-.21,1.2-.31,1.36,4.56,5.9,5.63,9.03,8.25-.94.26-1.88.52-2.82.77Z"/>
  <path class="cls-1" d="M53.28,41.8c.36.95-.41,1.28-.95,1.75-1.25.86-.51,2.22-.82,3.31-1.2-.51-2.41-1.01-3.61-1.52-.71-.65-.01-2.26-1.59-2.31,0,0-.12,0-.12,0,2.13-1.77,4.56-1.79,7.09-1.23Z"/>
  <path class="cls-1" d="M47.84,805.2c-1.56.95-.06,1.66.18,2.48.42,1.43.09,2.26-1.62,1.86-.68-1.38-3.29-1.36-2.68-3.68.38-1.06,1.67-1.78,1.19-3.16,0,0,0,.01,0,.01.46-.42.92-.84,1.39-1.26.34.82.49,1.78,1.49,2.16,0,0-.06-.11-.06-.11.04.56.09,1.13.13,1.7Z"/>
  <path class="cls-3" d="M46.28,801.46c-.46.42-.92.84-1.39,1.26-.39-1.6.37-3.43-.96-4.84-.12-1.32.72-1.93,1.78-2.39,1.25,1.89.85,3.93.58,5.96Z"/>
  <path class="cls-3" d="M39.63,10.59c.61-.37,1.22-.74,1.83-1.11.3.5.6.99.89,1.49,0,0,0,.09,0,.09,0,.43.02.86.03,1.29,0,0,0-.05,0-.05-.38.59-.77,1.19-1.15,1.78-.41-.5-.81-1.01-1.22-1.51-.22-.64-.94-1.18-.39-1.98Z"/>
  <path class="cls-4" d="M40.02,12.57c.41.5.81,1.01,1.22,1.51,0,0,0,.07,0,.07-.28,1.03-.57,2.05-.85,3.08-.16-.01-.33-.02-.49-.04-.45-1.55-.77-3.11.12-4.63Z"/>
  <path class="cls-1" d="M46.65,810.35c-.08-.2-.05-.35.08-.46,2.45.65,2.26,2.28,1.52,4.11-.29-.27-.57-.53-.86-.8-.25-.95-.49-1.9-.74-2.85Z"/>
  <path class="cls-1" d="M26.42,795.21c.74,1.61.11,3.1-.41,4.59-.83-1.62-.52-3.13.41-4.59Z"/>
  <path class="cls-6" d="M27.98,759.65c.84,1.13,1.21,2.23-.19,3.22-.54-1.11-.53-2.19.19-3.22Z"/>
  <path class="cls-4" d="M39.91,20.52c-.47-1.11-.45-2.21,0-3.32.16.01.33.02.49.04.21.49.43.98.64,1.48,0,0,0,.05,0,.05-.22.6-.45,1.21-.67,1.81,0,0-.45-.05-.45-.05Z"/>
  <path class="cls-4" d="M41.24,14.08c.38-.59.77-1.19,1.15-1.78.73,1.11.44,2.24.1,3.38-.17-.02-.35-.05-.52-.06-.25-.49-.49-.98-.74-1.47,0,0,0-.07,0-.07Z"/>
  <path class="cls-4" d="M42.35,10.97c-.3-.5-.6-.99-.89-1.49,0,0,0,.04,0,.04.09-.16.18-.31.28-.46,0,0,.44-.08.44-.08.06.66.12,1.33.18,1.99Z"/>
  <path class="cls-6" d="M27.66,767.53c.54.62.55,1.29.21,2.01-.74-.6-.79-1.27-.21-2.01Z"/>
  <path class="cls-1" d="M23.86,809.99c.49.79.05,1.32-.52,1.82-.52-.8-.09-1.33.52-1.82Z"/>
  <path class="cls-2" d="M45.69,795.57c-.47-.71-.9-1.43-.18-2.24.06.75.12,1.49.18,2.24Z"/>
  <path class="cls-8" d="M30.23,41.95c-.44-.49-.44-.99-.03-1.5.69.49.62.99.03,1.5Z"/>
  <path class="cls-4" d="M42.39,12.35c0-.43-.02-.86-.03-1.29,0,.43.02.86.03,1.29Z"/>
  <path class="cls-8" d="M26.02,219.98c.44-10.39-3.83-19.73-6.53-29.42-.16-.57-.25-1.16-.37-1.75,1.33-.87,2.67-1.74,4-2.61,4.38.33,4.67-.5,2.1-5.93,1.36-1.03,2.73-1.12,4.01.07,1.55,1.45,2.98.71,4.43-.14,1.58,1.55,1.8,3.39,1.39,5.49-.49,2.56-.47,5.14.73,7.57-3.22.5-5.44-1.7-7.66-3.31-1.59-1.16-3.25-1.34-3.91-.2-.86,1.5.78,2.78,2.22,3.23,2.74.85,5.56,1.41,8.35,2.1.36,1.18,1.49,3-1.27,1.98-1.59-.59-3.05-1.23-4.82-1.33-3.49-.2-4.16.86-3.07,4.25,1.4,4.36,3.97,7.07,8.2,8.6,1.55.56,3.55.67,4.75,2.61-.78.18-1.2.36-1.63.36-1.9,0-4.24-2.83-5.58.16-1.33,2.98.69,4.85,3.5,5.89.5.19.83.85,1.24,1.29-2.41.49-4.83.98-7.16,1.46,1.85,4.32,2.36,8.5.03,12.64,1.77.67,3.31,1.25,4.85,1.82,1.45,1.86,3.46,1.98,5.57,1.76.65.33,1.29.66,1.94.99.01,4.83.02,9.65.03,14.48,1.79.25,1.79-1.63,2.9-2.04,1.97,5.04,1.27,6.94-3.3,9.36-1.56.83-1.48,2.2-1.45,3.87.1,4.99.23,10.06-.52,14.97-.45,3,.98,6.54-1.89,9.05-.02-9.11-2.36-18.17-.51-27.31.17-.22.36-.42.56-.61,4.79-3.5-.06-5.58-1.22-8.2-.67-4.2,3.18-8.07.73-13.57-2.61,5.63-7.21,9.09-7.34,14.99-2.41,1.77-2.09-2.78-4.25-1.81-1.29.58-2.01-.33-2.36-1.46-.35-1.14.52-1.69,1.28-2.17,2.15-1.35,3.11-2.95,1.36-5.28,0,0,.03-.06.03-.06,1.31-1.62,3.05-3.31-.71-4.03,1.17-1.98,2.41-3.94,1.83-6.38-2.25-.13-1.9,3.43-4.37,2.54,1.64-4.55,6.55-8.18,3.87-13.93Z"/>
  <path class="cls-1" d="M25.37,241.84c1.75,2.33.78,3.94-1.37,5.28-.76.48-1.63,1.03-1.28,2.17.35,1.13,1.07,2.04,2.36,1.46,2.17-.97,1.85,3.58,4.25,1.81.28,1.47.6,2.93.83,4.4,1.1,6.97,1.27,7.06,6.44,2.99-1.84,9.14.49,18.21.51,27.31.17,10.67.34,21.34.51,32.01-1.62,1.33-1.74,3.26-1.65,5.05.09,1.9-.27,3.32-2.04,4.19-.14-.27-.4-.54-.4-.82-.32-15.56-3.18-30.81-5.6-46.11-1.09-6.93-1.94-13.97-5.21-20.36-.9-3.02-1.79-6.05-2.68-9.07-.25-2.51-.51-5.01-.76-7.52,2.61.33,4.79-.28,6.08-2.8Z"/>
  <path class="cls-3" d="M12.37,172.2c-2.45-.88-4.9-1.77-7.35-2.65-.09-1.85-.18-3.71-.27-5.56,2.18-1.42,4.3-2.96,6.56-4.25,3.58-2.05,5.85-4.88,6.12-9.1.97,1.19,2.32,2.24,2.81,3.59.97,2.7,2.47,6.04.42,8.35-2.76,3.1-3.17,2.74-2.1,6.59,4.42-2.61,7.17-7.06,11.31-9.94,5.37-3.74,5.85-6.3,2.4-12.04-.99-1.64-2.74-3.11-1.35-5.36.85,1.63,2.58,1.97,4.02,2.77,2.03,1.13,3.09.61,3.38-1.66.51.25,1.03.49,1.54.73,2.8.45,2.74-1.33,2.15-3.06-.87-2.57-2.04-5.05-3.08-7.57,1.88-1.99,5.58-3.06,3.56-7.02-.39-2.66,1.35-5.29.13-7.97,0-1.05-.18-2.48,1.17-2.53,1.12-.04.81,1.36.97,2.21.41,2.17.39,4.32.38,6.54-.02,4.85-1.3,10.02,1.69,14.57.09.68.18,1.36.27,2.05-.05.34-.1.67-.15,1.01.4,1.28.79,2.56,1.19,3.83-1.15,1.34-3,1-4.36,1.82-1.99-.77-3.6-.08-3.74,1.93-.17,2.55,2.31,1.4,3.6,1.94-.03.45-.06.89-.09,1.33-2.32,2.3-.54,3.89.97,5.52l-2.88.84c-6.22.67-12.33,5.19-13.6,10.04q-2.08,7.97-9.36,4.07c-.26-.14-.58-.17-.87-.25-1.78-.43-3.53-1.13-5.43-.78Z"/>
  <path class="cls-12" d="M17.41,150.63c-.26,4.23-2.53,7.06-6.11,9.11-2.26,1.29-4.38,2.82-6.56,4.25-1.04-.37-2.07-.75-3.11-1.13,1.74-3.1,5.2-4.1,7.72-6.25,3.05-2.6,4.27-4.98,2.22-9.27-2.47-5.17-6.49-9.27-8.76-14.48,1.97,1.59,3.81,3.41,6.55,3.58,2.93,3.63,4.67,7.96,7.04,11.92.34.75.67,1.51,1.01,2.26Z"/>
  <path class="cls-12" d="M12.37,172.2c1.9-.35,3.64.36,5.43.79.54,1.06,1.07,2.11,1.61,3.17.2.79.4,1.58.6,2.37-.89,2.85,1.79,6.52-2,8.7-4.14-2.01-5.3-5.3-4.11-9.6.09-.1.17-.2.26-.31-.19-.1-.38-.19-.57-.29.95-1.95-.06-3.41-1.21-4.83Z"/>
  <path class="cls-10" d="M14.1,94.36c.02.2.07.39.15.57-.44.38-.41.77-.05,1.19-2.18,3.93-3.03,8.24-3.71,12.61l.08-.09c-.17.51-.34,1.02-.51,1.53-.67.33-.94.87-.83,1.61.19.26.38.53.57.79,0,0-.03-.07-.03-.07-1.68.8-3.35,1.6-5.03,2.39l-.17-.03c-.41-2.16.43-3.9,1.8-5.48.72-.33,1.16-.73.38-1.45,0,0-.02.07-.02.07.85-.31.96-.76.26-1.36,0,0-.02.07-.02.07,1.24-.11,1.62-.7,1.02-1.83,0,0,0,0,0,0,.67-.31.87-.71.24-1.27v-.03c1.27-.65,1.7-1.47.49-2.59,0,0-.02.06-.02.06,1.95-1.48,3.29-3.16,1.75-5.71,0,0-.03.07-.03.07.82.24,1.08-.39,1.41-.91.78.46,1.51.14,2.24-.14Z"/>
  <path class="cls-12" d="M21.38,234.47c.26-.19.52-.37.77-.56,2.46.89,2.11-2.68,4.36-2.54.58,2.44-.66,4.4-1.83,6.38-.65,1.5-.29,2.82.71,4.03,0,0-.03.06-.03.06-1.29,2.53-3.47,3.14-6.08,2.81-1.29-2.35.39-4.46.54-6.7.25-.6.5-1.2.75-1.8.27-.56.53-1.12.8-1.68Z"/>
  <path class="cls-4" d="M.77,127.51c-.19-4.01,2.17-7.37,2.88-11.15.46-.24.91-.47,1.37-.71.77,1.81.64,3.94,2.06,5.51-.02.61-.05,1.21-.07,1.82-1.07,1.27-2.14,2.54-3.21,3.81-.78.54-1.56,1.09-2.35,1.63-.23-.3-.46-.6-.68-.9Z"/>
  <path class="cls-1" d="M18,187.22c3.79-2.18,1.11-5.85,2-8.71.24-.21.48-.42.72-.63,1.81-.32,2.82.8,3.76,2.06-3.1,1.51-1.66,4.01-1.37,6.26-1.33.87-2.67,1.74-4,2.61-.37-.53-.74-1.06-1.12-1.6Z"/>
  <path class="cls-8" d="M1.46,128.41c.78-.54,1.56-1.09,2.35-1.63,1.27,2.05,1.44,4.71,3.53,6.29.68,1.13,1.36,2.25,2.04,3.38-2.74-.17-4.59-1.99-6.56-3.58-.3-.45-.61-.89-.91-1.34-.15-1.04-.3-2.08-.45-3.12Z"/>
  <path class="cls-1" d="M1.64,162.86c1.04.38,2.07.75,3.11,1.13.09,1.85.18,3.71.27,5.56-4.75-.4-4.87-3.13-3.38-6.69Z"/>
  <path class="cls-1" d="M10.48,95.34c1.53,2.55.2,4.23-1.75,5.71-.76-2.32.31-4.07,1.75-5.71Z"/>
  <path class="cls-12" d="M1.46,128.41c.15,1.04.3,2.08.45,3.12-1.02-1.16-3.01-2.04-1.14-4.02.23.3.46.6.68.9Z"/>
  <path class="cls-1" d="M8.75,100.99c1.2,1.12.78,1.93-.49,2.59-1.06-1.09-.27-1.84.49-2.59Z"/>
  <path class="cls-1" d="M8.01,104.87c.6,1.13.22,1.72-1.02,1.83-.25-.94-.17-1.69,1.02-1.83Z"/>
  <path class="cls-4" d="M11.86,94.5c-.33.52-.59,1.15-1.41.91-.21-.81.19-1.41.7-1.97,0,0,.33.12.33.12.13.31.26.63.38.94Z"/>
  <path class="cls-10" d="M5.02,115.65c-.46.24-.91.47-1.37.71.31-.5.63-1,.94-1.5,0,0,.17.03.17.03-.03.29.06.55.26.76Z"/>
  <path class="cls-11" d="M13.58,177.03c.19.1.38.19.57.29-.09.1-.17.2-.26.31-.09-.21-.2-.41-.32-.6Z"/>
  <path class="cls-1" d="M6.77,107.92c.77.72.34,1.12-.38,1.45-.23-.58-.2-1.09.38-1.45Z"/>
  <path class="cls-1" d="M7.01,106.63c.7.6.59,1.05-.26,1.36-.3-.52-.17-.97.26-1.36Z"/>
  <path class="cls-1" d="M8.25,103.6c.63.56.43.96-.24,1.27-.76-.58-.54-.98.24-1.27Z"/>
  <path class="cls-2" d="M30.54,583.62c.67-31.94,1.33-63.88,2.02-95.82.15-7.06.4-14.13.6-21.19.62-.39,1.26-.65,1.99-.26-.01.97-.13,1.96.63,2.75-.23,1.14-.77,2.28-.02,3.42v-.03c-.78,1.85-.92,3.66.31,5.4v-.03c-1.78.98-1.06,2.52-.88,3.94-.72,4.01-.69,8.01.16,12-1.44,1.69-1.35,3.91-1.12,5.71,1.71,13.28.11,26.59.15,39.86.06,18.67.72,37.37-.78,56.06-.5,6.31.61,12.74.88,19.11.07,1.64,1.03,3.9-1.93,4.28h.06c-1.83-2.76.35-6.4-1.99-9.06-.02-.64-.03-1.28-.05-1.92.37-.48.38-.96,0-1.43,0-7.6-.02-15.2-.03-22.8Z"/>
  <path class="cls-6" d="M30.57,606.43c.38.48.37.95,0,1.43,0-.48,0-.96,0-1.43Z"/>
  <path class="cls-2" d="M49.81,560.31c0,.4-.01.81-.01,1.21-.86.45-1.34,1.12-1.63,2.09-.56,1.86-3.14,1.07-3.9,2.77-.32-.49-.94-.98-.92-1.45.26-6.08-1.59-12.5-.61-18.05,1.39-7.86-.27-15.39.35-23.03.18-2.17-.25-4.36-2.79-5.24-.11-5.06-.68-9.96.06-15.22.74-5.29,2.47-11.42-.55-16.91,2.49-1.54,2.12-3.72,1.47-6.07-.97-3.54-2.59-7.07-.77-10.82,2.86-1.35,3.5-4.98,1.61-9.17,1.44-.85,1.75-2.11,2.12-3.74.6-2.65-.92-5.03-.5-7.42,1.81-10.25,1.83-20.63,2.67-30.96.25-3.13-.63-5.34-3.81-6.28-1.42-6.51.65-12.89.78-19.35.01-.66.66-1.31,1.01-1.97.23-.51.45-1.01.68-1.52.08-.43.16-.85.24-1.28,1.87-1.53,1.49-3.83,2.02-5.82,1.07-4.07,3.02-7.66,5.98-10.68.64,1.8.18,3.6.03,5.41-1.3,1.17-1.7,2.84-2.49,4.3-3.39,6.32-1.84,13.28-2.31,19.84-1.07,14.94-.38,29.98.69,44.92.41,5.67-.53,11.68,2.42,17.04,0,0,0,0,0,0-1.56,1.08-.89,2.19-.06,3.31,0,0,0,.02,0,.02-2.56,3.92-2.82,16.5-.42,20.52,0,0,0-.01,0-.01-2.48,2.19-1.23,4.41-.08,6.64h0c-1.82,1.54-1.35,3.1-.06,4.67-.15,20.34-.21,40.68-1.22,61,0,.42,0,.84,0,1.26Z"/>
  <path class="cls-8" d="M69.88,243.69c-1.85,12.4-3.72,24.8-5.56,37.2-3.6,24.27-6.31,48.64-8.4,73.08-.23,2.75.46,5.36.25,8.05-.28-.05-.57-.1-.85-.15-.47-.25-1.13-.83-1.38-.68-.85.5-.47,1.19.07,1.77v-.03c-1.3.39-1.87,2.37-4.11,1.74,1.47-2.4.69-4.74.38-7.09.4-5.41.69-10.81-.73-16.14.27-.37.75-.72.77-1.1.51-8.24-.37-16.54.94-24.76.12-.76-.18-1.7-1.08-1.76-1.36-.09-1.16,1.09-1.27,1.96-.23,1.99-.47,3.99-.73,6.2-2.2-1.29-2.81-3.31-4.04-4.83-.45-1.65.96-2.86,1.01-4.42.34-10.7.52-21.4,1.17-32.08.35-5.77-.77-12.03,3.96-16.83h-.03c2.18,3.36,4.22,2.1,6.19-.21,1.57-1.84,1.18-3.98.95-6.14-.16-1.59.55-2.75,2.36-2.64,1.51.09,1.8,1.29,1.35,2.34-2.57,5.97.07,12.33-1.47,18.36-.57,2.22-1.03,4.48-1.47,6.73-.24,1.19.24,2.19,1.42,2.52.88.25,1.39-.44,1.54-1.27,1.82-10.56,3.13-21.2,4.93-31.76.6-3.51,1.46-5.88,3.85-8.06Z"/>
  <path class="cls-4" d="M50.27,263.84c-4.73,4.79-3.61,11.06-3.96,16.83-.65,10.68-.83,21.39-1.17,32.08-.05,1.55-1.46,2.77-1.01,4.42.25,6.46-.89,12.94.13,19.38.46,2.89,1.66,5.29,5.28,4.91,1.41,5.33,1.13,10.73.73,16.14-.24-.39-.52-.76-.71-1.17-.73-1.61.03-4.07-3.61-3.51-3.12.48-3,1.82-3.29,4.15-.39,3.14-1.87,6-4.64,7.92-1.26-.79-1.6-2.03-1.69-3.4,1.1-.97,3.14-1.43,1.96-3.63-.02-.69-.04-1.38-.06-2.07.28-.35.79-.69.82-1.06,1.01-11.77.55-23.49-1.19-35.17-.02-.14-.16-.26-.25-.38-.17-10.67-.34-21.34-.51-32.01,2.87-2.51,1.44-6.06,1.89-9.05.74-4.91.62-9.98.52-14.97-.03-1.67-.11-3.04,1.45-3.87,4.57-2.42,5.27-4.32,3.3-9.36,1.52-1.18,2.66-.95,3.8.69,1.66,2.4,1.19,4.64-.18,6.86-1.14,1.84.12,2.63,1.34,1.99,2.59-1.37,5.77-1.95,7.17-5.22,2.53-5.94,1.5-11.58-3.26-16,1.5-.77,2.35-1.91,2.04-3.69.72-.46,1.44-.92,2.16-1.38.18.23.35.46.53.69,1.78,1.45,3.22,3.51,6.23,3.74-.74-2.81-1.26-5.16-2.9-7.06-.16-.24-.31-.47-.47-.71-.16-1.3-.38-2.57-1.34-3.57-1.16-2.13.8-2.64,1.87-3.6.96-.57,1.84-.57,2.6.34-.69,5.25,3.33,8.83,4.78,13.33.64,2,1.71,3.84,1.45,6.03-.05.38-.1.76-.15,1.14,0,0-.05.1-.05.1-2.38,2.18-3.25,4.55-3.85,8.06-1.8,10.57-3.11,21.21-4.93,31.76-.14.83-.65,1.53-1.54,1.27-1.18-.33-1.66-1.33-1.42-2.52.45-2.25.91-4.51,1.47-6.73,1.54-6.03-1.1-12.39,1.47-18.36.45-1.04.16-2.25-1.35-2.34-1.8-.1-2.52,1.06-2.36,2.64.22,2.16.62,4.3-.95,6.14-1.97,2.31-4.01,3.57-6.19.21.12-.47.7-1.09-.38-1.16.14.39.28.78.42,1.17Z"/>
  <path class="cls-6" d="M51.64,462.9c-2.96-5.36-2.02-11.38-2.42-17.04-1.07-14.94-1.76-29.98-.69-44.92.47-6.56-1.08-13.52,2.31-19.84.79-1.47,1.19-3.13,2.49-4.3.08,4.74.15,9.47.23,14.21-.59,17.36-1.06,34.73-.88,52.11-.34,6.59-.68,13.19-1.02,19.78Z"/>
  <path class="cls-3" d="M38.03,364.98c2.77-1.92,4.24-4.78,4.64-7.92.29-2.33.17-3.67,3.29-4.15,3.64-.56,2.88,1.9,3.61,3.51.19.41.47.78.71,1.17.31,2.34,1.08,4.69-.38,7.09,2.24.63,2.81-1.36,4.12-1.74.54,2.65-1.88,5.11-.47,7.81.06.27-.03.48-.25.64-2.96,3.02-4.9,6.61-5.98,10.68-.53,1.99-.15,4.3-2.02,5.82h-.04c-.45-.63-.98-1.11-1.82-1-.28-1.3-.24-2.72-1.31-3.75l-.89-.4c-.16-.15-.17-.32-.03-.49.4-.08.8-.16,1.2-.24.09-.21.19-.42.28-.62-.18.03-.37.06-.55.09-1.13-1.23-.36-2.19.37-3.24.46-.65.25-2.1-.16-1.96-3.88,1.36-3.69-2.61-5.44-3.96,2.02-.39,3.18-1.21,3.88-3.53.93-3.09-2.83-1.89-2.75-3.8Z"/>
  <path class="cls-8" d="M53.54,370.75c-1.41-2.7,1.01-5.17.47-7.81,0,0,0,.03,0,.03.44-.36.87-.72,1.31-1.09.28.04.57.09.85.15-.92,2.9.08,6.37-2.62,8.73Z"/>
  <path class="cls-8" d="M69.92,243.59c.05-.38.1-.76.15-1.14.44.44.42.83-.15,1.14Z"/>
  <path class="cls-2" d="M41.57,718.93c.06.69.13,1.38.19,2.07-.53.34-1.07.68-1.6,1.02-1.1-1.61-2.56-3.09-1.97-5.33,1.52-5.78.74-11.33-1.75-16.69,0,0,0,.05,0,.05,1.37-2.22,2.5-15.84,1.58-19,2.71-2.96,1.78-6.39,1.25-9.76,1.14-2.6,1.06-5.08-.71-7.39v-.05c1.01-.77,1.73-1.51-.2-1.98-2.3-.92-2.03-3.54-3.64-6.33-1.02,5.27-1.83,9.34-.35,13.53-.94,1.33-.72,2.84-.77,4.36-.14,3.56-1.55,7.74,4.48,7.65-3.16,1.32-6,2.85-4.97,7.11.24.97-.01,1.81-.84,2.43h-.07c-1.93-4.71-1.28-9.6-.97-14.43.76-11.75-.16-23.5.12-35.25.03-1.48-.63-3.13,1.1-4.15,1.76,2.54.58,5.92,2.42,8.44-1.21,1.8-.62,3.82-.7,5.75-.04.98-.41,2.53.86,2.66,1.22.13,2.8-.12,3.73-1.23,2.36-2.82-3.74-4.14-1.32-7.03-.84-.05-1.68-.1-2.52-.15,4.09-2.86,5.52-10.25,2.97-15.36,0-1.13,0-2.25.01-3.38,1.21-1.13,1.87-2.52,1.07-4.05-.46-.9-1.32-.12-1.98.17,2-11.36,2.83-22.81,2.72-34.33.22.2.51.62.65.58,3.82-1.28,4.07-.98,3.53,3.86-.3,2.65-.94,5.37.79,7.83,0,0,0,.02,0,.02-1.95,3-1.94,6.07-.36,9.21.14.26.27.53.41.79-1.78,1.44-1.33,2.99-.2,4.56-.12,3.1-.25,6.2-.37,9.3-1.52,4.96-.22,10.08-.79,15.09.3,7.12,1.14,14.37.87,21.31-.23,5.91-.53,12.11-1.42,18.11-.16,1.08-.21,2.14.35,3.13-.71,1.11-.71,2.21.07,3.29,0,0,0,.03,0,.03-1.17,2.92-1.27,5.81.26,8.65,0,0,0,.05,0,.05-1.34,1.08-1.6,2.34-.65,3.82.08.7.16,1.4.25,2.09-.91,2.2-1.69,4.4.03,6.6.52,1.44-.73,2.56-.7,3.91-.72,1.09-.71,2.18,0,3.27-.06.45-.12.9-.18,1.35-.59,1.21-1.78,2.33-.63,3.83Z"/>
  <path class="cls-5" d="M44.67,600.52c-1.73-2.46-1.09-5.18-.79-7.83.55-4.83.29-5.13-3.53-3.86-.14.05-.43-.37-.65-.58-.11-3.19.25-6.46-1.8-9.29-.34-.46-.74-1.45-.56-1.62,3.65-3.55.97-7.79,1.36-11.67.46-4.5.75-8.74-.48-13.41-1.13-4.31.88-9.35.76-14.04-.14-5.56,1.74-11.19-.46-16.71-.59-1.49.87-2.1,1.75-2.89,2.54.88,2.97,3.07,2.79,5.24-.62,7.64,1.04,15.17-.35,23.03-.98,5.56.87,11.97.61,18.05-.02.47.6.97.92,1.45.77-1.7,3.34-.91,3.9-2.77.29-.97.76-1.64,1.63-2.09-.21,11.98-.43,23.96-.64,35.94-1.7.72-3.8.85-4.48,3.07ZM43.43,572.37c.85-.7,1.57-1.47,1.06-2.68-.21-.5-.71-.59-1.09-.2-.91.94-.53,1.92.01,2.88-.06.1-.14.19-.17.3-.02.07.05.16.08.23.04-.18.07-.35.11-.53ZM43.2,573.93c-.84,2.92-2.03,4.61-.69,6.6.15.23,1.04.32,1.15.16,1.32-1.79,1.1-3.64-.47-6.76ZM38.49,577.63c.03.11.05.23.08.34.14-.08.28-.15.42-.23-.08-.08-.15-.2-.25-.24-.06-.02-.16.08-.25.13Z"/>
  <path class="cls-1" d="M40.49,469.57c-1.83,3.75-.2,7.28.77,10.82.64,2.36,1.01,4.53-1.47,6.07-2.34-.26-2.2-.26-2.23,2.51-.01,1.84,1.85,4.77-2.22,4.83-.85-3.99-.88-7.99-.16-12,3.57-.58,1.86-2.34.88-3.94,0,0,0,.03,0,.03,1.96-1.91.74-3.65-.29-5.4,0,0-.01.03-.01.03,1.03-1.14,2.67-2.27.02-3.42-.76-.79-.64-1.79-.63-2.75,1.23-1.43-.62-3.68,1.7-5.25.35,3.35,3.68,5.08,3.64,8.48Z"/>
  <path class="cls-2" d="M30.63,721.56c-1.57-6.97.15-13.94.14-20.91,0-2.46-.96-5.21.89-7.52l.19.03c.94,1.11,1.15,2.39.92,3.79-.48,3.02,1.43,3.25,3.66,3.09,0,0,0-.05,0-.05-3.05,2.57-2.57,6.28-1.66,9.13,1.32,4.15.14,7.46-1.43,10.95-.75.51-1.5,1.02-2.25,1.53-.15-.02-.31-.04-.47-.05Z"/>
  <path class="cls-5" d="M37.88,629.85c2.55,5.11,1.12,12.51-2.97,15.36h-.04c-1.84-2.52-.66-5.9-2.42-8.44,0,0,.01,0,.01,0,3.06-2.23-.41-4.52.06-6.77,1.81.7,3.62,1.38,5.36-.16Z"/>
  <path class="cls-2" d="M32.56,618.84c2.76,3.4,1.39,6.64-.24,9.88.56-3.27-1.46-6.65.3-9.87,0,0-.06,0-.06,0Z"/>
  <path class="cls-2" d="M32.52,630c-.47,2.25,3,4.54-.06,6.77-1.41-2.27-1.72-4.53.06-6.77Z"/>
  <path class="cls-5" d="M36.99,622.59c.66-.29,1.51-1.07,1.98-.17.79,1.53.14,2.92-1.07,4.05-1.12-1.1-1.71-2.33-.91-3.88Z"/>
  <path class="cls-2" d="M31.65,693.13c-.51-1-.5-1.89.54-2.56,0,0,.07.01.07.01.67.99.51,1.85-.42,2.58l-.19-.03Z"/>
  <path class="cls-5" d="M40.15,722.02c.53-.34,1.07-.68,1.6-1.02,5.25,10.25,1.86,21.12,2.34,31.72.23,5.07-1.31,9.99-.66,15.02.24,1.83-.54,2.91-2.07,3.67-.78-1.57-.89-3.23-.63-4.93,1.4-9.05.16-18.12.23-27.18,0-.8.09-1.71-.84-1.85-1.38-.2-1.39,1-1.3,1.85.39,3.9-.05,7.61-2.52,11.1-4.08-4.71-.33-10.03-1.13-14.93,5.21-.86,3.3-5.23,4.07-8.27.98-.74,1.18-1.6.45-2.63v.03c1.04-.7,1.18-1.57.48-2.6l-.03.02Z"/>
  <path class="cls-6" d="M39.25,727.2c-.77,3.05,1.14,7.42-4.07,8.27-1.38-2.05-1.03-4.47-1.46-6.73,2.17-1.69,5.33-3.21.62-5.77-.66-.36-.68-1.9-1-2.89,1.57-3.5,2.75-6.8,1.43-10.95-.9-2.85-1.39-6.56,1.66-9.13,2.49,5.36,3.27,10.91,1.75,16.69-.59,2.24.87,3.72,1.97,5.33,0,0,.03-.02.03-.02-1.07.69-1.13,1.58-.49,2.6,0,0,0-.03,0-.03-.61.8-.7,1.69-.45,2.63Z"/>
  <path class="cls-3" d="M44.9,802.7c.49,1.39-.81,2.1-1.19,3.16-2.22,1.26-4.21,2.97-6.79,3.53-2.12-.28-4.35-.25-5.9-2.13,1.34-.08,3.16.33,2.13-2.13l.02-.06c.1-.37.2-.75.3-1.12.64-1.24,1.27-2.49,1.91-3.73.86-.46,2.12-.68,2.22.4.67,7.23,4.12,4.09,7.32,2.07Z"/>
  <path class="cls-5" d="M33.34,720.08c.32.99.34,2.53,1,2.89,4.71,2.56,1.54,4.08-.62,5.77-2.84-1.65.45-5.56-2.63-7.13.75-.51,1.5-1.02,2.25-1.53Z"/>
  <path class="cls-5" d="M35.37,800.23c-.64,1.24-1.27,2.49-1.91,3.73-.5-.75-1.19-1.45-1.45-2.27-.52-1.65-.64-3.69,1.26-4.25,2.02-.59,1.08,2.05,2.1,2.79Z"/>
  <path class="cls-5" d="M34.72,783.17c-.82.54-1.68.41-1.92-.34-.44-1.41-.54-2.96.25-4.29.45-.75,1.4-.72,1.88,0,1.05,1.57.28,3.14-.22,4.64Z"/>
  <path class="cls-5" d="M41.2,772.77c2.19,3.17.42,6.15-.44,9.18-2.14-3.17-.36-6.15.44-9.18Z"/>
  <path class="cls-5" d="M35.38,754.35c-.29-.62-.73-1.26.15-1.77.09-.05.33-.01.4.07.62.79-.03,1.23-.5,1.71h-.04Z"/>
  <path class="cls-5" d="M35.42,754.35c.26.62.71,1.27-.16,1.78-.09.05-.33,0-.4-.08-.62-.79.02-1.23.51-1.71,0,0,.04,0,.04,0Z"/>
  <path class="cls-5" d="M35.23,758.97c.3.63.67,1.28-.17,1.8-.09.05-.34,0-.4-.07-.6-.79.02-1.25.5-1.74h.07Z"/>
  <path class="cls-5" d="M33.15,805.15c-.19-.05-.38-.1-.56-.15.19.03.38.06.58.09,0,0-.02.06-.02.06Z"/>
  <path class="cls-5" d="M35.16,758.95c.05-.18.1-.35.15-.53-.03.18-.05.36-.08.54,0,0-.07-.01-.07-.01Z"/>
  <path class="cls-5" d="M43.35,639.5c.58-5.01-.73-10.13.79-15.09,4.05,1.62.95,4.98,1.65,7.46.74,2.6.39,5.74-2.44,7.63Z"/>
  <path class="cls-5" d="M43.47,694.02c-1.53-2.84-1.43-5.73-.26-8.65,2.18,2.82,1.97,5.71.26,8.65Z"/>
  <path class="cls-5" d="M44.31,609.75c-1.58-3.14-1.59-6.21.36-9.21,1.01,3.11.87,6.18-.36,9.21Z"/>
  <path class="cls-5" d="M43.09,706.58c-1.71-2.19-.94-4.39-.03-6.6,1.84,2.19,1.08,4.39.03,6.6Z"/>
  <path class="cls-5" d="M44.51,615.11c-1.12-1.57-1.57-3.12.2-4.56,1.1,1.57.67,3.08-.2,4.56Z"/>
  <path class="cls-5" d="M41.57,718.93c-1.15-1.5.04-2.61.63-3.83,1.33,1.53,1.08,2.8-.63,3.83Z"/>
  <path class="cls-5" d="M42.81,697.89c-.95-1.47-.68-2.74.65-3.82,1.08,1.49.79,2.75-.65,3.82Z"/>
  <path class="cls-5" d="M43.22,685.34c-.78-1.08-.78-2.18-.07-3.29,2.31,1.05,2.03,2.15.07,3.29Z"/>
  <path class="cls-5" d="M42.38,713.76c-.71-1.09-.72-2.18,0-3.27.81,1.09,1.61,2.18,0,3.27Z"/>
  <path class="cls-3" d="M79.64,131.62c2.33.39-.11,1.55.36,2.24-1.48,2.78-4.43,4.87-4.05,8.53,0,0,.02-.01.02-.01-.95.36-1.22,1.18-1.38,2.07-1.68,1.16-.86,3.29-1.83,4.72-1.61-.28-3.23-.49-4.82-.84-4.57-1.01-6.24.68-5.39,5.5-2.23,5.46.25,9.91,3.04,14.32,1.16,1.83,3.66,3.53.35,6.02,2.42-.3,4.21-.51,6.06-.74.93,4.16-2.61,9.32,3.14,11.98-.99.88-2.41,1.32-2.79,2.8-1.7.95-3.49,1.62-5.44,1.78-1.09-1.35,2.35-4.35-1.29-4.5-4.77-.2-5.11-.41-4.27-5.31.29-1.67,1.19-4.89.41-4.87-4.6.12-1.75-2.63-1.51-3.78.91-4.28-.84-7.02-5.54-8.06-.54-.7-1.08-1.41-1.62-2.11-1.81-1.93-3.98-3.12-6.67-3.24.13-2.37.29-4.77-2.89-5.36.03-.45.06-.89.09-1.34,1.24-.13,2.49-.26,3.73-.39,1.17.33,2.35.68,3.14-.86-4.17-.68-2.49-2.11-.53-3.58,4.53-1.48,10.08-1.28,11.92-7.21.47-.93.94-1.87,1.42-2.81,1.27-.57,2.29.02,3.36.65,5.94,3.46,8.61,2.52,11.12-3.89.62-.57,1.25-1.15,1.87-1.72Z"/>
  <path class="cls-8" d="M77.77,133.34c-2.51,6.4-5.18,7.35-11.12,3.89-1.07-.62-2.09-1.21-3.35-.65,1.86-4.59,1.84-9.56,2.91-14.3.2-.03.4-.08.59-.14,2.02,3.19,4.42,6.2,5.95,9.61,1.31,2.91,3.48.77,5.02,1.6Z"/>
  <path class="cls-1" d="M67.77,82.71c2.01,3.09,2.68,6.67,3.68,10.13-2.66.72-3.95,2.15-3.66,5.21.22,2.37-.16,5.28-3.66,2.21,4.3-3.73.29-7.5.07-11.26-.7-2.14-1.39-4.29-2.09-6.43-.34-1.89.05-3.97-1.43-5.57l.21-.16c.81-.52,1.48-2.39,2.59-.34.69,1.29,1.26,2.64,1.88,3.97.81,2.33-.06,5.29,2.68,6.76-.08-1.39-.17-2.96-.26-4.52Z"/>
  <path class="cls-10" d="M75.97,107.87c.15.48.29.97.44,1.45-1.58,1.33-3.05,3.59-5.41,2.08-1.73-1.11-3.52-3.01-2.77-5.3.79-2.43.23-6.27,4.61-6.12.69,1.03,1.37,2.06,2.06,3.09.15.89.31,1.78.46,2.67-.35.87-.18,1.59.62,2.13Z"/>
  <path class="cls-8" d="M64.19,89c.22,3.75,4.24,7.53-.07,11.26-.45-.08-.91-.15-1.36-.23-.96-1.79-1.96-3.47-4.26-1.53-1.38-2.54-.05-4.83.66-7.17,2.02-.04,3.5-1.23,5.03-2.33Z"/>
  <path class="cls-6" d="M66.8,122.13c-.19.06-.39.11-.6.14-3.23-1.23-1.71-4.78-3.32-6.79-.34-4.61-2.77-8.3-5.35-11.91.05-1.16.11-2.32.16-3.47.38-.3.76-.61,1.14-.91.39.92.78,1.84,1.18,2.76,3.14,6.43,4.34,13.52,6.79,20.18Z"/>
  <path class="cls-1" d="M60.01,101.95c-.39-.92-.78-1.84-1.18-2.76-.1-.23-.22-.46-.34-.69,2.3-1.94,3.3-.26,4.26,1.53-.92.64-1.83,1.28-2.75,1.92Z"/>
  <path class="cls-3" d="M59.08,74.6c.6.75,1.19,1.5,1.79,2.24,0,0-.21.16-.21.16-3.14,2.06-3.24,4.95-2.21,8.14-.45.73-.27,1.42.12,2.09-2.12.14-.24,6.03-4.48,3.12.16-2.07.03-4.12-.63-6.11.13-.37.35-.78-.32-.79-.05,0-.1.46-.15.7-1.73,1.13-2.5,2.93-3.34,4.69h-.06c-3.26-3.73-3.55-8.32-3.73-12.92-.04-1.01-.23-2.47.96-2.84,1.79-.56.71,2.16,2.42,2.27,1.59-6.28-1.83-13.51,3.32-19.15.31.04.61.08.91.12.26.46.53.93.8,1.39-.96,4.68-.67,9.36.26,13.97.44,2.19,1.87,3.77,4.55,2.89ZM49.1,77.54c-.25.08-.39.13-.53.18.07.06.19.19.21.17.09-.06.16-.17.32-.35Z"/>
  <path class="cls-5" d="M46.77,89.6c.14.18.29.35.44.53-.6,1.71-1.27,3.42-.48,5.25-.11.6-.21,1.19-.32,1.78-3.01-.71-6.73,1.78-9.06-2-1.01-2.55-2.67-.52-4.03-.58-3.23-2.77,1.54-4.26,1.05-6.59.87.97,1.76,1.92,2.84,1.74,2.27-2.99-.62-6.24,1.38-8.96,2.08-1.34.82-4.68,3.41-5.72l1.06-.73c1.03,4.19-2.22,8.19-.56,12.41-.72,1.45-1.44,2.89-2.16,4.36,2.6.73,4.62.03,6.43-1.49Z"/>
  <path class="cls-3" d="M39.96,57.62c1.3-3.55-.99-7.48,1.13-10.94,2.42,5.01,1.27,10.24.98,15.42-.38-.04-.75-.08-1.13-.11-.33-1.45-.65-2.91-.98-4.36Z"/>
  <path class="cls-1" d="M46.77,89.6c-1.81,1.53-3.84,2.22-6.43,1.49.73-1.47,1.45-2.91,2.16-4.36,3.65-2.36,3.39,1.1,4.27,2.87Z"/>
  <path class="cls-3" d="M46.73,95.38c-.79-1.84-.12-3.54.48-5.25.79-.43,1.59-.85,2.38-1.28,0,0,.05.01.05.01.71,1.55,2.48,1.17,3.59,1.99-.28.61-.57,1.22-.85,1.83-3.06-1.56-3.93,1.45-5.65,2.7Z"/>
  <path class="cls-3" d="M42.06,62.1c.85,3.56,1.93,7.11.1,10.7,0,0-.18-.02-.18-.02-1.18-3.52-.91-7.18-1.05-10.79.38.04.75.08,1.13.11Z"/>
  <path class="cls-3" d="M51.51,46.86c.31-1.09-.43-2.45.82-3.31,1.65,1.86,1.24,3.96.73,6.07-.52-.92-1.04-1.84-1.56-2.76Z"/>
  <path class="cls-11" d="M46.3,43.02c1.58.05.88,1.66,1.59,2.31-.39.53-.68,1.66-1.5.98-1.09-.9-1.29-2.16-.09-3.29Z"/>
  <path class="cls-3" d="M41.09,46.64c-.91-1.09-.97-2.19-.04-3.3,1.08,1.09,1.64,2.18.04,3.3Z"/>
  <path class="cls-3" d="M53.09,52.95c.3.91.61,1.81.91,2.72,0,0-.01.21-.01.21-.2.12-.38.27-.52.46-.3-.04-.6-.08-.91-.12-.38-1.18-.91-2.39.53-3.27Z"/>
  <path class="cls-11" d="M46.57,50.37c-.35-.94-1.14-2.39.42-2.43,1.33-.03.65,1.65.71,2.62-.37-.06-.75-.13-1.12-.19Z"/>
  <path class="cls-11" d="M47.69,50.56c-.02.84.27,2.19-.95,1.98-1.03-.18-.32-1.4-.17-2.17.37.06.75.13,1.12.19Z"/>
  <path class="cls-3" d="M43.06,74.32c-.35.24-.71.49-1.06.73,0-.76-.01-1.52-.02-2.27,0,0,.18.02.18.02.3.51.6,1.02.9,1.53Z"/>
  <path class="cls-3" d="M52.82,50.9c.57.62.88,1.27.27,2.05-.67-.61-.85-1.28-.27-2.05Z"/>
  <path class="cls-3" d="M53.06,49.61c-.08.43-.16.86-.24,1.29-.26-.49-.31-.95.24-1.29Z"/>
  <path class="cls-3" d="M41.05,43.33c-.29-1.11.3-.81.87-.54-.29.18-.58.36-.87.54Z"/>
  <path class="cls-2" d="M54.71,163.47c4.71,1.04,6.45,3.78,5.54,8.06-.24,1.15-3.09,3.9,1.51,3.78.77-.02-.13,3.21-.41,4.87-.84,4.9-.5,5.11,4.27,5.31,3.64.15.2,3.15,1.29,4.5-6.84,3.62-8.35,9.33-6.45,16.39-1.12.42-2.22.93-3.38,1.25-1.26.35-2.72,1.13-3.72-.35-.83-1.23.07-2.23.81-3.25,1.98-2.75,3.05-5.42-.67-7.8-.82-.53-1.24-1.7-1.84-2.58,0-4.41,0-8.74,2.25-12.83,1.38-2.5,1.23-4.8-3.05-4,6.19-6.07,6.72-8.02,3.84-13.35Z"/>
  <path class="cls-3" d="M51.67,193.66c.6.88,1.01,2.05,1.84,2.58,3.71,2.38,2.65,5.05.67,7.8-.74,1.02-1.64,2.01-.81,3.25,1,1.48,2.46.7,3.72.35,1.15-.32,2.25-.82,3.38-1.25.7-.32,1.39-.59,2.13-.1v.12c-1.26.87-2.52,1.75-3.78,2.62-2.25.17-4.95.16-5.73,2.57-.69,2.15.88,4.22,2.69,5.49,2.92,2.05,1.12,3.13-.64,4.35-3.28-.67-6.33,1.25-9.58.82-1.23-3.96-2.46-7.93-3.69-11.89-.18-.93-.37-1.87-.55-2.8.04-.44.09-.88.13-1.32,0-.42.02-.84.02-1.26,0,0,0,0,0,0,1.09-.74,1.23-1.62.38-2.64.04-.65.08-1.31.12-1.96,1.01-5.46,4.95-6.7,9.72-6.72Z"/>
  <path class="cls-2" d="M55.13,221.44c1.76-1.21,3.56-2.29.64-4.35-1.81-1.27-3.38-3.34-2.69-5.49.77-2.41,3.48-2.41,5.73-2.57,1.15,4.52.3,9.39,2.44,13.72-1.08.97-3.04,1.47-1.88,3.6-1.72.09-3.06.68-2.43,2.71.69,2.23,2.16,2.11,3.77.86.16.24.32.47.47.71-1.11,1.11-2.22,2.22-3.32,3.32-.18-.23-.36-.46-.53-.69-2.88-3.84-5.99-2.89-9.16-.42l-.14-.03c-.47-2.21-1.43-4.2-2.69-6.06,3.86-.67,7.88-1.06,9.79-5.32Z"/>
  <path class="cls-2" d="M62.59,206.29c.14,0,.29,0,.43,0-.14.04-.29.08-.43.12,0,0,0-.12,0-.12Z"/>
  <path class="cls-2" d="M34.37,87.99c.49,2.33-4.28,3.82-1.05,6.59-1.47.1-2.11.98-2.24,2.35-.37.76-.73,1.52-1.1,2.28-1.01-2.28-4.94-1.56-4.99-4.74-.07-4.22-3.15-5.52-6.31-6.81-.15-2.04.04-3.95,1.49-5.59,5.26-5.93,4.78-13.33,5.19-20.5,0,0,.11.08.11.08,1.56-.95,1.76-2.22.88-3.75,0-.2.09-.33.28-.39,1.68-.92,3.36-2.93,5.04,0v-.03c-1.6,2.21-1.41,4.41.02,6.61.35.52.71,1.04,1.06,1.56-.53.54-1.45,1.02-1.54,1.63-.81,5.33-.63,10.7-.06,16.02.3,2.72,1.87.78,2.91.25.1,1.48.21,2.95.31,4.43Z"/>
  <path class="cls-5" d="M18.67,87.67c3.16,1.29,6.24,2.59,6.31,6.81.05,3.18,3.98,2.46,4.99,4.74,0,0,.2.23.2.23-.01.25-.11.45-.29.62-4.13.35-8.47,5.05-12.3-.61-.73-1.52.85-5.36-3.38-3.34-.36-.41-.4-.81.05-1.19,1.72-.63.92-2.85,2.32-3.68.1-.43.19-.87.29-1.3,0,0,0-.03,0-.03.08-.41.16-.82.24-1.23,0,0,0,0,0,0,.52-.34,1.04-.68,1.56-1.02Z"/>
  <path class="cls-4" d="M75.15,185.42c-5.74-2.66-2.21-7.81-3.14-11.98-1.84.23-3.63.44-6.06.74,3.31-2.49.8-4.18-.35-6.02-2.78-4.41-5.26-8.86-3.04-14.32,1.08,2.54,3.05,2.73,5.16,1.65,1.99-1.03,3.81-2.39,5.71-3.6,0,0,.26.05.25.05.41.77.83,1.55,1.24,2.32-2.34,1.29-3.31,3.9-5.27,5.52-.89.74-1.2,1.26-.47,2.16,2.07,2.55,3.09,5.96,6.28,7.59-.91.44-1.83.87-3.01,1.44,1.59,1.42,3.1-.58,4.39.4-2.75,3.6-4.56,7.28-.7,11.32,1.48,1.55-.14,2.01-1.01,2.73Z"/>
  <path class="cls-1" d="M74.93,154.26c-.41-.77-.83-1.55-1.24-2.32,2.28-1.23,2.75.88,3.17,2.06,1.15,3.25,3.52,5.24,6.27,6.96.65,7.44-.33,8.66-6.05,7.56-.36-.5-.73-1.01-1.09-1.51q5.49-3.79,1.52-9.04c-.18-.24-.42-.43-.63-.65-.65-1.02-1.3-2.04-1.95-3.07Z"/>
  <path class="cls-5" d="M74.93,154.26c.65,1.02,1.3,2.04,1.95,3.06-.55.73-1.04,1.52-1.66,2.18-3.58,3.78-3.53,4.33.77,7.51.36.5.73,1.01,1.09,1.51-.54.34-1.07.68-1.61,1.01-3.18-1.63-4.21-5.04-6.28-7.59-.73-.9-.42-1.42.47-2.16,1.96-1.63,2.92-4.23,5.27-5.52Z"/>
  <path class="cls-4" d="M76.25,176.18c.07-.12.15-.23.22-.35.15.14.29.29.44.43-.13.06-.27.17-.39.16-.09,0-.18-.16-.27-.24Z"/>
  <path class="cls-8" d="M34.06,83.56c-1.05.53-2.62,2.47-2.91-.25-.58-5.31-.75-10.69.06-16.02.09-.61,1.01-1.09,1.54-1.63.38,1.41.76,2.83,1.22,4.55,1.43-.86,2.55-1.53,3.67-2.2.35.27.7.53,1.05.8.05-.14.15-.4.14-.41-.38-.18-.77-.34-1.15-.5-1.05-1.21.49-2.64-.32-3.87v-.22c.29-.57.57-1.14.86-1.7.16-.4,1.23-.73.32-1.2-2.26-1.19-1.5-2.29-.06-3.47.5.06.99.12,1.49.18.33,1.45.66,2.91.98,4.36.14,3.62-.13,7.28,1.05,10.79,0,.76.02,1.51.02,2.27-2.6,1.04-1.33,4.38-3.41,5.72-.81-.95-1.08-2.76-2.83-2.3-1.72.45-1.28,2.06-1.36,3.35-.04.58-.23,1.16-.35,1.74Z"/>
  <path class="cls-3" d="M38.46,57.45c-1.44,1.18-2.2,2.28.06,3.47.9.48-.16.8-.32,1.2-.63.4-1.26.79-.85,1.7,0,0,0,.22,0,.22-2.43,1.94-3.71.78-4.53-1.66.06-.43.12-.86.18-1.29.02-.18.04-.37.06-.55-.03.18-.07.37-.1.55-.1.42-.2.84-.3,1.27-.32.59-.65,1.17-.97,1.76-1.43-2.2-1.61-4.4-.01-6.61.35.42.9,1.16,1.28.62.79-1.13.66-2.46-.02-3.69.02-.18.05-.36.07-.54-.04.18-.07.35-.11.53-.41,1.04-.82,2.07-1.23,3.11-1.67-2.94-3.35-.93-5.04,0,.14-.73.29-1.46.43-2.18,1.97-1.59,2.14-3.94,2.57-6.17.22-1.16.88-1.97,1.92-2.38,1.76-.69,1.3,1.22,1.95,1.83,1.53,1.46,2.9,3.1,4.33,4.67.21,1.39.43,2.78.64,4.16Z"/>
  <path class="cls-3" d="M41.24,14.15c.25.49.49.98.74,1.47-.39,1.01.02,2.26-.95,3.09-.21-.49-.43-.98-.64-1.48.28-1.03.57-2.05.85-3.08Z"/>
  <path class="cls-3" d="M40.35,20.56c.22-.6.45-1.21.67-1.81,1.02,1.03.6,2.21.33,3.37-.19-.04-.37-.07-.56-.1-.15-.49-.3-.97-.45-1.46Z"/>
  <path class="cls-3" d="M41.07,23.39c.12.45.71,1.17-.04,1.25-.63.07-.5-.79-.33-1.33,0,0,.37.07.37.07Z"/>
  <path class="cls-11" d="M38.28,47.49c-1.33-.55-1.34-1.27-.27-2.12.87.61.73,1.35.27,2.12Z"/>
  <path class="cls-11" d="M38.28,49.18c-.81-.59-1.06-1.18-.02-1.78.25.59.49,1.18.02,1.78Z"/>
  <path class="cls-3" d="M41.36,22.13c-.1.42-.19.84-.29,1.26,0,0-.37-.07-.37-.07.03-.43.07-.86.1-1.29.19.03.37.06.56.1Z"/>
  <path class="cls-11" d="M38.01,45.45c-.83-.62-1.21-1.15.25-1.35.16.49.66,1.05-.25,1.35Z"/>
  <path class="cls-2" d="M59.08,74.6c-2.68.87-4.11-.7-4.55-2.89-.93-4.61-1.22-9.3-.26-13.97-.09-.62-.18-1.24-.27-1.85,0,0,0-.21.01-.21,1.1-.89,2.41-1.14,3.77-1.24,1.08.57,1.98,1.3,2.39,2.5,0,0,.11.04.11.04-.29.07-.49.24-.6.51,0,1.13.02,2.25.02,3.38-3.28,2.07-2.75,4.81-1.37,7.71.37,2,1.93,3.84.76,6.03Z"/>
  <path class="cls-4" d="M58.33,68.57c-1.38-2.9-1.91-5.64,1.37-7.71,2.26,3.06.69,5.43-1.37,7.71Z"/>
  <path class="cls-1" d="M59.68,57.48c.11-.27.31-.44.6-.51.21.39.83.72.22,1.2-.06.04-.54-.45-.82-.69Z"/>
  <path class="cls-2" d="M73.44,151.89c-1.9,1.21-3.72,2.57-5.71,3.6-2.11,1.09-4.08.89-5.16-1.65-.86-4.82.82-6.51,5.39-5.5,1.59.35,3.21.56,4.82.84.22.9.45,1.81.67,2.71Z"/>
  <path class="cls-1" d="M75.96,142.39c-.38-3.67,2.57-5.75,4.05-8.53.48.11,1.67-1.15,1.34.51-.39,1.92-1.53,3.75-.25,5.72l-5.13,2.3Z"/>
  <path class="cls-1" d="M74.6,144.45c.16-.89.42-1.71,1.38-2.07.13,1.08-.65,1.56-1.38,2.07Z"/>
  <path class="cls-5" d="M31.25,818.64c.94-.26,1.88-.52,2.82-.77,1.09.02,2.18.04,3.28.06.12.25.27.48.43.7.17.29.34.57.51.86-2.34,1.65-4.5,3.79-7.78,2.94.58-1.2,1.2-2.39.74-3.79Z"/>
  <path class="cls-5" d="M39.35,820.96c1.73-.11,3.46-.21,5.18-.32-1.22.85-2.45,1.7-3.67,2.55-.69-.62-2.16-.71-1.51-2.23Z"/>
  <path class="cls-8" d="M36.92,809.4c2.58-.56,4.57-2.27,6.79-3.53-.61,2.32,2,2.3,2.68,3.68,0,0-.15.04-.15.04-.32.97-2.54.04-1.94,1.93-1.25,1.94-1.7,4.66-4.74,4.82l-1.22-.28-.07-.02c-.35-.5-.7-1.01-1.05-1.51-.84-1.26,2.22-3.02-.52-4.04.07-.36.15-.72.22-1.08Z"/>
  <path class="cls-4" d="M37.22,814.52c.35.5.7,1.01,1.05,1.51-.3.63-.61,1.26-.92,1.89-1.09-.02-2.19-.04-3.28-.06-3.13-2.62-7.68-3.69-9.03-8.25,2.03.5,2.56,2.77,4.33,3.64,1.29.63,2.37,2.02,3.9.51.99,1.93,2.29,2.21,3.94.76Z"/>
  <path class="cls-3" d="M37.22,814.52c-1.64,1.45-2.95,1.17-3.94-.76.15-2.12,1.08-3.43,3.42-3.28,2.74,1.02-.32,2.78.52,4.04Z"/>
  <path class="cls-12" d="M75.97,107.87c-.81-.53-.97-1.25-.62-2.13.44.51.88,1.02,1.32,1.54-.23.2-.46.39-.69.59Z"/>
  <path class="cls-3" d="M26.34,57.9c.89,1.53.68,2.8-.88,3.75-.47-1.43.34-2.56.88-3.75Z"/>
  <path class="cls-1" d="M11.86,94.5c-.13-.31-.26-.63-.38-.94,1.23-.89,2.15-.79,2.62.8-.73.28-1.46.6-2.24.14Z"/>
  <path class="cls-2" d="M16.86,89.95c-.1.43-.19.87-.29,1.3.1-.43.19-.87.29-1.3Z"/>
  <path class="cls-2" d="M17.11,88.68c-.08.41-.16.82-.24,1.23.08-.41.16-.82.24-1.23Z"/>
  <path class="cls-3" d="M37.35,817.93c.31-.63.61-1.26.92-1.89,0,0,.07.02.07.02.41.09.82.19,1.23.28,3.05-.16,3.5-2.88,4.74-4.82.8-.38,1.6-.76,2.41-1.15,0,0-.07-.03-.07-.03.25.95.49,1.9.74,2.85-1.52,4.78-6.27,3.85-9.6,5.43-.17-.22-.31-.46-.43-.7Z"/>
  <path class="cls-1" d="M46.72,810.37c-.8.38-1.6.77-2.41,1.15-.6-1.9,1.62-.96,1.94-1.93.17.13.37.25.51.41.06.07-.02.25-.04.38Z"/>
  <path class="cls-3" d="M41.73,9.07c-.1.15-.19.3-.28.46-.3-.38-.74-.74-.31-1.3.2.28.39.56.59.84Z"/>
  <path class="cls-6" d="M40.49,469.57c.04-3.4-3.28-5.13-3.64-8.48-2.32,1.57-.47,3.83-1.7,5.25-.72-.39-1.36-.13-1.99.26.29-17.62.6-35.25.87-52.87.15-9.81.26-19.63.39-29.44.19-3.23.39-6.47.58-9.7,2.08,2.54,2.83,6.16,6.19,7.65-.13.17-.12.34.04.49-.06.34-.12.69-.18,1.03-.09.39-.26.84.39.84.07,0,.14-.47.21-.72.21-.21.37-.46.47-.74,1.07,1.03,1.02,2.45,1.31,3.75-.47,1.07.11,1.91.63,2.76.11.34.21.69.32,1.03-.35.66-.99,1.31-1.01,1.97-.13,6.46-2.2,12.83-.78,19.35-.42,3.85-.82,7.71-1.26,11.56-.22,1.92-1.54,3.93-.13,5.74,1.94,2.5.11,4.72-.1,7.09-.49,5.38-1.49,10.84-.95,16.13.25,2.45,2.08,5.01,1.96,7.88,1.89,4.19,1.25,7.82-1.61,9.17ZM35.92,456.92c-.04.76-.26,1.41-.07,1.89.34.84,1.03.55,1.31-.04.22-.46.13-1.12.02-1.66-.03-.13-.7-.12-1.26-.19ZM37.53,452.67c-.23-.16-.46-.33-.69-.49-.16.24-.46.5-.43.71.03.19.42.33.64.5.16-.24.32-.47.47-.71Z"/>
  <path class="cls-12" d="M22.73,261.24c3.27,6.39,4.12,13.43,5.21,20.36,2.41,15.3,5.28,30.56,5.6,46.11,0,.27.26.54.4.82-.55,1.11-.61,2.23-.06,3.36-1.55.93-1.02,3.26-2.73,4.08-2.55-21.8-4.55-43.66-7.84-65.37-.47-3.07-2.06-6.14-.57-9.36Z"/>
  <path class="cls-8" d="M33.88,331.89c-.55-1.13-.49-2.25.06-3.36,1.77-.87,2.13-2.3,2.04-4.2-.09-1.8.03-3.72,1.65-5.05.08.13.23.25.25.38,1.74,11.68,2.2,23.4,1.19,35.17-.03.38-.54.71-.82,1.06-2.01-.73-3.29,2.09-5.36,1.09-.36-5.24-.72-10.48-1.08-15.73,3.99-2.39,3.01-5.88,2.07-9.36Z"/>
  <path class="cls-1" d="M32.89,356.98c2.06,1,3.35-1.81,5.36-1.09.02.69.04,1.38.06,2.07-1.13.95-3.25,1.37-1.96,3.63.09,1.37.43,2.61,1.69,3.4-.08,1.9,3.68.7,2.75,3.79-.7,2.32-1.87,3.15-3.88,3.53-.74-.5-1.41-.29-2.06.18-3.33-4.83-3.09-10.11-1.94-15.51Z"/>
  <path class="cls-2" d="M34.84,372.49c.65-.47,1.33-.67,2.06-.18,1.75,1.36,1.56,5.33,5.44,3.96.41-.15.62,1.3.16,1.96-.74,1.05-1.5,2.01-.38,3.24.14.15.23.33.28.54-.4.08-.8.17-1.2.24-3.37-1.5-4.11-5.12-6.2-7.66-.06-.7-.11-1.4-.17-2.11Z"/>
  <path class="cls-1" d="M33.88,331.89c.94,3.48,1.93,6.97-2.07,9.36-.58-1.72-1-3.45-.67-5.28,1.71-.82,1.18-3.15,2.73-4.08Z"/>
  <path class="cls-5" d="M53.13,238.34c4.76,4.43,5.79,10.07,3.26,16-1.4,3.27-4.58,3.85-7.17,5.22-1.21.64-2.47-.15-1.34-1.99,1.37-2.22,1.84-4.46.18-6.86-1.13-1.64-2.27-1.88-3.8-.69-1.11.4-1.11,2.29-2.9,2.04-.01-4.83-.02-9.66-.03-14.48,2.25.93,4.23-.21,6.28-.82,1.79.7,4.07-.32,5.51,1.59Z"/>
  <path class="cls-1" d="M41.95,200.38c-.04.65-.08,1.31-.12,1.96-.94.76-1.09,1.64-.38,2.64,0,0,0,0,0,0,0,.42-.02.84-.02,1.26-.04.44-.09.88-.13,1.32-1.66.96-1.9,2.26-.91,3.85,1.73,6.21,1.16,7.19-4.29,7.49-.41-.44-.73-1.11-1.24-1.29-2.81-1.05-4.83-2.91-3.5-5.89,1.34-2.99,3.68-.15,5.58-.16.42,0,.84-.18,1.63-.36-1.2-1.93-3.19-2.04-4.75-2.61-4.23-1.53-6.8-4.24-8.2-8.6-1.09-3.39-.42-4.45,3.07-4.25,1.77.1,3.23.74,4.82,1.33,2.75,1.02,1.63-.8,1.27-1.98.63-.46,1.26-.91,1.9-1.37.25-.12.45-.06.63.16.34.66.81,1.01,1.57.6,0,0-.04-.02-.04-.02,1.04,1.97,2.08,3.94,3.12,5.91Z"/>
  <path class="cls-4" d="M24.48,179.95c-.94-1.26-1.96-2.38-3.76-2.06-.44-.58-.88-1.16-1.32-1.74-.54-1.05-1.07-2.11-1.61-3.17.29.08.61.11.87.25q7.28,3.89,9.36-4.07c1.27-4.85,7.38-9.37,13.6-10.04.35.53.69,1.06,1.04,1.59-5.53.38-7.4,4.98-9.74,8.8-1.14,1.86-3.23,4.69-.61,6.39,1.87,1.21,1.16,2.82,2.07,3.98-.25.11-.49.23-.73.35-1.45.85-2.87,1.59-4.43.14-1.28-1.19-2.65-1.1-4.01-.07-.3.02-.55-.09-.73-.33Z"/>
  <path class="cls-12" d="M36.6,259.95c-5.17,4.07-5.34,3.98-6.44-2.99-.23-1.47-.55-2.93-.83-4.4.14-5.89,4.74-9.36,7.35-14.99,2.44,5.5-1.4,9.37-.73,13.57-1.27,2.98.77,5.47,1.21,8.2-.21.18-.39.39-.56.61Z"/>
  <path class="cls-4" d="M36.1,218.9c5.46-.3,6.02-1.28,4.29-7.49.49-.35.97-.7,1.46-1.05,1.23,3.96,2.46,7.93,3.69,11.89-.71.2-1.43.39-2.14.58-.26.07-.51.13-.78.16-.64.09-1.27.17-1.91.26-1.84-.05-4.03-2.86-5.38-.01-1.01,2.12,1.76,2.18,2.97,3.04-1.03,2.17-4.67-2.49-5.14,2.16-.23,2.29-1.26,4.34.69,6.28l-.02.09c-1.54-.58-3.08-1.16-4.85-1.82,2.33-4.14,1.82-8.32-.03-12.64,2.33-.47,4.74-.97,7.16-1.46Z"/>
  <path class="cls-12" d="M33.65,180.21c.24-.12.49-.24.73-.35,1.64.88,3.27.45,4.9,0,1.29.83,3.36.24,4.04,2.2-2.33.98-3.47,2.83-3.84,5.25-1.45,2.35.92,4.16.89,6.3-.52.28-1.03.57-1.55.85,0,0,.04.02.04.02-.52-.2-1.04-.4-1.57-.6-.17-.22-.38-.27-.63-.16-.3-.15-.6-.3-.91-.45-1.2-2.43-1.22-5-.73-7.57.4-2.11.19-3.94-1.39-5.49Z"/>
  <path class="cls-3" d="M47.62,236.75c-2.05.61-4.03,1.76-6.28.82-.65-.33-1.29-.66-1.94-.99,2.49-1.36,1.56-3,.39-4.67-.08-.68-.16-1.36-.25-2.04.44-.39.88-.79,1.32-1.18.54-.5,1.08-.99,1.62-1.49.95-.15,1.9-.3,2.86-.45,1.26,1.86,2.22,3.85,2.7,6.06-1.73,1.14-2.85,2.35-.41,3.93Z"/>
  <path class="cls-4" d="M35.78,193.27c.3.15.6.3.91.45-.63.46-1.26.91-1.9,1.37-2.79-.68-5.61-1.25-8.35-2.1-1.45-.45-3.09-1.72-2.22-3.23.66-1.15,2.31-.96,3.91.2,2.21,1.61,4.43,3.81,7.66,3.31Z"/>
  <path class="cls-3" d="M24.48,179.95c.19.24.43.35.73.33,2.57,5.43,2.28,6.26-2.1,5.93-.29-2.25-1.73-4.75,1.37-6.26Z"/>
  <path class="cls-4" d="M39.79,231.91c1.17,1.66,2.1,3.31-.39,4.67-2.11.22-4.11.1-5.57-1.76,0,0,.02-.09.02-.09,2.13-.62,4.24-1.28,5.94-2.82Z"/>
  <path class="cls-1" d="M37.16,259.35c-.44-2.73-2.48-5.22-1.21-8.2,1.15,2.62,6.01,4.7,1.21,8.2Z"/>
  <path class="cls-1" d="M25.4,241.78c-1-1.21-1.36-2.53-.71-4.03,3.76.72,2.02,2.41.71,4.03Z"/>
  <path class="cls-6" d="M17.58,99.46c3.83,5.66,8.17.96,12.3.61-.36,2.48-.72,4.97-1.09,7.45-2.51,5.15-1.4,10.61-1.37,15.97-.32,5.99,1.27,11.45,4.98,16.14,1.18,1.49,2.54,3.7,5.23,2.37.22.31.44.63.66.94-.28,2.27-1.34,2.79-3.37,1.66-1.44-.8-3.16-1.14-4.02-2.77-.55-1-1.21-1.88-2.5-1.93-1.74-4.26-3.49-8.52-5.24-12.78.32-3.9-.23-7.09-5.16-7.55-.99-.09-2.46-.21-3.17-1.44.33-.7.14-1.34-.26-1.94,2.14-2.1,1.56-3.67-.95-4.86.05-1.61,1.17-3.15.33-4.82,2.9-1.48,1.24-5.29,3.61-7.04Z"/>
  <path class="cls-12" d="M37.35,95.16c2.33,3.78,6.05,1.29,9.06,2,0,.27-.12.49-.34.64-.96.41-.25.72.06,1.06-1.03,2.18,1.21,3.27,1.66,4.95,0,0-.06.25-.06.25-.06,1.27-.87,2.58.25,3.77v-.03c-1.46,2.3-.87,4.78-.67,7.23v-.08c-.02.79-.05,1.58-.08,2.37.01,1.22.02,2.45.03,3.67-.59,2.69-.37,5.34.04,8.07.49,3.23,1.42,6.57-.23,9.79l-.25-.03c-2.98-4.55-1.71-9.72-1.69-14.57.01-2.22.03-4.37-.38-6.54-.16-.85.15-2.25-.97-2.21-1.35.05-1.18,1.48-1.17,2.53-3.3,1-5.64-.26-7.31-3.09-.8-4.29,1.15-8.61-.1-12.9,1.33-2.11,1.66-4.53,2.17-6.9Z"/>
  <path class="cls-2" d="M28.41,139.9c1.29.05,1.94.93,2.5,1.93-1.39,2.25.37,3.72,1.35,5.36,3.45,5.74,2.97,8.3-2.4,12.04-4.13,2.88-6.89,7.33-11.31,9.94-1.07-3.85-.66-3.48,2.1-6.59,2.06-2.31.55-5.64-.42-8.35-.49-1.36-1.84-2.4-2.81-3.59-.34-.76-.68-1.51-1.01-2.27,4.44,5.04,7.9.67,11.18-1.53,2.21-1.48,1.08-4.16.22-6.33.24-.17.44-.37.6-.61Z"/>
  <path class="cls-8" d="M35.28,114.96c1.68,2.84,4.02,4.1,7.31,3.09,1.21,2.68-.52,5.31-.13,7.97-2.13-1.03-4.45-3.59-5.9.78-.04.12-.83-.02-1.27-.04-.2-.83-.39-1.66-.59-2.49.47-3.09-.96-6.29.58-9.31Z"/>
  <path class="cls-4" d="M35.29,126.77c.44.02,1.23.15,1.27.04,1.45-4.37,3.78-1.81,5.9-.78,2.02,3.96-1.67,5.03-3.56,7.02-.95.73-1.11,2.21-2.44,2.57-.76-2.9-1.22-5.84-1.17-8.85Z"/>
  <path class="cls-6" d="M61.88,139.39c-1.83,5.94-7.38,5.74-11.92,7.22-.61-.29-1.22-.58-1.84-.87-.4-1.28-.79-2.56-1.19-3.83,0,0,.21-.02.21-.02,1.37,1.61,3.09,1.62,5,1.25,3.48-.67,6.62-2.15,9.73-3.75Z"/>
  <path class="cls-8" d="M36.46,135.62c1.34-.36,1.5-1.84,2.45-2.57,1.04,2.52,2.21,4.99,3.08,7.57.59,1.72.64,3.51-2.15,3.05-1.29-1.87-1.04-4.49-2.92-6.07,0,0,.04.08.04.08.68-.8.32-1.46-.29-2.08l-.2.03Z"/>
  <path class="cls-2" d="M42.66,160.7c-.35-.53-.69-1.06-1.04-1.59.96-.28,1.92-.56,2.88-.84.64-.05,1.28-.11,1.92-.16,2.69.13,4.86,1.31,6.67,3.24-1.55,1.29-3.04-.35-4.57-.09l-.04-.08c-.67-.47-.81-.16-.71.49-1.79.15-3.46-.34-5.11-.98Z"/>
  <path class="cls-1" d="M47.35,151.04c-1.24.13-2.49.26-3.73.39-1.29-.54-3.77.61-3.6-1.94.14-2.01,1.75-2.7,3.74-1.93.18,2.21,1.98,2.75,3.59,3.48Z"/>
  <path class="cls-8" d="M46.42,158.12c-.64.05-1.28.11-1.92.16-1.52-1.63-3.29-3.22-.97-5.52,3.18.59,3.02,2.99,2.89,5.36Z"/>
  <path class="cls-4" d="M47.35,151.04c-1.62-.73-3.41-1.28-3.59-3.48,1.36-.82,3.21-.48,4.36-1.82.61.29,1.22.58,1.84.87-1.96,1.46-3.64,2.9.53,3.57-.79,1.54-1.97,1.19-3.14.86Z"/>
  <path class="cls-4" d="M36.92,137.6c1.88,1.59,1.63,4.2,2.92,6.07-.51-.24-1.02-.48-1.54-.73-.22-.32-.45-.63-.67-.94-.59-1.41-1.01-2.85-.71-4.4Z"/>
  <path class="cls-12" d="M47.09,140.89c-.09-.68-.18-1.36-.27-2.05,0,0,.25.03.25.03.36.67.63,1.34.03,2.02h0Z"/>
  <path class="cls-12" d="M47.15,141.88s-.21.02-.21.02c.05-.34.1-.67.15-1.01,0,0,0,0,0,0,.02.33.04.66.06.98Z"/>
  <path class="cls-5" d="M27.81,140.51c.86,2.17,1.99,4.85-.22,6.33-3.28,2.2-6.74,6.57-11.18,1.53-2.37-3.96-4.1-8.29-7.04-11.92-.68-1.13-1.36-2.25-2.04-3.38.48-.29.95-.57,1.43-.86,4.83-3.21,5.66-5.87,3.49-11.23.3-.61.59-1.23.89-1.84l1.7-1.01c.7,1.23,2.17,1.35,3.16,1.44,4.93.46,5.48,3.65,5.16,7.55-1.27,2.52-4.14-1.84-5.23,1.19-.77,2.14.38,4.16.58,6.24.03.29-.11.59-.18.89-.9,3.76,1.48,4.37,4.34,4.53,1.72.1,3.58-1.25,5.12.54Z"/>
  <path class="cls-8" d="M19.4,176.15c.44.58.88,1.16,1.32,1.74-.24.21-.48.42-.73.63-.2-.79-.4-1.58-.6-2.37Z"/>
  <path class="cls-1" d="M13.14,119.14c-.3.61-.59,1.23-.89,1.84-1.67,1.71-3.43.82-5.18.17-1.42-1.56-1.3-3.7-2.06-5.51-.21-.21-.29-.47-.26-.76,1.68-.8,3.35-1.6,5.03-2.39.9,1.96-1.29,4.01.2,6.11.41-.25.83-.39,1.11-.68,1.75-1.84,1.12-4.62,2.56-6.6,2.51,1.19,3.09,2.76.95,4.86-1.18.64-1.54,1.69-1.45,2.96Z"/>
  <path class="cls-1" d="M17.58,99.46c-2.37,1.75-.71,5.57-3.61,7.04-2.13-.77-2.1,1.82-3.47,2.22.68-4.37,1.53-8.68,3.71-12.61,4.23-2.02,2.65,1.82,3.38,3.34Z"/>
  <path class="cls-12" d="M10.5,108.73c1.37-.41,1.34-3,3.47-2.22.84,1.67-.28,3.21-.33,4.82-1.43,1.98-.8,4.76-2.55,6.6-.27.29-.69.43-1.11.68-1.49-2.1.7-4.15-.2-6.11,0,0,.03.07.03.07.65-.87.12-.89-.57-.79-.12-.74.16-1.27.83-1.61.17-.51.34-1.02.51-1.53,0,0-.08.09-.08.09Z"/>
  <path class="cls-1" d="M9.24,111.77c.7-.1,1.22-.08.57.79-.19-.26-.38-.53-.57-.79Z"/>
  <path class="cls-1" d="M10.58,108.63c-.17.51-.34,1.02-.51,1.53.17-.51.34-1.02.51-1.53Z"/>
  <path class="cls-8" d="M7.08,121.15c1.75.65,3.51,1.54,5.18-.17,2.17,5.36,1.34,8.02-3.49,11.23-2.06-2.8-.43-6.3-1.75-9.24.02-.61.05-1.21.07-1.82Z"/>
  <path class="cls-3" d="M7.01,122.97c1.33,2.94-.31,6.44,1.75,9.24-.48.29-.95.58-1.43.86-2.09-1.58-2.26-4.25-3.53-6.29,1.07-1.27,2.14-2.54,3.21-3.81Z"/>
  <path class="cls-6" d="M51.16,486.74c-2.39-4.02-2.14-16.61.42-20.52.48,6.85.43,13.7-.42,20.52Z"/>
  <path class="cls-6" d="M51.08,493.37c-1.16-2.23-2.4-4.45.08-6.64.62,2.22.54,4.43-.08,6.64Z"/>
  <path class="cls-6" d="M51.03,498.04c-1.29-1.57-1.76-3.13.06-4.66.61,1.56.51,3.11-.06,4.66Z"/>
  <path class="cls-6" d="M51.58,466.2c-.83-1.12-1.51-2.23.06-3.31.51,1.11.63,2.22-.06,3.31Z"/>
  <path class="cls-5" d="M49.81,560.31c0-.42,0-.84,0-1.26,0,.42,0,.84,0,1.26Z"/>
  <path class="cls-12" d="M36.06,477.87c.98,1.6,2.69,3.35-.88,3.94-.19-1.42-.9-2.96.88-3.94Z"/>
  <path class="cls-12" d="M35.77,472.5c1.03,1.75,2.25,3.49.29,5.4-1.23-1.74-1.08-3.55-.29-5.4Z"/>
  <path class="cls-12" d="M35.78,469.1c2.65,1.16,1.01,2.29-.02,3.42-.75-1.15-.21-2.28.02-3.42Z"/>
  <path class="cls-5" d="M42.1,460.4c.13-2.87-1.71-5.44-1.96-7.88-.54-5.29.46-10.75.95-16.13.21-2.36,2.04-4.59.1-7.09-1.41-1.81-.09-3.82.13-5.74.44-3.85.84-7.7,1.26-11.56,3.18.94,4.06,3.14,3.81,6.28-.84,10.32-.86,20.71-2.67,30.96-.42,2.39,1.09,4.77.5,7.42-.37,1.63-.68,2.9-2.12,3.74Z"/>
  <path class="cls-3" d="M44.37,390.69c-.11-.34-.21-.69-.32-1.03.32-.17.64-.33.95-.5h.04c-.23.52-.45,1.02-.68,1.53Z"/>
  <path class="cls-3" d="M45.29,387.89c-.08.43-.16.85-.24,1.28,0,0-.04,0-.04,0,.08-.43.16-.85.24-1.28h.04Z"/>
  <path class="cls-5" d="M49.55,341.45c-3.63.38-4.83-2.02-5.28-4.91-1.03-6.44.12-12.92-.13-19.38,1.23,1.51,1.84,3.53,4.04,4.83.26-2.21.5-4.2.73-6.2.1-.87-.09-2.05,1.27-1.96.91.06,1.2,1,1.08,1.76-1.31,8.22-.43,16.51-.94,24.76-.02.38-.5.73-.77,1.1Z"/>
  <path class="cls-3" d="M55.31,361.87c-.44.36-.87.72-1.31,1.09-.53-.58-.92-1.27-.07-1.77.24-.14.91.44,1.38.68Z"/>
  <path class="cls-2" d="M47.62,236.75c-2.44-1.58-1.32-2.79.41-3.93,0,0,.14.03.14.03,1.73,2.93,4.92.2,7,1.8.31,1.78-.53,2.91-2.04,3.69-1.44-1.91-3.72-.89-5.51-1.59Z"/>
  <path class="cls-5" d="M55.17,234.65c-2.08-1.6-5.27,1.13-7-1.8,3.17-2.47,6.28-3.42,9.16.42-.72.46-1.44.92-2.16,1.38Z"/>
  <path class="cls-3" d="M57.86,233.96c1.11-1.11,2.22-2.22,3.32-3.32,1.65,1.9,2.17,4.25,2.9,7.06-3.01-.23-4.45-2.28-6.23-3.74Z"/>
  <path class="cls-3" d="M60.71,229.92c-1.61,1.24-3.08,1.37-3.77-.86-.63-2.02.71-2.62,2.43-2.71.96,1,1.18,2.27,1.34,3.57Z"/>
  <path class="cls-8" d="M36.34,361.59c-1.29-2.26.83-2.68,1.96-3.63,1.18,2.2-.86,2.66-1.96,3.63Z"/>
  <path class="cls-8" d="M50.27,263.84c-.14-.39-.28-.78-.42-1.17,1.08.07.5.69.38,1.16,0,0,.03,0,.03,0Z"/>
  <path class="cls-2" d="M45.25,387.88c-.08.43-.16.85-.24,1.28-.32.17-.63.33-.95.5-.52-.85-1.09-1.69-.63-2.77.85-.11,1.38.37,1.82.99Z"/>
  <path class="cls-6" d="M42.4,382.01c-.05-.2-.14-.38-.28-.54.19-.03.37-.06.56-.09-.09.21-.19.42-.28.62Z"/>
  <path class="cls-2" d="M42.12,383.14c-.11.28-.26.53-.47.74-.2-.04-.4-.08-.6-.11.06-.35.13-.69.19-1.03.29.14.59.27.89.41Z"/>
  <path class="cls-6" d="M31.85,693.17c.93-.73,1.09-1.58.42-2.58.83-.62,1.07-1.46.84-2.43-1.03-4.25,1.81-5.79,4.97-7.11,0,0-.06-.01-.06-.01.92,3.17-.21,16.78-1.58,19-2.23.16-4.14-.07-3.66-3.09.22-1.4.01-2.68-.92-3.79Z"/>
  <path class="cls-6" d="M39.26,671.28c.53,3.37,1.45,6.8-1.25,9.76,0,0,.06.01.06.01-6.03.09-4.61-4.09-4.48-7.65.06-1.52-.17-3.02.77-4.36,0,0-.06-.01-.06-.01q2.28,3.24,3.81,1.95c.38.1.77.2,1.15.3Z"/>
  <path class="cls-6" d="M34.37,669.05c-1.48-4.18-.67-8.25.35-13.53,1.61,2.79,1.34,5.41,3.64,6.33-.41.71-.18,1.35.2,1.98,0,0,0,.05,0,.05-1.33,1.07-.63,3.45-2.65,4.07-.53.36-1.06.72-1.6,1.08h.06Z"/>
  <path class="cls-5" d="M34.91,645.21c.84.05,1.68.1,2.52.15-2.42,2.89,3.68,4.21,1.32,7.03-.93,1.12-2.51,1.37-3.73,1.23-1.27-.14-.9-1.68-.86-2.66.08-1.93-.51-3.96.7-5.75,0,0,.04,0,.04,0Z"/>
  <path class="cls-5" d="M35.91,667.96c2.02-.62,1.32-3,2.65-4.07,1.76,2.32,1.85,4.8.71,7.39-.38-.1-.77-.2-1.15-.3-2.3.13-1.94-1.68-2.21-3.03Z"/>
  <path class="cls-5" d="M38.56,663.84c-.38-.63-.61-1.27-.2-1.98,1.92.47,1.21,1.21.2,1.98Z"/>
  <path class="cls-2" d="M43.2,573.93c1.56,3.12,1.78,4.97.47,6.76-.12.16-1,.07-1.15-.16-1.35-1.99-.15-3.69.69-6.6Z"/>
  <path class="cls-2" d="M43.41,572.37c-.55-.96-.93-1.94-.01-2.88.38-.39.88-.29,1.09.2.51,1.2-.2,1.98-1.06,2.68h-.02Z"/>
  <path class="cls-6" d="M38.49,577.63c.08-.05.19-.15.25-.13.1.04.17.15.25.24-.14.08-.28.15-.42.23-.03-.11-.05-.23-.08-.34Z"/>
  <path class="cls-2" d="M43.43,572.37c-.04.18-.07.35-.11.53-.03-.08-.1-.17-.08-.23.03-.11.11-.2.17-.3,0,0,.02,0,.02,0Z"/>
  <path class="cls-2" d="M39.69,724.6c-.64-1.02-.57-1.9.49-2.6.69,1.03.55,1.9-.49,2.6Z"/>
  <path class="cls-2" d="M39.25,727.2c-.25-.94-.16-1.83.45-2.63.73,1.03.53,1.9-.45,2.63Z"/>
  <path class="cls-9" d="M47.15,141.88c-.02-.33-.04-.66-.06-.98.61-.68.33-1.35-.03-2.02,1.65-3.22.72-6.56.23-9.79-.41-2.73-.63-5.37-.04-8.06,1.65.74,3.35,1.39,4.95,2.23,3.06,1.62,5.49,1.08,7.34-1.88,2.81-1,1.79-4.19,3.35-5.9,1.62,2.02.1,5.57,3.32,6.8-1.06,4.75-1.05,9.71-2.91,14.3-.48.94-.95,1.88-1.42,2.81-3.11,1.59-6.25,3.07-9.73,3.74-1.92.37-3.63.36-5-1.25Z"/>
  <path class="cls-4" d="M48.52,161.27c1.53-.26,3.02,1.38,4.57.09.54.71,1.08,1.41,1.62,2.11,2.88,5.33,2.35,7.28-3.84,13.35,4.28-.81,4.42,1.5,3.05,4-2.25,4.09-2.26,8.43-2.25,12.83-4.77.02-8.71,1.26-9.72,6.72-1.04-1.97-2.08-3.94-3.12-5.91.52-.28,1.03-.57,1.55-.85,2.6,1.16,3.13-.37,3.23-2.48,2.36-.64,5.2-1,4.83-4.36-.31-2.81-1.86-4.84-5.12-4.72-.68-1.95-2.75-1.36-4.04-2.2,1.64-2.46,5.52.83,6.77-2.64.53-.33,1.05-.65,1.58-.98,1.79.63,1.96-1,2.48-1.91,2.67-4.71-.43-8.78-1.59-13.06Z"/>
  <path class="cls-5" d="M58.57,87.24c-.38-.68-.57-1.37-.12-2.09,1.22-.86,2.43-1.72,3.65-2.57.7,2.14,1.39,4.29,2.09,6.43-1.53,1.1-3.01,2.29-5.03,2.33-.34-1.34.47-2.85-.59-4.1Z"/>
  <path class="cls-4" d="M62.1,82.57c-1.22.86-2.43,1.72-3.65,2.57-1.03-3.19-.93-6.08,2.21-8.14,1.48,1.6,1.1,3.67,1.44,5.57Z"/>
  <path class="cls-4" d="M58.57,87.24c1.06,1.24.25,2.75.59,4.1-.72,2.34-2.05,4.63-.66,7.17.12.23.23.46.34.69-.38.3-.76.6-1.14.91-3.77-1.05-3.05-5.3-5.31-7.42.28-.61.57-1.22.85-1.83.28-.16.57-.32.85-.49,4.24,2.9,2.36-2.98,4.48-3.12Z"/>
  <path class="cls-9" d="M52.38,92.68c2.26,2.12,1.54,6.37,5.31,7.42-.05,1.16-.11,2.32-.17,3.46-.7-.27-1.3-.11-1.83.38-2.57-3.96-5.23-2.62-7.91-.13-.45-1.69-2.69-2.77-1.67-4.95-.02-.35-.04-.71-.06-1.06.22-.15.34-.37.34-.64.11-.6.22-1.19.32-1.79,1.72-1.25,2.6-4.26,5.65-2.7Z"/>
  <path class="cls-12" d="M55.7,103.95c.53-.49,1.13-.65,1.83-.38,2.59,3.63,5.02,7.31,5.36,11.92-1.56,1.7-.53,4.88-3.34,5.9-.61-.77-.68-1.64-.56-2.6.68-5.33-.32-10.31-3.29-14.84Z"/>
  <path class="cls-8" d="M54.08,90.36c-.28.16-.57.32-.85.49-1.11-.82-2.88-.45-3.59-1.99.84-1.76,1.61-3.56,3.34-4.69.16.03.31.06.47.09.66,1.99.79,4.03.63,6.11Z"/>
  <path class="cls-4" d="M53.99,55.88c.09.62.18,1.24.27,1.85-.27-.47-.54-.93-.8-1.4.15-.19.32-.34.53-.46Z"/>
  <path class="cls-8" d="M49.1,77.54c-.16.19-.22.29-.32.35-.03.02-.14-.11-.21-.17.14-.05.29-.1.53-.18Z"/>
  <path class="cls-8" d="M52.98,84.16c.05-.24.1-.7.15-.7.67.01.46.42.32.79-.16-.03-.31-.06-.47-.09Z"/>
  <path class="cls-9" d="M37.35,95.16c-.51,2.37-.84,4.79-2.17,6.9-2.92.89-3.38,4.66-6.38,5.46.36-2.48.73-4.97,1.09-7.45.18-.17.28-.37.29-.62.87-.63,1.4-1.39.9-2.52.13-1.37.77-2.26,2.24-2.35,1.36.05,3.02-1.98,4.03.58Z"/>
  <path class="cls-1" d="M34.06,83.56c.12-.58.31-1.15.35-1.74.08-1.29-.36-2.9,1.36-3.35,1.75-.46,2.02,1.35,2.83,2.3-2,2.72.89,5.97-1.38,8.96-1.09.18-1.97-.77-2.84-1.74-.1-1.48-.21-2.95-.31-4.43Z"/>
  <path class="cls-8" d="M45.33,226.76c-.95.15-1.9.3-2.86.46-.37-.28-.74-.56-1.11-.84.63-1.21-.17-2.13-.65-3.11.64-.09,1.27-.17,1.91-.26.32.25.67.61.78-.17.71-.19,1.43-.39,2.14-.58,3.25.43,6.31-1.49,9.58-.82-1.91,4.26-5.93,4.65-9.79,5.32Z"/>
  <path class="cls-8" d="M41.85,210.36c-.49.35-.97.7-1.46,1.05-.99-1.59-.75-2.89.91-3.85.18.93.37,1.87.55,2.8Z"/>
  <path class="cls-4" d="M41.45,204.98c-.71-1-.56-1.88.38-2.64.85,1.02.71,1.9-.38,2.64Z"/>
  <path class="cls-4" d="M41.43,206.25c0-.42.02-.84.02-1.26,0,.42-.02.84-.02,1.26Z"/>
  <path class="cls-4" d="M31.68,64.1c.32-.59.65-1.17.97-1.76,0,0,.16.03.16.03.82,2.44,2.1,3.6,4.53,1.66.81,1.23-.73,2.66.32,3.87l-.03.11c-1.12.67-2.24,1.35-3.67,2.2-.46-1.73-.84-3.14-1.22-4.55-.35-.52-.71-1.04-1.06-1.56Z"/>
  <path class="cls-6" d="M31.08,96.93c.5,1.13-.02,1.88-.9,2.52,0,0-.2-.24-.2-.23.37-.76.73-1.52,1.1-2.28Z"/>
  <path class="cls-8" d="M75.99,167.01c-4.3-3.17-4.34-3.73-.77-7.51.62-.66,1.11-1.45,1.66-2.18.21.22.44.41.62.65q3.98,5.24-1.52,9.04Z"/>
  <path class="cls-4" d="M37.66,67.9c.39.16.78.31,1.15.5.02,0-.09.27-.14.41-.35-.27-.7-.53-1.05-.8,0,0,.03-.11.03-.11Z"/>
  <path class="cls-4" d="M37.35,63.82c-.4-.91.22-1.31.85-1.7-.28.57-.57,1.14-.85,1.7Z"/>
  <path class="cls-4" d="M31.66,57.53c.41-1.04.82-2.07,1.23-3.11h.04c.67,1.24.81,2.58.02,3.7-.38.54-.93-.21-1.28-.62,0,0,0,.03,0,.03Z"/>
  <path class="cls-4" d="M32.99,61.08c-.06.43-.12.86-.18,1.29,0,0-.16-.03-.16-.03.1-.42.2-.85.3-1.27h.03Z"/>
  <path class="cls-4" d="M32.95,61.08c.03-.18.07-.37.1-.55-.02.18-.04.37-.06.55,0,0-.03,0-.03,0Z"/>
  <path class="cls-4" d="M32.89,54.41c.04-.18.07-.35.11-.53-.02.18-.05.36-.07.54,0,0-.04,0-.04,0Z"/>
  <path class="cls-4" d="M39.56,816.34c-.41-.09-.82-.19-1.23-.28.41.09.82.19,1.23.28Z"/>
  <path class="cls-1" d="M35.92,456.92c.56.08,1.23.07,1.26.19.11.54.2,1.2-.02,1.66-.28.59-.98.88-1.31.04-.19-.48.03-1.13.07-1.89Z"/>
  <path class="cls-1" d="M37.53,452.67c-.16.24-.32.48-.47.71-.23-.16-.62-.3-.64-.5-.03-.21.27-.47.43-.71.23.16.46.33.69.49Z"/>
  <path class="cls-2" d="M41.65,383.88c-.07.25-.14.72-.21.72-.65,0-.48-.44-.39-.84.2.03.4.07.6.11Z"/>
  <path class="cls-4" d="M37.31,193.88c.52.2,1.04.4,1.57.6-.76.41-1.22.06-1.57-.6Z"/>
  <path class="cls-8" d="M48.52,161.27c1.16,4.28,4.25,8.34,1.59,13.06-.52.91-.69,2.54-2.48,1.91.45-3.29-.59-6.4-1.31-9.5-.8-3.44-3.54-4.08-6.42-2.18-2.1,1.38-2.9,3.44-4.02,5.43-2.79,4.95-2.15,6.07,3.73,6.28.44.06.89.11,1.33.17l5.1.79c-1.24,3.47-5.12.19-6.77,2.64-1.64.46-3.27.89-4.91,0-.91-1.16-.2-2.77-2.07-3.98-2.63-1.7-.53-4.53.61-6.39,2.34-3.82,4.21-8.41,9.74-8.8,1.64.64,3.31,1.13,5.11.98,0,0,.37-.23.37-.23l.35-.26.04.08Z"/>
  <path class="cls-8" d="M39.79,231.91c-1.7,1.53-3.81,2.2-5.94,2.82-1.95-1.94-.92-3.99-.69-6.28.47-4.65,4.11.02,5.13-2.16.29.08.57.19.85.32.23.15.41.34.55.58-.7.86-.82,1.75-.15,2.68.08.68.16,1.36.25,2.04Z"/>
  <path class="cls-1" d="M39.14,226.62c-.27-.13-.56-.24-.85-.32-1.21-.86-3.98-.92-2.97-3.04,1.36-2.85,3.55-.04,5.38.01.48.98,1.28,1.9.65,3.11-.74.08-1.48.16-2.23.24Z"/>
  <path class="cls-1" d="M43.4,222.84c-.11.77-.45.42-.78.17.26-.04.52-.09.78-.17Z"/>
  <path class="cls-3" d="M43.33,182.06c3.26-.12,4.81,1.91,5.12,4.72.37,3.35-2.48,3.71-4.83,4.36-2.45-.12-2.88-2.41-4.13-3.83.37-2.42,1.51-4.27,3.84-5.25Z"/>
  <path class="cls-1" d="M39.49,187.31c1.24,1.42,1.68,3.7,4.13,3.83-.1,2.1-.63,3.64-3.23,2.48.02-2.15-2.35-3.95-.89-6.3Z"/>
  <path class="cls-2" d="M39.14,226.62c.74-.08,1.48-.16,2.23-.24.37.28.74.56,1.11.84-.54.49-1.08.99-1.62,1.48-.39-.5-.78-1-1.17-1.51-.14-.23-.32-.43-.55-.58Z"/>
  <path class="cls-4" d="M39.69,227.19c.39.5.78,1,1.17,1.51-.44.39-.88.79-1.32,1.18-.67-.93-.55-1.83.15-2.68Z"/>
  <path class="cls-7" d="M28.8,107.52c3-.8,3.46-4.56,6.38-5.46,1.26,4.29-.7,8.61.1,12.9-1.53,3.02-.11,6.23-.58,9.31-2.41-.38-5.13,2.06-7.28-.78-.03-5.37-1.14-10.82,1.37-15.97Z"/>
  <path class="cls-9" d="M27.43,123.49c2.15,2.84,4.86.41,7.28.78.2.83.39,1.66.59,2.49-.06,3.01.41,5.95,1.17,8.85,0,0,.2-.02.2-.02-.74.81-.1,1.43.29,2.08,0,0-.04-.08-.04-.08-.29,1.55.12,2.99.71,4.4-2.68,1.33-4.05-.88-5.23-2.37-3.7-4.68-5.29-10.15-4.98-16.14Z"/>
  <path class="cls-8" d="M27.81,140.51c-1.54-1.79-3.41-.44-5.12-.54-2.85-.16-5.24-.77-4.34-4.53.07-.29.21-.6.18-.89-.2-2.08-1.34-4.11-.58-6.24,1.09-3.03,3.96,1.33,5.23-1.19,1.75,4.26,3.49,8.52,5.24,12.78-.16.24-.37.44-.6.61Z"/>
  <path class="cls-8" d="M13.14,119.14c-.09-1.27.26-2.31,1.45-2.96.4.61.59,1.24.26,1.94-.57.34-1.14.67-1.7,1.01Z"/>
  <path class="cls-7" d="M55.7,103.95c2.97,4.53,3.96,9.5,3.29,14.84-.12.96-.05,1.83.56,2.6-1.85,2.95-4.28,3.49-7.34,1.87-1.6-.84-3.29-1.49-4.95-2.23-.01-1.23-.02-2.46-.03-3.68.72-.77.6-1.56.09-2.37,0,0,0,.08,0,.08,2.03-2.24,2.4-4.64.68-7.23,0,0,0,.03,0,.03,1.8-1.38.5-2.56-.25-3.77,0,0,.07-.26.06-.25,2.68-2.49,5.34-3.82,7.91.14Z"/>
  <path class="cls-9" d="M47.98,107.81c1.73,2.59,1.35,4.99-.68,7.23-.19-2.45-.78-4.94.68-7.23Z"/>
  <path class="cls-9" d="M47.72,104.06c.75,1.21,2.05,2.39.25,3.77-1.12-1.19-.31-2.51-.25-3.77Z"/>
  <path class="cls-9" d="M47.31,114.96c.51.81.63,1.61-.09,2.37.03-.79.06-1.58.09-2.37Z"/>
  <path class="cls-5" d="M46.06,97.81c.02.35.04.71.06,1.06-.31-.34-1.01-.65-.06-1.06Z"/>
  <path class="cls-4" d="M36.95,137.68c-.4-.65-1.03-1.27-.29-2.08.61.62.97,1.28.29,2.08Z"/>
  <path class="cls-4" d="M48.48,161.19l-.35.26s-.37.23-.37.23c-.1-.65.04-.96.71-.49Z"/>
  <path class="cls-2" d="M35.91,667.96c.27,1.35-.1,3.16,2.21,3.03q-1.52,1.3-3.8-1.95c.53-.36,1.06-.72,1.6-1.08Z"/>
  <path class="cls-1" d="M39.62,176.25c-5.89-.21-6.52-1.33-3.73-6.28,1.12-1.98,1.92-4.04,4.02-5.43,2.88-1.9,5.63-1.26,6.42,2.18.72,3.1,1.76,6.22,1.31,9.5-.53.33-1.05.65-1.58.98-1.7-.26-3.4-.53-5.1-.79,2.24-1.13,2.49-3.27,2.77-5.41.21-1.61.15-3.44-1.66-3.71-2.06-.31-3.33,1.21-3.68,3.24-.35,2.04.61,3.85,1.24,5.7Z"/>
  <path class="cls-12" d="M39.62,176.25c-.63-1.85-1.6-3.66-1.24-5.7.35-2.03,1.63-3.55,3.68-3.24,1.81.27,1.87,2.1,1.66,3.71-.28,2.14-.53,4.28-2.77,5.41-.44-.06-.89-.11-1.33-.17Z"/>
</svg>