<?xml version="1.0" encoding="UTF-8"?>
<svg id="Layer_1" data-name="Layer 1" xmlns="http://www.w3.org/2000/svg" viewBox="0 0 177.43 816.98">
  <defs>
    <style>
      .cls-1 {
        fill: #4b3a2b;
      }

      .cls-1, .cls-2, .cls-3, .cls-4, .cls-5, .cls-6, .cls-7, .cls-8, .cls-9, .cls-10, .cls-11, .cls-12, .cls-13, .cls-14 {
        stroke-width: 0px;
      }

      .cls-2 {
        fill: #9ab6f8;
      }

      .cls-3 {
        fill: #b4b4d6;
      }

      .cls-4 {
        fill: #c0c1dd;
      }

      .cls-5 {
        fill: #a7d7f4;
      }

      .cls-6 {
        fill: #9094cd;
      }

      .cls-7 {
        fill: #a2a1cd;
      }

      .cls-8 {
        fill: #5aaac6;
      }

      .cls-9 {
        fill: #e7e8f2;
      }

      .cls-10 {
        fill: #dfdeec;
      }

      .cls-11 {
        fill: #a9aad4;
      }

      .cls-12 {
        fill: #d0d1e6;
      }

      .cls-13 {
        fill: #2d5d77;
      }

      .cls-14 {
        fill: #f5f4f9;
      }
    </style>
  </defs>
  <path class="cls-1" d="M86.87,20.6c.2,1.03.41,2.05.61,3.08-1.96.13-2.83,3.12-3.2,2.95-6.58-2.96-7.28,3.42-10.19,6.2.06-1.42.12-2.83.18-4.25.2-.44.4-.88.6-1.33,1.5-1.1.08-2.33.15-3.49,1.83-7.6,3.65-15.2,5.71-23.76,4.39,7.09,4.01,14.2,6.13,20.6Z"/>
  <path class="cls-9" d="M75.03,23.76c-.07,1.16,1.35,2.39-.15,3.49-.24-1.18-.8-2.37.15-3.49Z"/>
  <path class="cls-13" d="M74.09,32.82c2.91-2.78,3.61-9.16,10.19-6.2.38.17,1.25-2.81,3.2-2.95.2.03.39.09.57.17.36,2.23.71,4.45,1.07,6.68,2.27,7.35,3.86,14.8,3.48,22.55-1.83.16-2.25,1.45-1.62,2.75,3.02,6.25,2.94,13.19,4.52,19.75,1.21,14.55,2.42,29.1,3.64,43.65.07.74.15,1.48.22,2.22.06,1.09.11,2.17.17,3.26-.87,5.76-.39,11.43,1.03,17.05-.14,1.62-.27,3.24-.41,4.87.03,2.21.07,4.41.1,6.62.43,6.57.4,13.07-.35,19.69-.85,7.58,1.08,15.24,1.62,22.87,1.44,20.5,1.67,41.01,2.32,61.53.32,9.99.31,20.04,2.13,29.93-.02.38-.04.77-.07,1.15-1.57,2.32-.89,4.57.19,6.81.04.74.08,1.48.12,2.21-1.82,13.01.36,25.94.65,38.91.05.52.1,1.04.16,1.55-.62.69-1.23,1.38-1.85,2.07l-4.62.75c.03-2.22.76-4.58-.02-6.22-4.88-10.33-3.24-21.24-3.22-31.99,0-1.96-.49-4.88,3.07-4.9.55.46,1.44.96,1.71.22.36-.95-.8-.66-1.34-.86-6.45-3.76-5.03-11.5-8.46-16.78,4.01-3.32.94-7.8,1.54-11.86,1.91,1.28.65,3.77,2.86,4.98.94-5-1.03-9.59-.36-14.16.81-5.55.87-10.69-4.19-14.59-.87-.67-.68-2.41-.32-3.76,3.43-13.08,2.42-25.88-3.06-38.78-.93,2.43-1.26,6.27-2.83,6.88-7.19,2.81-7.88,11.29-13.92,14.84,1.39,4.29-2.9,8.03-1.17,12.43.51,1.3,1.27,2.94.35,4.34-4.51,6.86-2.8,14.46-2.75,21.87-1.35,3.77,0,7.65-.44,11.46-.73.2-1.45.4-2.18.61-1.08-5.22-1.2-10.53-1.41-15.83-.4-21.86,1.91-43.66,1.03-65.56-.71-17.68,1.88-35.39.66-53.1-.72-10.52,3.82-20.97.15-31.46,1.61-8.7,1.31-17.44.65-26.19.34-.65,1.09-1.39.97-1.93-2.32-10.29,2.12-19.92,3.13-29.86.6-5.88,2-11.81,3.07-17.71ZM72.29,152.21c-.5-1.3.3-3.46-2.52-3.7.32,4.32.62,8.32,1.03,13.74,2.37-4.25-.35-7.37,1.5-10.07.8,1.76,5.61-.42,3.83,3.93-.24.59.39.91.99.81.85-.13,1.32-.76,1.32-1.53,0-4.96-3.21-3.84-6.16-3.19ZM71.88,169.21c-1.8,1.92-4.63,3.23-1.56,6.59,1.1,1.21.79,3.98.65,6.01-.45,6.48-1.17,12.93-1.71,19.4-.51,6.11,1.63,11.78,2.9,17.65-.1-8.13-.45-16.17,2.37-23.92.3-.83,1.16-1.65.18-2.5-.93-.81-3.46-.07-2.55-2.65,1.36-3.85,1.66.94,2.75.36.82-.43,1.19-1.07.87-1.73-2.96-6.07,1.4-13.43-3.91-19.21ZM87.55,157.23c-3.56,9.42-.29,32.9,4.21,36.23-6.83-11.03-.23-23.66-4.21-36.23ZM71.44,141.98c1.28-9.04,4.62-18.11.07-27.13,2.52,9.06-2.65,18.06-.07,27.13ZM85.13,104.48c-1.99,4.68-.63,8.9.57,13.14-.19-4.38-.38-8.76-.57-13.14Z"/>
  <path class="cls-1" d="M78.12,729.61c1.17-6.05.19-12.14,0-18.18-.53-17.34,1.28-34.8-2.14-52.01-.4-2.02-1.06-3.98-1.48-6-.85-4.12-3.27-5.62-7.5-5.93-14.83-1.08-29.56-4.2-42.55-10.97-8.46-4.41-16.7-10.15-24.45-16.18.84.08,1.56-.15,2.03-.93,2.98-.17,3.92-2.63,4.92-4.73,1.15-2.44,2.79-3.1,5.21-2.41,1.48,1.62,3.14,2.94,5.45,3.09.39,1.94,1.39,2.91,3.46,2.16.17.26.41.39.73.38.25,2.01,1.58,1.8,2.97,1.45,3.83,2.45,7.92,4.27,12.35,5.34.67.71,1.45,1.04,2.42.71.22.27.49.35.82.23,2.11,2.5,5.91,1.45,8.08,3.82-5.08,2.44-9.58-3.03-15.02-1.18,9.38,4.31,19.11,5.64,28.72,7.43l.08.42c-3.85,1.51-7.73-.93-11.59.09-.4-1.04-1.18-1.32-2.17-1.01-.55.17-.94.64-.4,1.12.75.66,1.66.63,2.53.14.59.39,1.14,1.03,1.78,1.13,15.53,2.42,30.94,2.13,46.18-2.05,4.44-.35,8.19-2.52,12.28-4.27-3.13-3.75-6.82,3.12-9.71-.92.74-.99,2.38.43,2.75-1.68-7.34,1.2-14.46,2.36-21.58,3.52-10.73,1.85-21.39.68-32.03-.83-1.09-.15-2.29-.32-1.9-1.96,5.04-.67,9.82,2.22,14.9,1.1,3.45.94,6.93.59,10.41.23,1.76.2,3.51.24,5.19-.47,9.75.66,18.87-1.72,27.66-5.73,1.88-.2,5.03-.03,4.72-2.18-1.15-8.05,1.06-15.88.9-23.82-.16-7.85.91-15.52,3.07-23.13,2.23,4.64,2.51,9.8,5.19,14.09.4,1.73.81,3.46,1.21,5.18.06,2.54,1.48,4.56,2.62,6.65,5.76,10.52,8.6,11.15,18.21,4.05,1.91-1.41,4.16-2.49,5.36-4.73,1.24-.03,2.1-.79,2.77-1.67,4.55-5.97,9.54-7.48,15.87-2.3,4.44,3.63,8.93,7.05,11.01,12.67-3.14,2.59-6.28,5.19-9.43,7.78-5.38,3.69-10.44,8-16.2,10.94-13.19,6.76-26.6,13.18-41.26,16.21-2.42.5-2.92,1.89-3.22,3.8-3.48,1.82-3.63,5.46-4.38,8.59-3.47,14.52-2.12,29.29-2.04,44,.04,6.93.26,13.86.4,20.78-.25,2.65-.53,5.3.11,7.94,0,14.64-.02,29.27-.02,43.91,0,2.69.58,5.19,2.73,7.06-1.71.29-3.42.58-5.12.87-3-.34-6-.68-9.01-1.02-2.71-3.47-5.32-3.38-7.79.27l-1.23.03c-1.41-1.34-3.26.3-4.73-.7,3.16-5.32,5.04-10.84,2.85-17.05-1-8.72-1.01-17.49-.56-26.21.13-2.43-.44-4.62-.43-6.93ZM55.92,640.77c-1.01-1.01-2-1.25-3.31.32,1.35-.14,2.34-.24,3.34-.35.11.06.22.13.34.19l-.36-.16ZM27.36,634.04c.58,2.03,1.9,1.88,3.47,1.2-.94-1.11-2.06-1.56-3.43-1.27-.43-.27-.86-.53-1.29-.8l-.35.7c.54.06,1.07.12,1.61.18ZM36.88,637.3c3.2,2.07,6.78,2.29,10.61,2.41-1.5-2.55-5.21-.34-6.03-3.48.6-.84,2.23.17,2.4-1.34.02-.18-.45-.55-.74-.62-1.85-.42-1.23,1.2-1.61,1.99-1.33,1.27-3.06.1-4.5.73-.4-.75-1-.96-1.77-.63-.13.06-.19.3-.28.46.64.16,1.28.32,1.93.48ZM98.1,639.19c4.08-1.14,8.16-2.27,12.24-3.41l-.46-1.46c-3.65,2.68-8.29,1.67-12.04,3.98-4.04.73-8.14,1.24-12.1,2.26-2.54.65-5.7.97-6.19,4.59l-3.73.61c1.25.54,2.4.66,2.74,1.25,1.71,2.96,3.13,2.66,6.76,2.56,4.76-.14,4.59-3.02,6.3-4.78.75-.77.31-2.68.42-4.08,2.02-.5,4.03-1,6.05-1.5ZM89.93,665.92c-5.61-3-6.14-9.01-1.24-13.09-2.68.16-5.24.29-7.71,1.38,1.62,2.35,4.01,4.72,3.08,7.52-2.14,6.45,1.38,5.39,5.86,4.19ZM85.72,728.14c-3.21,3.14-3.47,6.18-2.34,9.11,1.15,2.99,3.55,1.04,6.03.57-6.82-.82-3.07-5.66-3.7-9.68ZM90.25,771.54c-.85-1.84-2.46-1.1-3.8-.92-1.1.15-2.29.62-1.9,2.12.51,1.94,2.18,1.7,3.63,1.61,1.66-.1,2.04-1.32,2.07-2.81ZM89.39,684.08c-1.38-.71-3.04-2.19-3.43-2.2-2.64-.08-4.16,1.77-2.21,3.96,2.16,2.42,3.18-2.43,5.64-1.75ZM89.03,702.01c-1.83-.66-2.79-3.59-5.1-1.99-1.03.72-.65,1.9.11,2.89,2.05,2.68,3.37-.1,4.99-.9ZM50.86,639.73c-.37-.07-.72-.21-1.03-.15-.19.04-.31.4-.47.62.33.07.68.22.99.17.19-.03.33-.39.51-.63ZM32.83,635.62c-.12.13-.25.25-.37.38.15.1.3.28.43.27.13-.01.25-.23.37-.35-.15-.1-.29-.2-.44-.29Z"/>
  <path class="cls-13" d="M76.26,779.81c1.46,1,3.32-.64,4.73.7-.32,1.09-2.34,2.64.88,2.68,2.88.03,5.75.3,8.63.47-.5,1.21-1.62,1.8-2.69,1.52-4.73-1.21-9.15.9-13.73,1.1.05-1.86.11-3.73.16-5.59.32-.25.63-.5.95-.75.38.13.74.08,1.08-.14Z"/>
  <path class="cls-13" d="M99.02,781.23c1.71-.29,3.42-.58,5.13-.87,2.5,1.07.32,4.07,2.21,5.4.05.26.08.51.07.78-4.56-.72-9.22-1-13.46-3.09,1.52-2.11,5.52,2.6,6.05-2.21Z"/>
  <path class="cls-10" d="M101.43,729.39c-.64-2.64-.36-5.29-.11-7.94,2.17,2.34,1.8,5.03,1.05,7.77-.31.05-.62.11-.94.17Z"/>
  <path class="cls-10" d="M102.75,738.26c.36-.03.71-.07,1.07-.11-.24.18-.48.37-.74.51-.03.01-.21-.26-.33-.41Z"/>
  <path class="cls-1" d="M92.96,783.44c4.24,2.09,8.9,2.38,13.46,3.09.28.23.72.41.81.7,1.61,5.21-3.93,20.97-8.47,24.17-1.58-1.23-2.71-3.66-5.37-2.03-1.94-2.45-4.36-1.4-6.71-.91-2.54-.35-4.32,1.5-6.48,2.24-4.24-2.32-4.28-6.76-5.36-10.67-.31-1.4-.17-3.2-1.01-4.12-3.08-3.42-1.71-6.46.24-9.61,4.58-.21,9-2.32,13.73-1.11,1.06.27,2.18-.32,2.69-1.52.82-.07,1.65-.15,2.47-.22ZM88.45,791.75c2.43.2,3.3-2,2.06-2.88-3.01-2.13-6.68-1.79-9.89.1-1.79,1.05-1.62,2.31.48,2.98.17.05.37,0,.55-.02,2.38,4.28,4.61,2.8,6.79-.19ZM85.22,807.73c1.37-2.27,3.2-3.28,6.27-4.16-3.07-1.01-3.47-5.35-5.88-3.95-2.01,1.17-1.97,4.77-.39,8.11Z"/>
  <path class="cls-8" d="M80.21,810.69c2.16-.74,3.94-2.59,6.48-2.24-.37,1.39-3.17,1.16-2.31,3.26.64,1.57,1.68,2.9,3.56,3.25,3.74.7,5.83-1.44,5.46-5.6,2.66-1.63,3.79.8,5.37,2.03-1.1,5.36-5.41,5.4-9.49,5.57-4.52.19-7.77-1.69-9.08-6.27Z"/>
  <path class="cls-1" d="M95.51,75.57c-1.58-6.56-1.5-13.49-4.52-19.75-.63-1.3-.21-2.59,1.62-2.75.61,4.28,1.99,8.33,3.29,12.44,1.03,3.25,2.34,6.82-.39,10.05Z"/>
  <path class="cls-14" d="M89.13,30.52c-.36-2.23-.71-4.45-1.07-6.68,3.86,1.66,2.64,4.14,1.07,6.68Z"/>
  <path class="cls-8" d="M63.73,407.32c-1.91-10.21-.71-20.49-.61-30.74.16-15.28.02-30.58.58-45.85.66-17.88-.79-35.81,1.44-53.64.11-.89.47-1.75.71-2.62.72-.2,1.45-.4,2.18-.61.12,5.79,1.85,11.31,2.88,16.94-3.29,3.85-2.33,8.5-2.45,12.95-.06.14-.13.27-.19.41.05-.14.11-.29.16-.43,3.22-1.67,1.23-4.92,2.23-7.27,1.46-.47,2.77-.97.57-2.33-.03-.76-.05-1.52-.08-2.28,8.88-1.54,10.85-5.8,6.41-15.88-.45,2.95-.78,5.45-3.85,5.14-3.44-.34-2.2-3.34-2.99-5.19-1.85-4.33,1.08-9.44-2.25-13.52-.06-7.41-1.76-15.01,2.75-21.87.92-1.4.16-3.04-.35-4.34-1.73-4.4,2.55-8.14,1.17-12.43,6.04-3.55,6.73-12.04,13.92-14.84,1.58-.62,1.9-4.45,2.83-6.88,5.47,12.9,6.49,25.7,3.06,38.78-.36,1.36-.55,3.09.32,3.76,5.06,3.9,5,9.04,4.19,14.59-.67,4.57,1.31,9.16.36,14.16-2.22-1.22-.96-3.7-2.86-4.98-.61,4.07,2.47,8.55-1.54,11.86,3.44,5.28,2.02,13.01,8.46,16.78-.12.21-.25.42-.37.63-3.56.02-3.07,2.94-3.07,4.9-.02,10.75-1.66,21.66,3.22,31.99.78,1.65.05,4.01.02,6.22,1.67-.27,3.14-.51,4.62-.75.31,1.9.63,3.79.94,5.69-4.78.46-.24,3.48-1.39,5.06-2.74,3.79-3.12,7.78-.39,11.81v-.07c-1.89,6.79,1.99,13.26,1.19,20.03-.11.93,1.21,1.77,2.44,1.87.06.73.13,1.46.19,2.18-.6.35-1.68.65-1.73,1.06-.66,6.26-.75,12.58-1.1,18.86-.38,6.91,2.81,13.64,2.73,20.69.04.6.07,1.21.11,1.81-1.38,4.21-.19,8.55.23,12.63.35,3.43-3.96,6.82.06,10.2.64.53-.06,2.52.09,3.8.55,4.52,0,9.24,2.44,13.42,1.43,15.63.76,31.35,2.08,46.95.51,6.07-3,11.45-1.48,17.38-1.78,1.68.74,4.38-1.42,5.97-1.06-3.62-2.12-7.24-3.18-10.86-.64-5.28-.9-10.64-2.86-15.68.05-.88.1-1.75.15-2.63,2.59-.1,5.4,0,2.69-3.86-.49-.7-1.06-1.76-.87-2.45,1.56-5.52-2.2-8.68-5.21-12.19.53-6.99-3.05-14.77,3.14-20.91-2.57-.58-3.17-3.49-3.85-6.35-1.27-8.7-3.05-17.38-.83-26.19-.11-3.05-.22-6.1-.33-9.16,2.36-4.47,2.28-9.13,1.12-13.88-3.9-17.04.57-34.21-.22-51.67-5.15,3.24-.52,7.91-2.79,11.21-4.78.44-7.26-1.2-7.01-6.55.14-2.86.32-7.69-1.88-8.3-5.54-1.52-5.77-5.96-7.45-9.76-.55-1.25-1.12-2.42-2.83-2.02-.56.01-1.29.27-1.66,0-2.61-1.89-6.93-3.06-2.95-7.7,1.17-1.37,2.4-4.22-.05-5.2-3.4-1.37-2.24-3.71-2.4-5.97-.4-5.64-.92-11.26-1.39-16.89-.52.05-1.05.1-1.57.15.24,7.19-.59,14.63,1.02,21.5,1.62,6.94.41,13.61.53,20.35.13,6.88-1.65,13.79.22,20.7,1.18-3.35.46-6.95,1.82-10.21.36-.11.72-.21,1.08-.32.14.47.28.94.41,1.42.11.73,0,1.59.35,2.18,4.9,8.33,4.62,9.5-3.7,14.45-.14-.78-.28-1.56-.41-2.34-.33-.54-.64-1.52-.99-1.53-1.25-.04-1.05,1-.98,1.84-.76,8.85-1.7,17.7-1.6,26.6-.67.08-1.33.15-2,.23Z"/>
  <path class="cls-8" d="M71.88,169.21c5.31,5.78.95,13.14,3.91,19.21.32.66-.06,1.29-.87,1.73-1.09.58-1.39-4.21-2.75-.36-.91,2.57,1.62,1.83,2.55,2.65.98.86.12,1.67-.18,2.5-2.82,7.75-2.47,15.79-2.37,23.92-1.26-5.87-3.41-11.54-2.9-17.65.54-6.47,1.26-12.93,1.71-19.4.14-2.03.45-4.8-.65-6.01-3.07-3.36-.25-4.67,1.56-6.59Z"/>
  <path class="cls-6" d="M68.46,262.4c3.33,4.08.4,9.19,2.25,13.52.79,1.85-.45,4.85,2.99,5.19,3.07.3,3.4-2.2,3.85-5.14,4.44,10.08,2.47,14.34-6.41,15.88-.11-.34-.19-.69-.24-1.04-1.04-5.63-2.77-11.15-2.88-16.94.45-3.81-.91-7.69.44-11.46Z"/>
  <path class="cls-5" d="M106.23,297.43c1.28,4.33,1.76,8.79,1.66,13.27-.04,1.95-.36,3.71,1.64,4.93,1.05.64,1.68,2.18,1.21,2.94-3.37,5.51.24,12.48-3.86,17.77-.29-12.97-2.47-25.91-.65-38.91Z"/>
  <path class="cls-8" d="M87.55,157.23c3.98,12.57-2.62,25.2,4.21,36.23-4.5-3.32-7.76-26.81-4.21-36.23Z"/>
  <path class="cls-5" d="M107.03,337.9c3.14,12.33,0,24.77.63,37.15-1.76-4.02-2.38-8.35-3.31-12.59,0,0-.01.07-.01.07,1.9-5.49,3.57-10.99,1.77-16.87-.31-1.9-.63-3.79-.94-5.69.62-.69,1.23-1.38,1.85-2.07Z"/>
  <path class="cls-8" d="M71.44,141.98c-2.57-9.07,2.59-18.07.07-27.13,4.55,9.02,1.21,18.09-.07,27.13Z"/>
  <path class="cls-9" d="M99.53,124.71c3.3,1.69,1.07,4.56,1.44,6.86.54,3.41.23,6.81-.41,10.19-1.42-5.62-1.89-11.29-1.03-17.05Z"/>
  <path class="cls-8" d="M72.31,152.18c-1.85,2.7.86,5.82-1.5,10.07-.41-5.42-.71-9.42-1.03-13.74,2.82.23,2.02,2.4,2.52,3.7v-.02Z"/>
  <path class="cls-8" d="M85.13,104.48c.19,4.38.38,8.76.57,13.14-1.2-4.24-2.56-8.46-.57-13.14Z"/>
  <path class="cls-8" d="M72.29,152.21c2.95-.66,6.15-1.78,6.16,3.19,0,.77-.46,1.4-1.32,1.53-.61.09-1.23-.22-.99-.81,1.78-4.35-3.04-2.17-3.83-3.93,0,0-.01.02-.01.02Z"/>
  <path class="cls-9" d="M100.15,146.62c1.37,2.19,3.14,4.36.1,6.62-.03-2.21-.07-4.41-.1-6.62Z"/>
  <path class="cls-5" d="M105.91,288.41c.1,2.27,1.59,4.5.19,6.81-1.08-2.24-1.77-4.5-.19-6.81Z"/>
  <path class="cls-8" d="M100.77,296.98c.54.19,1.69-.09,1.34.86-.28.74-1.17.23-1.71-.22.13-.21.25-.42.37-.63Z"/>
  <path class="cls-8" d="M58.43,578.43c3.59-4.22,3.52-8.51,2.25-13.95-.94-4.01-.1-8.75-.95-13.14,1.28-1.64.47-3.38.27-5.1,4.8,3.62,5.41,3.36,6.31-3.07.17-1.22.19-2.22,1.6-2.51,1.19,3.35,1.85,7.68,1.13,10.25-1.75,6.25-3.52,12.04-1.05,18.41.5,1.3-2.46,3.06.26,4.25,2.91,1.27,2.35-2.25,3.85-2.97.24,1.47.48,2.94.72,4.41-.34,1.96.94,4.72-2.46,5.18-3.02.41-4.06,2.37-3.98,5.08.05,1.66,1.01,3.09,2.79,2.8,2.75-.45,4.65-1.89,5.05-5.08.2-1.61-.47-4.21,2.05-4.61,2.04-.32,3.09,1.5,4.3,3.01,1.81,2.26,4.29,3.51,7.39,2.77,2.54-.6,3.02-2.49,3.02-4.7.3-.49.6-.99.91-1.48,4.03-2.4,11.74-16.73,11.34-21.13,0-.1-.31-.17-.48-.26.25-.91.49-1.82.74-2.73,2.51.1,3.16-1.23,2.82-3.5-.18-1.21-.49-3.53.74-3.31,4.43.78,4.86-3.4,7.23-5.09.25,5.41,1.65,10.67,1.83,16.15.08,2.63-1.53,5.65-.28,7.54,4.87,7.42,4.19,15.68,4.57,23.83-2.68-4.29-2.96-9.45-5.19-14.09-2.17,7.61-3.23,15.27-3.07,23.13.16,7.94-2.05,15.77-.9,23.82.31,2.15-2.84,1.98-4.72,2.18-5.03.84-10.05,1.68-15.07,2.52,1.62-3.08,3.04-6.37,7.59-5.52,2.26.42,3.59-2.12,3.15-2.95-2.32-4.43-.63-8.24,1.02-12.19.37-.89-.22-1.48-1.08-1.46-4.48.13-2.99-2.97-2.51-5.03.89-3.74,0-6.61-3.08-8.85-1.75-1.27-3.58-1.45-5.03.22-1.43,1.65-1.1,3.49.42,5.02,1.58,1.59,3.3,3.03,4.83,4.66,1.87,2.01-.24,3.53-1.06,4.93-.99,1.68-2.28.61-3.03-.58-3.11-4.89-7.39-4.42-12.04-2.83-4.85,1.66-5.57,5.5-5.5,9.84,0,.73,0,1.46.01,2.19-2.96,5.65-.56,10.94,5.24,11.66,2.18.27,4.34.67,7.51,1.17-2.42.62-3.84.98-5.25,1.34-1.26.53-2.52,1.07-3.77,1.6-1.68.71-3.43.67-5.19.47-2.3-2.77-5.83-.25-8.37-1.95-.13-1.08-.27-2.16-.4-3.25,1.48-4.15,3.01-8.1-.49-12.29-1.23-1.48-1.81-4.68-1.06-6.39,2.18-5.05-.03-9.39-1.15-13.97,2.95-3.31-.35-6.09-.77-9.11-1.27-1.62-3.08-2.94-2.98-5.33ZM70.66,597.65c.77,1.79,1.39,3.61,3.76,3.52,2.67-.1,7.34-4.78,6.89-7.02-.57-2.83-3.32-2.47-4.91-2.28-3.11.37-5.18,2.52-5.74,5.77ZM100.62,578.73c-2.5.41-2.09,2.5-2.12,3.96-.05,2.3,1.09,3.85,3.75,3.66,2.07-.15,3.02-1.08,2.64-3.25-.44-2.5-1.87-3.92-4.27-4.37Z"/>
  <path class="cls-13" d="M62.21,636.12s-.08-.42-.08-.42c4.8-.24,9.6-.36,14.38-.79,2.14-.19,5.2,1.01,5.76-2.72,7.12-1.16,14.24-2.32,21.58-3.52-.37,2.11-2.01.69-2.75,1.68,2.9,4.03,6.58-2.83,9.71.92-4.08,1.75-7.83,3.91-12.28,4.27-.67-1.61-1.7-1.28-3.17-1.02-10.98,1.93-21.96,4.28-33.16,1.6Z"/>
  <path class="cls-7" d="M82.27,632.19c-.56,3.73-3.62,2.53-5.76,2.72-4.78.43-9.59.54-14.38.79-9.61-1.79-19.33-3.12-28.72-7.43,5.44-1.86,9.95,3.61,15.02,1.18,0,0-.08-.05-.08-.05-.4,1.64.81,1.81,1.9,1.96,10.64,1.51,21.3,2.69,32.03.83Z"/>
  <path class="cls-7" d="M62.21,636.12c11.2,2.68,22.18.32,33.16-1.6,1.47-.26,2.5-.59,3.17,1.02-15.23,4.18-30.65,4.48-46.17,2.05-.64-.1-1.19-.74-1.78-1.13,0,0,.04-.24.04-.24,3.85-1.03,7.74,1.42,11.59-.09Z"/>
  <path class="cls-6" d="M92.05,640.7c-.1,1.39.33,3.3-.42,4.08-1.71,1.77-1.54,4.65-6.3,4.78-3.63.1-5.05.4-6.76-2.56-.34-.59-1.49-.7-2.74-1.25,1.55-.25,2.64-.43,3.73-.61,5.52,2.33,8.61-2.18,12.5-4.45Z"/>
  <path class="cls-12" d="M92.96,783.44c-.82.07-1.64.15-2.47.22-2.88-.17-5.75-.44-8.63-.47-3.22-.04-1.19-1.59-.88-2.68.41-.01.82-.02,1.23-.03,2.63.98,5.21.3,7.79-.27,3,.34,6.01.68,9.01,1.02-.53,4.81-4.54.1-6.05,2.21Z"/>
  <path class="cls-7" d="M92.05,640.7c-3.89,2.27-6.98,6.77-12.5,4.45.49-3.62,3.65-3.95,6.19-4.59,3.97-1.01,8.06-1.53,12.1-2.25.03.31.12.61.25.9-2.02.5-4.03,1-6.05,1.5Z"/>
  <path class="cls-13" d="M89.93,665.92c-4.49,1.2-8,2.26-5.86-4.19.93-2.8-1.46-5.17-3.08-7.52,2.46-1.09,5.03-1.22,7.71-1.38-4.9,4.07-4.37,10.08,1.24,13.09Z"/>
  <path class="cls-4" d="M78.84,630.26c1.26-.53,2.52-1.07,3.77-1.6,3.24,1.13,6.09.11,8.81-1.61,5.02-.84,10.05-1.68,15.07-2.52-8.78,4.01-17.91,6.38-27.66,5.73Z"/>
  <path class="cls-7" d="M40.35,625.63c.69-.33,1.37-.66,2.06-.99,6.49,3.5,13.72,3.8,20.78,4.82.05.34.06.69.05,1.04-5.07,1.12-9.85-1.77-14.9-1.1,0,0,.08.05.09.05-2.17-2.37-5.97-1.32-8.08-3.82Z"/>
  <path class="cls-13" d="M85.72,728.14c.63,4.02-3.13,8.86,3.7,9.68-2.48.47-4.88,2.42-6.03-.57-1.13-2.93-.87-5.97,2.34-9.11Z"/>
  <path class="cls-3" d="M90.25,771.54c-.04,1.48-.42,2.71-2.07,2.81-1.44.09-3.12.33-3.63-1.61-.39-1.5.8-1.97,1.9-2.12,1.34-.18,2.95-.92,3.8.92Z"/>
  <path class="cls-6" d="M90.01,780.21c-2.58.57-5.16,1.25-7.79.27,2.47-3.65,5.08-3.74,7.79-.27Z"/>
  <path class="cls-6" d="M98.1,639.19c-.13-.29-.22-.58-.25-.9,3.75-2.3,8.39-1.29,12.04-3.98l.46,1.46c-4.08,1.14-8.16,2.27-12.24,3.41Z"/>
  <path class="cls-13" d="M89.39,684.08c-2.46-.67-3.48,4.17-5.64,1.75-1.95-2.19-.43-4.03,2.21-3.96.39.01,2.06,1.49,3.43,2.2Z"/>
  <path class="cls-13" d="M89.03,702.01c-1.62.8-2.94,3.59-4.99.9-.76-.99-1.14-2.17-.11-2.89,2.3-1.6,3.26,1.33,5.1,1.99Z"/>
  <path class="cls-7" d="M41.45,636.24c.83,3.14,4.53.93,6.03,3.48-3.84-.12-7.41-.34-10.61-2.41l.13-.3c1.44-.63,3.17.54,4.5-.73l-.05-.04Z"/>
  <path class="cls-3" d="M63.24,630.5c.01-.35,0-.69-.05-1.04.7-.23,1.39-.46,2.09-.68,2.55,1.7,6.07-.82,8.37,1.95-3.48.37-6.96.71-10.41-.23Z"/>
  <path class="cls-6" d="M17.61,615.36c1.49.19,3.06.23,3.46,2.16-2.08.75-3.07-.22-3.46-2.16Z"/>
  <path class="cls-6" d="M21.79,617.9c1.42-.39,2.67-.42,2.98,1.45-1.4.35-2.73.55-2.98-1.45Z"/>
  <path class="cls-6" d="M50.62,636.22s-.04.25-.04.24c-.87.49-1.78.52-2.53-.14-.54-.48-.16-.95.4-1.12.99-.3,1.77-.02,2.17,1.01Z"/>
  <path class="cls-6" d="M41.5,636.28c.38-.8-.23-2.42,1.61-1.99.29.07.76.44.74.62-.17,1.51-1.8.5-2.4,1.34,0,0,.05.04.05.04Z"/>
  <path class="cls-7" d="M27.4,633.97c1.38-.28,2.49.16,3.43,1.27-1.57.68-2.9.83-3.47-1.2l.04-.07Z"/>
  <path class="cls-7" d="M55.95,640.74c-.99.1-1.99.21-3.34.35,1.31-1.57,2.31-1.33,3.31-.32,0,0,.03-.03.03-.03Z"/>
  <path class="cls-7" d="M38.52,624.13c.34.42.68.85,1.02,1.27-.97.33-1.76,0-2.43-.71.47-.19.94-.38,1.41-.57Z"/>
  <path class="cls-7" d="M27.36,634.04c-.54-.06-1.07-.12-1.61-.18.12-.23.23-.46.35-.7.43.27.86.53,1.29.8,0,0-.04.07-.04.07Z"/>
  <path class="cls-7" d="M50.86,639.73c-.18.24-.32.6-.51.63-.31.06-.66-.1-.99-.17.15-.22.28-.58.47-.62.31-.06.65.08,1.03.15Z"/>
  <path class="cls-7" d="M36.88,637.3c-.64-.16-1.28-.32-1.93-.48.09-.16.15-.4.28-.46.77-.33,1.38-.12,1.77.63,0,0-.13.3-.13.3Z"/>
  <path class="cls-7" d="M55.92,640.77l.36.16c-.11-.06-.22-.13-.34-.19,0,0-.03.03-.03.03Z"/>
  <path class="cls-7" d="M32.83,635.62c.15.1.29.2.44.29-.12.13-.24.34-.37.35-.13.01-.29-.17-.43-.27.12-.13.25-.25.37-.38Z"/>
  <path class="cls-5" d="M93.4,809.37c.37,4.16-1.72,6.3-5.46,5.6-1.87-.35-2.92-1.68-3.56-3.25-.86-2.11,1.94-1.87,2.31-3.26,2.34-.48,4.76-1.54,6.71.91Z"/>
  <path class="cls-7" d="M81.66,791.94c-.19,0-.39.07-.55.02-2.1-.68-2.27-1.93-.48-2.98,3.21-1.89,6.88-2.23,9.89-.1,1.24.87.36,3.08-2.06,2.88-2.35-3.22-4.56-1.16-6.79.18Z"/>
  <path class="cls-6" d="M85.22,807.73c-1.58-3.34-1.62-6.94.39-8.11,2.4-1.4,2.81,2.94,5.88,3.95-3.07.87-4.91,1.89-6.27,4.16Z"/>
  <path class="cls-3" d="M81.66,791.94c2.23-1.35,4.44-3.41,6.79-.18-2.18,2.98-4.41,4.46-6.79.18Z"/>
  <path class="cls-5" d="M72.1,570.6c-1.5.73-.94,4.24-3.85,2.97-2.72-1.19.25-2.95-.26-4.25-2.47-6.37-.7-12.16,1.05-18.41.72-2.57.06-6.9-1.13-10.25.29-2.22-2.68-2.35-2.77-4.32,3-2.85,1.38-6.08.75-9.22-.32-2.57-1.85-6.06-.73-7.55,4.02-5.37,1.59-11.3,2.55-16.85.76-.1,1.52-.21,2.28-.31.31.86,1.01,2.25,1.72,1.23,1.09-1.58.61-3.26-1.82-3.47-.7-2.19-4-2.73-3.25-6.02,1.2-5.25-2.51-9.13-3.75-13.72-.51.09-1.03.17-1.54.26.22,9.6.44,19.19.66,28.79-1.48,2.14-.99,4.57-1.17,6.94-.51,6.96,1.62,14.06-1.14,20.89-2.33.05-1.94-.97-1.65-2.84,1.17-7.68,2.29-15.45-3.1-22.28-1.9-2.41,1.34-4.51.2-7.43-2.46-6.28-1.43-13.45-4-19.86-.49-1.22-.42-2.61.33-3.81,2.83-4.57,2.83-9.89,4.19-14.82,1.77-6.45,1.61-11.71-2.58-17-.52-.66-1.65-3.77,1.92-4.65,3.85-.95,5.62-4.64,5.02-8.33-.68-4.22,1.92-8,.86-12.15-.25-.96.95-1.48,1.85-1.81,1.3,4.11-.21,8.15-.39,12.22-.54,12.42,1.55,24.84-.2,37.25-.25,1.81-.75,3.87,1.34,4.97,1.06.56,2.25,0,3.06-.84,1.33-1.37,2.1-2.68,1.34-4.95-1.06-3.2-2.31-6.85-1.73-9.98,1.92-10.35,0-20.72.79-31.08.28-3.75,2.14-7.67.49-11.56-1.38-3.63,1.24-7.86-1.69-11.26-.1-8.91.84-17.75,1.6-26.6.66-.1,1.31-.2,1.97-.31.14.78.28,1.56.41,2.34-1.61,5.63-1.1,11.3.08,16.89.32,1.53,1.28,2.91-.83,3.63-4.6,1.58,1.47,3.3-.09,5.18-.67.81.66,1.6,1.68,1.31,1.97-.56,2.19-2.41,2.56-4.02.44-1.9,0-3.7-1.05-5.37-.49-.79-1.1-2.01-.13-2.48,5.21-2.52,5-8.06,4.71-11.85-.41-5.42,2.09-6.17,5.85-6.44,2-.14,4.09.92,6.09.76,3.68-.29,8.16.22,8.56-5.42,2.28-3.3-2.36-7.97,2.79-11.21.79,17.46-3.68,34.64.22,51.67-2.43.56-1.94-2.32-3.41-2.98-.1,2.49-.19,4.89-.28,7.3-.04,1,.67,2.56-1.01,2.53-.66-.01-1.3-1.52-1.98-2.4-.14,1.91-.33,3.73-.39,5.56-.16,4.77,1.22,5.65,5.96,3.87.11,3.05.22,6.1.33,9.15-3.05.27-5.57,1.32-5.77,4.84-.15,2.77.12,5.56.04,8.34-.14,4.94,3.57,9.69.51,14.86-.7,1.18,1.29,3,2.18,1.71,3.37-4.87,1.58,2.22,3.15,1.15.87-1.42-.75-3.32.71-4.71.68,2.86,1.28,5.77,3.85,6.35-6.19,6.14-2.62,13.92-3.14,20.9-2.66,1.41-.97,3.6-.94,5.46.08,4.78,4.86,8.02,4.33,13.03-.05.88-.1,1.75-.15,2.63-3.86,1.24-5.48,3.65-5.22,7.91.3,4.92,1.23,9.32,3.46,13.91,2.87,5.93.79,12.81,1.1,19.27-.25.91-.49,1.82-.74,2.73-2.1,4.05-4.83,7.61-8.33,10.56-.07-2.32-.13-4.63-.2-6.95,1.26-.43,3.82-.32,2.34-2.47-1.23-1.79,1.02-4.47-1.59-5.33-2.22-.73-.94,3.18-2.57,2.97-4.87-3.13.12-8.11-3-11.31-1.73-1.78-1.03-3.79-.89-5.81.1-1.41,2.17-2.83.61-4.05-1.37-1.06-3.26-.07-4.88.28-2.05.45-1.88,2.07-1.58,3.58,1.07,5.51-2.1,8.69-6.15,11.42-1.11.88-.89,1.55.33,2.06.17.95.52,1.77,1.55,2.08.16,1.83.32,3.41-.97,5.24-2.47,3.51-4.6,7.34-5.31,11.73ZM69.97,443.24c-.13,1.1-.26,2.45.88,2.38,2.19-.13,2.84-2.24,3.6-3.86,3.18-6.85,5.18-13.88,3.66-21.61-.52-2.64-.88-3.9-3.8-2.44-2.13,1.06-3.51,2.32-4.25,4.75-2.15,7.02-.33,13.97-.08,20.78ZM96.86,381.82c-.08.34-.32.77-.2.99.12.21.62.2.96.28.08-.34.33-.77.2-.98-.12-.21-.62-.2-.96-.29Z"/>
  <path class="cls-8" d="M67.43,418.35c1.65,3.89-.21,7.81-.49,11.56-.78,10.35,1.13,20.73-.79,31.08-.58,3.13.66,6.79,1.73,9.98.76,2.28-.01,3.59-1.34,4.95-.81.83-2,1.4-3.06.84-2.09-1.1-1.59-3.16-1.34-4.97,1.74-12.41-.34-24.83.2-37.25.18-4.07,1.69-8.11.39-12.22-.18-2.03.71-3.32,2.67-3.88.67-.03,1.35-.07,2.02-.1Z"/>
  <path class="cls-8" d="M65.89,527.13c.63,3.15,2.24,6.37-.75,9.22-1.75.65-3.5,1.31-5.26,1.96l-.03-.03c-.03-.33-.09-.65-.16-.98,2.76-6.83.63-13.93,1.14-20.89.17-2.37-.31-4.8,1.17-6.94,0,0-.05-.03-.05-.03,1.77,5.08.28,10.47,1.47,15.6.31,1.33-.09,3.45,2.47,2.09Z"/>
  <path class="cls-11" d="M67.43,418.35c-.67.03-1.35.07-2.02.1-.56-3.71-1.12-7.42-1.67-11.13.67-.08,1.34-.15,2-.23,2.93,3.4.32,7.63,1.69,11.26Z"/>
  <path class="cls-5" d="M60,546.25c.2,1.71,1.01,3.46-.27,5.1-.25-1.71-1.23-3.47.27-5.1Z"/>
  <path class="cls-5" d="M59.88,538.31c-.19.66-.38,1.32-.57,1.98-.25-.12-.5-.23-.74-.35.43-.55.85-1.11,1.28-1.66,0,0,.03.03.03.03Z"/>
  <path class="cls-2" d="M97.15,374.7c-.4,5.65-4.88,5.13-8.56,5.42-2,.16-4.09-.9-6.09-.76-3.76.27-6.26,1.02-5.85,6.44.28,3.79.49,9.33-4.71,11.85-.97.47-.36,1.69.13,2.48,1.04,1.67,1.48,3.47,1.05,5.37-.37,1.61-.59,3.47-2.56,4.02-1.03.29-2.35-.5-1.68-1.31,1.56-1.88-4.51-3.6.09-5.18,2.11-.72,1.15-2.1.83-3.63-1.18-5.6-1.69-11.26-.08-16.89,8.32-4.94,8.6-6.12,3.7-14.45-.35-.59-.25-1.44-.35-2.18,6.92-1.78,6.93-1.81,4.88-7.12-.18-.47-.26-1.36,0-1.56,4.01-3.06.34-6.1.04-9.14,1.71-.39,2.27.77,2.83,2.02,1.69,3.8,1.92,8.25,7.45,9.76,2.2.6,2.02,5.44,1.88,8.3-.26,5.35,2.22,6.99,7.01,6.55ZM81.02,375.54c.96-3.08,2.15-4.93,1.93-7.99-2.72,2.23-3.6,4.17-1.93,7.99Z"/>
  <path class="cls-5" d="M77.98,348.07c.3,3.03,3.97,6.08-.04,9.14-.26.19-.17,1.09,0,1.56,2.05,5.31,2.04,5.35-4.88,7.12-.14-.47-.27-.94-.41-1.41-.26-.65-.51-1.3-.77-1.95-1.1.61-.27,1.5-.31,2.26-1.36,3.26-.64,6.86-1.82,10.21-1.86-6.91-.09-13.82-.22-20.7-.12-6.74,1.09-13.41-.53-20.35-1.6-6.87-.78-14.31-1.02-21.5.52-.05,1.05-.1,1.57-.15.47,5.63.98,11.26,1.39,16.89.16,2.26-1,4.6,2.4,5.97,2.45.99,1.22,3.84.05,5.2-3.98,4.64.33,5.81,2.95,7.7.36.26,1.1,0,1.66,0Z"/>
  <path class="cls-2" d="M103.48,553.86c-.31-6.46,1.77-13.34-1.1-19.27-2.23-4.59-3.15-8.99-3.46-13.91-.26-4.26,1.36-6.67,5.22-7.91,1.95,5.04,2.21,10.4,2.86,15.68-3.35,4.91-1.5,8.3,3.18,10.86,2.16-1.59-.36-4.29,1.42-5.97,0,0-.02,0-.02,0,.54,1.91-.51,4.53,2.39,5.4,1.07.99,1.42,2.04.3,3.23-2.36,1.69-2.8,5.87-7.23,5.09-1.23-.22-.93,2.1-.74,3.31.34,2.27-.31,3.6-2.82,3.5Z"/>
  <path class="cls-2" d="M100.2,464.39c-1.47,1.39.15,3.28-.71,4.71-1.57,1.07.22-6.02-3.15-1.15-.89,1.28-2.88-.53-2.18-1.71,3.06-5.17-.65-9.92-.51-14.86.08-2.78-.2-5.57-.04-8.34.2-3.53,2.71-4.57,5.77-4.84-2.22,8.81-.44,17.49.83,26.19Z"/>
  <path class="cls-13" d="M110.07,412.25c-1.55,3.3-.6,6.76-.74,10.16-.07,1.64,1.31,3.75-1.26,4.74.08-7.06-3.11-13.79-2.73-20.7.35-6.28.44-12.59,1.1-18.86.04-.41,1.13-.71,1.73-1.06.46,5.56.92,11.11,1.37,16.67-1.25,2.77-.48,5.41.55,8.02-.09.34-.1.69-.03,1.03Z"/>
  <path class="cls-2" d="M99.04,429.05c-4.74,1.78-6.12.9-5.96-3.87.06-1.83.25-3.65.39-5.56.69.88,1.32,2.39,1.98,2.4,1.68.03.97-1.53,1.01-2.53.09-2.4.19-4.81.28-7.3,1.47.66.98,3.54,3.41,2.98,1.16,4.75,1.23,9.41-1.12,13.88Z"/>
  <path class="cls-13" d="M108.18,428.96c1.7,1.52,1.84,3.63,1.9,5.65.36,11.47.62,22.93.92,34.4-2.43-4.18-1.89-8.9-2.44-13.42-.16-1.28.55-3.27-.09-3.8-4.02-3.37.29-6.77-.06-10.2-.42-4.07-1.61-8.42-.23-12.63Z"/>
  <path class="cls-2" d="M104.29,510.14c.54-5-4.24-8.25-4.33-13.03-.03-1.87-1.72-4.06.94-5.46,3,3.51,6.76,6.66,5.2,12.19-.19.69.38,1.75.87,2.45,2.72,3.85-.1,3.76-2.69,3.86Z"/>
  <path class="cls-13" d="M104.36,362.46c.93,4.24,1.54,8.57,3.31,12.59.11,3.1.21,6.2.32,9.3-1.23-.1-2.55-.93-2.44-1.86.8-6.76-3.08-13.23-1.18-20.03Z"/>
  <path class="cls-13" d="M106.12,345.66c1.8,5.87.13,11.38-1.77,16.87-2.73-4.03-2.35-8.02.39-11.81,1.15-1.59-3.39-4.6,1.39-5.06Z"/>
  <path class="cls-5" d="M110.18,539.32c-4.68-2.56-6.54-5.95-3.18-10.86,1.06,3.62,2.12,7.24,3.18,10.86Z"/>
  <path class="cls-5" d="M70.9,290.8c.05.35.13.7.24,1.04.03.76.05,1.52.08,2.28-.19.78-.38,1.56-.58,2.33-.99,2.35.99,5.6-2.23,7.27l.03.02c.12-4.45-.83-9.1,2.45-12.95Z"/>
  <path class="cls-6" d="M70.64,296.45c.19-.78.39-1.56.58-2.33,2.2,1.37.88,1.87-.58,2.33Z"/>
  <path class="cls-2" d="M69.3,380.18c-.66.1-1.31.21-1.97.31-.07-.85-.27-1.88.98-1.84.35.01.66,1,.99,1.53Z"/>
  <path class="cls-2" d="M71.57,364.79c.04-.76-.79-1.65.31-2.26.26.65.51,1.3.77,1.95-.36.1-.72.21-1.08.31Z"/>
  <path class="cls-5" d="M68.42,303.72c-.05.14-.11.29-.16.43.06-.14.13-.27.19-.41,0,0-.03-.02-.03-.02Z"/>
  <path class="cls-5" d="M110.1,411.22c-1.03-2.61-1.81-5.25-.55-8.02,3.35,2.45,1.24,5.29.55,8.02Z"/>
  <path class="cls-5" d="M91.42,627.05c-2.72,1.72-5.57,2.74-8.81,1.61,1.41-.36,2.83-.72,5.25-1.34-3.17-.5-5.33-.9-7.51-1.17-5.81-.72-8.2-6.01-5.24-11.66,1.55,1.1,1.45,2.66,1.65,4.38.33,2.81,3.16,2.04,5,2.35,1.8.3,2.11-1.45,2.06-2.66-.17-4.58-4.18-7.38-8.73-6.26-.07-4.34.64-8.18,5.5-9.84,4.66-1.59,8.93-2.06,12.04,2.83.75,1.19,2.04,2.26,3.03.58.82-1.4,2.93-2.92,1.06-4.93-1.52-1.64-3.25-3.08-4.83-4.66-1.52-1.53-1.85-3.37-.42-5.02,1.45-1.67,3.28-1.49,5.03-.22,3.09,2.24,3.97,5.12,3.08,8.85-.49,2.06-1.98,5.17,2.51,5.03.86-.03,1.45.57,1.08,1.46-1.64,3.95-3.33,7.76-1.02,12.19.44.84-.89,3.37-3.15,2.95-4.55-.85-5.97,2.44-7.59,5.52Z"/>
  <path class="cls-9" d="M72.1,570.6c.71-4.39,2.84-8.22,5.31-11.73,1.29-1.84,1.13-3.41.97-5.24,3.88-.57,5.79,2.61,8.27,4.54,2.33,1.82,4.6,3.01,7.58,2.03.07,2.32.13,4.63.2,6.95.04.68.08,1.37.12,2.05-3.15,1.12-3.53,3.63-3.24,6.48l.59,2.3c-.3.49-.6.99-.91,1.48-2.74-.83-6.12,2.21-8.24-.66-2.66-3.61-6.01-4.11-9.92-3.79-.24-1.47-.48-2.94-.72-4.41Z"/>
  <path class="cls-13" d="M62.19,592.87c1.11,4.58,3.33,8.91,1.14,13.97-.74,1.72-.16,4.92,1.06,6.39,3.49,4.2,1.96,8.15.49,12.29-2.84.51-5.49-.5-8.21-1.03-3.85-.75-5.14-2.24-3.67-6.5,2.38-6.86,6.02-13.38,6.3-20.88,1.85-.81.75-3.63,2.88-4.25Z"/>
  <path class="cls-1" d="M59.31,597.12c-.28,7.5-3.93,14.03-6.3,20.88-1.48,4.26-.18,5.75,3.67,6.5,2.72.53,5.36,1.53,8.21,1.03.13,1.08.26,2.16.4,3.25-.69.23-1.39.46-2.09.68-7.06-1.02-14.3-1.32-20.78-4.82,7.66-7.38,12.31-16.37,14.43-26.75.32-1.58.08-3.45,1.72-4.57.25,1.27.5,2.54.75,3.81Z"/>
  <path class="cls-5" d="M72.82,575.01c3.9-.32,7.26.18,9.92,3.79,2.12,2.87,5.5-.17,8.24.66,0,2.22-.48,4.1-3.02,4.71-3.09.74-5.58-.51-7.39-2.77-1.21-1.51-2.26-3.33-4.3-3.01-2.52.39-1.85,3-2.05,4.61-.4,3.19-2.31,4.63-5.05,5.08-1.78.29-2.74-1.13-2.79-2.8-.09-2.72.96-4.68,3.98-5.08,3.4-.46,2.12-3.22,2.46-5.18Z"/>
  <path class="cls-5" d="M70.66,597.65c.56-3.25,2.63-5.41,5.74-5.77,1.6-.19,4.34-.55,4.91,2.28.45,2.24-4.22,6.92-6.89,7.02-2.37.09-2.99-1.73-3.76-3.52Z"/>
  <path class="cls-2" d="M91.89,577.98c-.2-.77-.39-1.53-.59-2.3,2.88-1.26,4.05-3.37,3.24-6.48-.04-.69-.08-1.37-.12-2.05,3.5-2.95,6.22-6.51,8.33-10.56.17.09.47.16.48.26.4,4.4-7.31,18.74-11.34,21.13Z"/>
  <path class="cls-9" d="M75.09,612.3c4.55-1.12,8.56,1.68,8.73,6.26.04,1.21-.26,2.96-2.06,2.66-1.84-.31-4.67.47-5-2.35-.2-1.72-.11-3.28-1.65-4.38,0-.73-.01-1.46-.02-2.19Z"/>
  <path class="cls-5" d="M100.62,578.73c2.4.45,3.83,1.87,4.27,4.37.38,2.17-.58,3.1-2.64,3.25-2.66.19-3.8-1.36-3.75-3.66.03-1.46-.38-3.55,2.12-3.96Z"/>
  <path class="cls-6" d="M59.31,597.12c-.25-1.27-.5-2.54-.75-3.81,1.13-3.13-.5-7.09,2.85-9.55.42,3.02,3.72,5.8.77,9.11-2.12.63-1.02,3.44-2.87,4.25Z"/>
  <path class="cls-8" d="M113.97,538.74c-2.9-.87-1.85-3.49-2.39-5.4,2.38,1.1,1.41,3.68,2.39,5.4Z"/>
  <path class="cls-10" d="M94.22,560.2c-2.97.98-5.24-.21-7.58-2.03-2.48-1.93-4.38-5.11-8.27-4.54-1.03-.31-1.38-1.13-1.55-2.08-.11-.69-.22-1.37-.33-2.06,4.06-2.72,7.22-5.91,6.15-11.42-.29-1.51-.47-3.13,1.58-3.58,1.62-.36,3.52-1.35,4.88-.28,1.56,1.22-.51,2.64-.61,4.05-.14,2.02-.84,4.02.89,5.81,3.12,3.21-1.87,8.19,3,11.31,1.62.22.35-3.7,2.57-2.97,2.61.86.36,3.54,1.59,5.33,1.48,2.15-1.08,2.04-2.34,2.47Z"/>
  <path class="cls-8" d="M69.97,443.24c-.24-6.81-2.06-13.76.08-20.78.74-2.43,2.13-3.69,4.25-4.75,2.92-1.46,3.28-.2,3.8,2.44,1.52,7.74-.48,14.76-3.66,21.61-.75,1.63-1.41,3.73-3.6,3.86-1.14.07-1.01-1.28-.88-2.38Z"/>
  <path class="cls-8" d="M69.99,502.41c-.76.1-1.52.21-2.28.31-.43-2.39-2.37-2.18-3.87-1.83-1.45.34-.47,1.84-.59,2.82-.25,1.95.11,4.04-1.3,5.73,0,0,.05.03.05.03-.22-9.6-.44-19.19-.66-28.79.51-.09,1.03-.17,1.54-.26,1.24,4.59,4.95,8.47,3.75,13.72-.75,3.29,2.55,3.83,3.24,6.02.03.75.07,1.5.11,2.25Z"/>
  <path class="cls-2" d="M61.95,509.44c1.41-1.69,1.06-3.78,1.3-5.73.12-.98-.86-2.48.59-2.82,1.5-.35,3.44-.56,3.87,1.83-.97,5.56,1.47,11.48-2.55,16.85-1.12,1.5.42,4.98.73,7.55-2.56,1.36-2.17-.75-2.47-2.09-1.18-5.14.31-10.52-1.47-15.6Z"/>
  <path class="cls-2" d="M69.99,502.41c-.04-.75-.07-1.5-.11-2.25,2.43.21,2.92,1.9,1.82,3.47-.71,1.02-1.41-.36-1.72-1.23Z"/>
  <path class="cls-2" d="M96.87,381.82c.34.09.83.08.96.29.13.21-.12.65-.2.98-.33-.08-.84-.07-.96-.28-.13-.22.12-.65.2-.99Z"/>
  <path class="cls-9" d="M76.5,549.49c.11.69.22,1.37.33,2.06-1.22-.51-1.44-1.18-.33-2.06Z"/>
  <path class="cls-5" d="M81.02,375.54c-1.68-3.81-.79-5.76,1.93-7.99.23,3.05-.96,4.91-1.93,7.99Z"/>
  <path class="cls-5" d="M94.54,569.2c.81,3.11-.36,5.22-3.24,6.48-.29-2.85.08-5.36,3.24-6.48Z"/>
</svg>